<svg width="20" height="20" viewBox="0 0 20 20" fill="none" xmlns="http://www.w3.org/2000/svg">
<path d="M2.92895 2.92896C1.1193 4.7386 0 7.2386 0 10H10L2.92895 2.92896Z" fill="#ED3D6D"/>
<path d="M10 0C7.2386 0 4.73856 1.1193 2.92896 2.92895L10 10V0Z" fill="#EDF6FF"/>
<path d="M0 10C0 12.7614 1.1193 15.2614 2.92895 17.0711L10 10H0Z" fill="#EDF6FF"/>
<path d="M2.92896 17.0711C4.73856 18.8807 7.2386 20 10 20V10L2.92896 17.0711Z" fill="#ED3D6D"/>
<path d="M20 10C20 7.2386 18.8807 4.7386 17.0711 2.92896L10 10H20Z" fill="#D7E9FE"/>
<path d="M17.0711 2.92895C15.2614 1.1193 12.7614 0 10 0V10L17.0711 2.92895Z" fill="#BD3165"/>
<path d="M10 20C12.7614 20 15.2614 18.8807 17.0711 17.0711L10 10V20Z" fill="#D7E9FE"/>
<path d="M10 10L17.0711 17.0711C18.8807 15.2614 20 12.7614 20 10H10Z" fill="#BD3165"/>
<path d="M9.99996 17.0331C6.11566 17.0331 2.9668 13.8843 2.9668 9.99996C2.9668 6.11566 6.11566 2.9668 9.99996 2.9668C13.8843 2.9668 13.8843 17.0331 9.99996 17.0331Z" fill="#BD3165"/>
<path d="M10 2.9668V17.0331C13.8843 17.0331 17.0332 13.8843 17.0332 9.99996C17.0332 6.11566 13.8843 2.9668 10 2.9668Z" fill="#622A66"/>
<path d="M9.99996 14.7919C7.35344 14.7919 5.20801 12.6465 5.20801 9.99996C5.20801 7.35344 7.35344 5.20801 9.99996 5.20801C12.6465 5.20801 12.6465 14.7919 9.99996 14.7919Z" fill="#EDF6FF"/>
<path d="M10 5.20801V14.7919C12.6465 14.7919 14.792 12.6465 14.792 9.99996C14.792 7.35344 12.6465 5.20801 10 5.20801Z" fill="#D7E9FE"/>
<path d="M10.405 12.0448L10.3999 12.6811L9.59158 12.6746L9.5965 12.0669C9.0235 12.0279 8.46869 11.8686 8.12646 11.6537L8.57006 10.6712C8.94662 10.8979 9.4499 11.0452 9.89131 11.0488C10.2754 11.0519 10.4137 10.9728 10.4147 10.8352C10.4188 10.3307 8.19705 10.7198 8.20912 9.22358C8.21436 8.57577 8.68877 8.03499 9.63002 7.91077L9.63506 7.28589L10.4433 7.29241L10.4384 7.90581C10.8623 7.94937 11.2742 8.06167 11.5994 8.24776L11.1845 9.22476C10.7906 9.02089 10.4187 8.92042 10.069 8.91761C9.6735 8.9144 9.54643 9.02804 9.54533 9.16565C9.54143 9.64718 11.7632 9.26386 11.7513 10.7428C11.7463 11.3619 11.2948 11.8972 10.405 12.0448Z" fill="#BD3165"/>
<path d="M10.405 12.0449C11.2948 11.8973 11.7463 11.362 11.7513 10.7429C11.7598 9.69553 10.6482 9.58209 10 9.43408V10.5626C10.2459 10.6243 10.4159 10.6954 10.4148 10.8353C10.4138 10.9589 10.3014 11.0351 10 11.0471V12.6779L10.3998 12.6812L10.405 12.0449Z" fill="#622A66"/>
<path d="M11.1845 9.22472L11.5995 8.24772C11.2742 8.06163 10.8623 7.94933 10.4384 7.90577L10.4434 7.29237L10 7.28882V8.91831C10.0221 8.91765 10.045 8.91737 10.0691 8.91757C10.4188 8.92038 10.7906 9.02085 11.1845 9.22472Z" fill="#622A66"/>
</svg>
