<svg width="59" height="63" viewBox="0 0 59 63" fill="none" xmlns="http://www.w3.org/2000/svg">
<path d="M9 0H45V36H54L27.5 63L0 36H9V0Z" fill="url(#paint0_linear)"/>
<path d="M27.3851 57.5881L7.95171 38.5714H12.6667H13.6667V37.5714V12H40.3333V37.5714V38.5714H41.3333H46.1118L27.3851 57.5881Z" stroke="white" stroke-opacity="0.284" stroke-width="2"/>
<rect x="13" y="4" width="4" height="4" rx="1" fill="white" fill-opacity="0.248"/>
<rect x="19" y="4" width="4" height="4" rx="1" fill="white" fill-opacity="0.248"/>
<rect x="25" y="4" width="4" height="4" rx="1" fill="white" fill-opacity="0.248"/>
<rect x="31" y="4" width="4" height="4" rx="1" fill="white" fill-opacity="0.248"/>
<rect x="37" y="4" width="4" height="4" rx="1" fill="white" fill-opacity="0.248"/>
<circle cx="43" cy="46" r="16" fill="url(#paint1_linear)"/>
<circle cx="43" cy="46" r="11.5" stroke="white" stroke-opacity="0.504"/>
<path d="M41.8984 39.0978V38.0303C41.8984 37.5152 42.3307 37 42.9362 37C43.4547 37 43.9736 37.4293 43.9736 38.0303V39.0672C44.7243 39.2356 45.3694 39.6341 45.8761 40.2627C46.3084 40.6061 46.2219 41.2929 45.7895 41.5505C45.4437 41.8081 44.9248 41.7222 44.6656 41.3788C44.4925 41.2071 44.4059 41.1212 44.2332 41.0354C43.9736 40.8637 43.6278 40.7778 43.1954 40.7778C42.6765 40.7778 42.2442 40.9495 41.8984 41.2071C41.5526 41.4647 41.3795 41.894 41.3795 42.3232C41.3795 42.9243 41.8118 43.4394 42.7631 43.7828L44.0601 44.298C45.0979 44.7273 45.8761 45.2424 46.3084 45.8434C46.8273 46.4444 47 47.1313 47 48.0758C47 49.2778 46.5677 50.2222 45.7895 50.9949C45.2698 51.5109 44.6732 51.8355 43.9736 51.9942V52.9697C43.9736 53.4849 43.5412 54 42.9362 54C42.4173 54 41.8984 53.5707 41.8984 52.9697V52.0197C41.2114 51.8805 40.6258 51.5864 40.0824 51.1666C39.5635 50.7373 39.2178 50.1363 39.0451 49.5353C38.872 49.0202 39.2178 48.4192 39.7367 48.2475C40.2556 48.1616 40.7745 48.4192 40.8606 48.9343C40.9471 49.1919 41.0337 49.4495 41.1202 49.5353C41.5526 50.0505 42.0715 50.3939 42.8496 50.3939C43.4547 50.3939 43.9736 50.2222 44.3194 49.7929C44.7517 49.3636 44.9248 48.8485 44.9248 48.2475C44.9248 47.9899 44.9248 47.8182 44.8383 47.5606L44.7998 47.48L44.7758 47.4262C44.7061 47.2715 44.6246 47.0906 44.4925 46.9596L44.4899 46.957C44.3177 46.7862 44.1454 46.6153 43.887 46.4444C43.7207 46.3344 43.5543 46.2596 43.3656 46.1748L43.3618 46.1729C43.2562 46.126 43.1448 46.076 43.0223 46.0151L41.8118 45.5C40.0824 44.7273 39.2178 43.697 39.2178 42.3232C39.2178 41.3788 39.5635 40.6061 40.3421 39.9192C40.769 39.4954 41.2942 39.235 41.8984 39.0978Z" fill="white" fill-opacity="0.712"/>
<rect x="18" y="17" width="16" height="2" fill="#A4DCF6"/>
<rect x="18" y="22" width="13" height="2" fill="#A4DCF6"/>
<rect x="18" y="27" width="10" height="2" fill="#A4DCF6"/>
<defs>
<linearGradient id="paint0_linear" x1="27.0436" y1="0.00812294" x2="27.0436" y2="62.9652" gradientUnits="userSpaceOnUse">
<stop stop-color="#98DBF5"/>
<stop offset="0.0776769" stop-color="#8BD7F5"/>
<stop offset="0.7147" stop-color="#28B9F3"/>
<stop offset="1" stop-color="#00ADF2"/>
</linearGradient>
<linearGradient id="paint1_linear" x1="43.0133" y1="29.9867" x2="43.0133" y2="61.969" gradientUnits="userSpaceOnUse">
<stop stop-color="#FFD02E"/>
<stop offset="1" stop-color="#FFAB17"/>
</linearGradient>
</defs>
</svg>
