<?xml version="1.0" encoding="utf-8"?>
<!-- Generator: Adobe Illustrator 22.0.1, SVG Export Plug-In . SVG Version: 6.00 Build 0)  -->
<svg version="1.1" id="Layer_1" xmlns="http://www.w3.org/2000/svg" xmlns:xlink="http://www.w3.org/1999/xlink" x="0px" y="0px"
	 viewBox="0 0 74 83.6" style="enable-background:new 0 0 74 83.6;" xml:space="preserve">
<style type="text/css">
	.st0{fill:url(#SVGID_1_);}
	.st1{opacity:0.3;}
	.st2{fill:#FFFFFF;}
	.st3{fill:url(#SVGID_2_);}
	.st4{opacity:0.7;}
	.st5{fill:none;stroke:#FFFFFF;stroke-width:2;stroke-miterlimit:10;stroke-dasharray:5.9102,7.8803;}
</style>
<linearGradient id="SVGID_1_" gradientUnits="userSpaceOnUse" x1="31.8481" y1="0" x2="31.8481" y2="81.0253">
	<stop  offset="0" style="stop-color:#98DBF5"/>
	<stop  offset="7.767689e-02" style="stop-color:#8BD7F5"/>
	<stop  offset="0.7147" style="stop-color:#28B9F3"/>
	<stop  offset="1" style="stop-color:#00ADF2"/>
</linearGradient>
<path class="st0" d="M58.7,81H5c-2.8,0-5-2.2-5-5V5c0-2.8,2.2-5,5-5h53.7c2.8,0,5,2.2,5,5v71C63.7,78.8,61.5,81,58.7,81z"/>
<g class="st1">
	<path class="st2" d="M53,19.1H10.7c-1.7,0-3-1.3-3-3v-5.5c0-1.7,1.3-3,3-3H53c1.7,0,3,1.3,3,3v5.5C56,17.7,54.6,19.1,53,19.1z"/>
	<g>
		<g>
			<path class="st2" d="M12.1,33.9L12.1,33.9c-2.4,0-4.3-1.9-4.3-4.3v0c0-2.4,1.9-4.3,4.3-4.3h0c2.4,0,4.3,1.9,4.3,4.3v0
				C16.4,32,14.4,33.9,12.1,33.9z"/>
			<path class="st2" d="M25.3,33.9L25.3,33.9c-2.4,0-4.3-1.9-4.3-4.3v0c0-2.4,1.9-4.3,4.3-4.3h0c2.4,0,4.3,1.9,4.3,4.3v0
				C29.6,32,27.6,33.9,25.3,33.9z"/>
			<path class="st2" d="M38.4,33.9L38.4,33.9c-2.4,0-4.3-1.9-4.3-4.3v0c0-2.4,1.9-4.3,4.3-4.3h0c2.4,0,4.3,1.9,4.3,4.3v0
				C42.8,32,40.8,33.9,38.4,33.9z"/>
			<path class="st2" d="M51.6,33.9L51.6,33.9c-2.4,0-4.3-1.9-4.3-4.3v0c0-2.4,1.9-4.3,4.3-4.3h0c2.4,0,4.3,1.9,4.3,4.3v0
				C56,32,54,33.9,51.6,33.9z"/>
		</g>
		<g>
			<path class="st2" d="M12.1,47.1L12.1,47.1c-2.4,0-4.3-1.9-4.3-4.3v0c0-2.4,1.9-4.3,4.3-4.3h0c2.4,0,4.3,1.9,4.3,4.3v0
				C16.4,45.2,14.4,47.1,12.1,47.1z"/>
			<path class="st2" d="M25.3,47.1L25.3,47.1c-2.4,0-4.3-1.9-4.3-4.3v0c0-2.4,1.9-4.3,4.3-4.3h0c2.4,0,4.3,1.9,4.3,4.3v0
				C29.6,45.2,27.6,47.1,25.3,47.1z"/>
			<path class="st2" d="M38.4,47.1L38.4,47.1c-2.4,0-4.3-1.9-4.3-4.3v0c0-2.4,1.9-4.3,4.3-4.3h0c2.4,0,4.3,1.9,4.3,4.3v0
				C42.8,45.2,40.8,47.1,38.4,47.1z"/>
			<path class="st2" d="M51.6,47.1L51.6,47.1c-2.4,0-4.3-1.9-4.3-4.3v0c0-2.4,1.9-4.3,4.3-4.3h0c2.4,0,4.3,1.9,4.3,4.3v0
				C56,45.2,54,47.1,51.6,47.1z"/>
		</g>
		<g>
			<path class="st2" d="M12.1,60.3L12.1,60.3c-2.4,0-4.3-1.9-4.3-4.3v0c0-2.4,1.9-4.3,4.3-4.3h0c2.4,0,4.3,1.9,4.3,4.3v0
				C16.4,58.4,14.4,60.3,12.1,60.3z"/>
			<path class="st2" d="M25.3,60.3L25.3,60.3c-2.4,0-4.3-1.9-4.3-4.3v0c0-2.4,1.9-4.3,4.3-4.3h0c2.4,0,4.3,1.9,4.3,4.3v0
				C29.6,58.4,27.6,60.3,25.3,60.3z"/>
			<path class="st2" d="M38.4,60.3L38.4,60.3c-2.4,0-4.3-1.9-4.3-4.3v0c0-2.4,1.9-4.3,4.3-4.3h0c2.4,0,4.3,1.9,4.3,4.3v0
				C42.8,58.4,40.8,60.3,38.4,60.3z"/>
			<path class="st2" d="M51.6,60.3L51.6,60.3c-2.4,0-4.3-1.9-4.3-4.3v0c0-2.4,1.9-4.3,4.3-4.3h0c2.4,0,4.3,1.9,4.3,4.3v0
				C56,58.4,54,60.3,51.6,60.3z"/>
		</g>
		<g>
			<path class="st2" d="M12.1,73.5L12.1,73.5c-2.4,0-4.3-1.9-4.3-4.3v0c0-2.4,1.9-4.3,4.3-4.3h0c2.4,0,4.3,1.9,4.3,4.3v0
				C16.4,71.5,14.4,73.5,12.1,73.5z"/>
			<path class="st2" d="M25.3,73.5L25.3,73.5c-2.4,0-4.3-1.9-4.3-4.3v0c0-2.4,1.9-4.3,4.3-4.3h0c2.4,0,4.3,1.9,4.3,4.3v0
				C29.6,71.5,27.6,73.5,25.3,73.5z"/>
			<path class="st2" d="M38.4,73.5L38.4,73.5c-2.4,0-4.3-1.9-4.3-4.3v0c0-2.4,1.9-4.3,4.3-4.3h0c2.4,0,4.3,1.9,4.3,4.3v0
				C42.8,71.5,40.8,73.5,38.4,73.5z"/>
			<path class="st2" d="M51.6,73.5L51.6,73.5c-2.4,0-4.3-1.9-4.3-4.3v0c0-2.4,1.9-4.3,4.3-4.3h0c2.4,0,4.3,1.9,4.3,4.3v0
				C56,71.5,54,73.5,51.6,73.5z"/>
		</g>
	</g>
</g>
<linearGradient id="SVGID_2_" gradientUnits="userSpaceOnUse" x1="51.9873" y1="39.576" x2="51.9873" y2="83.6013">
	<stop  offset="0" style="stop-color:#FFD02E"/>
	<stop  offset="1" style="stop-color:#FFAB17"/>
</linearGradient>
<circle class="st3" cx="52" cy="61.6" r="22"/>
<g class="st4">
	<circle class="st5" cx="52" cy="61.6" r="17.6"/>
</g>
<g class="st1">
	<g>
		<path class="st2" d="M55.8,56.8L55.8,56.8c-0.5,0.3-1.2,0.2-1.5-0.3c-0.2-0.2-0.4-0.4-0.5-0.5c-0.4-0.2-0.8-0.4-1.4-0.4
			c-0.7,0-1.3,0.2-1.8,0.6c-0.5,0.4-0.7,0.9-0.7,1.5c0,0.8,0.6,1.5,1.9,2l1.7,0.7c1.4,0.6,2.4,1.2,3,2.1c0.6,0.8,1,1.8,1,3
			c0,1.6-0.5,2.9-1.6,3.9c-1.1,1-2.4,1.5-3.9,1.5c-1.5,0-2.7-0.4-3.7-1.3c-0.6-0.6-1.1-1.3-1.4-2.3c-0.3-0.7,0.2-1.6,1-1.7h0
			c0.7-0.2,1.4,0.3,1.5,1c0.1,0.4,0.2,0.6,0.4,0.8c0.5,0.7,1.3,1.1,2.3,1.1c0.8,0,1.5-0.3,2-0.8c0.5-0.5,0.8-1.2,0.8-2
			c0-0.3,0-0.6-0.1-0.9c-0.1-0.3-0.2-0.5-0.4-0.8c-0.2-0.2-0.4-0.4-0.8-0.7c-0.3-0.2-0.7-0.4-1.1-0.6l-1.6-0.7
			c-2.3-1-3.5-2.4-3.5-4.3c0-1.3,0.5-2.4,1.5-3.2c1-0.9,2.2-1.3,3.7-1.3c1.5,0,2.8,0.6,3.8,1.7C56.5,55.5,56.4,56.4,55.8,56.8z"/>
	</g>
	<path class="st2" d="M52,73.5c-0.7,0-1.4-0.6-1.4-1.4v-1.5c0-0.7,0.6-1.4,1.4-1.4c0.7,0,1.4,0.6,1.4,1.4v1.5
		C53.3,72.9,52.7,73.5,52,73.5z"/>
	<path class="st2" d="M52,54.9c-0.7,0-1.4-0.6-1.4-1.4V52c0-0.7,0.6-1.4,1.4-1.4c0.7,0,1.4,0.6,1.4,1.4v1.5
		C53.3,54.3,52.7,54.9,52,54.9z"/>
</g>
</svg>
