<svg width="64" height="64" viewBox="0 0 64 64" fill="none" xmlns="http://www.w3.org/2000/svg">
<circle cx="32" cy="32" r="32" fill="url(#paint0_linear)"/>
<path fill-rule="evenodd" clip-rule="evenodd" d="M48.4555 26.9298C46.2422 26.9298 44.4479 28.7241 44.4479 30.9374V53.9203L42.4442 54.9222V30.9374C42.4442 27.6174 45.1355 24.926 48.4555 24.926H51.7041V26.9298H48.4555Z" fill="#C1EAF9"/>
<path d="M56.8652 25.9278C56.8652 27.6381 55.4787 29.0246 53.7684 29.0246C52.0581 29.0246 50.6717 27.6381 50.6717 25.9278C50.6717 24.2175 52.0581 22.8311 53.7684 22.8311C55.4787 22.8311 56.8652 24.2175 56.8652 25.9278Z" fill="#C1EAF9"/>
<path d="M17.6397 13.5409C17.6397 15.2512 19.0261 16.6376 20.7364 16.6376C22.4467 16.6376 23.8332 15.2512 23.8332 13.5409C23.8332 11.8306 22.4467 10.4441 20.7364 10.4441C19.0261 10.4441 17.6397 11.8306 17.6397 13.5409Z" fill="#C1EAF9"/>
<path d="M17.6397 30.057C17.6397 31.7673 19.0261 33.1538 20.7364 33.1538C22.4467 33.1538 23.8332 31.7673 23.8332 30.057C23.8332 28.3467 22.4467 26.9602 20.7364 26.9602C19.0261 26.9602 17.6397 28.3467 17.6397 30.057Z" fill="#C1EAF9"/>
<path d="M16.6074 50.702C16.6074 52.4123 17.9939 53.7988 19.7042 53.7988C21.4145 53.7988 22.801 52.4123 22.801 50.702C22.801 48.9917 21.4145 47.6052 19.7042 47.6052C17.9939 47.6052 16.6074 48.9917 16.6074 50.702Z" fill="#C1EAF9"/>
<path fill-rule="evenodd" clip-rule="evenodd" d="M8.45756 38.2846H14.6942C16.9075 38.2846 18.7018 40.0788 18.7018 42.2921V49.6698H20.7055V42.2921C20.7055 38.9722 18.0142 36.2808 14.6942 36.2808H7.82635C8.00814 36.961 8.21901 37.6294 8.45756 38.2846Z" fill="#C1EAF9"/>
<path fill-rule="evenodd" clip-rule="evenodd" d="M31.0287 54.1024V18.5502C31.0287 15.2302 28.3373 12.5388 25.0173 12.5388H22.801V14.5426H25.0173C27.2306 14.5426 29.0249 16.3369 29.0249 18.5502V54.0176C29.6856 54.0729 30.3539 54.1015 31.0287 54.1024Z" fill="#C1EAF9"/>
<path fill-rule="evenodd" clip-rule="evenodd" d="M49.4817 14.6035H42.2617C38.9417 14.6035 36.2503 17.2949 36.2503 20.6149V53.5407C36.9294 53.3913 37.5978 53.2131 38.2541 53.0075V20.6149C38.2541 18.4016 40.0484 16.6073 42.2617 16.6073H50.994C50.5244 15.9127 50.0194 15.2439 49.4817 14.6035Z" fill="#C1EAF9"/>
<path fill-rule="evenodd" clip-rule="evenodd" d="M8.37964 22.047V26.0797C8.37964 29.3997 11.071 32.0911 14.391 32.0911H18.6719V30.0873H14.391C12.1777 30.0873 10.3834 28.293 10.3834 26.0797V17.7729C9.58234 19.1184 8.90885 20.5486 8.37964 22.047Z" fill="#C1EAF9"/>
<circle cx="32.0607" cy="32.0608" r="25.0493" stroke="#D4EEF9" stroke-width="2"/>
<defs>
<linearGradient id="paint0_linear" x1="32.0517" y1="0.00825187" x2="32.0517" y2="63.9647" gradientUnits="userSpaceOnUse">
<stop stop-color="#98DBF5"/>
<stop offset="0.0776769" stop-color="#8BD7F5"/>
<stop offset="0.7147" stop-color="#28B9F3"/>
<stop offset="1" stop-color="#00ADF2"/>
</linearGradient>
</defs>
</svg>
