<svg width="86" height="86" viewBox="0 0 86 86" fill="none" xmlns="http://www.w3.org/2000/svg">
<g clip-path="url(#clip0)">
<path d="M66.0481 12.6552V81.3882C66.0481 83.894 64.0793 85.863 61.5733 85.863H4.47486C1.96886 86.0419 0 84.0731 0 81.5672V12.6552C0 10.1493 1.96886 8.1803 4.47486 8.1803H61.5734C64.0793 8.1803 66.0481 10.3282 66.0481 12.6552Z" fill="#00ADF2"/>
<path d="M58.3521 15.34H7.69727V78.3453H58.3521V15.34Z" fill="white"/>
<path d="M47.2545 18.5617V8.71711C47.2545 7.28523 46.1806 6.21128 44.7487 6.21128H39.021C39.021 2.98942 36.3361 0.125488 32.9352 0.125488C29.7133 0.125488 27.0285 2.81037 27.0285 6.21128H21.3008C19.8689 6.21128 18.7949 7.28523 18.7949 8.71711V18.5617H47.2545ZM33.1141 4.06337C34.188 4.06337 35.262 4.95828 35.262 6.21128C35.262 7.28523 34.3671 8.35919 33.1141 8.35919C32.0401 8.35919 30.9662 7.46428 30.9662 6.21128C30.9662 4.95828 31.8612 4.06337 33.1141 4.06337Z" fill="#415A6B"/>
<path d="M23.8061 36.9961H13.9614V27.1515H23.8061V36.9961ZM15.0354 35.9222H22.911V28.0466H15.0354V35.9222Z" fill="#CED6E0"/>
<path d="M16.825 35.5655C16.4671 35.5655 16.109 35.3864 15.751 35.0285L11.8131 31.0908C11.2762 30.5538 11.2762 29.4798 11.8131 28.9429C12.3501 28.4059 13.4241 28.4059 13.961 28.9429L16.6459 31.6278L22.3736 25.9C22.9106 25.3631 23.9846 25.3631 24.5216 25.9C25.0585 26.437 25.0585 27.511 24.5216 28.048L17.8988 35.2077C17.7199 35.3866 17.1829 35.5655 16.825 35.5655Z" fill="#0ABE51"/>
<path d="M23.8061 55.0772H13.9614V45.2325H23.8061V55.0772ZM15.0354 54.1823H22.911V46.3067H15.0354V54.1823Z" fill="#CED6E0"/>
<path d="M16.825 53.6446C16.4671 53.6446 16.109 53.4655 15.751 53.1076L11.8131 49.1697C11.2762 48.6327 11.2762 47.5587 11.8131 47.0218C12.5292 46.6638 13.4241 46.6638 14.1401 47.2008L16.825 49.8857L22.5527 44.158C23.0897 43.621 24.1636 43.621 24.7006 44.158C25.2376 44.695 25.2376 45.7689 24.7006 46.3059L17.8989 53.2866C17.7199 53.6446 17.1829 53.6446 16.825 53.6446Z" fill="#0ABE51"/>
<path d="M23.8061 73.3351H13.9614V63.4905H23.8061V73.3351ZM15.0354 72.2612H22.911V64.3856H15.0354V72.2612Z" fill="#CED6E0"/>
<path d="M16.825 71.9025C16.4671 71.9025 16.109 71.7234 15.751 71.3655L11.8131 67.4276C11.2762 66.8906 11.2762 65.8167 11.8131 65.2797C12.3501 64.7427 13.4241 64.7427 13.961 65.2797L16.825 68.1436L22.5527 62.4159C23.0897 61.8789 24.1636 61.8789 24.7006 62.4159C25.2376 62.9529 25.2376 64.0269 24.7006 64.5638L17.8989 71.3655C17.7199 71.7234 17.1829 71.9025 16.825 71.9025Z" fill="#0ABE51"/>
<path d="M78.922 2.84936L73.0488 10.7494L78.6508 14.914L84.5239 7.01394L78.922 2.84936Z" fill="#415A6B"/>
<path d="M73.0288 10.3289C76.7876 9.07587 81.9784 11.2238 81.9784 11.2238L52.4446 50.96C47.7909 57.2247 42.063 62.7735 35.4404 67.2484C37.7674 59.7307 41.5262 52.75 46.18 46.3063L73.0288 10.3289Z" fill="#FF5353"/>
<path d="M53.0578 49.8633L57.2224 44.2615L51.046 39.6698L46.8814 45.2717L53.0578 49.8633Z" fill="#415A6B"/>
<path d="M80.1887 3.70772L83.5897 6.21356L85.5586 3.52868C86.2746 2.63377 86.0956 1.38077 85.2006 0.664743C84.1267 -0.230162 82.8736 0.127766 82.1578 1.02267L80.1887 3.70772Z" fill="#F3705A"/>
<path d="M79.2934 6.03238L78.2195 7.46426L75.5346 5.4954L67.3009 15.877C68.0169 16.7719 67.4799 17.4879 66.7639 18.5619C66.0479 19.6358 64.974 20.3519 63.9 19.4568C63.5421 19.0989 63.363 18.5619 63.721 18.2038L74.4605 3.70542C74.8184 3.34749 75.3554 3.16844 75.7135 3.52637L79.2934 6.03238Z" fill="#415A6B"/>
</g>
<defs>
<clipPath id="clip0">
<rect width="86" height="86" fill="white"/>
</clipPath>
</defs>
</svg>
