<svg width="71" height="68" viewBox="0 0 71 68" fill="none" xmlns="http://www.w3.org/2000/svg">
<path d="M61.9752 34.9801V26.9798C61.9752 26.4975 61.6913 26.072 61.2371 25.9301L57.0922 24.3698C56.7515 24.2563 56.496 23.9726 56.4108 23.6038C55.8714 21.7314 55.1049 19.9157 54.168 18.2419C53.9976 17.9298 53.9693 17.5326 54.1112 17.2205L55.9566 13.1636C56.1553 12.7381 56.0701 12.2274 55.7294 11.887L50.0798 6.24138C49.7392 5.90094 49.2281 5.81583 48.8023 6.01442L44.6857 7.88684C44.3451 8.02869 43.976 8.02869 43.6637 7.85847C42.0171 6.95063 40.2569 6.24138 38.3832 5.70236C38.0425 5.58888 37.7586 5.33355 37.6167 4.99311L36.0268 0.737619C35.8565 0.2837 35.4306 0 34.9764 0H26.9704C26.4878 0 26.062 0.2837 25.92 0.737619L24.3018 5.04985C24.1882 5.39029 23.9043 5.64562 23.5636 5.73072C21.7467 6.26975 20.0149 6.979 18.3967 7.88684C18.0844 8.05706 17.6869 8.08543 17.3746 7.94358L13.1729 6.01442C12.7471 5.81583 12.2361 5.90094 11.8954 6.24138L6.2174 11.887C5.87672 12.2274 5.79155 12.7381 5.99027 13.1636L7.92079 17.3624C8.06274 17.7028 8.06274 18.0716 7.8924 18.3837C7.01231 20.0008 6.27418 21.7314 5.76316 23.547C5.6496 23.8875 5.39409 24.1712 5.0818 24.313L0.738139 25.9301C0.2839 26.1003 0 26.5259 0 26.9798V34.9801C0 35.4624 0.2839 35.888 0.738139 36.0298L5.02502 37.6185C5.3657 37.732 5.62121 38.0157 5.73477 38.3845C6.27418 40.2285 6.98392 41.9591 7.8924 43.6046C8.06274 43.9166 8.09113 44.2854 7.92079 44.6259L6.01867 48.7679C5.81994 49.1934 5.90511 49.7041 6.24578 50.0445L11.8954 55.7185C12.2361 56.059 12.7471 56.1441 13.1729 55.9455L17.2611 54.0731C17.6018 53.9312 17.9708 53.9312 18.2831 54.1298C19.9581 55.066 21.7467 55.8036 23.6204 56.371C23.9611 56.4845 24.245 56.7399 24.387 57.0519L25.9484 61.2223C26.1187 61.6762 26.5446 61.9599 26.9988 61.9599H35.0048C35.4874 61.9599 35.9133 61.6762 36.0552 61.2223L37.5883 57.1087C37.7018 56.7682 37.9857 56.5129 38.3548 56.3994C40.2569 55.8604 42.0739 55.0944 43.7773 54.1582C44.0896 53.988 44.487 53.9596 44.7993 54.1014L48.8023 55.9171C49.2281 56.1157 49.7392 56.0306 50.0798 55.6902L55.7294 50.0445C56.0701 49.7041 56.1553 49.1934 55.9566 48.7679L54.1396 44.7961C53.9977 44.4557 53.9976 44.0869 54.1964 43.7748C55.1332 42.0726 55.8998 40.2569 56.4392 38.3278C56.5527 37.9873 56.8082 37.7036 57.1489 37.5618L61.2655 36.0298C61.6913 35.8596 61.9752 35.434 61.9752 34.9801Z" fill="url(#paint0_linear)"/>
<path d="M31.2291 57.3357L30.3774 57.3641" stroke="#00ADF2" stroke-width="2" stroke-miterlimit="10" stroke-linecap="round"/>
<path d="M49.6541 48.7964L49.1147 49.4777" stroke="#00ADF2" stroke-width="2" stroke-miterlimit="10" stroke-linecap="round"/>
<path d="M30.4907 4.08521H31.3424" stroke="white" stroke-opacity="0.744" stroke-width="2" stroke-miterlimit="10" stroke-linecap="round"/>
<path d="M11.8955 12.625L12.4633 12.0005" stroke="white" stroke-opacity="0.744" stroke-width="2" stroke-miterlimit="10" stroke-linecap="round"/>
<path d="M4.79785 31.4627V30.6111" stroke="white" stroke-opacity="0.744" stroke-width="2" stroke-miterlimit="10" stroke-linecap="round"/>
<path d="M12.7186 49.7044L12.1792 49.0515" stroke="white" stroke-opacity="0.744" stroke-width="2" stroke-miterlimit="10" stroke-linecap="round"/>
<path d="M57.064 30.6111L57.0356 31.4627" stroke="white" stroke-opacity="0.744" stroke-width="2" stroke-miterlimit="10" stroke-linecap="round"/>
<path d="M49.6538 13.3626L49.0576 12.738" stroke="white" stroke-opacity="0.744" stroke-width="2" stroke-miterlimit="10" stroke-linecap="round"/>
<circle cx="31.5" cy="31.5" r="19.5" stroke="white" stroke-opacity="0.408" stroke-width="2"/>
<path d="M71.0001 53.1855V48.7925C71.0001 48.5277 70.8443 48.2941 70.595 48.2162L68.3201 47.3594C68.1331 47.2971 67.9929 47.1413 67.9461 46.9388C67.6501 45.9106 67.2294 44.9137 66.7152 43.9946C66.6217 43.8232 66.6061 43.6051 66.684 43.4338L67.6968 41.2061C67.8059 40.9725 67.7592 40.6921 67.5722 40.5051L64.4714 37.4051C64.2844 37.2182 64.004 37.1715 63.7703 37.2805L61.5109 38.3087C61.3239 38.3866 61.1214 38.3866 60.95 38.2931C60.0462 37.7946 59.0802 37.4052 58.0518 37.1092C57.8648 37.0469 57.709 36.9067 57.6311 36.7197L56.7585 34.3831C56.665 34.1338 56.4313 33.978 56.182 33.978H51.7879C51.5231 33.978 51.2893 34.1338 51.2114 34.3831L50.3233 36.7509C50.2609 36.9378 50.1051 37.078 49.9181 37.1247C48.9209 37.4207 47.9704 37.8102 47.0823 38.3087C46.9109 38.4021 46.6927 38.4177 46.5213 38.3398L44.2152 37.2805C43.9815 37.1715 43.7011 37.2182 43.5141 37.4051L40.3977 40.5051C40.2108 40.6921 40.164 40.9725 40.2731 41.2061L41.3326 43.5117C41.4105 43.6986 41.4105 43.9011 41.3171 44.0725C40.834 44.9604 40.4289 45.9106 40.1484 46.9076C40.0861 47.0946 39.9459 47.2503 39.7745 47.3282L37.3905 48.2162C37.1412 48.3096 36.9854 48.5433 36.9854 48.7925V53.1855C36.9854 53.4503 37.1412 53.684 37.3905 53.7619L39.7433 54.6342C39.9303 54.6965 40.0705 54.8523 40.1329 55.0548C40.4289 56.0674 40.8184 57.0176 41.3171 57.9212C41.4105 58.0925 41.4261 58.295 41.3326 58.482L40.2887 60.7563C40.1796 60.99 40.2263 61.2704 40.4133 61.4573L43.5141 64.5729C43.7011 64.7598 43.9815 64.8066 44.2152 64.6975L46.459 63.6694C46.646 63.5915 46.8486 63.5915 47.02 63.7005C47.9393 64.2146 48.9209 64.6196 49.9493 64.9312C50.1363 64.9935 50.2921 65.1337 50.37 65.305L51.227 67.595C51.3205 67.8442 51.5542 68 51.8035 68H56.1976C56.4624 68 56.6962 67.8442 56.7741 67.595L57.6155 65.3362C57.6778 65.1493 57.8336 65.0091 58.0362 64.9468C59.0802 64.6508 60.0774 64.2302 61.0123 63.7161C61.1837 63.6226 61.4018 63.6071 61.5732 63.685L63.7703 64.6819C64.004 64.791 64.2844 64.7442 64.4714 64.5573L67.5722 61.4573C67.7592 61.2704 67.8059 60.99 67.6968 60.7563L66.6996 58.5754C66.6217 58.3885 66.6217 58.186 66.7308 58.0146C67.245 57.0799 67.6657 56.083 67.9617 55.0237C68.024 54.8367 68.1643 54.681 68.3513 54.6031L70.6106 53.7619C70.8443 53.6684 71.0001 53.4347 71.0001 53.1855Z" fill="url(#paint1_linear)"/>
<path fill-rule="evenodd" clip-rule="evenodd" d="M52.7202 36.2212C52.7202 35.6689 53.1679 35.2212 53.7202 35.2212H54.1879C54.7401 35.2212 55.1879 35.6689 55.1879 36.2212C55.1879 36.7735 54.7401 37.2212 54.1879 37.2212H53.7202C53.1679 37.2212 52.7202 36.7735 52.7202 36.2212Z" fill="white" fill-opacity="0.74"/>
<path fill-rule="evenodd" clip-rule="evenodd" d="M44.4986 39.8274C44.9073 40.199 44.9374 40.8314 44.5659 41.2401L44.2541 41.583C43.8826 41.9917 43.2502 42.0218 42.8415 41.6503C42.4328 41.2788 42.4027 40.6463 42.7742 40.2377L43.086 39.8947C43.4575 39.4861 44.0899 39.4559 44.4986 39.8274Z" fill="white" fill-opacity="0.74"/>
<path fill-rule="evenodd" clip-rule="evenodd" d="M39.6187 49.7866C40.1709 49.7866 40.6187 50.2343 40.6187 50.7866V51.2543C40.6187 51.8065 40.1709 52.2543 39.6187 52.2543C39.0664 52.2543 38.6187 51.8065 38.6187 51.2543V50.7866C38.6187 50.2343 39.0664 49.7866 39.6187 49.7866Z" fill="white" fill-opacity="0.74"/>
<path fill-rule="evenodd" clip-rule="evenodd" d="M43.0331 60.1412C43.4589 59.7894 44.0892 59.8495 44.4409 60.2753L44.7371 60.6338C45.0888 61.0596 45.0288 61.6899 44.603 62.0416C44.1772 62.3934 43.5469 62.3333 43.1952 61.9075L42.899 61.549C42.5472 61.1232 42.6073 60.4929 43.0331 60.1412Z" fill="white" fill-opacity="0.74"/>
<path fill-rule="evenodd" clip-rule="evenodd" d="M55.1248 65.4274C55.1432 65.9794 54.7107 66.4417 54.1587 66.4601L53.691 66.4757C53.1391 66.4941 52.6767 66.0616 52.6583 65.5096C52.6399 64.9576 53.0724 64.4952 53.6244 64.4768L54.092 64.4613C54.644 64.4429 55.1064 64.8754 55.1248 65.4274Z" fill="white" fill-opacity="0.74"/>
<path fill-rule="evenodd" clip-rule="evenodd" d="M64.8588 59.988C65.2918 60.3308 65.365 60.9597 65.0222 61.3927L64.726 61.7668C64.3832 62.1998 63.7543 62.273 63.3212 61.9302C62.8882 61.5874 62.8151 60.9584 63.1579 60.5254L63.4541 60.1513C63.7969 59.7183 64.4258 59.6452 64.8588 59.988Z" fill="white" fill-opacity="0.74"/>
<path fill-rule="evenodd" clip-rule="evenodd" d="M68.338 49.7872C68.8899 49.8056 69.3225 50.268 69.3041 50.8199L69.2885 51.2876C69.2701 51.8396 68.8077 52.2721 68.2558 52.2537C67.7038 52.2353 67.2712 51.7729 67.2896 51.221L67.3052 50.7533C67.3236 50.2013 67.786 49.7688 68.338 49.7872Z" fill="white" fill-opacity="0.74"/>
<path fill-rule="evenodd" clip-rule="evenodd" d="M63.2202 40.2491C63.6197 39.8677 64.2527 39.8824 64.634 40.2819L64.9613 40.6249C65.3427 41.0244 65.328 41.6574 64.9285 42.0387C64.5289 42.42 63.896 42.4053 63.5146 42.0058L63.1873 41.6629C62.8059 41.2634 62.8207 40.6304 63.2202 40.2491Z" fill="white" fill-opacity="0.74"/>
<circle cx="54" cy="51" r="9.5" stroke="white" stroke-opacity="0.468"/>
<g opacity="0.908">
<path d="M54 58C57.866 58 61 54.866 61 51C61 47.134 57.866 44 54 44C50.134 44 47 47.134 47 51C47 54.866 50.134 58 54 58Z" fill="white" fill-opacity="0.304"/>
</g>
<path d="M54 55C56.2091 55 58 53.2091 58 51C58 48.7909 56.2091 47 54 47C51.7909 47 50 48.7909 50 51C50 53.2091 51.7909 55 54 55Z" fill="white" fill-opacity="0.612"/>
<g opacity="0.908">
<path d="M31.5 42C37.299 42 42 37.299 42 31.5C42 25.701 37.299 21 31.5 21C25.701 21 21 25.701 21 31.5C21 37.299 25.701 42 31.5 42Z" fill="white" fill-opacity="0.304"/>
</g>
<path d="M31.5 37C34.5376 37 37 34.5376 37 31.5C37 28.4624 34.5376 26 31.5 26C28.4624 26 26 28.4624 26 31.5C26 34.5376 28.4624 37 31.5 37Z" fill="white" fill-opacity="0.612"/>
<defs>
<linearGradient id="paint0_linear" x1="31.0376" y1="0.00798883" x2="31.0376" y2="61.9257" gradientUnits="userSpaceOnUse">
<stop stop-color="#98DBF5"/>
<stop offset="0.0776769" stop-color="#8BD7F5"/>
<stop offset="0.7147" stop-color="#28B9F3"/>
<stop offset="1" stop-color="#00ADF2"/>
</linearGradient>
<linearGradient id="paint1_linear" x1="54.0069" y1="33.9639" x2="54.0069" y2="67.9671" gradientUnits="userSpaceOnUse">
<stop stop-color="#FFD02E"/>
<stop offset="1" stop-color="#FFAB17"/>
</linearGradient>
</defs>
</svg>
