<svg width="40" height="40" viewBox="0 0 40 40" fill="none" xmlns="http://www.w3.org/2000/svg">
<circle cx="20" cy="20" r="20" fill="#00ADF2"/>
<path d="M29.3475 18.0743V29.0244C29.3495 29.2976 29.234 29.5584 29.0304 29.7405L29.0017 29.7693C28.8261 29.919 28.6027 30.0008 28.3719 30H10.9759C10.7468 30 10.5252 29.9181 10.351 29.7693C10.3391 29.7623 10.3292 29.7524 10.3222 29.7405C10.1171 29.559 9.99979 29.2983 10 29.0244V18.0743C9.99776 17.8309 10.0909 17.5962 10.2596 17.4206C10.3283 17.3395 10.4109 17.2711 10.5035 17.2187C10.6479 17.1397 10.8098 17.0983 10.9744 17.0984H28.3717C28.6448 17.1034 28.9045 17.2176 29.0927 17.4155C29.2562 17.596 29.3471 17.8307 29.3475 18.0743Z" fill="#FFEF61"/>
<path d="M29.0933 17.4145C29.0248 17.4992 19.6786 24.9319 19.6786 24.9319L10.2588 17.4228L10.2629 17.4189V17.4148L19.1452 10.1891C19.4552 9.93697 19.8996 9.93697 20.2097 10.1891L29.0933 17.4145Z" fill="#CABD48"/>
<path d="M27.1064 12.3762V19.0148L19.6779 24.9319L12.2451 19.0068V12.3762H27.1064Z" fill="#EEEFEE"/>
<path d="M29.0295 29.74C29.0211 29.7504 29.0116 29.7599 29.0012 29.7683L20.6333 24.1863L21.3992 23.5695L29.0295 29.74Z" fill="#CABD48"/>
<path d="M18.7185 24.1822L10.3506 29.7676C10.3383 29.7615 10.3283 29.7516 10.3223 29.7393L17.9487 23.5614L18.7185 24.1822Z" fill="#CABD48"/>
<path d="M13.8916 14.1187H25.4558V14.6204H13.8916V14.1187Z" fill="#A1CDD8"/>
<path d="M13.8911 16.0538H25.4554V16.5555H13.8911V16.0538Z" fill="#A1CDD8"/>
<path d="M13.8911 17.9892H25.4554V18.4909H13.8911V17.9892Z" fill="#A1CDD8"/>
<path d="M15.8335 19.9243H23.5136V20.426H15.8335V19.9243Z" fill="#A1CDD8"/>
</svg>
