<svg width="65" height="65" viewBox="0 0 65 65" fill="none" xmlns="http://www.w3.org/2000/svg">
<path d="M59.4769 42.1455L64.3907 36.3414C64.9312 35.7005 65.0041 34.7854 64.5598 34.0675L60.5591 27.602L61.9067 20.1171C62.0556 19.2901 61.6534 18.4638 60.9125 18.0654L54.207 14.4585L51.635 7.30501C51.3526 6.51227 50.5717 5.9931 49.7512 6.02281L42.1379 6.25127L36.3246 1.33775C35.6803 0.792376 34.769 0.728773 34.0521 1.1684L27.5822 5.16408L20.0891 3.81216C19.265 3.66398 18.4345 4.06393 18.0375 4.80014L14.4323 11.4966L7.27267 14.0644C6.48305 14.3473 5.96671 15.1075 5.99068 15.9455L6.22271 23.5468L1.30891 29.3509C0.764784 29.9905 0.699252 30.9082 1.14112 31.6211L5.14675 38.0842L3.79921 45.5692C3.65023 46.3961 4.04752 47.2248 4.78839 47.6232L11.494 51.2301L14.0709 58.3812C14.3557 59.1789 15.1183 59.6916 15.9584 59.6647L23.5617 59.441L29.3751 64.3545C29.5595 64.5093 29.7654 64.6263 29.989 64.7044C30.5277 64.8926 31.1423 64.8403 31.6525 64.5215L38.1174 60.5282L45.6105 61.8801C46.4383 62.0295 47.2688 61.6296 47.6671 60.8897L51.2723 54.1932L58.427 51.6278C59.2215 51.3426 59.7329 50.5848 59.709 49.7468L59.4769 42.1455Z" fill="#EE5252"/>
<path d="M21.9607 24.6454C22.7176 24.9098 23.5462 24.5107 23.8102 23.7547C24.0742 22.9987 23.6742 22.1706 22.9173 21.9062L20.1748 20.9484C19.4179 20.6841 18.5893 21.0831 18.3252 21.8391L14.4987 32.7958C14.2347 33.5518 14.6347 34.3799 15.3916 34.6443C16.1485 34.9086 16.9771 34.5096 17.2412 33.7536L18.6761 29.6448L20.0474 30.1237C20.8043 30.3881 21.6329 29.9891 21.8969 29.233C22.161 28.477 21.7609 27.6489 21.004 27.3846L19.6328 26.9057L20.5894 24.1665L21.9607 24.6454Z" fill="#FAFAFA"/>
<path d="M41.1581 31.35C41.915 31.6143 42.7436 31.2153 43.0077 30.4593C43.2717 29.7033 42.8717 28.8751 42.1147 28.6108L39.3722 27.653C38.6153 27.3886 37.7867 27.7877 37.5227 28.5437L33.6961 39.5003C33.4321 40.2563 33.8321 41.0845 34.5891 41.3488L37.3315 42.3066C38.0885 42.571 38.9171 42.1719 39.1811 41.4159C39.4451 40.6599 39.0451 39.8318 38.2882 39.5674L36.9169 39.0886L37.8736 36.3494L39.2448 36.8283C40.0017 37.0926 40.8304 36.6936 41.0944 35.9376C41.3584 35.1816 40.9584 34.3535 40.2015 34.0891L38.8302 33.6102L39.7868 30.8711L41.1581 31.35Z" fill="#FAFAFA"/>
<path d="M47.4723 39.7017C48.2292 39.9661 49.0578 39.5671 49.3219 38.811C49.5859 38.055 49.1859 37.2269 48.4289 36.9626L47.0577 36.4837L48.0143 33.7445L49.3856 34.2234C50.1425 34.4878 50.9711 34.0887 51.2351 33.3327C51.4992 32.5767 51.0992 31.7486 50.3422 31.4842L47.5997 30.5264C46.8428 30.2621 46.0142 30.6611 45.7502 31.4171L41.9236 42.3738C41.6596 43.1298 42.0596 43.9579 42.8166 44.2223L45.559 45.1801C46.316 45.4444 47.1446 45.0454 47.4086 44.2894C47.6726 43.5334 47.2726 42.7052 46.5157 42.4409L45.1444 41.962L46.1011 39.2228L47.4723 39.7017Z" fill="#FAFAFA"/>
<path d="M33.8236 30.325C34.6147 28.0597 33.4129 25.5717 31.1448 24.7796L28.4023 23.8218C27.6454 23.5574 26.8168 23.9565 26.5528 24.7125L22.7262 35.6691C22.4622 36.4251 22.8622 37.2533 23.6191 37.5176C24.3761 37.782 25.2047 37.3829 25.4687 36.6269L26.5851 33.4303L28.1985 38.5023C28.3419 38.9549 28.6873 39.2876 29.1041 39.4332C29.3893 39.5328 29.7079 39.5457 30.0198 39.4457C30.7847 39.2026 31.2075 38.3884 30.9637 37.624L29.5643 33.2169C31.4163 33.2798 33.1807 32.1657 33.8236 30.325ZM29.2315 30.2579L27.8603 29.779L28.8169 27.0398L30.1882 27.5187C30.9451 27.7831 31.3451 28.6112 31.0811 29.3672C30.8171 30.1232 29.9885 30.5223 29.2315 30.2579Z" fill="#FAFAFA"/>
</svg>
