<svg width="184" height="192" viewBox="0 0 184 192" fill="none" xmlns="http://www.w3.org/2000/svg">
<g clip-path="url(#clip0)">
<path d="M4.46307 86.1878L82.9772 40.92L161.491 86.1878L161.546 86.1563V146.639L82.9772 192L4.40869 146.639V86.1563L4.46307 86.1878Z" fill="#ED7064"/>
<path d="M4.40869 146.639L82.9772 192V131.518L4.40869 86.1562V146.639Z" fill="#C40041"/>
<path d="M82.9771 131.518L161.546 86.1562V146.639L82.9771 192V131.518Z" fill="#F43834"/>
<path d="M0.244012 62.8984L82.9773 15.198L165.711 62.8984L165.768 62.8654V83.7911L82.9773 131.59L0.187012 83.7911V62.8654L0.244012 62.8984Z" fill="#FF8A5C"/>
<path d="M0.187012 83.7911L82.9773 131.59V110.664L0.187012 62.8654V83.7911Z" fill="#F43834"/>
<path d="M82.9771 110.664L165.767 62.8654V83.7911L82.9771 131.59V110.664Z" fill="#FF5331"/>
<path d="M49.6681 172.769L29.1001 160.894V79.4899L111.737 31.7794L132.295 43.6324L49.6681 91.3369V172.769Z" fill="#FF812C"/>
<path d="M116.699 172.526L137.267 160.651V79.2471L54.6305 31.5366L34.0723 43.3896L116.699 91.0941V172.526Z" fill="#FF9F2C"/>
<path d="M116.7 91.0941L137.268 79.2471L54.631 31.5366L34.0728 43.3896L116.7 91.0941Z" fill="#FFD800"/>
<path d="M49.6681 91.3367L29.1001 79.4897L111.737 31.7792L132.295 43.6322L49.6681 91.3367Z" fill="#FFD800"/>
<path d="M168.467 76.8604L163.695 65.1484L183.813 58.7528L89.9071 41.817L74.5723 59.9265L168.467 76.8604Z" fill="#F0C419"/>
<path d="M82.1857 137.5L72.4316 129.45L60.3232 146.743L72.1841 52.0621L94.0451 42.8303L82.1857 137.5Z" fill="#F0C419"/>
<path d="M90.0646 50.4811C88.6355 48.7134 88.2091 46.3456 88.9246 44.1883C92.498 33.4108 102.62 5.81414 119.486 0.702135C135.245 -4.07461 155.081 16.3959 142.512 35.8333C132.505 51.3106 108.775 55.8729 99.5206 57.0894C97.2133 57.3928 94.9179 56.4845 93.4546 54.6748L90.0646 50.4811Z" fill="#FFD800"/>
<path d="M131.334 22.9004C138.761 18.8365 142.675 23.4696 140.139 30.9655C137.603 38.4618 124.624 45.607 116.917 49.3777C109.209 53.1483 98.627 54.5095 98.627 54.5095C98.627 54.5095 123.908 26.9643 131.334 22.9004Z" fill="#DCA700"/>
<path d="M64.8378 49.4216C67.4062 47.3932 70.3379 46.3143 73.276 46.083C77.1884 45.7743 80.6643 43.7681 82.8877 40.5341C84.5575 38.1048 86.9583 36.105 89.9999 34.8948C96.4285 32.337 103.966 34.4985 108.085 40.0575C113.713 47.652 111.358 58.2037 103.414 62.7907C101.268 64.0294 98.9515 64.6942 96.6374 64.836C92.8769 65.0662 89.527 67.0001 87.4473 70.1419C86.1678 72.075 84.4334 73.7486 82.288 74.9872C74.3429 79.5742 64.027 76.3369 60.2643 67.6654C57.5103 61.3181 59.4082 53.7097 64.8378 49.4216Z" fill="#FFE252"/>
<path d="M70.6961 58.583C69.4898 56.6566 67.3894 55.4828 65.1165 55.4573C53.7626 55.3298 24.3743 55.9223 14.0531 70.2072C4.40889 83.5553 17.3119 108.972 39.7808 103.411C57.672 98.9832 69.7069 78.0286 73.8679 69.6743C74.9055 67.5912 74.7934 65.1252 73.5581 63.1527L70.6961 58.583Z" fill="#FFD800"/>
<path d="M31.1884 88.6344C24.9293 94.3347 28.0369 99.5435 35.9502 99.584C43.8638 99.6245 54.843 89.6769 60.9162 83.6157C66.9893 77.5542 71.7195 67.9906 71.7195 67.9906C71.7195 67.9906 37.4479 82.9336 31.1884 88.6344Z" fill="#DCA700"/>
</g>
<defs>
<clipPath id="clip0">
<rect width="184" height="192" fill="white"/>
</clipPath>
</defs>
</svg>
