<svg width="40" height="40" viewBox="0 0 40 40" fill="none" xmlns="http://www.w3.org/2000/svg">
<circle cx="20" cy="20" r="20" fill="#00ADF2"/>
<path d="M27.7422 18.3125L29.1407 17.1875C27.9395 13.2792 24.3023 10.4 20.0001 10.4C19.5835 10.4 19.176 10.4356 18.7359 10.4873L11.2554 23.9375C12.7946 27.2524 16.1243 29.6 20.0001 29.6C24.3023 29.6 27.9395 26.7208 29.1407 22.8125L27.7422 21.6875V18.3125Z" fill="#BCDEFF"/>
<path d="M29.1405 22.8125L27.7421 21.6875V18.3125L29.1405 17.1875C27.9393 13.2792 24.3022 10.4 20 10.4V29.6C24.3022 29.6 27.9393 26.7208 29.1405 22.8125Z" fill="#A2D0FF"/>
<path d="M29.1405 17.1875H27.7421L25.3734 18.3718L23.9375 19.7671V21.4727L26.6171 22.8125H29.1405C29.4139 21.9231 29.6 20.979 29.6 20C29.6 19.021 29.4139 18.0769 29.1405 17.1875Z" fill="#CABD48"/>
<path d="M22.5976 14.9375H21.6874V14.0273L19.9999 13.1837L19.3578 12.8627L18.7732 10.4873C14.0728 11.0907 10.3999 15.1355 10.3999 20C10.3999 21.4053 10.7481 22.7356 11.2926 23.9375H13.4828L14.4859 22.9344L16.7359 24.0594L18.5453 22.25L17.1874 20.8921V20.5625H19.2226L19.9999 19.0079L20.2515 18.5048L22.3609 19.5594L24.0594 17.861L22.5976 14.9375Z" fill="#FFEF61"/>
<path d="M22.361 19.5594L24.0595 17.8609L22.5977 14.9375H21.6875V14.0273L20 13.1837V19.0079L20.2516 18.5047L22.361 19.5594Z" fill="#CABD48"/>
<path d="M22.4829 23.9375L21.3579 22.8125H20H19.7671L18.3125 24.2671V25.8579L19.8478 27.3938L20 27.343L23.9375 26.0304V23.9375H22.4829Z" fill="#FFEF61"/>
<path d="M23.9375 23.9375H22.4829L21.3579 22.8125H20V27.343L23.9375 26.0304V23.9375Z" fill="#CABD48"/>
</svg>
