<?xml version="1.0" encoding="utf-8"?>
<!-- Generator: Adobe Illustrator 22.0.1, SVG Export Plug-In . SVG Version: 6.00 Build 0)  -->
<svg version="1.1" id="Layer_1" xmlns="http://www.w3.org/2000/svg" xmlns:xlink="http://www.w3.org/1999/xlink" x="0px" y="0px"
	 viewBox="0 0 87 89.2" style="enable-background:new 0 0 87 89.2;" xml:space="preserve">
<style type="text/css">
	.st0{fill:url(#SVGID_1_);}
	.st1{fill:url(#SVGID_2_);}
	.st2{fill:#33BDF5;}
	.st3{opacity:0.3;fill:#FFFFFF;}
	.st4{fill:#FCC419;}
	.st5{fill:#FFD43B;}
	.st6{fill:#495057;}
	.st7{fill:url(#SVGID_3_);}
	.st8{opacity:0.7;fill:none;stroke:#FFFFFF;stroke-width:2;stroke-miterlimit:10;stroke-dasharray:6,8;}
	.st9{opacity:0.3;}
	.st10{fill:#FFFFFF;}
</style>
<linearGradient id="SVGID_1_" gradientUnits="userSpaceOnUse" x1="34.127" y1="53.9186" x2="34.127" y2="85.2167">
	<stop  offset="0" style="stop-color:#98DBF5"/>
	<stop  offset="7.767689e-02" style="stop-color:#8BD7F5"/>
	<stop  offset="0.7147" style="stop-color:#28B9F3"/>
	<stop  offset="1" style="stop-color:#00ADF2"/>
</linearGradient>
<path class="st0" d="M49.3,85.2H27c-4.4,0-8-3.6-8-8V61.9c0-4.4,3.6-8,8-8h22.3V85.2z"/>
<linearGradient id="SVGID_2_" gradientUnits="userSpaceOnUse" x1="64.5611" y1="29.8722" x2="64.5611" y2="86.4072">
	<stop  offset="0" style="stop-color:#FCE1E2"/>
	<stop  offset="1" style="stop-color:#F8C7CB"/>
</linearGradient>
<path class="st1" d="M83.8,61c1.4-0.8,2.3-2.4,2.3-4.1v0c0-2.6-2.1-4.8-4.8-4.8c0,0-7,0-11.5,0c-1.9,0-3.4-1.7-3.1-3.6l2-11.3
	c0.6-3.4-1.7-6.6-5.1-7.2l0,0c-3.4-0.6-6.6,1.7-7.2,5l-2.7,15.4c-0.3,1.5-1.5,2.6-3.1,2.6h-8.6v33.5h19.5H72h4
	c2.6,0,4.8-2.1,4.8-4.8v0c0-1.3-0.5-2.4-1.3-3.3c2.5-0.2,4.4-2.2,4.4-4.8v0c0-1.3-0.5-2.5-1.4-3.3C85.1,70,87,68,87,65.5v0
	C87,63.4,85.7,61.6,83.8,61z"/>
<path class="st2" d="M46.3,89.2h-7.6c-1.7,0-3-1.3-3-3V53c0-1.7,1.3-3,3-3h7.6c1.7,0,3,1.3,3,3v33.2C49.3,87.8,48,89.2,46.3,89.2z"
	/>
<ellipse class="st3" cx="42.5" cy="82.2" rx="3" ry="3"/>
<g>
	<path class="st4" d="M40.9,42.2l-9.4-2.5c-0.5-0.1-1-0.1-1.4,0.1c-3.3,1.6-7.2,2.4-11.2,2C9.1,40.9,1.1,33,0.1,23.2
		c-1.3-13.2,9.7-24.2,23-23c10.1,1,18.1,9.2,18.9,19.2c0.3,4.2-0.6,8.1-2.4,11.4c-0.3,0.5-0.3,1.1-0.2,1.6l2.8,8.4
		C42.4,41.6,41.7,42.4,40.9,42.2z M42.7,42.6"/>
	<path class="st5" d="M21.1,38.5c2.6,0,5.2-0.6,7.6-1.7c0.8-0.4,1.6-0.6,2.4-0.6c0.5,0,0.9,0.1,1.4,0.2l4.9,1.3l-1.3-3.9
		c-0.5-1.4-0.3-3,0.4-4.4c1.6-2.9,2.3-6.2,2-9.5c-0.6-8.3-7.4-15.2-15.7-16c-0.6-0.1-1.2-0.1-1.7-0.1c-4.9,0-9.6,2.1-13,5.7
		C4.8,13.2,3.3,18,3.8,23c0.4,3.9,2.2,7.6,5.1,10.5c2.9,2.8,6.6,4.6,10.6,5C20,38.5,20.6,38.5,21.1,38.5z"/>
	<g>
		<path class="st6" d="M29.8,18.5H12.5c-0.7,0-1.3-0.6-1.3-1.3c0-0.7,0.6-1.3,1.3-1.3h17.3c0.7,0,1.3,0.6,1.3,1.3
			C31.1,17.9,30.5,18.5,29.8,18.5z"/>
		<path class="st6" d="M25.1,26.4H12.5c-0.7,0-1.3-0.6-1.3-1.3c0-0.7,0.6-1.3,1.3-1.3h12.5c0.7,0,1.3,0.6,1.3,1.3
			C26.4,25.8,25.8,26.4,25.1,26.4z"/>
	</g>
</g>
<linearGradient id="SVGID_3_" gradientUnits="userSpaceOnUse" x1="21.3684" y1="0" x2="21.3684" y2="42.7368">
	<stop  offset="0" style="stop-color:#FFD02E"/>
	<stop  offset="1" style="stop-color:#FFAB17"/>
</linearGradient>
<path class="st7" d="M40.9,42.3l-9.4-2.5c-0.5-0.1-1-0.1-1.4,0.1c-3.3,1.6-7.2,2.4-11.2,2C9.1,41,1.1,33,0.1,23.2
	C-1.2,9.9,9.8-1.2,23.1,0.1c10.1,1,18.1,9.2,18.9,19.3c0.3,4.2-0.6,8.1-2.4,11.5c-0.3,0.5-0.3,1.1-0.2,1.6l2.8,8.4
	C42.4,41.7,41.7,42.5,40.9,42.3z M42.7,42.7"/>
<path class="st8" d="M21.1,38.6c2.6,0,5.2-0.6,7.6-1.7c0.8-0.4,1.6-0.6,2.4-0.6c0.5,0,0.9,0.1,1.4,0.2l4.9,1.3l-1.3-4
	c-0.5-1.4-0.3-3.1,0.4-4.4c1.6-2.9,2.3-6.2,2-9.6c-0.6-8.4-7.4-15.3-15.7-16.1c-0.6-0.1-1.2-0.1-1.7-0.1c-4.9,0-9.6,2.1-13,5.8
	C4.8,13.1,3.3,17.9,3.8,23c0.4,3.9,2.2,7.7,5.1,10.5c2.9,2.9,6.6,4.6,10.6,5C20,38.6,20.6,38.6,21.1,38.6z"/>
<g class="st9">
	<path class="st10" d="M29.8,18.5H12.5c-0.7,0-1.3-0.6-1.3-1.3s0.6-1.3,1.3-1.3h17.3c0.7,0,1.3,0.6,1.3,1.3S30.5,18.5,29.8,18.5z"/>
	<path class="st10" d="M25.1,26.4H12.5c-0.7,0-1.3-0.6-1.3-1.3s0.6-1.3,1.3-1.3h12.5c0.7,0,1.3,0.6,1.3,1.3S25.8,26.4,25.1,26.4z"/>
</g>
</svg>
