<?xml version="1.0" encoding="utf-8"?>
<!-- Generator: Adobe Illustrator 22.0.1, SVG Export Plug-In . SVG Version: 6.00 Build 0)  -->
<svg version="1.1" id="Layer_1" xmlns="http://www.w3.org/2000/svg" xmlns:xlink="http://www.w3.org/1999/xlink" x="0px" y="0px"
	 viewBox="0 0 88 79.7" style="enable-background:new 0 0 88 79.7;" xml:space="preserve">
<style type="text/css">
	.st0{fill:url(#SVGID_1_);}
	.st1{fill:url(#SVGID_2_);}
	.st2{fill:url(#SVGID_3_);}
	.st3{fill:#00ADF2;}
	.st4{fill:url(#SVGID_4_);}
	.st5{opacity:0.7;fill:none;stroke:#FFFFFF;stroke-width:2;stroke-miterlimit:10;stroke-dasharray:6,8;}
	.st6{opacity:0.3;}
	.st7{fill:#FFFFFF;}
</style>
<linearGradient id="SVGID_1_" gradientUnits="userSpaceOnUse" x1="66.0259" y1="4.6177" x2="66.0259" y2="24.6484">
	<stop  offset="0" style="stop-color:#98DBF5"/>
	<stop  offset="7.767689e-02" style="stop-color:#8BD7F5"/>
	<stop  offset="0.7147" style="stop-color:#28B9F3"/>
	<stop  offset="1" style="stop-color:#00ADF2"/>
</linearGradient>
<path class="st0" d="M71.7,24.6H60.4V10.3c0-3.1,2.5-5.7,5.7-5.7h0c3.1,0,5.7,2.5,5.7,5.7V24.6z"/>
<linearGradient id="SVGID_2_" gradientUnits="userSpaceOnUse" x1="44.0024" y1="13.0086" x2="44.0024" y2="79.6632">
	<stop  offset="0" style="stop-color:#98DBF5"/>
	<stop  offset="7.767689e-02" style="stop-color:#8BD7F5"/>
	<stop  offset="0.7147" style="stop-color:#28B9F3"/>
	<stop  offset="1" style="stop-color:#00ADF2"/>
</linearGradient>
<path class="st1" d="M76.4,27.8v43.5c0,4.6-3.7,8.4-8.4,8.4H19.9c-4.6,0-8.4-3.7-8.4-8.4V27.7L29.9,13H58L76.4,27.8z"/>
<linearGradient id="SVGID_3_" gradientUnits="userSpaceOnUse" x1="44" y1="-9.094947e-13" x2="44" y2="43.2425">
	<stop  offset="0" style="stop-color:#98DBF5"/>
	<stop  offset="7.767689e-02" style="stop-color:#8BD7F5"/>
	<stop  offset="0.7147" style="stop-color:#28B9F3"/>
	<stop  offset="1" style="stop-color:#00ADF2"/>
</linearGradient>
<path class="st2" d="M86.6,40.9c-1.2,1.5-3.1,2.3-4.9,2.3c-1,0-2-0.2-3-0.7c-0.3-0.2-0.6-0.4-1-0.6L47.1,17.2
	c-1.8-1.5-4.5-1.5-6.3,0L10.2,41.7c-0.3,0.2-0.6,0.5-1,0.6c-2.6,1.4-5.9,0.8-7.9-1.6C0.5,39.6,0,38.2,0,36.8c0-1.8,0.8-3.7,2.3-4.9
	l6.9-5.5l19.6-15.7l11.9-9.5c1.8-1.5,4.5-1.5,6.3,0L59,10.6l19.8,15.9l6.9,5.6C88.4,34.3,88.8,38.2,86.6,40.9z"/>
<path class="st3" d="M53.9,79.7H34.1v-19c0-5.5,4.4-9.9,9.9-9.9h0c5.5,0,9.9,4.4,9.9,9.9V79.7z"/>
<linearGradient id="SVGID_4_" gradientUnits="userSpaceOnUse" x1="68.3158" y1="41.6842" x2="68.3158" y2="79.6632">
	<stop  offset="0" style="stop-color:#FFD02E"/>
	<stop  offset="1" style="stop-color:#FFAB17"/>
</linearGradient>
<circle class="st4" cx="68.3" cy="60.7" r="19"/>
<circle class="st5" cx="68.3" cy="60.7" r="15.2"/>
<g class="st6">
	<g>
		<path class="st7" d="M71.6,56.5L71.6,56.5c-0.4,0.3-1,0.2-1.3-0.2c-0.2-0.2-0.3-0.3-0.5-0.4c-0.3-0.2-0.7-0.3-1.2-0.3
			c-0.6,0-1.1,0.2-1.5,0.5c-0.4,0.3-0.6,0.8-0.6,1.3c0,0.7,0.5,1.3,1.6,1.7l1.5,0.6c1.2,0.5,2.1,1.1,2.6,1.8
			c0.6,0.7,0.8,1.5,0.8,2.6c0,1.4-0.5,2.5-1.4,3.4c-0.9,0.9-2,1.3-3.4,1.3c-1.3,0-2.3-0.4-3.2-1.1c-0.6-0.5-1-1.2-1.2-1.9
			c-0.2-0.6,0.2-1.3,0.8-1.5l0,0c0.6-0.1,1.2,0.2,1.3,0.8c0.1,0.3,0.2,0.6,0.3,0.7c0.5,0.6,1.1,1,2,1c0.7,0,1.3-0.2,1.7-0.7
			c0.5-0.5,0.7-1.1,0.7-1.8c0-0.3,0-0.5-0.1-0.8c-0.1-0.2-0.2-0.5-0.4-0.7c-0.2-0.2-0.4-0.4-0.7-0.6c-0.3-0.2-0.6-0.3-1-0.5
			l-1.4-0.6c-2-0.9-3-2.1-3-3.7c0-1.1,0.4-2,1.3-2.8c0.8-0.8,1.9-1.1,3.2-1.1c1.3,0,2.4,0.5,3.2,1.5C72.2,55.4,72.1,56.2,71.6,56.5z
			"/>
	</g>
	<path class="st7" d="M68.3,71c-0.6,0-1.2-0.5-1.2-1.2v-1.3c0-0.6,0.5-1.2,1.2-1.2c0.6,0,1.2,0.5,1.2,1.2v1.3
		C69.5,70.4,69,71,68.3,71z"/>
	<path class="st7" d="M68.3,54.9c-0.6,0-1.2-0.5-1.2-1.2v-1.3c0-0.6,0.5-1.2,1.2-1.2c0.6,0,1.2,0.5,1.2,1.2v1.3
		C69.5,54.4,69,54.9,68.3,54.9z"/>
</g>
</svg>
