<svg width="20" height="20" viewBox="0 0 20 20" fill="none" xmlns="http://www.w3.org/2000/svg">
<path d="M5.85483 19.6877C5.21956 20.1661 4.28706 20.0926 3.67745 19.483C3.49873 19.3043 3.36643 19.098 3.28026 18.8792C2.70682 19.0615 2.03674 18.9118 1.56248 18.4375C1.08822 17.9633 0.938496 17.2932 1.1208 16.7198C0.90205 16.6336 0.695722 16.5013 0.517011 16.3226C-0.0925998 15.713 -0.166076 14.7805 0.312323 14.1452C0.288026 14.1236 7.62038 12.3796 7.62038 12.3796C7.62038 12.3796 5.87636 19.712 5.85483 19.6877Z" fill="#00ADF2"/>
<path d="M12.3796 7.62038C12.3796 7.62038 14.1237 0.287987 14.1452 0.312323C14.7805 -0.166076 15.713 -0.0925998 16.3226 0.517011C16.5013 0.695722 16.6336 0.90205 16.7198 1.1208C17.2932 0.938496 17.9633 1.08822 18.4375 1.56248C18.9118 2.03674 19.0615 2.70682 18.8792 3.28026C19.098 3.36643 19.3043 3.49873 19.483 3.67745C20.0926 4.28706 20.1661 5.21956 19.6877 5.85483C19.712 5.87636 12.3796 7.62038 12.3796 7.62038Z" fill="#00ADF2"/>
<path d="M12.3796 7.62044L18.4376 1.5625C18.9118 2.03676 19.0616 2.70684 18.8793 3.28028C19.098 3.36645 19.3043 3.49875 19.483 3.67746C20.0927 4.28707 20.1661 5.21958 19.6877 5.85485C19.712 5.87641 12.3796 7.62044 12.3796 7.62044Z" fill="#019BE6"/>
<path d="M7.6204 12.3796C7.6204 12.3796 5.87637 19.712 5.85485 19.6877C5.21958 20.1661 4.28707 20.0926 3.67746 19.483C3.49875 19.3043 3.36645 19.098 3.28028 18.8792C2.70684 19.0615 2.03676 18.9118 1.5625 18.4375L7.6204 12.3796Z" fill="#019BE6"/>
<path d="M10.0002 10.0002H10.0002L10.0001 10.0003H10.0004L10.0002 10.0001L10.0002 10.0002Z" fill="black"/>
<path d="M14.2519 15.6904C13.0666 16.5773 11.5947 17.103 10.0001 17.1027C8.99635 17.1027 8.04092 16.8947 7.17525 16.519C6.3154 16.1459 5.77676 15.3708 5.42211 14.5781C5.16633 14.0069 5.00641 13.4266 4.89039 12.9807C4.89039 12.9807 3.04776 11.7193 2.94444 10.8216C2.91296 10.552 2.89722 10.2782 2.89722 9.99983C2.89722 7.67962 4.0098 5.61961 5.73036 4.32335C6.91892 3.42761 10.1915 4.21976 10.1915 4.21976C10.1915 4.21976 11.9311 3.09944 12.7866 3.46487C13.6276 3.82366 14.3856 4.34019 15.0225 4.97769C16.1219 6.07703 16.8621 7.53435 17.0535 9.16041C17.0718 9.31342 16.8025 11.682 15.6418 12.4698C15.6418 12.4697 15.0203 15.1153 14.2519 15.6904Z" fill="#FFF9E1"/>
<path d="M14.2519 15.6904C13.0667 16.5773 11.5947 17.1029 10.0001 17.1027C8.99636 17.1027 8.04092 16.8947 7.17525 16.519C6.31541 16.1458 5.77677 15.3708 5.42212 14.5781L15.0225 4.97766C16.1219 6.077 16.8621 7.53432 17.0536 9.16038C17.0718 9.31339 16.8025 11.682 15.6418 12.4697C15.6418 12.4697 15.0203 15.1153 14.2519 15.6904Z" fill="#FFDEA8"/>
<path d="M10.0001 10.0001C11.0641 8.14777 10.418 5.78976 8.5657 4.72687C7.67187 4.21366 6.65871 4.0982 5.73035 4.32331C6.9189 3.42757 8.39773 2.89722 9.99981 2.89722C10.9892 2.89722 11.9311 3.0994 12.7865 3.46483C12.9694 3.65542 13.1334 3.8648 13.2746 4.08991C13.6464 4.68378 13.8618 5.38589 13.8618 6.13832V6.13886C13.8618 8.27457 12.136 9.99981 10.0001 10.0001Z" fill="#FC9090"/>
<path d="M7.17521 16.519C6.34931 16.1605 5.60493 15.6497 4.97766 15.0225C3.87446 13.9193 3.13227 12.455 2.94446 10.8215C3.21848 9.91223 3.82473 9.10152 4.71196 8.59C5.32075 8.23809 5.98587 8.07125 6.64161 8.07129C7.97822 8.07102 9.28416 8.75934 10.0001 10.0001C7.86497 10.0001 6.12673 11.7372 6.127 13.8726V13.8731C6.12724 14.8971 6.52528 15.8276 7.17521 16.519Z" fill="#FC9090"/>
<path d="M14.2519 15.6904C13.9553 15.7616 13.6503 15.7981 13.3432 15.7981C12.6908 15.7981 12.03 15.6329 11.4238 15.2846C9.57145 14.2218 8.93699 11.8521 10.0002 10.0001C10.7161 11.2408 12.0107 11.9405 13.3473 11.9402C14.0033 11.9405 14.6682 11.7734 15.2772 11.4218C16.1738 10.9042 16.7845 10.0813 17.0536 9.1604C17.0861 9.43552 17.103 9.71587 17.1028 10.0001C17.103 12.3283 15.9824 14.3946 14.2519 15.6904Z" fill="#FF7B49"/>
<path d="M10.0001 10.0002L13.8619 6.13843V6.13897C13.8618 8.27468 12.1361 9.99992 10.0001 10.0002Z" fill="#FD435B"/>
<path d="M6.12708 13.8732C6.12736 14.8971 6.5254 15.8277 7.17533 16.519C6.34943 16.1605 5.60505 15.6498 4.97778 15.0225L6.12708 13.8732Z" fill="#FD435B"/>
<path d="M14.2519 15.6904C13.9553 15.7616 13.6503 15.7981 13.3432 15.7981C12.6908 15.7981 12.03 15.6329 11.4238 15.2846C9.57145 14.2218 8.93699 11.8521 10.0002 10.0001C10.7161 11.2408 12.0107 11.9405 13.3473 11.9402C14.0033 11.9405 14.6682 11.7734 15.2772 11.4218C16.1738 10.9042 16.7845 10.0813 17.0536 9.1604C17.0861 9.43552 17.103 9.71587 17.1028 10.0001C17.103 12.3283 15.9824 14.3946 14.2519 15.6904Z" fill="#F43834"/>
</svg>
