<svg width="20" height="17" viewBox="0 0 20 17" fill="none" xmlns="http://www.w3.org/2000/svg">
<path d="M10.069 16.3846L0 5.21446L3.49797 0H16.4847L19.9759 5.20449L10.069 16.3846Z" fill="#FF3997"/>
<path d="M10.0715 16.3818L19.9759 5.20449L16.4848 0H10.0715V16.3818Z" fill="#D6298C"/>
<path d="M0 5.21448L10.069 16.3846L19.9479 5.23635L0 5.21448Z" fill="#FF5CA8"/>
<path d="M10.0714 5.22546V16.3818L19.9479 5.23628L10.0714 5.22546Z" fill="#FF3997"/>
<path d="M10.069 16.3842L5.92706 5.23596H14.073L10.069 16.3842Z" fill="#FF3997"/>
<path d="M14.073 5.23633H5.92706L10.0717 0L14.073 5.23633Z" fill="#D6298C"/>
<path d="M0 5.21445L5.92703 5.23633L3.49797 0L0 5.21445Z" fill="#D6298C"/>
<path d="M20 5.21445L14.073 5.23633L16.5021 0L20 5.21445Z" fill="#FF5CA8"/>
<path d="M10.0715 5.23645V16.3778L14.073 5.23645H10.0715Z" fill="#D6298C"/>
<path d="M10.0715 0.000854492V5.23675H14.073L10.0715 0.000854492Z" fill="#BF1B81"/>
<path d="M20 5.21445L14.073 5.23633L16.5021 0L20 5.21445Z" fill="#BF1B81"/>
</svg>
