<svg width="11" height="20" viewBox="0 0 11 20" fill="none" xmlns="http://www.w3.org/2000/svg">
<path d="M5.30786 10.7103C4.33856 10.7103 3.55005 9.92181 3.55005 8.95251C3.55005 7.98322 4.33856 7.1947 5.30786 7.1947C6.27716 7.1947 7.06567 7.98322 7.06567 8.95251C7.06567 9.92181 6.27716 10.7103 5.30786 10.7103ZM5.30786 8.36658C4.98513 8.36658 4.72192 8.62923 4.72192 8.95251C4.72192 9.2758 4.98513 9.53845 5.30786 9.53845C5.6306 9.53845 5.8938 9.2758 5.8938 8.95251C5.8938 8.62923 5.6306 8.36658 5.30786 8.36658Z" fill="#FABE2C"/>
<path d="M5.8938 8.95251C5.8938 9.2758 5.6306 9.53845 5.30786 9.53845V10.7103C6.27716 10.7103 7.06567 9.92181 7.06567 8.95251C7.06567 7.98322 6.27716 7.1947 5.30786 7.1947V8.36658C5.6306 8.36658 5.8938 8.62919 5.8938 8.95251Z" fill="#FF9100"/>
<path d="M7.95593 19.9341L5.30777 18.5591L2.6596 19.9341C2.4639 20.0354 2.22472 20.0188 2.04507 19.8878C1.86538 19.7573 1.77499 19.537 1.8116 19.3178L2.30027 16.375L0.175111 14.2813C0.017181 14.1251 -0.0400456 13.8933 0.0286263 13.6828C0.0972982 13.4716 0.279252 13.3171 0.498978 13.2839L3.43554 12.8416L4.77335 9.88275C4.96331 9.46389 5.65226 9.46389 5.84222 9.88275L7.18003 12.8416L10.1166 13.2839C10.3363 13.3171 10.5183 13.4716 10.5869 13.6828C10.6556 13.8933 10.5984 14.1251 10.4405 14.2813L8.31531 16.375L8.80398 19.3178C8.84062 19.537 8.75019 19.7573 8.5705 19.8878C8.39011 20.0195 8.15077 20.0355 7.95593 19.9341Z" fill="#FED843"/>
<path d="M7.95582 19.9342C8.15066 20.0356 8.39 20.0196 8.57035 19.8879C8.75004 19.7574 8.84043 19.5371 8.80383 19.3179L8.31516 16.3751L10.4403 14.2814C10.5982 14.1252 10.6555 13.8934 10.5868 13.6829C10.5181 13.4717 10.3362 13.3172 10.1164 13.284L7.17988 12.8417L5.84207 9.88287C5.74707 9.67345 5.52734 9.56873 5.30762 9.56873V18.5592L7.95582 19.9342Z" fill="#FABE2C"/>
<path d="M5.30786 8.36658C5.24493 8.36658 5.18314 8.35627 5.12247 8.33627L1.60685 7.16439C1.36767 7.08482 1.2063 6.86111 1.2063 6.60877V3.09314C1.2063 2.76927 1.46837 2.5072 1.79224 2.5072H8.82349C9.14735 2.5072 9.40942 2.76927 9.40942 3.09314V6.60877C9.40942 6.86111 9.24806 7.08486 9.00888 7.16439L5.49325 8.33627C5.43259 8.35627 5.37079 8.36658 5.30786 8.36658Z" fill="#FF6C6C"/>
<path d="M8.82349 2.5072H5.30786V8.36658C5.37079 8.36658 5.43259 8.35627 5.49325 8.33627L9.00888 7.16439C9.24806 7.08486 9.40942 6.86111 9.40942 6.60877V3.09314C9.40942 2.76927 9.14735 2.5072 8.82349 2.5072Z" fill="#E63950"/>
<path d="M9.99536 3.67902H0.620361C0.296494 3.67902 0.0344238 3.41695 0.0344238 3.09309V0.585938C0.0344238 0.26207 0.296494 0 0.620361 0H9.99536C10.3192 0 10.5813 0.26207 10.5813 0.585938V3.09309C10.5813 3.41695 10.3192 3.67902 9.99536 3.67902Z" fill="#FABE2C"/>
<path d="M9.99536 0H5.30786V3.67902H9.99536C10.3192 3.67902 10.5813 3.41695 10.5813 3.09309V0.585938C10.5813 0.26207 10.3192 0 9.99536 0Z" fill="#FF9100"/>
</svg>
