<svg width="41" height="36" viewBox="0 0 41 36" fill="none" xmlns="http://www.w3.org/2000/svg">
<path d="M26.2914 35.2512H16.7085L17.0333 30.9567H25.9665L26.2914 35.2512Z" fill="#E6E6E6"/>
<path d="M26.7372 35.0251H16.04V35.9293H26.7372V35.0251Z" fill="#E6E6E6"/>
<path d="M40.0147 3.1554H2.98526C2.72395 3.1554 2.47335 3.25994 2.28858 3.44604C2.1038 3.63213 2 3.88453 2 4.14771V26.8883H41V4.14771C41 4.0174 40.9745 3.88836 40.925 3.76797C40.8755 3.64757 40.8029 3.53818 40.7114 3.44604C40.6199 3.35389 40.5113 3.2808 40.3918 3.23093C40.2722 3.18106 40.1441 3.1554 40.0147 3.1554H40.0147Z" fill="#3F3D56"/>
<path d="M2 26.8882V30.8139C2 30.9514 2.02549 31.0875 2.075 31.2145C2.12451 31.3416 2.19709 31.457 2.28858 31.5542C2.38007 31.6514 2.48868 31.7285 2.60822 31.7811C2.72776 31.8337 2.85588 31.8608 2.98526 31.8608H40.0147C40.276 31.8608 40.5267 31.7505 40.7114 31.5542C40.8962 31.3578 41 31.0916 41 30.8139V26.8882H2Z" fill="#E6E6E6"/>
<path d="M38.9943 5.18958H4.00574V25.306H38.9943V5.18958Z" fill="#E6E6E6"/>
<path d="M21.4999 30.5047C22.0538 30.5047 22.5028 30.0493 22.5028 29.4876C22.5028 28.9258 22.0538 28.4705 21.4999 28.4705C20.9461 28.4705 20.4971 28.9258 20.4971 29.4876C20.4971 30.0493 20.9461 30.5047 21.4999 30.5047Z" fill="#3F3D56"/>
<path d="M5.0086 6.09366C5.19322 6.09366 5.34289 5.99246 5.34289 5.86763C5.34289 5.7428 5.19322 5.6416 5.0086 5.6416C4.82398 5.6416 4.67432 5.7428 4.67432 5.86763C4.67432 5.99246 4.82398 6.09366 5.0086 6.09366Z" fill="white"/>
<path d="M5.67722 6.09366C5.73876 6.09366 5.78865 5.99246 5.78865 5.86763C5.78865 5.7428 5.73876 5.6416 5.67722 5.6416C5.61568 5.6416 5.5658 5.7428 5.5658 5.86763C5.5658 5.99246 5.61568 6.09366 5.67722 6.09366Z" fill="white"/>
<path d="M6.45711 6.09366C6.58019 6.09366 6.67997 5.99246 6.67997 5.86763C6.67997 5.7428 6.58019 5.6416 6.45711 5.6416C6.33403 5.6416 6.23425 5.7428 6.23425 5.86763C6.23425 5.99246 6.33403 6.09366 6.45711 6.09366Z" fill="white"/>
<path d="M38.1029 6.54578H4.67432V23.2718H38.1029V6.54578Z" fill="white"/>
<path d="M7.24016 9.25806C7.20982 9.25809 7.18073 9.27079 7.15928 9.29337C7.13783 9.31595 7.12576 9.34656 7.12573 9.3785V15.4664C7.12576 15.4983 7.13783 15.5289 7.15928 15.5515C7.18073 15.5741 7.20982 15.5868 7.24016 15.5868H13.9199C13.9502 15.5868 13.9793 15.5741 14.0008 15.5515C14.0222 15.5289 14.0343 15.4983 14.0343 15.4664V9.3785C14.0343 9.34656 14.0222 9.31595 14.0008 9.29337C13.9793 9.27079 13.9502 9.25809 13.9199 9.25806H7.24016Z" fill="#C1EAF9"/>
<path d="M18.1642 9.25806C18.1328 9.25808 18.1026 9.27081 18.0804 9.29346C18.0582 9.31612 18.0457 9.34683 18.0457 9.37887V15.466C18.0457 15.498 18.0582 15.5288 18.0804 15.5514C18.1026 15.5741 18.1328 15.5868 18.1642 15.5868H25.0586C25.0901 15.5868 25.1202 15.574 25.1424 15.5514C25.1646 15.5287 25.1771 15.498 25.1771 15.466V9.37887C25.1771 9.34684 25.1646 9.31614 25.1424 9.29349C25.1202 9.27084 25.0901 9.2581 25.0586 9.25806H18.1642Z" fill="#C1EAF9"/>
<path d="M28.8602 9.25806C28.8291 9.2581 28.7993 9.27071 28.7773 9.29314C28.7553 9.31556 28.7429 9.34596 28.7429 9.37766V15.4672C28.7429 15.4989 28.7553 15.5293 28.7773 15.5517C28.7993 15.5742 28.8291 15.5868 28.8602 15.5868H35.7571C35.7882 15.5868 35.818 15.5742 35.84 15.5517C35.862 15.5293 35.8743 15.4989 35.8744 15.4672V9.37766C35.8743 9.34596 35.862 9.31556 35.84 9.29314C35.818 9.27071 35.7882 9.2581 35.7571 9.25806H28.8602Z" fill="#C1EAF9"/>
<path d="M7.35953 18.2992C7.29748 18.2994 7.23802 18.3352 7.19418 18.3987C7.15035 18.4623 7.12573 18.5484 7.12573 18.6382C7.12573 18.728 7.15035 18.8142 7.19418 18.8777C7.23802 18.9413 7.29748 18.9771 7.35953 18.9773H13.5776C13.6397 18.9771 13.6992 18.9413 13.743 18.8777C13.7868 18.8142 13.8114 18.728 13.8114 18.6382C13.8114 18.5484 13.7868 18.4623 13.743 18.3987C13.6992 18.3352 13.6397 18.2994 13.5776 18.2992H7.35953Z" fill="#E6E6E6"/>
<path d="M7.36496 19.4293C7.30147 19.4295 7.24062 19.4653 7.19577 19.5288C7.15092 19.5924 7.12573 19.6786 7.12573 19.7684C7.12573 19.8582 7.15092 19.9443 7.19577 20.0079C7.24062 20.0714 7.30147 20.1072 7.36496 20.1074H10.2294C10.2929 20.1072 10.3537 20.0714 10.3985 20.0079C10.4434 19.9443 10.4686 19.8582 10.4686 19.7684C10.4686 19.6786 10.4434 19.5924 10.3985 19.5288C10.3537 19.4653 10.2929 19.4295 10.2294 19.4293H7.36496Z" fill="#00ADF2"/>
<path d="M18.295 18.2992C18.2289 18.2994 18.1654 18.3352 18.1187 18.3987C18.0719 18.4623 18.0457 18.5484 18.0457 18.6382C18.0457 18.728 18.0719 18.8142 18.1187 18.8777C18.1654 18.9413 18.2289 18.9771 18.295 18.9773H24.9277C24.9939 18.9771 25.0573 18.9413 25.1041 18.8777C25.1508 18.8142 25.1771 18.728 25.1771 18.6382C25.1771 18.5484 25.1508 18.4623 25.1041 18.3987C25.0573 18.3352 24.9939 18.2994 24.9277 18.2992H18.295Z" fill="#E6E6E6"/>
<path d="M18.2849 19.4293C18.2214 19.4295 18.1605 19.4653 18.1157 19.5288C18.0708 19.5924 18.0457 19.6786 18.0457 19.7684C18.0457 19.8582 18.0708 19.9443 18.1157 20.0079C18.1605 20.0714 18.2214 20.1072 18.2849 20.1074H21.1493C21.2128 20.1072 21.2736 20.0714 21.3185 20.0079C21.3633 19.9443 21.3885 19.8582 21.3885 19.7684C21.3885 19.6786 21.3633 19.5924 21.3185 19.5288C21.2736 19.4653 21.2128 19.4295 21.1493 19.4293H18.2849Z" fill="#00ADF2"/>
<path d="M28.9923 18.2992C28.9261 18.2994 28.8627 18.3352 28.8159 18.3987C28.7692 18.4623 28.7429 18.5484 28.7429 18.6382C28.7429 18.728 28.7692 18.8142 28.8159 18.8777C28.8627 18.9413 28.9261 18.9771 28.9923 18.9773H35.625C35.6911 18.9771 35.7546 18.9413 35.8013 18.8777C35.8481 18.8142 35.8744 18.728 35.8744 18.6382C35.8744 18.5484 35.8481 18.4623 35.8013 18.3987C35.7546 18.3352 35.6911 18.2994 35.625 18.2992H28.9923Z" fill="#E6E6E6"/>
<path d="M7.35953 17.1689C7.29748 17.169 7.23802 17.1809 7.19418 17.2021C7.15035 17.2233 7.12573 17.252 7.12573 17.282C7.12573 17.3119 7.15035 17.3406 7.19418 17.3618C7.23802 17.383 7.29748 17.3949 7.35953 17.395H13.5776C13.6397 17.3949 13.6992 17.383 13.743 17.3618C13.7868 17.3406 13.8114 17.3119 13.8114 17.282C13.8114 17.252 13.7868 17.2233 13.743 17.2021C13.6992 17.1809 13.6397 17.169 13.5776 17.1689H7.35953Z" fill="#E6E6E6"/>
<path d="M18.295 17.1689C18.2289 17.169 18.1654 17.1809 18.1187 17.2021C18.0719 17.2233 18.0457 17.252 18.0457 17.282C18.0457 17.3119 18.0719 17.3406 18.1187 17.3618C18.1654 17.383 18.2289 17.3949 18.295 17.395H24.9277C24.9939 17.3949 25.0573 17.383 25.1041 17.3618C25.1508 17.3406 25.1771 17.3119 25.1771 17.282C25.1771 17.252 25.1508 17.2233 25.1041 17.2021C25.0573 17.1809 24.9939 17.169 24.9277 17.1689H18.295Z" fill="#E6E6E6"/>
<path d="M28.9923 17.1689C28.9261 17.169 28.8627 17.1809 28.8159 17.2021C28.7692 17.2233 28.7429 17.252 28.7429 17.282C28.7429 17.3119 28.7692 17.3406 28.8159 17.3618C28.8627 17.383 28.9261 17.3949 28.9923 17.395H35.625C35.6911 17.3949 35.7546 17.383 35.8013 17.3618C35.8481 17.3406 35.8744 17.3119 35.8744 17.282C35.8744 17.252 35.8481 17.2233 35.8013 17.2021C35.7546 17.1809 35.6911 17.169 35.625 17.1689H28.9923Z" fill="#E6E6E6"/>
<path d="M28.9981 19.4293C28.9304 19.4295 28.8655 19.4653 28.8176 19.5288C28.7698 19.5924 28.7429 19.6786 28.7429 19.7684C28.7429 19.8582 28.7698 19.9443 28.8176 20.0079C28.8655 20.0714 28.9304 20.1072 28.9981 20.1074H32.0535C32.1212 20.1072 32.1861 20.0714 32.2339 20.0079C32.2818 19.9443 32.3086 19.8582 32.3086 19.7684C32.3086 19.6786 32.2818 19.5924 32.2339 19.5288C32.1861 19.4653 32.1212 19.4295 32.0535 19.4293H28.9981Z" fill="#00ADF2"/>
<path d="M7.56634 0.153931H0V35.7507H7.56634V0.153931Z" fill="#FFAF20"/>
<path d="M2.10815 1.89111H0V2.26321H2.10815V1.89111Z" fill="#F2F2F2"/>
<path d="M2.10815 5.36316H0V5.73525H2.10815V5.36316Z" fill="#F2F2F2"/>
<path d="M2.10815 8.96094H0V9.33303H2.10815V8.96094Z" fill="#F2F2F2"/>
<path d="M2.10815 12.433H0V12.8051H2.10815V12.433Z" fill="#F2F2F2"/>
<path d="M2.10815 16.0308H0V16.4029H2.10815V16.0308Z" fill="#F2F2F2"/>
<path d="M2.10815 19.5028H0V19.8749H2.10815V19.5028Z" fill="#F2F2F2"/>
<path d="M2.10815 22.9762H0V23.3483H2.10815V22.9762Z" fill="#F2F2F2"/>
<path d="M2.10815 26.5726H0V26.9447H2.10815V26.5726Z" fill="#F2F2F2"/>
<path d="M2.10815 30.0459H0V30.418H2.10815V30.0459Z" fill="#F2F2F2"/>
<path d="M2.10815 33.6425H0V34.0146H2.10815V33.6425Z" fill="#F2F2F2"/>
<path d="M7.62998 3.99927C7.13382 3.99927 6.76172 4.37136 6.76172 4.86753V32.1546L8.51999 32.1583L8.50011 4.8416C8.46557 4.25287 8.12615 3.99927 7.62998 3.99927Z" fill="#54C0EB"/>
<path d="M6.01756 3.99927C5.52139 3.99927 5.14929 4.37136 5.14929 4.86753V32.1546H6.76175V4.86753C6.78117 4.29101 6.51361 3.99927 6.01756 3.99927Z" fill="#00ADF2"/>
<path d="M9.36643 3.99927C8.87026 3.99927 8.49817 4.37136 8.49817 4.86753V32.1546H10.1106V4.86753C10.0932 4.26671 9.86248 3.99927 9.36643 3.99927Z" fill="#00ADF2"/>
<path d="M10.0172 4.36444C10.0172 4.36444 9.73857 3.99921 9.36659 3.99921C8.87043 3.99921 8.49833 4.3713 8.49833 4.86747C8.49833 4.3713 8.12624 3.99921 7.63007 3.99921C7.1339 3.99921 6.7618 4.3713 6.7618 4.86747C6.7618 4.3713 6.40552 4.03374 5.90936 4.03374C5.53726 4.03374 5.23877 4.47072 5.23877 4.47072L6.63773 1.89058L7.62995 0.154175L8.62217 1.89058L10.0172 4.36444Z" fill="#FFD15C"/>
<path d="M8.57105 1.73653H6.71057L7.57872 0L8.57105 1.73653Z" fill="#334A5E"/>
<path d="M10.1106 32.1542H5.14929V33.5185H10.1106V32.1542Z" fill="#FFD15C"/>
<path d="M6.01763 35.7515H9.3665C9.86266 35.7515 10.2348 35.3794 10.2348 34.8832V33.5189H5.27344V34.8832C5.14937 35.3794 5.52147 35.7515 6.01763 35.7515Z" fill="#FF7058"/>
</svg>
