<?xml version="1.0" encoding="utf-8"?>
<!-- Generator: Adobe Illustrator 22.0.1, SVG Export Plug-In . SVG Version: 6.00 Build 0)  -->
<svg version="1.1" id="Layer_1" xmlns="http://www.w3.org/2000/svg" xmlns:xlink="http://www.w3.org/1999/xlink" x="0px" y="0px"
	 viewBox="0 0 86 81.9" style="enable-background:new 0 0 86 81.9;" xml:space="preserve">
<style type="text/css">
	.st0{fill:url(#SVGID_1_);}
	.st1{fill:url(#SVGID_2_);}
	.st2{fill:url(#SVGID_3_);}
	.st3{fill:url(#SVGID_4_);}
	.st4{fill:url(#SVGID_5_);}
	.st5{fill:url(#SVGID_6_);}
	.st6{fill:url(#SVGID_7_);}
	.st7{fill:url(#SVGID_8_);}
	.st8{fill:url(#SVGID_9_);}
	.st9{fill:url(#SVGID_10_);}
	.st10{fill:url(#SVGID_11_);}
	.st11{fill:url(#SVGID_12_);}
	.st12{fill:url(#SVGID_13_);}
	.st13{fill:url(#SVGID_14_);}
	.st14{fill:url(#SVGID_15_);}
	.st15{fill:url(#SVGID_16_);}
	.st16{fill:url(#SVGID_17_);}
	.st17{fill:url(#SVGID_18_);}
	.st18{fill:url(#SVGID_19_);}
	.st19{fill:url(#SVGID_20_);}
	.st20{fill:url(#SVGID_21_);}
	.st21{fill:url(#SVGID_22_);}
	.st22{fill:url(#SVGID_23_);}
	.st23{fill:url(#SVGID_24_);}
	.st24{fill:url(#SVGID_25_);}
	.st25{opacity:0.7;}
	.st26{fill:none;stroke:#FFFFFF;stroke-width:2;stroke-miterlimit:10;stroke-dasharray:6,8;}
	.st27{fill:url(#SVGID_26_);}
	.st28{opacity:0.3;}
	.st29{fill:#FFFFFF;}
	.st30{fill:url(#SVGID_27_);}
	.st31{fill:#FCC419;}
	.st32{opacity:0.5;fill:#FFCC90;}
	.st33{fill:url(#SVGID_28_);}
	.st34{fill:url(#SVGID_29_);}
	.st35{fill:url(#SVGID_30_);}
	.st36{fill:url(#SVGID_31_);}
	.st37{fill:url(#SVGID_32_);}
	.st38{fill:url(#SVGID_33_);}
	.st39{fill:url(#SVGID_34_);}
	.st40{fill:url(#SVGID_35_);}
	.st41{fill:none;}
</style>
<g>
	<g>
		<g>
			<linearGradient id="SVGID_1_" gradientUnits="userSpaceOnUse" x1="25.9592" y1="17.8336" x2="25.9592" y2="20.1442">
				<stop  offset="0" style="stop-color:#FFD02E"/>
				<stop  offset="1" style="stop-color:#FFAB17"/>
			</linearGradient>
			<line class="st0" x1="24" y1="17.8" x2="28" y2="20.1"/>
		</g>
		<g>
			<linearGradient id="SVGID_2_" gradientUnits="userSpaceOnUse" x1="25.9592" y1="16.1809" x2="25.9592" y2="21.7966">
				<stop  offset="0" style="stop-color:#FFD02E"/>
				<stop  offset="1" style="stop-color:#FFAB17"/>
			</linearGradient>
			<path class="st1" d="M28,21.8c-0.3,0-0.6-0.1-0.8-0.2l-4-2.3c-0.8-0.5-1.1-1.5-0.6-2.3c0.5-0.8,1.5-1.1,2.3-0.6l4,2.3
				c0.8,0.5,1.1,1.5,0.6,2.3C29.1,21.5,28.5,21.8,28,21.8z"/>
		</g>
	</g>
	<g>
		<g>
			<linearGradient id="SVGID_3_" gradientUnits="userSpaceOnUse" x1="21.933" y1="34.0149" x2="21.933" y2="34.0149">
				<stop  offset="0" style="stop-color:#FFD02E"/>
				<stop  offset="1" style="stop-color:#FFAB17"/>
			</linearGradient>
			<line class="st2" x1="19.6" y1="34" x2="24.2" y2="34"/>
		</g>
		<g>
			<linearGradient id="SVGID_4_" gradientUnits="userSpaceOnUse" x1="21.933" y1="32.3625" x2="21.933" y2="35.6671">
				<stop  offset="0" style="stop-color:#FFD02E"/>
				<stop  offset="1" style="stop-color:#FFAB17"/>
			</linearGradient>
			<path class="st3" d="M24.2,35.7h-4.6c-0.9,0-1.7-0.7-1.7-1.7c0-0.9,0.7-1.7,1.7-1.7h4.6c0.9,0,1.7,0.7,1.7,1.7
				C25.9,34.9,25.2,35.7,24.2,35.7z"/>
		</g>
	</g>
	<g>
		<g>
			<linearGradient id="SVGID_5_" gradientUnits="userSpaceOnUse" x1="25.9592" y1="47.8856" x2="25.9592" y2="50.1962">
				<stop  offset="0" style="stop-color:#FFD02E"/>
				<stop  offset="1" style="stop-color:#FFAB17"/>
			</linearGradient>
			<line class="st4" x1="24" y1="50.2" x2="28" y2="47.9"/>
		</g>
		<g>
			<linearGradient id="SVGID_6_" gradientUnits="userSpaceOnUse" x1="25.9592" y1="46.2332" x2="25.9592" y2="51.8488">
				<stop  offset="0" style="stop-color:#FFD02E"/>
				<stop  offset="1" style="stop-color:#FFAB17"/>
			</linearGradient>
			<path class="st5" d="M24,51.8c-0.6,0-1.1-0.3-1.4-0.8c-0.5-0.8-0.2-1.8,0.6-2.3l4-2.3c0.8-0.5,1.8-0.2,2.3,0.6
				c0.5,0.8,0.2,1.8-0.6,2.3l-4,2.3C24.5,51.8,24.2,51.8,24,51.8z"/>
		</g>
	</g>
	<g>
		<g>
			<linearGradient id="SVGID_7_" gradientUnits="userSpaceOnUse" x1="36.959" y1="58.0397" x2="36.959" y2="62.0418">
				<stop  offset="0" style="stop-color:#FFD02E"/>
				<stop  offset="1" style="stop-color:#FFAB17"/>
			</linearGradient>
			<line class="st6" x1="35.8" y1="62" x2="38.1" y2="58"/>
		</g>
		<g>
			<linearGradient id="SVGID_8_" gradientUnits="userSpaceOnUse" x1="36.959" y1="56.3871" x2="36.959" y2="63.6942">
				<stop  offset="0" style="stop-color:#FFD02E"/>
				<stop  offset="1" style="stop-color:#FFAB17"/>
			</linearGradient>
			<path class="st7" d="M35.8,63.7c-0.3,0-0.6-0.1-0.8-0.2c-0.8-0.5-1.1-1.5-0.6-2.3l2.3-4c0.5-0.8,1.5-1.1,2.3-0.6
				c0.8,0.5,1.1,1.5,0.6,2.3l-2.3,4C36.9,63.4,36.4,63.7,35.8,63.7z"/>
		</g>
	</g>
	<g>
		<g>
			<linearGradient id="SVGID_9_" gradientUnits="userSpaceOnUse" x1="51.9851" y1="61.7564" x2="51.9851" y2="66.3776">
				<stop  offset="0" style="stop-color:#FFD02E"/>
				<stop  offset="1" style="stop-color:#FFAB17"/>
			</linearGradient>
			<line class="st8" x1="52" y1="66.4" x2="52" y2="61.8"/>
		</g>
		<g>
			<linearGradient id="SVGID_10_" gradientUnits="userSpaceOnUse" x1="51.985" y1="60.1041" x2="51.985" y2="68.0299">
				<stop  offset="0" style="stop-color:#FFD02E"/>
				<stop  offset="1" style="stop-color:#FFAB17"/>
			</linearGradient>
			<path class="st9" d="M52,68c-0.9,0-1.7-0.7-1.7-1.7v-4.6c0-0.9,0.7-1.7,1.7-1.7s1.7,0.7,1.7,1.7v4.6C53.6,67.3,52.9,68,52,68z"/>
		</g>
	</g>
	<g>
		<g>
			<linearGradient id="SVGID_11_" gradientUnits="userSpaceOnUse" x1="67.0111" y1="58.0397" x2="67.0111" y2="62.0418">
				<stop  offset="0" style="stop-color:#FFD02E"/>
				<stop  offset="1" style="stop-color:#FFAB17"/>
			</linearGradient>
			<line class="st10" x1="68.2" y1="62" x2="65.9" y2="58"/>
		</g>
		<g>
			<linearGradient id="SVGID_12_" gradientUnits="userSpaceOnUse" x1="67.0111" y1="56.3872" x2="67.0111" y2="63.6942">
				<stop  offset="0" style="stop-color:#FFD02E"/>
				<stop  offset="1" style="stop-color:#FFAB17"/>
			</linearGradient>
			<path class="st11" d="M68.2,63.7c-0.6,0-1.1-0.3-1.4-0.8l-2.3-4c-0.5-0.8-0.2-1.8,0.6-2.3c0.8-0.5,1.8-0.2,2.3,0.6l2.3,4
				c0.5,0.8,0.2,1.8-0.6,2.3C68.7,63.6,68.4,63.7,68.2,63.7z"/>
		</g>
	</g>
	<g>
		<g>
			<linearGradient id="SVGID_13_" gradientUnits="userSpaceOnUse" x1="78.0109" y1="47.8856" x2="78.0109" y2="50.1962">
				<stop  offset="0" style="stop-color:#FFD02E"/>
				<stop  offset="1" style="stop-color:#FFAB17"/>
			</linearGradient>
			<line class="st12" x1="80" y1="50.2" x2="76" y2="47.9"/>
		</g>
		<g>
			<linearGradient id="SVGID_14_" gradientUnits="userSpaceOnUse" x1="78.0109" y1="46.2331" x2="78.0109" y2="51.8488">
				<stop  offset="0" style="stop-color:#FFD02E"/>
				<stop  offset="1" style="stop-color:#FFAB17"/>
			</linearGradient>
			<path class="st13" d="M80,51.8c-0.3,0-0.6-0.1-0.8-0.2l-4-2.3c-0.8-0.5-1.1-1.5-0.6-2.3c0.5-0.8,1.5-1.1,2.3-0.6l4,2.3
				c0.8,0.5,1.1,1.5,0.6,2.3C81.1,51.6,80.6,51.8,80,51.8z"/>
		</g>
	</g>
	<g>
		<g>
			<linearGradient id="SVGID_15_" gradientUnits="userSpaceOnUse" x1="82.0371" y1="34.0149" x2="82.0371" y2="34.0149">
				<stop  offset="0" style="stop-color:#FFD02E"/>
				<stop  offset="1" style="stop-color:#FFAB17"/>
			</linearGradient>
			<line class="st14" x1="84.3" y1="34" x2="79.7" y2="34"/>
		</g>
		<g>
			<linearGradient id="SVGID_16_" gradientUnits="userSpaceOnUse" x1="82.0371" y1="32.3625" x2="82.0371" y2="35.6671">
				<stop  offset="0" style="stop-color:#FFD02E"/>
				<stop  offset="1" style="stop-color:#FFAB17"/>
			</linearGradient>
			<path class="st15" d="M84.3,35.7h-4.6c-0.9,0-1.7-0.7-1.7-1.7c0-0.9,0.7-1.7,1.7-1.7h4.6c0.9,0,1.7,0.7,1.7,1.7
				C86,34.9,85.3,35.7,84.3,35.7z"/>
		</g>
	</g>
	<g>
		<g>
			<linearGradient id="SVGID_17_" gradientUnits="userSpaceOnUse" x1="78.0109" y1="17.8336" x2="78.0109" y2="20.1442">
				<stop  offset="0" style="stop-color:#FFD02E"/>
				<stop  offset="1" style="stop-color:#FFAB17"/>
			</linearGradient>
			<line class="st16" x1="80" y1="17.8" x2="76" y2="20.1"/>
		</g>
		<g>
			<linearGradient id="SVGID_18_" gradientUnits="userSpaceOnUse" x1="78.0109" y1="16.181" x2="78.0109" y2="21.7966">
				<stop  offset="0" style="stop-color:#FFD02E"/>
				<stop  offset="1" style="stop-color:#FFAB17"/>
			</linearGradient>
			<path class="st17" d="M76,21.8c-0.6,0-1.1-0.3-1.4-0.8c-0.5-0.8-0.2-1.8,0.6-2.3l4-2.3c0.8-0.5,1.8-0.2,2.3,0.6
				c0.5,0.8,0.2,1.8-0.6,2.3l-4,2.3C76.6,21.7,76.3,21.8,76,21.8z"/>
		</g>
	</g>
	<g>
		<g>
			<linearGradient id="SVGID_19_" gradientUnits="userSpaceOnUse" x1="67.0111" y1="5.988" x2="67.0111" y2="9.9901">
				<stop  offset="0" style="stop-color:#FFD02E"/>
				<stop  offset="1" style="stop-color:#FFAB17"/>
			</linearGradient>
			<line class="st18" x1="68.2" y1="6" x2="65.9" y2="10"/>
		</g>
		<g>
			<linearGradient id="SVGID_20_" gradientUnits="userSpaceOnUse" x1="67.0111" y1="4.3354" x2="67.0111" y2="11.6426">
				<stop  offset="0" style="stop-color:#FFD02E"/>
				<stop  offset="1" style="stop-color:#FFAB17"/>
			</linearGradient>
			<path class="st19" d="M65.9,11.6c-0.3,0-0.6-0.1-0.8-0.2C64.2,11,64,10,64.4,9.2l2.3-4c0.5-0.8,1.5-1.1,2.3-0.6
				C69.8,5,70.1,6,69.6,6.8l-2.3,4C67,11.3,66.4,11.6,65.9,11.6z"/>
		</g>
	</g>
	<g>
		<g>
			<linearGradient id="SVGID_21_" gradientUnits="userSpaceOnUse" x1="51.9851" y1="1.6523" x2="51.9851" y2="6.2735">
				<stop  offset="0" style="stop-color:#FFD02E"/>
				<stop  offset="1" style="stop-color:#FFAB17"/>
			</linearGradient>
			<line class="st20" x1="52" y1="1.7" x2="52" y2="6.3"/>
		</g>
		<g>
			<linearGradient id="SVGID_22_" gradientUnits="userSpaceOnUse" x1="51.985" y1="0" x2="51.985" y2="7.9258">
				<stop  offset="0" style="stop-color:#FFD02E"/>
				<stop  offset="1" style="stop-color:#FFAB17"/>
			</linearGradient>
			<path class="st21" d="M52,7.9c-0.9,0-1.7-0.7-1.7-1.7V1.7C50.3,0.7,51.1,0,52,0s1.7,0.7,1.7,1.7v4.6C53.6,7.2,52.9,7.9,52,7.9z"
				/>
		</g>
	</g>
	<g>
		<g>
			<linearGradient id="SVGID_23_" gradientUnits="userSpaceOnUse" x1="36.959" y1="5.988" x2="36.959" y2="9.9901">
				<stop  offset="0" style="stop-color:#FFD02E"/>
				<stop  offset="1" style="stop-color:#FFAB17"/>
			</linearGradient>
			<line class="st22" x1="35.8" y1="6" x2="38.1" y2="10"/>
		</g>
		<g>
			<linearGradient id="SVGID_24_" gradientUnits="userSpaceOnUse" x1="36.959" y1="4.3355" x2="36.959" y2="11.6426">
				<stop  offset="0" style="stop-color:#FFD02E"/>
				<stop  offset="1" style="stop-color:#FFAB17"/>
			</linearGradient>
			<path class="st23" d="M38.1,11.6c-0.6,0-1.1-0.3-1.4-0.8l-2.3-4C33.9,6,34.2,5,35,4.6c0.8-0.5,1.8-0.2,2.3,0.6l2.3,4
				c0.5,0.8,0.2,1.8-0.6,2.3C38.7,11.6,38.4,11.6,38.1,11.6z"/>
		</g>
	</g>
</g>
<g>
	<linearGradient id="SVGID_25_" gradientUnits="userSpaceOnUse" x1="51.9851" y1="10.5606" x2="51.9851" y2="57.4693">
		<stop  offset="0" style="stop-color:#FFD02E"/>
		<stop  offset="1" style="stop-color:#FFAB17"/>
	</linearGradient>
	<circle class="st24" cx="52" cy="34" r="23.5"/>
</g>
<g class="st25">
	<circle class="st26" cx="52" cy="34" r="18.7"/>
</g>
<g>
	<linearGradient id="SVGID_26_" gradientUnits="userSpaceOnUse" x1="23.9602" y1="24.602" x2="23.9602" y2="72.5224">
		<stop  offset="0" style="stop-color:#98DBF5"/>
		<stop  offset="7.767689e-02" style="stop-color:#8BD7F5"/>
		<stop  offset="0.7147" style="stop-color:#28B9F3"/>
		<stop  offset="1" style="stop-color:#00ADF2"/>
	</linearGradient>
	<path class="st27" d="M47.9,51.1V46c0-0.8-0.6-1.4-1.4-1.4l-4.3-0.2c-0.6,0-1.1-0.4-1.3-1c-0.3-1.1-0.8-2.2-1.3-3.2
		c-0.3-0.5-0.2-1.2,0.2-1.6l2.9-3.2c0.5-0.6,0.5-1.4,0-2l-3.6-3.6c-0.5-0.5-1.4-0.6-2,0l-3.2,2.9c-0.4,0.4-1.1,0.5-1.6,0.2
		c-1-0.5-2.1-1-3.2-1.3c-0.6-0.2-1-0.7-1-1.3L27.9,26c0-0.8-0.7-1.4-1.4-1.4h-5.1c-0.8,0-1.4,0.6-1.4,1.4l-0.2,4.3
		c0,0.6-0.4,1.1-1,1.3c-1.1,0.3-2.2,0.8-3.2,1.3c-0.5,0.3-1.2,0.2-1.6-0.2l-3.2-2.9c-0.6-0.5-1.4-0.5-2,0l-3.6,3.6
		c-0.5,0.5-0.6,1.4,0,2l2.9,3.2c0.4,0.4,0.5,1.1,0.2,1.6c-0.5,1-1,2.1-1.3,3.2c-0.2,0.6-0.7,1-1.3,1l-4.3,0.2C0.6,44.6,0,45.3,0,46
		v5.1c0,0.8,0.6,1.4,1.4,1.4l4.3,0.2c0.6,0,1.1,0.4,1.3,1c0.3,1.1,0.8,2.2,1.3,3.2c0.3,0.5,0.2,1.2-0.2,1.6l-2.9,3.2
		c-0.5,0.6-0.5,1.4,0,2l3.6,3.6c0.5,0.5,1.4,0.6,2,0l3.2-2.9c0.4-0.4,1.1-0.5,1.6-0.2c1,0.5,2.1,1,3.2,1.3c0.6,0.2,1,0.7,1,1.3
		l0.2,4.3c0,0.8,0.7,1.4,1.4,1.4h5.1c0.8,0,1.4-0.6,1.4-1.4l0.2-4.3c0-0.6,0.4-1.1,1-1.3c1.1-0.3,2.2-0.8,3.2-1.3
		c0.5-0.3,1.2-0.2,1.6,0.2l3.2,2.9c0.6,0.5,1.4,0.5,2,0l3.6-3.6c0.5-0.5,0.6-1.4,0-2l-2.9-3.2c-0.4-0.4-0.5-1.1-0.2-1.6
		c0.5-1,1-2.1,1.3-3.2c0.2-0.6,0.7-1,1.3-1l4.3-0.2C47.3,52.5,47.9,51.9,47.9,51.1z"/>
</g>
<g class="st25">
	<circle class="st26" cx="24" cy="48.6" r="12.8"/>
</g>
<g class="st28">
	<circle class="st29" cx="24" cy="48.6" r="8.5"/>
</g>
<g class="st28">
	<circle class="st29" cx="24" cy="48.6" r="4.3"/>
</g>
<g>
	<linearGradient id="SVGID_27_" gradientUnits="userSpaceOnUse" x1="57.5473" y1="48.5622" x2="57.5473" y2="81.9353">
		<stop  offset="0" style="stop-color:#98DBF5"/>
		<stop  offset="7.767689e-02" style="stop-color:#8BD7F5"/>
		<stop  offset="0.7147" style="stop-color:#28B9F3"/>
		<stop  offset="1" style="stop-color:#00ADF2"/>
	</linearGradient>
	<path class="st30" d="M74.2,62.8l-0.9-3.4c-0.1-0.5-0.6-0.8-1.2-0.7l-3,0.6c-0.4,0.1-0.8-0.1-1.1-0.5c-0.4-0.7-0.9-1.3-1.5-1.9
		c-0.3-0.3-0.3-0.8-0.1-1.1l1.4-2.7c0.2-0.5,0.1-1-0.4-1.3l-3.1-1.8c-0.5-0.3-1-0.1-1.3,0.3l-1.7,2.5c-0.2,0.4-0.7,0.5-1.1,0.4
		c-0.8-0.2-1.6-0.3-2.4-0.3c-0.4,0-0.8-0.3-0.9-0.7l-0.9-2.9c-0.2-0.5-0.7-0.8-1.2-0.7l-3.4,0.9c-0.5,0.1-0.8,0.6-0.7,1.2l0.6,3
		c0.1,0.4-0.1,0.8-0.5,1.1c-0.7,0.4-1.3,0.9-1.9,1.5c-0.3,0.3-0.8,0.3-1.1,0.1l-2.7-1.4c-0.5-0.2-1-0.1-1.3,0.4l-1.8,3.1
		c-0.3,0.5-0.1,1,0.3,1.3l2.5,1.7c0.4,0.2,0.5,0.7,0.4,1.1c-0.2,0.8-0.3,1.6-0.3,2.4c0,0.4-0.3,0.8-0.7,0.9l-2.9,0.9
		c-0.5,0.2-0.8,0.7-0.7,1.2l0.9,3.4c0.1,0.5,0.6,0.8,1.2,0.7l3-0.6c0.4-0.1,0.8,0.1,1.1,0.5c0.4,0.7,0.9,1.3,1.5,1.9
		c0.3,0.3,0.3,0.8,0.1,1.1l-1.4,2.7c-0.2,0.5-0.1,1,0.4,1.3l3.1,1.8c0.5,0.3,1,0.1,1.3-0.3l1.7-2.5c0.2-0.4,0.7-0.5,1.1-0.4
		c0.8,0.2,1.6,0.3,2.4,0.3c0.4,0,0.8,0.3,0.9,0.7l0.9,2.9c0.2,0.5,0.7,0.8,1.2,0.7l3.4-0.9c0.5-0.1,0.8-0.6,0.7-1.2l-0.6-3
		c-0.1-0.4,0.1-0.8,0.5-1.1c0.7-0.4,1.3-0.9,1.9-1.5c0.3-0.3,0.8-0.3,1.1-0.1l2.7,1.4c0.5,0.2,1,0.1,1.3-0.4l1.8-3.1
		c0.3-0.5,0.1-1-0.3-1.3L70,69.2c-0.4-0.2-0.5-0.7-0.4-1.1c0.2-0.8,0.3-1.6,0.3-2.4c0-0.4,0.3-0.8,0.7-0.9l2.9-0.9
		C74,63.8,74.3,63.3,74.2,62.8z"/>
</g>
<g>
	<circle class="st26" cx="57.5" cy="65.2" r="8.9"/>
</g>
<g class="st28">
	<circle class="st29" cx="57.5" cy="65.2" r="5.9"/>
</g>
<g class="st28">
	<circle class="st29" cx="57.5" cy="65.2" r="3"/>
</g>
<g>
	<line class="st31" x1="51.8" y1="1.6" x2="51.8" y2="6.2"/>
</g>
<g>
	<line class="st31" x1="35.6" y1="5.9" x2="37.9" y2="9.9"/>
</g>
<polygon class="st32" points="52.9,41.1 52.9,31.1 52.9,31.1 "/>
<linearGradient id="SVGID_28_" gradientUnits="userSpaceOnUse" x1="43.4558" y1="36.0991" x2="52.8695" y2="36.0991">
	<stop  offset="0" style="stop-color:#F0C42B"/>
	<stop  offset="1" style="stop-color:#F0A116"/>
</linearGradient>
<polygon class="st33" points="43.5,31.1 43.5,31.1 52.9,41.1 48.6,31.1 "/>
<linearGradient id="SVGID_29_" gradientUnits="userSpaceOnUse" x1="43.4565" y1="29.1272" x2="48.5735" y2="29.1272">
	<stop  offset="0" style="stop-color:#F0C42B"/>
	<stop  offset="1" style="stop-color:#F0A116"/>
</linearGradient>
<polygon class="st34" points="45.8,27.1 45.8,27.1 43.5,31.1 48.6,31.1 "/>
<linearGradient id="SVGID_30_" gradientUnits="userSpaceOnUse" x1="45.843" y1="29.1272" x2="52.855" y2="29.1272">
	<stop  offset="0" style="stop-color:#F0C42B"/>
	<stop  offset="1" style="stop-color:#F0A116"/>
</linearGradient>
<polygon class="st35" points="52.9,27.1 45.8,27.1 48.6,31.1 "/>
<polygon class="st32" points="52.8,41.1 52.8,31.1 52.8,31.1 "/>
<linearGradient id="SVGID_31_" gradientUnits="userSpaceOnUse" x1="52.8408" y1="36.0991" x2="62.2546" y2="36.0991">
	<stop  offset="0" style="stop-color:#F0C42B"/>
	<stop  offset="1" style="stop-color:#F0A116"/>
</linearGradient>
<polygon class="st36" points="62.3,31.1 62.3,31.1 52.8,41.1 57.1,31.1 "/>
<linearGradient id="SVGID_32_" gradientUnits="userSpaceOnUse" x1="57.1368" y1="29.1272" x2="62.2538" y2="29.1272">
	<stop  offset="0" style="stop-color:#F0C42B"/>
	<stop  offset="1" style="stop-color:#F0A116"/>
</linearGradient>
<polygon class="st37" points="59.9,27.1 59.9,27.1 62.3,31.1 57.1,31.1 "/>
<linearGradient id="SVGID_33_" gradientUnits="userSpaceOnUse" x1="52.8552" y1="27.1274" x2="52.8552" y2="31.127">
	<stop  offset="0" style="stop-color:#F0C42B"/>
	<stop  offset="1" style="stop-color:#F0A116"/>
</linearGradient>
<polygon class="st38" points="52.9,27.1 52.9,27.1 52.9,27.1 52.9,27.1 52.8,27.1 52.8,27.1 48.6,31.1 52.8,31.1 52.9,31.1 
	57.1,31.1 "/>
<linearGradient id="SVGID_34_" gradientUnits="userSpaceOnUse" x1="52.8553" y1="29.1272" x2="59.8674" y2="29.1272">
	<stop  offset="0" style="stop-color:#F0C42B"/>
	<stop  offset="1" style="stop-color:#F0A116"/>
</linearGradient>
<polygon class="st39" points="52.9,27.1 59.9,27.1 57.1,31.1 "/>
<linearGradient id="SVGID_35_" gradientUnits="userSpaceOnUse" x1="52.8552" y1="31.127" x2="52.8552" y2="41.0713">
	<stop  offset="0" style="stop-color:#F0C42B"/>
	<stop  offset="1" style="stop-color:#F0A116"/>
</linearGradient>
<polygon class="st40" points="57.1,31.1 52.9,31.1 52.8,31.1 48.6,31.1 52.8,41 52.8,41.1 52.9,41 52.9,41.1 52.9,41 "/>
<path class="st41" d="M62.1,30.9L60,27.3c-0.1-0.1-0.2-0.2-0.3-0.2H46c-0.1,0-0.3,0.1-0.3,0.2l-2.1,3.6c-0.1,0.2-0.1,0.3,0.1,0.5
	l8.9,9.5c0.1,0.1,0.4,0.1,0.5,0l8.9-9.5C62.2,31.2,62.2,31,62.1,30.9z"/>
</svg>
