<svg width="40" height="40" viewBox="0 0 40 40" fill="none" xmlns="http://www.w3.org/2000/svg">
<circle cx="20" cy="20" r="20" fill="#00ADF2"/>
<path d="M20.0283 10.4L14.5596 20.4L20.0283 30.4L20.2236 30.331C22.7249 29.4469 24.8696 27.8362 26.4257 25.673C28.0159 23.4627 28.8564 20.8504 28.8564 18.1189V12.9104L20.0283 10.4Z" fill="#A1CDD8"/>
<path d="M11.2002 12.9104V18.1189C11.2002 20.8505 12.0407 23.4627 13.6309 25.6731C15.1871 27.8362 17.3318 29.4469 19.833 30.331L20.0283 30.4V10.4L11.2002 12.9104Z" fill="#BDE5EF"/>
<path d="M26.4817 18.9359C26.5022 18.6653 26.5127 18.3928 26.5127 18.1188V14.6805L20.0283 12.8367L15.7314 18.9359H26.4817Z" fill="#C4F3FF"/>
<path d="M20.0283 12.8367L13.5439 14.6806V18.1189C13.5439 18.3928 13.5544 18.6653 13.5749 18.936H20.0283V12.8367Z" fill="white"/>
<path d="M20.0283 17.1008L16.1221 22.4995L20.0283 27.8982L20.269 27.7898C21.9596 27.0282 23.4306 25.823 24.5232 24.3043C25.6654 22.7167 26.3348 20.8751 26.4817 18.9359L20.0283 17.1008Z" fill="#CABD48"/>
<path d="M13.5747 18.9359C13.7216 20.8751 14.3911 22.7167 15.5333 24.3043C16.6258 25.823 18.0969 27.0281 19.7874 27.7898L20.0281 27.8982V17.1008L13.5747 18.9359Z" fill="#FFEF61"/>
</svg>
