<svg width="68" height="23" viewBox="0 0 68 23" fill="none" xmlns="http://www.w3.org/2000/svg">
<path d="M6.64577 5.50007L10.3144 10.9129L16.5959 9.09647L12.5817 14.2582L16.2503 19.671L10.1008 17.4483L6.08655 22.6099L6.30015 16.0746L0.150635 13.8519L6.43217 12.0355L6.64577 5.50007Z" fill="#FFC85D"/>
<path d="M60.6459 5.50007L56.9773 10.9129L50.6957 9.09647L54.71 14.2582L51.0414 19.671L57.1909 17.4483L61.2051 22.6099L60.9915 16.0746L67.141 13.8519L60.8595 12.0355L60.6459 5.50007Z" fill="#FFC85D"/>
<path d="M34 0L36.0206 6.21885H42.5595L37.2694 10.0623L39.2901 16.2812L34 12.4377L28.7099 16.2812L30.7305 10.0623L25.4405 6.21885H31.9794L34 0Z" fill="#FFC85D"/>
</svg>
