<svg width="40" height="40" viewBox="0 0 40 40" fill="none" xmlns="http://www.w3.org/2000/svg">
<circle cx="20" cy="20" r="20" fill="#F2FCFE"/>
<path d="M20 10C23.4518 10 26.25 12.7982 26.25 16.25C26.25 19.7018 23.4518 22.5 20 22.5C16.5482 22.5 13.75 19.7018 13.75 16.25C13.75 12.7982 16.5482 10 20 10ZM27.1595 23.0399L24.3738 22.3435C21.4471 24.4486 17.8997 23.9788 15.6262 22.3435L12.8405 23.0399C11.1711 23.4572 10 24.9571 10 26.6779V28.125C10 29.1605 10.8395 30 11.875 30H28.125C29.1605 30 30 29.1605 30 28.125V26.6779C30 24.9571 28.8289 23.4572 27.1595 23.0399Z" fill="#D8F1FA"/>
</svg>
