<svg width="40" height="40" viewBox="0 0 40 40" fill="none" xmlns="http://www.w3.org/2000/svg">
<circle cx="20" cy="20" r="20" fill="#00ADF2"/>
<path d="M32.5802 10.9107V29.0893C32.5802 29.3712 32.3515 29.6 32.0696 29.6H7.71087C7.42896 29.6 7.2002 29.3712 7.2002 29.0893V10.9107C7.2002 10.6288 7.42896 10.4 7.71087 10.4H32.0696C32.3515 10.4 32.5802 10.6288 32.5802 10.9107Z" fill="white"/>
<path d="M32.5805 10.9107V29.0893C32.5805 29.3712 32.3518 29.6 32.0699 29.6H25.9531C31.6031 24.7094 31.4775 13.3379 31.3442 10.4H32.0699C32.3518 10.4 32.5805 10.6288 32.5805 10.9107Z" fill="#D1D0D8"/>
<path d="M32.5802 10.9107V13.6187H7.2002V10.9107C7.2002 10.6288 7.42896 10.4 7.71087 10.4H32.0696C32.3515 10.4 32.5802 10.6288 32.5802 10.9107Z" fill="#D1D0D8"/>
<path d="M32.58 10.9107V13.6187H31.3631C31.405 12.2164 31.3749 11.0812 31.3438 10.4H32.0694C32.3513 10.4 32.58 10.6288 32.58 10.9107Z" fill="#AAAAB2"/>
<path d="M9.24523 12.3925H9.23943C9.02786 12.3925 8.85645 12.221 8.85645 12.0095C8.85645 11.798 9.02791 11.6265 9.23943 11.6265H9.24523C9.45679 11.6265 9.62821 11.798 9.62821 12.0095C9.62821 12.221 9.45674 12.3925 9.24523 12.3925Z" fill="#717177"/>
<path d="M10.4014 12.3925H10.3957C10.1841 12.3925 10.0127 12.221 10.0127 12.0095C10.0127 11.798 10.1842 11.6265 10.3957 11.6265H10.4014C10.613 11.6265 10.7844 11.798 10.7844 12.0095C10.7845 12.221 10.613 12.3925 10.4014 12.3925Z" fill="#717177"/>
<path d="M11.5577 12.3925H11.5519C11.3404 12.3925 11.1689 12.221 11.1689 12.0095C11.1689 11.798 11.3404 11.6265 11.5519 11.6265H11.5577C11.7692 11.6265 11.9407 11.798 11.9407 12.0095C11.9407 12.221 11.7692 12.3925 11.5577 12.3925Z" fill="#717177"/>
<path d="M30.541 12.3925H29.8283C29.6167 12.3925 29.4453 12.221 29.4453 12.0095C29.4453 11.798 29.6168 11.6265 29.8283 11.6265H30.541C30.7525 11.6265 30.9239 11.798 30.9239 12.0095C30.924 12.221 30.7525 12.3925 30.541 12.3925Z" fill="#717177"/>
<path d="M17.1188 16.2236V22.7698C17.1188 23.0519 16.8902 23.2805 16.6082 23.2805H10.0619C9.77989 23.2805 9.55127 23.0519 9.55127 22.7698V16.2236C9.55127 15.9416 9.77989 15.713 10.0619 15.713H16.6082C16.8902 15.713 17.1188 15.9416 17.1188 16.2236Z" fill="#FFEF61"/>
<path d="M17.1191 16.2236V22.7698C17.1191 23.0519 16.8905 23.2805 16.6084 23.2805H12.1411C15.5702 21.2082 15.5651 17.2884 15.4073 15.713H16.6084C16.8905 15.7129 17.1191 15.9416 17.1191 16.2236Z" fill="#CABD48"/>
<path d="M17.1188 24.9677V27.0783C17.1188 27.3603 16.8902 27.589 16.6082 27.589H10.0619C9.77989 27.589 9.55127 27.3603 9.55127 27.0783V24.9677C9.55127 24.6857 9.77989 24.4571 10.0619 24.4571H16.6082C16.8902 24.4571 17.1188 24.6857 17.1188 24.9677Z" fill="#FFEF61"/>
<path d="M17.1186 24.9677V27.0783C17.1186 27.3603 16.89 27.589 16.6079 27.589H14.2236C15.2368 26.6647 15.8128 25.5448 16.1289 24.4571H16.6079C16.89 24.4571 17.1186 24.6857 17.1186 24.9677Z" fill="#CABD48"/>
<path d="M29.7137 16.2236V17.9047C29.7137 18.1868 29.4851 18.4154 29.203 18.4154H24.3134C24.0314 18.4154 23.8027 18.1868 23.8027 17.9047V16.2236C23.8027 15.9416 24.0314 15.713 24.3134 15.713H29.203C29.485 15.713 29.7137 15.9416 29.7137 16.2236Z" fill="#FFEF61"/>
<path d="M29.7136 16.2236V17.9047C29.7136 18.1868 29.485 18.4154 29.203 18.4154H27.1797C28.0958 17.6203 28.6719 16.6684 29.0262 15.713H29.2029C29.485 15.713 29.7136 15.9416 29.7136 16.2236Z" fill="#CABD48"/>
<path d="M29.7137 20.118V27.0783C29.7137 27.3604 29.4851 27.589 29.203 27.589H24.3134C24.0314 27.589 23.8027 27.3604 23.8027 27.0783V20.118C23.8027 19.8359 24.0314 19.6073 24.3134 19.6073H29.203C29.485 19.6073 29.7137 19.8359 29.7137 20.118Z" fill="#FFEF61"/>
<path d="M29.7133 20.118V27.0784C29.7133 27.3604 29.4847 27.589 29.2026 27.589H25.5713C28.1792 25.3988 28.3023 21.5167 28.1834 19.6074H29.2026C29.4846 19.6073 29.7133 19.8359 29.7133 20.118Z" fill="#CABD48"/>
<path d="M22.6002 16.2236V27.0783C22.6002 27.3604 22.3716 27.589 22.0895 27.589H18.8647C18.5826 27.589 18.354 27.3604 18.354 27.0783V16.2236C18.354 15.9416 18.5826 15.713 18.8647 15.713H22.0895C22.3716 15.713 22.6002 15.9416 22.6002 16.2236Z" fill="#FFEF61"/>
<path d="M22.6003 16.2236V27.0783C22.6003 27.3604 22.3717 27.589 22.0897 27.589H19.3203C21.8338 24.1328 21.8685 17.7378 21.8108 15.713H22.0897C22.3717 15.713 22.6003 15.9416 22.6003 16.2236Z" fill="#CABD48"/>
</svg>
