<svg width="33" height="33" viewBox="0 0 33 33" fill="none" xmlns="http://www.w3.org/2000/svg">
<path d="M0.000549316 16.4994C0.000549316 23.03 3.79543 28.6744 9.29933 31.3479L1.42855 9.78467C0.514162 11.8359 0.000549316 14.107 0.000549316 16.4994Z" fill="#1C769B"/>
<path d="M16.7895 17.9424L11.8386 32.3278C13.3177 32.7626 14.8798 33 16.5 33C18.4208 33 20.264 32.6679 21.9789 32.0649C21.9352 31.9935 21.8943 31.9196 21.8613 31.8376L16.7895 17.9424Z" fill="#1C769B"/>
<path d="M27.6387 15.6676C27.6387 13.6275 26.9053 12.216 26.2783 11.1174C25.4411 9.75651 24.6566 8.6058 24.6566 7.24752C24.6566 5.73011 25.8068 4.31807 27.4274 4.31807C27.5009 4.31807 27.5701 4.32818 27.6403 4.33191C24.7072 1.64196 20.7952 0 16.5 0C10.7348 0 5.66464 2.95766 2.71497 7.43647C3.10244 7.44871 3.46702 7.4567 3.77625 7.4567C5.50125 7.4567 8.17416 7.24699 8.17416 7.24699C9.063 7.19377 9.16732 8.50148 8.27848 8.6058C8.27848 8.6058 7.38485 8.71119 6.39009 8.76388L12.3986 26.6349L16.0098 15.806L13.4407 8.76388C12.5508 8.71119 11.7088 8.6058 11.7088 8.6058C10.8199 8.55311 10.9237 7.1943 11.8142 7.24699C11.8142 7.24699 14.5387 7.4567 16.1599 7.4567C17.8854 7.4567 20.5573 7.24699 20.5573 7.24699C21.4472 7.19377 21.5515 8.50148 20.6621 8.6058C20.6621 8.6058 19.7674 8.71119 18.7743 8.76388L24.737 26.4992L26.3842 21.0006C27.0948 18.7173 27.6387 17.0791 27.6387 15.6676Z" fill="#1C769B"/>
<path d="M31.0903 10.2802C31.0903 11.9541 30.7774 13.8361 29.8348 16.1902L24.7955 30.7603C29.7007 27.9011 32.9995 22.5861 32.9995 16.4999C32.9995 13.6306 32.2666 10.9337 30.9786 8.58337C31.0504 9.10923 31.0903 9.67234 31.0903 10.2802Z" fill="#1C769B"/>
<path d="M24.6571 7.24699C24.6571 5.72957 25.8072 4.31754 27.4279 4.31754C27.5014 4.31754 27.5706 4.32765 27.6408 4.33138C24.7071 1.64196 20.7951 0 16.4999 0C10.7347 0 5.66458 2.95766 2.7149 7.43647C3.10238 7.44871 3.46696 7.4567 3.77619 7.4567C5.50119 7.4567 8.1741 7.24699 8.1741 7.24699C9.06294 7.19377 9.16726 8.50148 8.27842 8.6058C8.27842 8.6058 7.38479 8.71119 6.39003 8.76388L8.68133 15.5787C10.2403 16.129 11.9291 16.4319 13.6929 16.4319C14.4269 16.4319 15.1481 16.3792 15.8533 16.2786L16.0103 15.8065L13.4412 8.76441C12.5512 8.71172 11.7092 8.60634 11.7092 8.60634C10.8204 8.55364 10.9242 7.19483 11.8146 7.24752C11.8146 7.24752 14.5392 7.45723 16.1604 7.45723C17.8859 7.45723 20.5578 7.24752 20.5578 7.24752C21.4477 7.1943 21.552 8.50202 20.6626 8.60634C20.6626 8.60634 19.7679 8.71172 18.7747 8.76441L20.76 14.6702C22.7751 13.5865 24.4825 12.0563 25.7274 10.2206C25.1276 9.2248 24.6571 8.29764 24.6571 7.24699Z" fill="#2795B7"/>
<path d="M16.5 0C11.3229 0 6.71154 2.38976 3.68628 6.11971C6.34163 6.67164 9.25778 6.97768 12.3182 6.97768C18.1132 6.97768 23.393 5.88286 27.363 4.08708C24.4612 1.54456 20.6616 0 16.5 0Z" fill="#3FB5D1"/>
</svg>
