<svg width="315" height="189" viewBox="0 0 315 189" fill="none" xmlns="http://www.w3.org/2000/svg">
<g clip-path="url(#clip0)">
<path d="M241.171 186.863C237.139 183.443 234.689 178.04 235.331 172.781C235.974 167.522 239.953 162.687 245.114 161.57C250.275 160.453 256.159 163.545 257.726 168.604C258.589 158.849 259.583 148.686 264.751 140.378C269.43 132.856 277.535 127.474 286.319 126.511C295.103 125.548 304.351 129.185 309.829 136.143C315.307 143.1 316.648 153.216 312.812 161.204C309.985 167.088 304.778 171.467 299.322 175.03C281.692 186.446 260.548 191.088 239.779 188.103L241.171 186.863Z" fill="#2BCC71"/>
<path d="M301.143 129.386C293.895 135.311 287.246 141.937 281.292 149.169C271.974 160.448 264.433 173.094 258.933 186.666C258.531 187.656 260.133 188.087 260.531 187.108C269.53 165.05 283.896 145.609 302.314 130.562C303.141 129.886 301.963 128.716 301.143 129.386Z" fill="white"/>
<path d="M101.404 185.934C106.943 181.236 110.307 173.816 109.425 166.592C108.543 159.369 103.078 152.728 95.9887 151.194C88.8997 149.66 80.8189 153.906 78.6657 160.856C77.4808 147.457 76.1153 133.497 69.0172 122.087C62.59 111.756 51.4581 104.363 39.3935 103.04C27.329 101.718 14.6266 106.713 7.10237 116.269C-0.421845 125.826 -2.26412 139.719 3.00565 150.691C6.88769 158.773 14.0398 164.788 21.5334 169.682C45.4407 185.294 75.0976 191.805 103.317 187.637" fill="#2BCC71"/>
<path d="M19.0328 106.99C28.9875 115.127 38.1199 124.228 46.2979 134.161C54.4772 144.084 61.6782 154.779 67.7998 166.097C71.2214 172.446 74.2952 178.978 77.0074 185.663C77.5603 187.023 75.3599 187.615 74.8131 186.27C70.0092 174.484 64.0659 163.199 57.0685 152.577C50.105 141.993 42.1349 132.111 33.2701 123.072C28.2562 117.962 22.9661 113.132 17.4237 108.605C16.2877 107.676 17.9061 106.069 19.0327 106.99L19.0328 106.99Z" fill="white"/>
<path d="M226.112 188.586H93.9568V52.5062C93.9568 23.5541 117.427 -9.53674e-07 146.276 -9.53674e-07H173.793C202.642 -9.53674e-07 226.112 23.5541 226.112 52.5062V188.586Z" fill="#C4C4C4"/>
<path d="M198.595 188.586H93.9568V52.5062C93.928 41.4124 97.4284 30.599 103.948 21.6404C104.189 21.3117 104.428 20.9871 104.676 20.6662C107.829 16.5151 111.582 12.8594 115.811 9.81955C116.05 9.64513 116.289 9.47375 116.533 9.30235C120.071 6.84507 123.898 4.83629 127.928 3.32173C128.167 3.23072 128.411 3.13952 128.654 3.05204C132.299 1.74687 136.076 0.852825 139.918 0.386429C140.156 0.353781 140.4 0.328233 140.645 0.302685C144.388 -0.0990041 148.164 -0.0990041 151.907 0.302685C152.151 0.328233 152.396 0.353777 152.637 0.386778C156.477 0.853205 160.254 1.74714 163.897 3.05206C164.141 3.13953 164.384 3.23073 164.624 3.32192C168.604 4.81737 172.387 6.79618 175.887 9.21418C176.13 9.38185 176.374 9.55324 176.613 9.72463C178.984 11.4225 181.21 13.3141 183.27 15.38C184.921 17.0371 186.46 18.8035 187.877 20.6673C188.123 20.9872 188.363 21.3117 188.603 21.6399C195.123 30.5986 198.624 41.4122 198.595 52.5062V188.586Z" fill="#4E5F83"/>
<path d="M190.086 127.723C193.286 127.723 195.879 125.12 195.879 121.909C195.879 118.698 193.286 116.095 190.086 116.095C186.887 116.095 184.293 118.698 184.293 121.909C184.293 125.12 186.887 127.723 190.086 127.723Z" fill="#6C63FF"/>
<path d="M215.286 184.51H210.847L208.735 167.328L215.287 167.328L215.286 184.51Z" fill="#FFB8B8"/>
<path d="M207.676 183.238H216.237V188.647H202.286C202.286 187.936 202.425 187.233 202.696 186.577C202.967 185.92 203.364 185.324 203.865 184.822C204.365 184.32 204.959 183.921 205.613 183.649C206.267 183.377 206.968 183.238 207.676 183.238Z" fill="#2F2E41"/>
<path d="M237.372 184.51H232.933L230.821 167.328L237.373 167.328L237.372 184.51Z" fill="#FFB8B8"/>
<path d="M229.762 183.238H238.323V188.647H224.372C224.372 187.936 224.512 187.233 224.783 186.577C225.053 185.92 225.45 185.324 225.951 184.822C226.451 184.32 227.046 183.921 227.7 183.649C228.354 183.377 229.054 183.238 229.762 183.238Z" fill="#2F2E41"/>
<path d="M193.018 123.061C192.699 122.588 192.486 122.052 192.396 121.488C192.306 120.925 192.34 120.348 192.495 119.8C192.651 119.251 192.925 118.743 193.297 118.312C193.67 117.88 194.132 117.536 194.651 117.304L209.741 75.5653L217.166 79.6318L199.937 119.519C200.268 120.42 200.259 121.412 199.91 122.307C199.561 123.202 198.898 123.937 198.045 124.374C197.192 124.81 196.209 124.918 195.283 124.676C194.356 124.434 193.551 123.859 193.018 123.061Z" fill="#FFB8B8"/>
<path d="M235.105 130.903C234.611 130.62 234.186 130.231 233.859 129.764C233.531 129.297 233.31 128.764 233.21 128.203C233.11 127.641 233.134 127.064 233.281 126.512C233.427 125.961 233.692 125.448 234.057 125.011L229.383 80.8587L237.832 81.2461L239.775 124.676C240.467 125.34 240.892 126.236 240.969 127.193C241.047 128.151 240.772 129.104 240.196 129.871C239.62 130.639 238.784 131.168 237.846 131.358C236.907 131.549 235.932 131.387 235.105 130.903Z" fill="#FFB8B8"/>
<path d="M221.624 67.8342C226.536 67.8342 230.517 63.8385 230.517 58.9096C230.517 53.9807 226.536 49.985 221.624 49.985C216.713 49.985 212.732 53.9807 212.732 58.9096C212.732 63.8385 216.713 67.8342 221.624 67.8342Z" fill="#FFB8B8"/>
<path d="M235.048 120.862H208.238L208.27 120.653C208.318 120.34 213.048 89.2436 209.559 79.0705C209.209 78.0708 209.24 76.9765 209.646 75.9981C210.052 75.0198 210.804 74.2267 211.757 73.7714H211.757C216.743 71.4148 226.315 68.5131 234.394 75.5552C235.582 76.6085 236.511 77.925 237.105 79.4005C237.7 80.8759 237.944 82.47 237.819 84.0565L235.048 120.862Z" fill="#00ADF2"/>
<path d="M213.387 93.8391L201.317 91.3816L206.975 77.9263C207.313 76.6231 208.153 75.5078 209.31 74.8252C210.467 74.1425 211.846 73.9482 213.145 74.2849C214.445 74.6215 215.558 75.4616 216.241 76.6209C216.924 77.7803 217.121 79.1641 216.789 80.469L213.387 93.8391Z" fill="#00ADF2"/>
<path d="M228.846 98.4021L228.12 81.7086C227.57 78.5705 229.36 75.604 232.113 75.1191C234.867 74.636 237.555 76.8124 238.108 79.9736L240.836 95.572L228.846 98.4021Z" fill="#00ADF2"/>
<path d="M234.156 118.863C238.47 135.352 238.94 156.315 237.777 179.182L231.983 178.455L221.483 134.851L215.69 179.182L209.173 178.819C207.226 154.826 205.33 134.228 208.449 120.68L234.156 118.863Z" fill="#2F2E41"/>
<path d="M227.484 65.8068C225.825 67.5803 222.744 66.6282 222.528 64.2054C222.511 64.0173 222.512 63.828 222.532 63.6401C222.643 62.5669 223.261 61.5925 223.113 60.4594C223.08 60.1773 222.975 59.9086 222.809 59.6785C221.487 57.9019 218.384 60.4732 217.136 58.8648C216.371 57.8787 217.27 56.326 216.683 55.2237C215.908 53.769 213.613 54.4866 212.174 53.6899C210.573 52.8035 210.668 50.3378 211.723 48.838C213.008 47.009 215.262 46.033 217.488 45.8924C219.714 45.7517 221.924 46.3556 224.002 47.1683C226.363 48.0917 228.705 49.3679 230.158 51.4515C231.925 53.9853 232.095 57.3917 231.211 60.3545C230.673 62.1568 228.839 64.3585 227.484 65.8068Z" fill="#2F2E41"/>
<path d="M304.131 188.82H36.8179C36.7038 188.82 36.5945 188.774 36.5139 188.693C36.4333 188.612 36.3881 188.502 36.3881 188.387C36.3881 188.273 36.4333 188.163 36.5139 188.082C36.5945 188.001 36.7038 187.955 36.8179 187.955H304.131C304.245 187.955 304.355 188.001 304.435 188.082C304.516 188.163 304.561 188.273 304.561 188.387C304.561 188.502 304.516 188.612 304.435 188.693C304.355 188.774 304.245 188.82 304.131 188.82Z" fill="#3F3D56"/>
<path d="M169.81 149.161H122.741C122.121 149.165 121.526 148.921 121.084 148.484C120.643 148.047 120.393 147.452 120.388 146.83V41.3928C120.393 40.7707 120.643 40.1759 121.084 39.7389C121.526 39.3019 122.121 39.0583 122.741 39.0617H169.81C170.43 39.0583 171.026 39.3019 171.467 39.7389C171.909 40.1759 172.159 40.7707 172.164 41.3928V146.83C172.159 147.452 171.909 148.047 171.467 148.484C171.026 148.921 170.43 149.165 169.81 149.161Z" fill="white"/>
<path d="M172.164 73.1779H120.388V73.9046H172.164V73.1779Z" fill="#CCCCCC"/>
<path d="M172.345 114.642H120.569V115.368H172.345V114.642Z" fill="#CCCCCC"/>
<path d="M137.405 39.0617H136.681V149.525H137.405V39.0617Z" fill="#CCCCCC"/>
<path d="M155.509 39.0617H154.784V149.525H155.509V39.0617Z" fill="#CCCCCC"/>
</g>
<defs>
<clipPath id="clip0">
<rect width="315" height="189" fill="white"/>
</clipPath>
</defs>
</svg>
