<svg width="276" height="219" viewBox="0 0 276 219" fill="none" xmlns="http://www.w3.org/2000/svg">
<path d="M183.936 218.723C198.12 218.723 209.617 217.588 209.617 216.188C209.617 214.789 198.12 213.654 183.936 213.654C169.753 213.654 158.255 214.789 158.255 216.188C158.255 217.588 169.753 218.723 183.936 218.723Z" fill="#D8F1FA"/>
<path d="M63.9612 17.2001C71.1833 7.01454 85.2119 2.75572 98.5024 1.15608C140.247 -3.86439 182.277 10.5412 219.899 28.5609C233.522 35.086 247.116 42.3023 257.387 52.7617C278.294 74.0493 281.344 108.047 264.441 131.521C258.695 139.507 251.038 146.19 243.013 152.332C228.746 163.254 212.836 172.795 194.954 177.833C182.197 181.419 168.737 182.646 155.335 183.057C117.9 184.197 79.6914 178.984 45.382 164.664C30.334 158.383 15.5604 149.893 6.99209 136.989C-1.57626 124.085 -2.15069 105.95 9.33151 95.4326C14.0792 91.0854 20.3363 88.4069 26.4734 85.8452C35.5105 82.0749 44.7056 78.3085 52.3153 72.5228C60.1738 66.5409 68.6913 56.1127 64.699 46.5874C60.3898 36.375 56.7491 27.3726 63.9612 17.2001Z" fill="#D8F1FA"/>
<path d="M66.3773 201.686C66.3773 201.686 78.4617 200.956 77.0369 209.435C77.0369 209.435 77.3199 210.939 75.9627 211.613C75.9627 211.613 75.9427 210.984 74.7232 211.197C74.2901 211.272 73.8495 211.294 73.4111 211.262C72.8182 211.221 72.2548 210.988 71.806 210.598V210.598C71.806 210.598 68.4081 209.194 67.0885 203.634C67.0885 203.634 66.1094 202.423 66.1495 202.109L68.1877 202.982C68.1877 202.982 67.4916 204.456 68.04 205.679C68.04 205.679 68.1051 203.037 68.4982 203.097C68.5758 203.11 69.5574 203.599 69.5574 203.599C69.5574 203.599 68.358 206.163 69.2619 208.028C69.2619 208.028 68.9189 204.867 69.9305 203.784L71.3678 204.624C71.3678 204.624 69.9656 207.274 70.9171 209.435C70.9171 209.435 70.6667 206.118 71.6683 204.827L72.9704 205.83C72.9704 205.83 71.6533 208.442 72.4571 210.237C72.4571 210.237 72.5597 206.374 73.2509 206.083C73.2509 206.083 74.3902 207.086 74.563 207.502C74.563 207.502 73.6615 209.397 74.2199 210.397C74.2199 210.397 74.563 207.825 74.8459 207.813C74.8459 207.813 75.9777 209.517 76.0979 210.686C76.0979 210.686 76.0478 208.948 75.1188 207.65C75.1188 207.65 76.2156 207.838 76.8566 208.55C76.8566 208.55 76.6788 207.344 74.8409 207.239C74.8409 207.239 73.9044 205.948 73.6515 205.867C73.6515 205.867 75.4819 205.714 76.5912 206.208C76.5912 206.208 75.6146 205.07 73.316 205.587L72.0314 204.539C72.0314 204.539 74.4428 204.208 75.4619 204.574C75.4619 204.574 74.2875 203.571 71.6858 204.3L70.2886 203.463C70.2886 203.463 72.3419 203.019 73.5664 203.18C73.5664 203.18 72.2743 202.483 69.8779 203.238L68.8763 202.789C68.8763 202.789 70.3787 202.493 70.822 202.445C71.2652 202.398 71.2852 202.277 71.2852 202.277C70.3321 202.117 69.3533 202.226 68.4582 202.591C68.4582 202.591 66.3398 201.831 66.3773 201.686Z" fill="#2BCC71"/>
<path d="M74.7007 213.799C79.4248 213.799 83.2544 213.152 83.2544 212.353C83.2544 211.554 79.4248 210.906 74.7007 210.906C69.9766 210.906 66.147 211.554 66.147 212.353C66.147 213.152 69.9766 213.799 74.7007 213.799Z" fill="#D8F1FA"/>
<path d="M50.1888 195.982C50.1888 195.982 57.0022 195.571 56.1985 200.352C56.2409 200.594 56.2053 200.844 56.0969 201.065C55.9884 201.286 55.8126 201.466 55.595 201.58C55.595 201.58 55.5825 201.227 54.8964 201.347C54.6525 201.389 54.4044 201.401 54.1577 201.382C53.8226 201.362 53.5038 201.23 53.2512 201.009V201.009C53.2512 201.009 51.3381 200.214 50.5869 197.08C50.5869 197.08 50.036 196.396 50.0561 196.221L51.2079 196.722C51.2079 196.722 50.8148 197.554 51.1228 198.244C51.1228 198.244 51.1604 196.752 51.3732 196.787C51.4183 196.787 51.9717 197.075 51.9717 197.075C51.9717 197.075 51.2956 198.522 51.8064 199.582C51.8064 199.582 51.6111 197.8 52.182 197.188L52.9908 197.662C52.9908 197.662 52.202 199.166 52.7404 200.375C52.7404 200.375 52.6027 198.504 53.1636 197.777L53.8973 198.349C53.8973 198.349 53.146 199.821 53.6093 200.833C53.6093 200.833 53.6669 198.655 54.0575 198.492C54.0575 198.492 54.6985 199.058 54.7962 199.292C54.7962 199.292 54.2954 200.36 54.6034 200.924C54.6034 200.924 54.7962 199.475 54.9565 199.467C54.9565 199.467 55.595 200.427 55.6601 201.087C55.6282 200.478 55.4383 199.887 55.1092 199.374C55.4776 199.442 55.8181 199.616 56.0883 199.876C56.0883 199.876 55.9906 199.196 54.9514 199.136C54.9514 199.136 54.4231 198.407 54.2829 198.364C54.2829 198.364 55.3145 198.276 55.9405 198.555C55.9405 198.555 55.3897 197.913 54.0926 198.204L53.3689 197.612C53.3689 197.612 54.7286 197.426 55.3045 197.632C55.3045 197.632 54.6409 197.065 53.1736 197.479L52.3873 197.005C52.993 196.873 53.6134 196.82 54.2328 196.847C54.2328 196.847 53.5066 196.454 52.1545 196.88L51.591 196.629C51.591 196.629 52.4399 196.461 52.6878 196.436C52.9357 196.411 52.9507 196.341 52.9507 196.341C52.4128 196.252 51.8607 196.313 51.3557 196.519C51.3557 196.519 50.1688 196.065 50.1888 195.982Z" fill="#2BCC71"/>
<path d="M54.8813 202.811C57.5449 202.811 59.7041 202.445 59.7041 201.994C59.7041 201.543 57.5449 201.177 54.8813 201.177C52.2178 201.177 50.0586 201.543 50.0586 201.994C50.0586 202.445 52.2178 202.811 54.8813 202.811Z" fill="#D8F1FA"/>
<path d="M217.811 200.578C217.811 200.578 226.036 200.076 225.072 205.842C225.122 206.135 225.077 206.436 224.946 206.703C224.815 206.969 224.603 207.187 224.341 207.326C224.341 207.326 224.326 206.898 223.497 207.043C223.202 207.093 222.902 207.108 222.603 207.086C222.2 207.06 221.816 206.901 221.512 206.634V206.634C221.512 206.634 219.198 205.679 218.299 201.894C218.299 201.894 217.633 201.069 217.66 200.858L219.048 201.45C219.048 201.45 218.574 202.453 218.947 203.288C218.947 203.288 218.992 201.488 219.258 201.533C219.313 201.533 219.979 201.879 219.979 201.879C219.979 201.879 219.163 203.634 219.779 204.887C219.779 204.887 219.546 202.736 220.234 201.999L221.211 202.568C221.211 202.568 220.257 204.373 220.906 205.845C220.906 205.845 220.738 203.589 221.406 202.709L222.293 203.401C222.293 203.401 221.396 205.178 221.942 206.409C221.942 206.409 222.015 203.782 222.486 203.581C222.486 203.581 223.259 204.265 223.377 204.546C223.377 204.546 222.764 205.837 223.144 206.519C223.144 206.519 223.377 204.764 223.57 204.764C223.57 204.764 224.341 205.925 224.421 206.72C224.384 205.985 224.155 205.273 223.758 204.654C224.203 204.738 224.613 204.951 224.94 205.266C224.94 205.266 224.819 204.446 223.565 204.373C223.565 204.373 222.929 203.493 222.759 203.441C222.759 203.441 224.011 203.335 224.762 203.671C224.762 203.671 224.096 202.899 222.531 203.25L221.657 202.536C221.657 202.536 223.297 202.31 223.993 202.558C223.993 202.558 223.192 201.874 221.421 202.373L220.47 201.804C220.47 201.804 221.867 201.503 222.701 201.611C222.701 201.611 221.822 201.137 220.197 201.651L219.516 201.345C219.516 201.345 220.54 201.142 220.84 201.112C221.141 201.082 221.156 200.996 221.156 200.996C220.508 200.888 219.842 200.962 219.233 201.209C219.233 201.209 217.786 200.673 217.811 200.578Z" fill="#2BCC71"/>
<path d="M223.475 208.826C226.69 208.826 229.297 208.384 229.297 207.84C229.297 207.296 226.69 206.855 223.475 206.855C220.259 206.855 217.653 207.296 217.653 207.84C217.653 208.384 220.259 208.826 223.475 208.826Z" fill="#D8F1FA"/>
<path d="M209.615 139.716C209.457 138.834 209.366 137.94 209.342 137.044C209.342 135.968 207.882 135.016 207.882 135.016C207.882 135.016 206.981 132.927 206.38 132.619C205.779 132.311 203.923 129.578 203.923 129.578C203.902 129.039 203.706 128.522 203.365 128.104C202.809 127.372 202.301 126.605 201.845 125.808C201.595 125.502 201.72 125.286 201.344 123.504C201.324 123.411 201.302 123.321 201.274 123.236C201.274 123.195 201.249 123.16 201.234 123.12C201.633 122.72 201.91 122.215 202.036 121.664C202.161 121.113 202.129 120.538 201.943 120.004C201.875 119.792 201.752 119.601 201.587 119.453C201.164 119.107 200.488 119.249 200.052 118.921L200.515 116.87C200.625 116.369 200.683 115.735 200.245 115.464C200.08 115.386 199.907 115.328 199.729 115.291C198.978 115.04 198.542 114.246 198.347 113.481C198.159 112.744 198.108 111.98 198.197 111.225C198.282 110.498 198.495 109.791 198.572 109.061C198.713 107.712 198.389 106.355 197.653 105.216C197.367 104.724 196.945 104.325 196.439 104.067C195.976 103.859 195.437 103.817 195.004 103.566C194.072 102.972 194.12 101.56 193.376 100.751C192.633 99.9409 191.316 99.9434 190.231 100.222C189.147 100.5 188.068 100.974 186.956 100.856C186.24 100.776 185.569 100.45 184.85 100.375C184.645 100.355 184.437 100.364 184.234 100.402V100.38C183.703 100.475 183.215 100.771 183.09 101.275C183.062 101.394 183.05 101.518 183.055 101.641C183.055 101.934 183.125 102.24 183.13 102.521C183.139 102.632 183.126 102.744 183.091 102.851C183.056 102.957 183 103.055 182.927 103.14C182.784 103.293 182.574 103.373 182.426 103.531C182.366 103.591 182.319 103.663 182.287 103.743C182.256 103.822 182.241 103.907 182.243 103.992C182.243 104.438 182.799 104.832 183.172 105.012H183.187C183.087 105.113 182.987 105.218 182.894 105.326C181.825 106.535 181.235 108.095 181.237 109.711C181.246 111.015 181.636 112.289 182.358 113.375C183.081 114.461 184.104 115.311 185.303 115.822L185.251 115.985C185.145 116.308 185.022 116.624 184.883 116.933C184.624 116.846 184.349 116.816 184.077 116.847C183.805 116.877 183.544 116.966 183.31 117.109C182.594 117.61 181.194 117.57 180.821 117.477C180.448 117.384 176.564 116.893 176.251 117.016C175.938 117.139 175.32 116.587 174.917 117.324C174.514 118.061 174.326 118.46 173.915 118.645C173.504 118.831 172.796 119.412 172.891 119.535C172.986 119.658 171.864 120.395 171.864 120.395C171.864 120.395 170.9 121.398 170.342 121.531C169.783 121.664 168.602 122.423 168.602 122.423L167.232 123.496C167.232 123.496 166.208 123.652 166.518 122.945C166.829 122.238 165.957 121.348 165.957 121.348C165.957 121.348 164.217 117.815 164.217 117.086C164.217 116.356 162.787 113.245 162.787 113.245L162.612 113.228L162.532 113C162.269 112.26 161.928 111.353 161.668 110.821C161.167 109.806 160.859 109.7 160.859 109.7C160.859 109.7 154.829 105.168 150.913 106.549C146.997 107.931 158.062 112.047 159.056 112.478C159.404 112.629 159.655 113.115 159.83 113.684C158.948 114.11 158.205 114.779 157.689 115.612C157.689 115.612 160.083 120.924 160.145 122.245C160.208 123.566 161.793 127.259 161.793 127.259C161.793 127.259 162.384 129.994 165.584 129.839C165.584 129.839 169.999 130.651 170.963 129.839C171.927 129.027 172.796 128.39 173.264 128.297C173.608 128.184 173.911 127.97 174.133 127.683C174.133 127.683 172.673 136.896 171.957 137.696C171.241 138.495 164.913 148.839 167.184 150.689C168.983 152.084 170.884 153.341 172.871 154.45C173.064 154.545 173.642 153.58 174.468 152.895C174.468 153.068 174.468 153.244 174.468 153.429C174.483 157.11 174.969 162.705 175.64 163.959C176.642 165.801 176.231 169.364 176.231 169.364C176.758 169.612 177.33 169.749 177.911 169.767C177.942 169.887 177.977 170.018 178.009 170.143C178.558 172.216 179.446 175.423 179.9 176.275C180.583 177.566 181.079 181.653 181.079 181.653C181.079 181.653 181.485 185.664 181.329 186.228C181.269 186.441 181.532 188.111 181.945 190.239C181.695 193.119 181.219 198.672 181.139 200.68C181.139 200.718 181.139 200.756 181.139 200.791V200.826C181.14 200.848 181.14 200.871 181.139 200.894C181.139 200.939 181.139 200.979 181.139 201.016C181.131 201.143 181.136 201.27 181.154 201.395C181.185 201.586 181.171 201.782 181.112 201.967C180.934 202.522 180.709 203.06 180.438 203.576C180.324 203.829 180.224 204.089 180.138 204.353C179.887 204.463 179.582 204.732 179.411 205.386C179.101 206.584 178.635 209.899 178.635 209.899C178.635 209.899 178.447 211.927 178.077 212.388C177.706 212.849 177.326 215.735 179.972 216.103C182.619 216.472 183.763 214.699 183.763 214.699L183.671 206.657V206.642C183.724 206.574 183.77 206.501 183.808 206.424V206.404C183.826 206.366 183.846 206.326 183.864 206.281L183.886 206.221L183.926 206.123C183.925 206.111 183.925 206.1 183.926 206.088C184.183 205.318 184.26 204.499 184.152 203.694V203.654V203.591C184.152 203.571 184.152 203.548 184.152 203.528V203.403C184.152 203.388 184.152 203.37 184.152 203.355C184.152 203.302 184.157 203.247 184.167 203.19C184.167 203.19 184.167 203.17 184.167 203.16L184.182 203.062V203.019C184.182 202.987 184.182 202.954 184.202 202.919C184.201 202.911 184.201 202.902 184.202 202.894C184.227 202.779 184.257 202.643 184.289 202.533V202.506L184.327 202.385C184.364 202.257 184.407 202.134 184.452 201.999V201.974C184.452 201.934 184.48 201.894 184.495 201.856V201.841C184.54 201.718 184.587 201.59 184.632 201.485L184.645 201.453L184.685 201.352L184.697 201.322L184.793 201.099L185.526 203.368C185.526 203.368 185.932 205.058 185.714 205.456C185.496 205.855 185.964 207.514 186.272 207.544L185.984 209.633C185.829 210.784 185.736 211.943 185.707 213.105C185.686 213.238 185.666 213.356 185.651 213.436C185.451 214.506 185.932 216.166 185.932 216.166C188.386 219.071 191.311 216.392 191.311 216.392C191.311 216.392 191.651 214.855 191.311 214.549C190.97 214.243 191.123 213.135 191.123 213.135C191.123 213.135 191.278 210.4 191.308 208.404C191.338 206.409 189.678 204.644 189.678 204.644L189.585 204.727C189.282 203.944 188.937 203.032 189.009 202.623C189.135 201.916 188.666 194.453 188.666 194.453C188.839 192.452 188.876 190.442 188.776 188.436V188.436C188.817 188.098 188.854 187.765 188.892 187.434C189.079 185.829 189.232 184.458 189.292 183.738V183.653C189.307 183.46 189.315 183.322 189.312 183.257C189.312 183.006 189.312 182.721 189.337 182.407C189.395 181.545 189.53 180.585 189.53 180.585L190.181 176.621C190.181 176.621 190.682 174.686 191.396 173.613L191.481 173.477C191.508 173.43 191.536 173.377 191.566 173.322L191.578 173.299C191.606 173.247 191.636 173.192 191.664 173.134L191.676 173.111C191.776 172.913 191.884 172.685 191.997 172.435C191.997 172.415 192.014 172.397 192.022 172.377L192.107 172.186C192.107 172.161 192.127 172.136 192.139 172.111C192.152 172.086 192.192 171.983 192.219 171.921C192.232 171.895 192.243 171.869 192.252 171.843C192.285 171.768 192.32 171.69 192.352 171.61L192.4 171.494C192.422 171.437 192.447 171.379 192.472 171.321L192.532 171.169C192.55 171.131 192.565 171.093 192.58 171.056L192.648 170.883C192.648 170.858 192.67 170.83 192.68 170.805C192.858 170.361 193.028 169.923 193.181 169.524C193.229 169.399 193.276 169.273 193.319 169.163C194.911 169.261 195.993 169.348 195.993 169.348C195.993 169.348 196.494 165.756 196.334 163.392C196.228 161.777 196.529 159.747 196.727 158.629C196.749 158.506 196.769 158.396 196.789 158.295L196.832 158.33C197.611 158.945 198.169 156.917 198.169 156.917C198.169 156.917 197.959 155.024 197.668 152.73L197.638 152.502C198.087 152.598 198.541 152.667 198.998 152.71C198.998 152.71 199.248 152.687 199.591 152.645C200.54 153.195 201.542 153.648 202.581 153.998L204.236 150.94C204.547 150.306 204.912 149.7 205.326 149.127C205.826 148.513 207.594 146.548 207.564 146.179C207.534 145.811 208.155 143.69 208.776 142.737C209.397 141.785 209.645 139.869 209.615 139.716ZM202.714 142.05C202.06 142.326 201.439 143.863 201.409 144.324C201.379 144.785 200.693 146.811 199.979 147.057C199.321 147.282 198.064 148.44 197.864 148.626C197.658 148.644 197.425 148.671 197.182 148.711C196.91 146.773 196.639 145.169 196.466 144.846C195.966 143.923 197.015 140.975 197.015 140.975C197.015 140.975 197.117 137.996 197.766 137.29C198.414 136.583 198.267 134.8 198.267 134.8C198.267 134.8 198.422 134.063 198.485 133.727C198.547 133.391 199.409 133.727 199.416 133.727C199.416 133.727 201.094 134.647 201.344 136.029C201.595 137.41 203.427 139.807 203.427 139.807C203.427 139.807 203.147 140.636 203.427 141.06C203.708 141.484 203.367 141.774 202.714 142.05V142.05Z" fill="url(#paint0_linear)"/>
<path d="M157.759 115.8C158.27 114.957 159.017 114.283 159.908 113.863C160.798 113.443 161.793 113.296 162.767 113.438V117.026H160.591L158.888 116.595L157.759 115.8Z" fill="#4C4981"/>
<path opacity="0.1" d="M157.759 115.8C158.27 114.957 159.017 114.283 159.908 113.863C160.798 113.443 161.793 113.296 162.767 113.438V117.026H160.591L158.888 116.595L157.759 115.8Z" fill="black"/>
<path d="M162.93 114.388L160.263 116.259C160.263 116.259 160.241 115.885 160.173 115.374C160.04 114.406 159.742 112.955 159.099 112.674C158.12 112.243 147.22 108.136 151.086 106.755C154.952 105.373 160.884 109.901 160.884 109.901C160.884 109.901 161.19 110.006 161.678 111.017C161.928 111.548 162.271 112.453 162.529 113.193C162.767 113.86 162.93 114.388 162.93 114.388Z" fill="#AE6E79"/>
<path d="M184.234 117.269L184.537 117.126L185.388 118.099L184.692 119.585L183.505 119.109L183.781 117.921L184.234 117.269Z" fill="#4C4981"/>
<path d="M180.2 204.338C180.2 204.338 179.434 204.248 179.128 205.444C178.823 206.64 178.362 209.956 178.362 209.956C178.362 209.956 178.179 211.979 177.811 212.441C177.443 212.902 177.078 215.782 179.679 216.148C182.281 216.514 183.415 214.747 183.415 214.747L183.323 206.707L180.2 204.338Z" fill="#444053"/>
<path d="M189.28 204.699C189.28 204.699 190.917 206.454 190.887 208.445C190.857 210.435 190.702 213.165 190.702 213.165C190.702 213.165 190.552 214.271 190.887 214.577C191.223 214.882 190.887 216.417 190.887 216.417C190.887 216.417 188.008 219.092 185.589 216.191C185.589 216.191 185.118 214.534 185.313 213.466C185.509 212.398 186.055 207.597 186.055 207.597L189.28 204.699Z" fill="#444053"/>
<path d="M193.336 168.04C193.336 168.04 191.684 172.668 190.977 173.741C190.271 174.814 189.786 176.749 189.786 176.749L189.142 180.703C189.016 181.586 188.944 182.477 188.927 183.37C188.957 184.26 187.334 197.226 187.334 197.226L184.763 200.507C184.763 200.507 183.631 202.806 183.813 203.767C183.996 204.727 183.691 206.251 183.313 206.71C183.313 206.71 183.253 209.718 183.16 210.387C183.067 211.057 183.498 212.965 183.16 213.301C182.822 213.636 178.322 213.486 178.199 212.932C178.077 212.378 178.75 209.713 178.75 209.713L179.148 207.138C179.148 207.138 179.945 205.73 179.762 205.268C179.579 204.807 180.098 203.736 180.128 203.644C180.158 203.551 180.986 202.049 180.834 201.468C180.681 200.886 181.798 188.517 181.798 188.517L184.95 166.353L193.336 168.04Z" fill="#AE6E79"/>
<path opacity="0.1" d="M193.336 168.04C193.336 168.04 193.086 168.737 192.743 169.652C192.197 171.096 191.411 173.084 190.977 173.741C190.274 174.814 189.783 176.749 189.783 176.749L189.14 180.705C189.015 181.589 188.944 182.48 188.927 183.372C188.927 183.723 188.691 185.962 188.391 188.542C187.928 192.485 187.334 197.228 187.334 197.228L184.763 200.51C184.763 200.51 184.632 200.761 184.47 201.157C184.147 201.909 183.691 203.13 183.813 203.759C183.996 204.709 183.691 206.241 183.313 206.702C183.313 206.702 183.25 209.71 183.16 210.38C183.07 211.049 183.498 212.954 183.16 213.293C182.822 213.631 178.322 213.478 178.199 212.927C178.077 212.375 178.75 209.708 178.75 209.708L179.148 207.131C179.148 207.131 179.945 205.722 179.759 205.261C179.574 204.799 180.098 203.729 180.128 203.636C180.158 203.543 180.986 202.042 180.834 201.46C180.716 201.016 181.334 193.754 181.622 190.309C181.72 189.226 181.783 188.522 181.783 188.522L184.495 169.454L184.715 167.917L184.935 166.358L193.336 168.04Z" fill="black"/>
<path d="M190.582 214.145C190.609 214.484 186.262 214.975 185.641 214.607C185.02 214.238 185.641 209.67 185.641 209.67L185.924 207.587C185.621 207.554 185.161 205.9 185.373 205.501C185.586 205.103 185.191 203.418 185.191 203.418L184.469 201.162L184.029 199.78C183.313 198.199 182.276 193.686 181.632 190.317C181.227 188.201 180.969 186.534 181.026 186.321C181.179 185.769 180.776 181.753 180.776 181.753C180.776 181.753 180.275 177.674 179.614 176.388C179.166 175.536 178.292 172.334 177.751 170.269C177.476 169.208 177.285 168.446 177.285 168.446C177.285 168.446 181.913 168.057 184.72 167.922C186.009 167.859 186.916 167.852 186.811 167.957C186.706 168.062 186.678 168.624 186.683 169.436C186.696 171.54 186.989 175.24 187.299 176.235C187.727 177.614 188.155 181.75 187.973 182.152C187.79 182.553 187.85 185.218 187.85 185.218C188.165 186.3 188.347 187.417 188.391 188.544C188.489 190.541 188.454 192.542 188.286 194.533C188.286 194.533 188.744 201.984 188.621 202.688C188.498 203.393 189.6 205.602 189.6 206.03C189.6 206.459 189.906 209.372 189.906 209.372C189.906 209.372 190.562 213.809 190.582 214.145Z" fill="#AE6E79"/>
<path d="M192.998 124.597L192.472 125.166L192.129 125.537L190.126 127.693L184.95 128.277L182.196 127.54L181.515 127.357C181.515 127.357 181.515 125.973 181.637 124.314C181.813 122.185 182.231 119.6 183.23 118.896C183.73 118.504 184.13 117.998 184.394 117.419C184.594 117.021 184.762 116.607 184.895 116.181C184.915 116.126 184.93 116.073 184.948 116.018C185.173 115.275 185.336 114.514 185.434 113.744C185.434 113.744 186.095 113.378 187.014 112.952C189.41 111.831 193.549 110.285 192.109 113.744C191.898 114.251 191.717 114.77 191.568 115.299C191.546 115.376 191.526 115.454 191.508 115.529C191.028 117.455 191.346 118.623 191.704 119.267C191.764 119.379 191.834 119.485 191.911 119.585C192.009 119.72 192.127 119.839 192.26 119.939L192.855 123.727L192.906 124.04L192.998 124.597Z" fill="#AE6E79"/>
<path opacity="0.1" d="M192.112 113.93C191.839 114.587 192.245 113.393 192.112 113.93C191.02 114.707 188.448 116.921 187.004 116.921C186.027 116.921 185.734 116.743 184.898 116.364C185.151 115.571 185.331 114.756 185.436 113.93C185.436 113.93 194.102 109.146 192.112 113.93Z" fill="black"/>
<path d="M194.318 109.901C194.316 111.552 193.705 113.144 192.602 114.371C191.498 115.598 189.981 116.373 188.341 116.547C188.11 116.57 187.877 116.585 187.642 116.585C186.322 116.585 185.031 116.193 183.933 115.458C182.835 114.724 181.98 113.68 181.475 112.459C180.969 111.237 180.837 109.894 181.095 108.597C181.352 107.301 181.988 106.11 182.922 105.175C183.855 104.24 185.045 103.604 186.34 103.346C187.635 103.088 188.977 103.22 190.197 103.726C191.417 104.232 192.459 105.089 193.193 106.188C193.926 107.287 194.318 108.579 194.318 109.901V109.901Z" fill="#AE6E79"/>
<path opacity="0.1" d="M195.267 139.528L194.315 142.013C194.315 142.013 193.542 142.045 192.335 142.083C188.261 142.213 179.284 142.379 178.883 141.331C178.793 141.065 178.746 140.787 178.743 140.506C178.69 138.909 179.434 136.457 179.434 136.457C179.434 136.457 179.862 131.551 179.862 131.338C179.862 131.125 179.494 127.688 179.494 127.688L180.23 124.93L182.281 123.489C182.281 123.489 183.2 124.9 183.751 125.021C184.302 125.141 185.038 125.82 185.038 125.82C185.038 125.82 186.843 126.923 187.427 126.309C188.01 125.695 192.54 122.997 192.54 122.997L194.929 125.635L195.267 139.528Z" fill="black"/>
<path d="M195.267 139.909L194.315 142.391C194.315 142.391 193.542 142.426 192.335 142.464H192.217C191.696 142.481 191.1 142.499 190.464 142.512C187.226 142.587 182.767 142.607 180.436 142.261C179.559 142.135 178.986 141.955 178.891 141.709C178.838 141.562 178.801 141.409 178.78 141.253C178.765 141.138 178.755 141.002 178.75 140.884C178.698 139.288 179.441 136.836 179.441 136.836C179.441 136.836 179.87 131.93 179.87 131.717C179.87 131.503 179.502 128.066 179.502 128.066L180.238 125.309L181.647 124.321L182.289 123.87C182.504 124.193 182.739 124.503 182.992 124.797C183.19 125.063 183.454 125.271 183.758 125.402C184.312 125.524 185.045 126.201 185.045 126.201C185.045 126.201 186.851 127.304 187.434 126.69C187.878 126.221 190.632 124.534 191.904 123.764C192.295 123.526 192.547 123.378 192.547 123.378L192.868 123.734L194.936 126.016L195.267 139.909Z" fill="white"/>
<path opacity="0.1" d="M162.93 114.389L160.263 116.259C160.263 116.259 160.241 115.885 160.173 115.374C161.49 114.817 162.291 113.586 162.522 113.193C162.767 113.86 162.93 114.389 162.93 114.389Z" fill="black"/>
<path d="M172.3 120.736L171.719 120.581C171.719 120.581 170.767 121.583 170.217 121.716C169.666 121.849 168.504 122.604 168.504 122.604L167.154 123.677C167.154 123.677 166.153 123.832 166.451 123.125C166.749 122.418 165.9 121.531 165.9 121.531C165.9 121.531 164.184 118.006 164.184 117.269C164.184 116.532 162.767 113.438 162.767 113.438C162.767 113.438 160.989 116.903 157.744 115.8C157.744 115.8 160.103 121.102 160.163 122.421C160.223 123.739 161.786 127.417 161.786 127.417C161.786 127.417 162.369 130.147 165.522 129.994C165.522 129.994 169.871 130.804 170.82 129.994C171.769 129.185 172.625 128.548 173.074 128.455C173.522 128.362 173.93 127.843 173.93 127.843V124.198L172.3 120.736Z" fill="#4C4981"/>
<path opacity="0.1" d="M166.849 124.198C166.849 124.198 167.615 127.051 167.124 127.357L166.849 124.198Z" fill="black"/>
<path opacity="0.1" d="M192.335 142.451C188.261 142.582 179.284 142.745 178.883 141.699C178.793 141.433 178.746 141.155 178.743 140.875L192.052 141.576L192.335 142.451Z" fill="black"/>
<path opacity="0.1" d="M193.336 168.04C193.336 168.04 193.086 168.737 192.743 169.652C191.053 169.549 188.814 169.441 186.688 169.426C185.937 169.426 185.201 169.426 184.505 169.451C183.027 169.496 181.75 169.617 180.936 169.847C179.907 170.165 178.832 170.304 177.756 170.259C177.481 169.198 177.29 168.436 177.29 168.436C177.29 168.436 181.918 168.047 184.725 167.912L184.945 166.353L193.336 168.04Z" fill="black"/>
<path d="M196.92 156.819L196.399 157.922C196.399 157.922 196.326 158.25 196.233 158.772C196.038 159.895 195.733 161.92 195.848 163.535C196.001 165.896 195.51 169.481 195.51 169.481C195.51 169.481 184.242 168.531 180.936 169.481C177.631 170.432 176.003 169.481 176.003 169.481C176.003 169.481 176.404 165.927 175.422 164.086C174.754 162.833 174.283 157.237 174.268 153.557C174.268 151.86 174.353 150.574 174.566 150.313C175.24 149.486 178.117 141.208 178.117 141.208L178.773 141.243L180.526 141.336L190.492 141.862L192.057 141.945L192.222 142.446L196.92 156.819Z" fill="#444053"/>
<path d="M201.88 153.139L201.973 154.121C201.973 154.121 197.037 152.512 197.288 150.534C197.538 148.556 197.288 148.779 197.288 148.779L201.254 149.115L201.88 153.139Z" fill="#4C4981"/>
<path opacity="0.1" d="M201.88 153.139L201.973 154.121C201.973 154.121 197.037 152.512 197.288 150.534C197.538 148.556 197.288 148.779 197.288 148.779L201.254 149.115L201.88 153.139Z" fill="black"/>
<path opacity="0.1" d="M170.141 124.99C170.645 125.419 171.239 125.728 171.879 125.895C171.694 125.855 171.522 125.769 171.378 125.645C171.025 125.394 170.69 125.121 170.349 124.855C170.074 124.639 169.731 124.281 169.393 124.193C169.614 124.484 169.865 124.751 170.141 124.99V124.99Z" fill="black"/>
<path opacity="0.1" d="M170.217 126.282C170.375 126.461 170.504 126.665 170.597 126.886C170.755 127.51 170.746 128.164 170.57 128.783L169.778 126.873C169.641 126.547 169.503 126.221 169.338 125.911C169.265 125.778 168.809 125.224 168.862 125.108C169.002 124.782 170.069 126.099 170.217 126.282Z" fill="black"/>
<path opacity="0.1" d="M192.295 136.861C192.834 136.795 193.339 136.559 193.734 136.186C192.921 136.289 192.149 136.61 191.348 136.778C190.604 136.951 189.824 136.879 189.125 136.573C190.046 137.024 191.313 137.039 192.295 136.861Z" fill="black"/>
<path opacity="0.1" d="M189.993 131.248C189.848 131.269 189.699 131.233 189.58 131.145C188.969 130.794 188.367 130.428 187.772 130.047C187.194 129.673 186.495 129.295 186.002 128.824C187.216 129.922 188.348 130.849 189.993 131.248Z" fill="black"/>
<path opacity="0.1" d="M191.691 137.751C192.012 137.765 192.333 137.739 192.648 137.673C192.966 137.607 193.247 137.422 193.434 137.157C193.32 137.13 193.201 137.149 193.101 137.209C192.131 137.618 191.065 137.746 190.026 137.578C190.524 137.791 191.163 137.748 191.691 137.751Z" fill="black"/>
<path opacity="0.1" d="M185.892 151.985C185.254 152.178 184.599 152.306 183.936 152.369C183.42 152.393 182.903 152.383 182.389 152.339L179.885 152.181L178.633 152.101C178.485 152.101 177.881 152.101 178.179 151.802C178.33 151.657 179.166 151.75 179.381 151.742C179.797 151.729 180.214 151.721 180.633 151.72C181.462 151.72 182.294 151.72 183.122 151.77C184.051 151.815 184.965 151.885 185.892 151.985Z" fill="black"/>
<path opacity="0.1" d="M182.99 153.226C182.564 153.209 182.016 153.462 181.577 153.517C181.087 153.575 180.593 153.594 180.1 153.575C179.124 153.551 178.16 153.354 177.253 152.993C179.163 153.091 181.079 153.149 182.99 153.226Z" fill="black"/>
<path opacity="0.1" d="M177.626 154.54C177.811 154.577 177.994 154.628 178.172 154.69C179.229 154.991 180.353 154.725 181.427 154.46C181.159 154.863 180.676 155.036 180.193 155.147C179.407 155.346 178.587 155.376 177.789 155.234C177.538 155.184 176.91 155.094 176.787 154.833C176.582 154.45 177.391 154.502 177.626 154.54Z" fill="black"/>
<path opacity="0.1" d="M183.551 156.518C183.867 156.583 184.18 156.667 184.487 156.769C185.676 157.064 186.911 156.658 188.105 156.385C189.541 156.059 191.014 155.922 192.485 155.979C192.222 155.979 191.804 156.21 191.546 156.287C191.208 156.39 190.865 156.485 190.522 156.571C189.848 156.736 189.165 156.871 188.476 156.969C187.086 157.17 185.679 157.232 184.277 157.152C183.636 157.117 182.524 157.182 181.976 156.859C182.45 156.577 183.002 156.457 183.551 156.518Z" fill="black"/>
<path opacity="0.1" d="M183.999 118.708C183.999 118.708 184.059 121.531 183.601 122.819C183.455 123.22 183.23 123.96 182.985 124.79C182.717 125.71 182.424 126.74 182.198 127.547C181.973 128.355 181.823 128.896 181.823 128.896C181.823 128.896 180.789 137.33 180.521 141.348C180.521 141.418 180.521 141.491 180.506 141.559C180.491 141.785 180.466 142.02 180.428 142.263C179.832 146.254 176.394 152.409 175.24 152.9C174.88 153.066 174.551 153.292 174.268 153.57C174.268 151.873 174.353 150.586 174.566 150.326C175.24 149.498 178.117 141.22 178.117 141.22L178.773 141.256C178.758 141.14 178.748 141.005 178.743 140.887C178.69 139.29 179.434 136.838 179.434 136.838C179.434 136.838 179.862 131.932 179.862 131.719C179.862 131.506 179.494 128.069 179.494 128.069L180.23 125.311L181.64 124.324C181.815 122.195 182.233 119.61 183.233 118.906C183.733 118.514 184.132 118.008 184.397 117.429C184.595 117.457 184.234 117.281 184.234 117.281L183.999 118.708Z" fill="black"/>
<path d="M184.537 117.126C184.282 117.039 184.01 117.009 183.742 117.039C183.474 117.07 183.216 117.159 182.987 117.302C182.281 117.803 180.904 117.76 180.536 117.67C180.168 117.58 176.341 117.086 176.028 117.209C175.715 117.332 175.109 116.78 174.711 117.517C174.313 118.254 174.13 118.65 173.732 118.833C173.334 119.016 172.628 119.6 172.731 119.723C172.833 119.846 171.729 120.581 171.729 120.581L173.963 127.851C173.963 127.851 172.523 137.046 171.819 137.844C171.116 138.641 164.868 148.972 167.104 150.812C168.874 152.206 170.748 153.463 172.708 154.573C172.959 154.695 173.84 153.041 175.064 152.519C176.289 151.998 180.087 145.099 180.323 141.175C180.558 137.252 181.64 128.515 181.64 128.515C181.64 128.515 182.957 123.732 183.415 122.443C183.874 121.155 183.813 118.332 183.813 118.332L184.537 117.126Z" fill="#4C4981"/>
<path opacity="0.1" d="M196.919 156.819L196.399 157.922C196.399 157.922 196.326 158.25 196.233 158.772C196.141 158.76 196.053 158.721 195.983 158.659C195.217 158.045 190.725 153.417 190.502 149.308C190.344 146.277 190.419 143.665 190.469 142.502C190.484 142.135 190.499 141.915 190.499 141.867C190.499 141.867 193.99 137.635 193.592 136.136C193.194 134.637 192.275 126.61 192.275 126.61L192.139 125.557L191.906 123.777L191.351 119.47L191.926 119.605C192.024 119.74 192.142 119.859 192.275 119.959L192.87 123.747L194.939 126.028L195.277 139.917L194.325 142.399C194.325 142.399 193.552 142.434 192.345 142.471H192.227L196.919 156.819Z" fill="black"/>
<path d="M198.848 133.893C198.848 133.893 197.991 133.554 197.931 133.893C197.871 134.231 197.716 134.963 197.716 134.963C197.716 134.963 197.869 136.743 197.215 137.447C196.561 138.152 196.464 141.125 196.464 141.125C196.464 141.125 195.432 144.068 195.92 144.988C196.098 145.322 196.374 146.994 196.649 149C196.824 150.253 196.997 151.629 197.15 152.888C197.428 155.174 197.636 157.067 197.636 157.067C197.636 157.067 197.082 159.09 196.316 158.476C195.55 157.862 191.058 153.234 190.837 149.125C190.687 146.239 190.747 143.732 190.797 142.496C190.817 141.973 190.837 141.677 190.837 141.677C190.837 141.677 194.328 137.445 193.93 135.943C193.532 134.442 192.613 126.417 192.613 126.417L192.452 125.176L192.28 123.842L192.239 123.549L191.686 119.287C191.784 119.31 195.219 120.087 195.672 120.541C196.126 120.994 198.928 121.644 198.928 121.644C199.35 121.758 199.734 121.985 200.04 122.299C200.346 122.612 200.562 123.003 200.666 123.429C200.693 123.514 200.713 123.604 200.733 123.697C201.101 125.477 200.984 125.69 201.234 125.998C201.484 126.307 198.848 133.893 198.848 133.893Z" fill="#4C4981"/>
<path opacity="0.1" d="M197.17 152.885C195.918 152.635 194.06 152.056 194.102 150.777C194.14 149.581 195.577 149.15 196.667 148.997C196.842 150.245 197.015 151.627 197.17 152.885Z" fill="black"/>
<path d="M201.054 152.249C201.004 152.356 200.803 152.449 200.518 152.532C199.848 152.691 199.168 152.803 198.482 152.865C198.482 152.865 194.225 152.527 194.285 150.594C194.33 149.208 196.253 148.839 197.333 148.756C197.572 148.734 197.811 148.724 198.051 148.726C198.051 148.726 201.236 151.852 201.054 152.249Z" fill="#AE6E79"/>
<path opacity="0.1" d="M201.054 152.249C201.004 152.356 200.803 152.449 200.518 152.532C199.409 151.045 197.861 149.137 197.102 148.969L197.333 148.756C197.572 148.734 197.811 148.724 198.051 148.726C198.051 148.726 201.236 151.852 201.054 152.249Z" fill="black"/>
<path d="M199.982 125.793L201.234 125.978C201.686 126.775 202.188 127.543 202.736 128.277C203.073 128.696 203.266 129.212 203.287 129.749C203.287 129.749 205.125 132.476 205.706 132.782C206.287 133.088 207.176 135.174 207.176 135.174C207.176 135.174 208.616 136.124 208.616 137.197C208.641 138.092 208.733 138.983 208.891 139.864C208.924 140.017 208.678 141.92 208.065 142.873C207.451 143.825 206.838 145.926 206.87 146.302C206.903 146.678 205.155 148.634 204.667 149.245C204.259 149.817 203.901 150.423 203.595 151.055L201.973 154.121C201.973 154.121 198.542 149.062 197.288 148.786C197.288 148.786 198.695 147.438 199.398 147.192C200.102 146.946 200.778 144.936 200.808 144.464C200.838 143.993 201.452 142.471 202.093 142.208C202.734 141.945 203.074 141.657 202.799 141.225C202.524 140.794 202.799 139.972 202.799 139.972C202.799 139.972 200.991 137.58 200.746 136.212C200.5 134.843 198.848 133.913 198.848 133.913L197.899 131.581L199.982 125.793Z" fill="#4C4981"/>
<path opacity="0.1" d="M204.537 137.237C205.23 136.651 206.102 136.32 207.008 136.299C206.427 136.4 205.816 136.527 205.391 136.934C205.223 137.109 205.073 137.301 204.942 137.505C204.797 137.713 203.615 139.217 203.44 138.979C203.147 138.631 204.299 137.44 204.537 137.237Z" fill="black"/>
<path opacity="0.1" d="M201.762 135.785C201.95 135.769 202.13 135.703 202.283 135.594C202.437 135.486 202.559 135.338 202.636 135.166C202.785 134.821 202.878 134.453 202.909 134.078C202.999 133.45 203.125 132.828 203.287 132.215C203.336 132.094 203.356 131.964 203.347 131.833C203.338 131.703 203.3 131.577 203.235 131.463C203.167 131.268 203.077 131.081 202.964 130.907C202.739 131.158 202.674 131.742 202.581 132.078C202.466 132.494 202.361 132.912 202.261 133.331C202.208 133.532 201.792 135.785 201.762 135.785Z" fill="black"/>
<path opacity="0.1" d="M200.678 123.409C200.555 123.57 200.413 123.717 200.255 123.845C199.754 124.243 199.09 124.579 199.028 125.209C199.045 125.413 199.02 125.619 198.953 125.813C198.793 126.088 198.399 126.063 198.086 126.011C197.822 125.987 197.569 125.893 197.353 125.74C197.025 125.459 196.995 124.958 196.744 124.604C196.592 124.422 196.4 124.277 196.183 124.181C195.966 124.085 195.729 124.04 195.492 124.05C195.024 124.035 194.558 124.141 194.09 124.161C193.789 124.176 193.487 124.156 193.191 124.1C193.093 124.085 192.996 124.065 192.901 124.04C192.691 123.989 192.487 123.919 192.29 123.832C192.187 123.792 192.088 123.745 191.992 123.692C191.678 123.531 191.388 123.328 191.128 123.09C190.669 122.669 190.289 122.087 190.326 121.463C190.349 121.08 190.522 120.726 190.577 120.348C190.765 119.265 190.046 118.242 189.267 117.467C188.957 117.159 188.626 116.86 188.316 116.547C187.832 116.1 187.45 115.555 187.196 114.948C186.987 114.301 186.919 113.617 186.996 112.942C187.066 112.257 187.086 111.569 187.054 110.881C186.823 108.444 184.745 106.577 182.667 105.561L182.574 105.514C183.191 104.805 183.949 104.235 184.801 103.84C185.653 103.446 186.578 103.235 187.516 103.223C188.455 103.21 189.385 103.396 190.247 103.768C191.109 104.14 191.883 104.69 192.518 105.382C193.153 106.073 193.635 106.891 193.933 107.783C194.231 108.674 194.338 109.618 194.247 110.553C194.155 111.488 193.868 112.393 193.404 113.21C192.939 114.026 192.308 114.735 191.551 115.291C191.528 115.369 191.508 115.446 191.491 115.522C191.01 117.447 191.328 118.615 191.686 119.26C191.784 119.282 195.219 120.059 195.672 120.513C196.126 120.967 198.928 121.616 198.928 121.616C199.354 121.73 199.741 121.956 200.049 122.271C200.357 122.587 200.574 122.98 200.678 123.409V123.409Z" fill="black"/>
<path d="M182.133 103.746C182.271 103.589 182.479 103.508 182.619 103.355C183.052 102.884 182.619 102.114 182.777 101.493C182.947 100.803 183.793 100.502 184.5 100.575C185.206 100.648 185.867 100.974 186.573 101.054C187.67 101.177 188.731 100.701 189.801 100.422C190.87 100.144 192.162 100.129 192.898 100.949C193.634 101.768 193.584 103.165 194.501 103.759C194.924 104.032 195.457 104.062 195.915 104.26C196.417 104.518 196.833 104.916 197.112 105.406C197.838 106.547 198.157 107.899 198.019 109.244C197.941 109.971 197.731 110.678 197.646 111.405C197.559 112.16 197.61 112.925 197.796 113.661C197.989 114.414 198.407 115.226 199.156 115.466C199.329 115.505 199.497 115.563 199.656 115.639C200.09 115.91 200.032 116.547 199.922 117.043L199.476 119.102C199.904 119.427 200.57 119.287 200.979 119.631C201.142 119.78 201.263 119.97 201.329 120.182C201.53 120.758 201.552 121.381 201.392 121.969C201.231 122.557 200.896 123.083 200.43 123.476C199.929 123.875 199.266 124.211 199.203 124.837C199.222 125.042 199.197 125.248 199.128 125.442C198.97 125.717 198.575 125.692 198.262 125.64C197.998 125.615 197.746 125.522 197.531 125.369C197.2 125.088 197.172 124.587 196.922 124.233C196.77 124.051 196.577 123.906 196.36 123.81C196.143 123.714 195.907 123.669 195.67 123.679C195.199 123.664 194.736 123.769 194.265 123.792C193.179 123.837 192.12 123.453 191.313 122.724C190.852 122.3 190.474 121.721 190.509 121.095C190.532 120.714 190.705 120.358 190.76 119.979C190.945 118.898 190.229 117.873 189.45 117.098C188.671 116.324 187.757 115.609 187.377 114.579C186.901 113.303 187.362 111.879 187.234 110.525C187.004 108.086 184.928 106.221 182.847 105.203C182.384 104.965 181.595 104.361 182.133 103.746Z" fill="#444053"/>
<path opacity="0.1" d="M198.51 124.8C198.179 124.517 198.151 124.018 197.901 123.664C197.749 123.482 197.557 123.337 197.34 123.24C197.123 123.144 196.886 123.099 196.649 123.108C196.178 123.093 195.713 123.198 195.244 123.221C194.155 123.268 193.09 122.884 192.282 122.15C191.821 121.729 191.446 121.147 191.481 120.523C191.503 120.139 191.676 119.783 191.731 119.407C191.919 118.324 191.2 117.299 190.422 116.524C189.643 115.75 188.731 115.035 188.348 114.005C187.875 112.731 188.348 111.307 188.208 109.951C187.975 107.512 185.899 105.647 183.821 104.629C183.335 104.391 182.546 103.787 183.085 103.172C183.22 103.014 183.428 102.934 183.568 102.781C184.001 102.312 183.568 101.54 183.728 100.921C183.759 100.798 183.813 100.681 183.886 100.578C183.363 100.675 182.884 100.971 182.757 101.473C182.604 102.094 183.032 102.864 182.599 103.335C182.459 103.488 182.251 103.568 182.113 103.724C181.575 104.338 182.364 104.945 182.849 105.18C184.93 106.198 187.006 108.066 187.236 110.503C187.364 111.859 186.903 113.283 187.379 114.559C187.76 115.587 188.674 116.314 189.452 117.078C190.231 117.843 190.955 118.876 190.762 119.959C190.657 120.326 190.573 120.698 190.512 121.075C190.477 121.699 190.855 122.28 191.315 122.702C192.122 123.436 193.186 123.82 194.275 123.772C194.746 123.749 195.209 123.647 195.68 123.659C195.917 123.65 196.153 123.696 196.37 123.792C196.587 123.889 196.779 124.034 196.932 124.216C197.182 124.569 197.21 125.071 197.54 125.351C197.756 125.504 198.009 125.596 198.272 125.62C198.585 125.677 198.98 125.697 199.138 125.424C199.194 125.313 199.219 125.188 199.208 125.063C198.956 125.038 198.715 124.948 198.51 124.8V124.8Z" fill="black"/>
<path d="M162.059 109.901H144.738V92.8136H162.071L162.059 109.901ZM161.808 84.137H144.989C144.989 57.5833 170.199 59.1351 170.199 42.336C170.199 33.0828 162.634 25.6698 153.392 25.6698C144.15 25.6698 136.588 33.6619 136.588 42.5992H119.781C119.773 38.178 120.637 33.7988 122.324 29.7126C124.01 25.6265 126.486 21.9138 129.608 18.7875C132.731 15.6612 136.439 13.1828 140.521 11.4944C144.602 9.80598 148.976 8.94076 153.392 8.94835C171.957 8.94835 187.004 23.777 187.004 42.336C187.004 63.3418 161.796 65.7334 161.796 84.137H161.808Z" fill="white"/>
<path d="M75.6722 104.812H71.205V100.395H75.6722V104.812ZM75.6046 98.1685H71.2726C71.2726 91.3245 77.7706 91.7231 77.7706 87.3885C77.7683 86.8214 77.6544 86.2603 77.4354 85.7373C77.2164 85.2142 76.8967 84.7395 76.4944 84.3402C76.0921 83.9409 75.6151 83.6249 75.0908 83.4103C74.5665 83.1956 74.0051 83.0865 73.4386 83.0891C72.2946 83.1156 71.2054 83.5847 70.3995 84.3981C69.5936 85.2114 69.1339 86.3057 69.1167 87.4512H64.7847C64.8135 85.1751 65.7345 83.0014 67.3492 81.3989C68.9639 79.7963 71.143 78.8933 73.4166 78.8844C75.6903 78.8755 77.8763 79.7615 79.5035 81.3514C81.1306 82.9413 82.0686 85.1077 82.1151 87.3835C82.1025 92.7986 75.6046 93.4153 75.6046 98.1584V98.1685Z" fill="white"/>
<path d="M109.497 135.5H105.029V131.095H109.497V135.5ZM109.431 128.859H105.099C105.099 122.012 111.597 122.413 111.597 118.079C111.595 117.512 111.481 116.951 111.262 116.428C111.043 115.905 110.723 115.43 110.321 115.031C109.919 114.632 109.442 114.316 108.917 114.102C108.393 113.888 107.832 113.779 107.265 113.782C106.117 113.803 105.021 114.27 104.21 115.085C103.399 115.9 102.937 116.999 102.921 118.149H98.5891C98.6178 115.873 99.5388 113.699 101.154 112.097C102.768 110.494 104.947 109.591 107.221 109.582C109.495 109.573 111.681 110.459 113.308 112.049C114.935 113.639 115.873 115.805 115.919 118.081C115.927 123.496 109.431 124.115 109.431 128.859Z" fill="white"/>
<path d="M130.065 81.1738H126.827V77.9875H130.065V81.1738ZM130.017 76.3579H126.877C126.877 71.3992 131.587 71.6875 131.587 68.5488C131.585 68.1379 131.502 67.7314 131.343 67.3526C131.185 66.9738 130.953 66.63 130.661 66.3409C130.37 66.0517 130.024 65.8229 129.644 65.6675C129.264 65.5121 128.857 65.4332 128.447 65.4351C127.616 65.452 126.824 65.7913 126.238 66.3816C125.652 66.9718 125.318 67.7669 125.307 68.5989H122.167C122.16 66.9314 122.816 65.3295 123.989 64.1457C125.162 62.9618 126.756 62.293 128.422 62.2864C130.088 62.2797 131.688 62.9358 132.87 64.1102C134.052 65.2846 134.72 66.8812 134.727 68.5488C134.722 72.4722 130.017 72.9209 130.017 76.3579V76.3579Z" fill="white"/>
<path d="M185.363 85.6713H183.533V83.8663H185.363V85.6713ZM185.336 82.9512H183.551C183.551 80.1485 186.212 80.3114 186.212 78.5365C186.212 78.3043 186.166 78.0745 186.077 77.8603C185.988 77.646 185.857 77.4517 185.692 77.2885C185.527 77.1252 185.331 76.9964 185.116 76.9094C184.901 76.8224 184.671 76.779 184.439 76.7816C183.97 76.7913 183.522 76.983 183.191 77.3165C182.86 77.6499 182.671 78.0989 182.664 78.5691H180.889C180.909 77.6427 181.291 76.761 181.951 76.1118C182.612 75.4627 183.499 75.0974 184.425 75.0938C185.35 75.0902 186.241 75.4486 186.906 76.0926C187.572 76.7366 187.96 77.6153 187.988 78.5415C187.998 80.7451 185.336 81.0083 185.336 82.9512V82.9512Z" fill="white"/>
<path d="M213.348 167.767H211.518V165.962H213.348V167.767ZM213.321 165.047H211.545C211.545 162.241 214.21 162.407 214.21 160.632C214.206 160.164 214.018 159.716 213.685 159.387C213.352 159.058 212.902 158.874 212.434 158.877C211.965 158.886 211.517 159.078 211.186 159.411C210.854 159.745 210.665 160.194 210.659 160.664H208.884C208.904 159.738 209.286 158.856 209.946 158.207C210.607 157.558 211.494 157.193 212.42 157.189C213.345 157.186 214.236 157.544 214.901 158.188C215.567 158.832 215.955 159.711 215.983 160.637C215.993 162.85 213.331 163.104 213.331 165.047H213.321Z" fill="white"/>
<defs>
<linearGradient id="paint0_linear" x1="179.855" y1="217.54" x2="179.855" y2="100.026" gradientUnits="userSpaceOnUse">
<stop stop-color="#808080" stop-opacity="0.25"/>
<stop offset="0.54" stop-color="#808080" stop-opacity="0.12"/>
<stop offset="1" stop-color="#808080" stop-opacity="0.1"/>
</linearGradient>
</defs>
</svg>
