<?xml version="1.0" encoding="utf-8"?>
<!-- Generator: Adobe Illustrator 22.0.1, SVG Export Plug-In . SVG Version: 6.00 Build 0)  -->
<svg version="1.1" id="Graphics" xmlns="http://www.w3.org/2000/svg" xmlns:xlink="http://www.w3.org/1999/xlink" x="0px" y="0px"
	 viewBox="0 0 1177.3 770.1" style="enable-background:new 0 0 1177.3 770.1;" xml:space="preserve">
<style type="text/css">
	.st0{fill:url(#SVGID_1_);}
	.st1{fill:#4D5068;}
	.st2{fill:#F3F6FC;}
	.st3{fill:url(#XMLID_2_);}
	.st4{fill:#FFFFFF;}
	.st5{fill:#F9F9FB;}
	.st6{fill:#FFDFD6;}
	.st7{fill:url(#SVGID_2_);}
	.st8{fill:#F9FAFC;}
	.st9{fill:#DFE2EC;}
	.st10{fill:#ECEEF4;}
	.st11{fill:url(#SVGID_3_);}
	.st12{fill:url(#SVGID_4_);}
	.st13{fill:url(#SVGID_5_);}
	.st14{fill:url(#SVGID_6_);}
	.st15{fill:#F3F4F9;}
	.st16{fill:#FFCEBD;}
	.st17{fill:#EF5253;}
	.st18{fill:#FEC55E;}
	.st19{fill:url(#SVGID_7_);}
	.st20{opacity:0.12;fill:#231F20;}
	.st21{fill:#FE5E31;}
	.st22{fill:#495057;}
	.st23{fill:url(#SVGID_8_);}
	.st24{fill:#E0E4F0;}
	.st25{fill:url(#SVGID_9_);}
	.st26{fill:#191C3C;}
	.st27{fill:url(#SVGID_10_);}
	.st28{fill:url(#SVGID_11_);}
	.st29{fill:#F5F7F9;}
	.st30{fill:#E6E7E8;}
	.st31{fill:#B2B8FA;}
	.st32{fill:#E03C00;}
	.st33{fill:#F3B199;}
	.st34{fill:#F0F1FE;}
</style>
<g id="Layer_6">
	<g>
		<g>
			<linearGradient id="SVGID_1_" gradientUnits="userSpaceOnUse" x1="1061.4175" y1="664.1594" x2="1177.2694" y2="664.1594">
				<stop  offset="0.1499" style="stop-color:#00ADF2"/>
				<stop  offset="0.5512" style="stop-color:#27B8F3"/>
				<stop  offset="1" style="stop-color:#4EC4F4"/>
			</linearGradient>
			<path class="st0" d="M1136.1,746c-0.3,0.2-0.6,0.3-1,0.5c-10,4.8-15.3,4-25-0.5c-9-4.1-17.7-9.1-25.1-15.6
				c-9.4-8.3-16.7-19.5-18.2-32c-0.3-2.8-0.3-5.9,1.3-8.1c2.3-3.1,7-3.6,10.6-2.2c3.6,1.4,6.4,4.2,9.3,6.8c1.2,1.1,2.5,2.2,4.1,2.6
				c1.6,0.4,3.5,0,4.3-1.4c1.3-2.3-0.9-4.9-2.9-6.6c-4.7-3.9-9.1-6.1-14-9.6c-6.2-4.3-11.8-9.6-15.2-16.3s-4.1-15.1-0.6-21.7
				c1.1-2,2.5-3.9,4.5-5.1c3.4-2.2,7.8-2.1,11.8-1.2c4,0.8,7.8,2.4,11.8,2.8c9.5,1,13.3-5.7,13.1-14.5c-0.1-5.9-2-11.6-2.4-17.5
				c-0.6-10.4,4.5-21.4,13.9-25.8c9.4-4.4,22.5-0.2,25.8,9.6c3.6,10.7-4.7,22.6,0.8,32.8c1.8,3.3,5.9,7.9,9,9.9
				c5.2,3.2,12.8-0.6,18.9-0.3c1.4,0.1,2.8,0.3,3.8,1.2c0.7,0.7,1,1.7,1.2,2.7c1.4,7.4-1.2,15.5-6.8,20.6
				c-6.3,5.7-17.2,8.7-19.9,17.7c-1.7,5.6-0.9,19.5,7.9,18.1c3.3-0.5,5.6-3.8,8.8-4.9c4-1.3,8.5,1.3,10.3,5.1
				c1.8,3.8,1.2,8.3-0.3,12.2c-2.4,6.1-7.1,11-11.7,15.8C1154.7,730.5,1148.6,739.9,1136.1,746z"/>
		</g>
		<g>
			<rect x="1120.7" y="616.2" class="st1" width="4.4" height="149.9"/>
		</g>
		<g>
			<polygon class="st1" points="1122.9,682.1 1096.2,655.3 1099.3,652.3 1122.9,675.9 1146.5,652.3 1149.6,655.3 			"/>
		</g>
		<g>
			<polygon class="st1" points="1122.9,732.6 1096.2,705.9 1099.3,702.8 1122.9,726.4 1146.5,702.8 1149.6,705.9 			"/>
		</g>
	</g>
	<g>
		<path id="XMLID_385_" class="st2" d="M1074.6,768.1H262.2V8.9c0-4.9,4-8.9,8.9-8.9h794.7c4.9,0,8.9,4,8.9,8.9V768.1z"/>
		<linearGradient id="XMLID_2_" gradientUnits="userSpaceOnUse" x1="262.1561" y1="28.2823" x2="1074.5807" y2="28.2823">
			<stop  offset="0" style="stop-color:#5FACEC"/>
			<stop  offset="0.6459" style="stop-color:#3B97ED"/>
			<stop  offset="1" style="stop-color:#2C8FEE"/>
		</linearGradient>
		<path id="XMLID_384_" class="st3" d="M1074.6,56.6V10.5c0-5.8-4.7-10.5-10.5-10.5H272.6c-5.8,0-10.5,4.7-10.5,10.5v46.1H1074.6z"
			/>
		<path id="XMLID_382_" class="st4" d="M320.8,26.7c0,3.8-3.1,7-7,7c-3.8,0-7-3.1-7-7c0-3.8,3.1-7,7-7
			C317.7,19.7,320.8,22.8,320.8,26.7z"/>
		<path id="XMLID_381_" class="st4" d="M344,26.7c0,3.8-3.1,7-7,7c-3.8,0-7-3.1-7-7c0-3.8,3.1-7,7-7C340.9,19.7,344,22.8,344,26.7z"
			/>
		<path id="XMLID_380_" class="st4" d="M367.2,26.7c0,3.8-3.1,7-7,7c-3.8,0-7-3.1-7-7c0-3.8,3.1-7,7-7
			C364.1,19.7,367.2,22.8,367.2,26.7z"/>
	</g>
	<g>
		<rect x="390.9" y="132.7" class="st5" width="54.2" height="54.2"/>
		<rect x="390.9" y="132.7" class="st6" width="9.5" height="9.5"/>
		<rect x="463.5" y="132.7" class="st5" width="54.2" height="54.2"/>
		<rect x="463.5" y="132.7" class="st6" width="9.5" height="9.5"/>
		<linearGradient id="SVGID_2_" gradientUnits="userSpaceOnUse" x1="563.2233" y1="186.928" x2="563.2233" y2="132.7178">
			<stop  offset="0.1499" style="stop-color:#00ADF2"/>
			<stop  offset="0.5512" style="stop-color:#27B8F3"/>
			<stop  offset="1" style="stop-color:#4EC4F4"/>
		</linearGradient>
		<rect x="536.1" y="132.7" class="st7" width="54.2" height="54.2"/>
		<rect x="608.7" y="132.7" class="st5" width="54.2" height="54.2"/>
		<rect x="390.8" y="200.5" class="st5" width="54.2" height="54.2"/>
		<rect x="463.4" y="200.5" class="st5" width="54.2" height="54.2"/>
		<rect x="536.1" y="200.5" class="st5" width="54.2" height="54.2"/>
		<rect x="608.7" y="200.5" class="st5" width="54.2" height="54.2"/>
		<rect x="390.8" y="268.4" class="st5" width="54.2" height="54.2"/>
		<rect x="317.8" y="132.7" class="st5" width="54.2" height="54.2"/>
		<rect x="317.8" y="200.5" class="st5" width="54.2" height="54.2"/>
		<rect x="317.8" y="268.4" class="st5" width="54.2" height="54.2"/>
		<rect x="463.4" y="268.4" class="st5" width="54.2" height="54.2"/>
		<rect x="536" y="268.4" class="st5" width="54.2" height="54.2"/>
		<rect x="608.7" y="268.4" class="st5" width="54.2" height="54.2"/>
		<rect x="317.8" y="132.7" class="st6" width="9.5" height="9.5"/>
		<rect x="608.7" y="132.7" class="st6" width="9.5" height="9.5"/>
		<rect x="390.9" y="200.5" class="st6" width="9.5" height="9.5"/>
		<rect x="463.5" y="200.5" class="st6" width="9.5" height="9.5"/>
		<rect x="317.8" y="200.5" class="st6" width="9.5" height="9.5"/>
		<rect x="608.7" y="200.5" class="st6" width="9.5" height="9.5"/>
		<rect x="536.1" y="200.5" class="st6" width="9.5" height="9.5"/>
		<rect x="390.9" y="268.4" class="st6" width="9.5" height="9.5"/>
		<rect x="463.5" y="268.4" class="st6" width="9.5" height="9.5"/>
		<rect x="317.8" y="268.4" class="st6" width="9.5" height="9.5"/>
		<rect x="608.7" y="268.4" class="st6" width="9.5" height="9.5"/>
		<rect x="536.1" y="268.4" class="st6" width="9.5" height="9.5"/>
	</g>
	<rect x="691.2" y="132.7" class="st8" width="345.2" height="541.9"/>
	<rect x="708.6" y="159.8" class="st9" width="44.9" height="10.3"/>
	<rect x="767.2" y="177.6" class="st10" width="47.8" height="204.6"/>
	<rect x="830.2" y="177.6" class="st10" width="47.8" height="372.7"/>
	<linearGradient id="SVGID_3_" gradientUnits="userSpaceOnUse" x1="854.0977" y1="462.0407" x2="854.0977" y2="177.6367">
		<stop  offset="0.1499" style="stop-color:#00ADF2"/>
		<stop  offset="0.5512" style="stop-color:#27B8F3"/>
		<stop  offset="1" style="stop-color:#4EC4F4"/>
	</linearGradient>
	<rect x="830.2" y="177.6" class="st11" width="47.8" height="284.4"/>
	<rect x="893.2" y="177.6" class="st10" width="47.8" height="240.4"/>
	<linearGradient id="SVGID_4_" gradientUnits="userSpaceOnUse" x1="917.0897" y1="241.2979" x2="917.0897" y2="177.6367">
		<stop  offset="0.1499" style="stop-color:#00ADF2"/>
		<stop  offset="0.5512" style="stop-color:#27B8F3"/>
		<stop  offset="1" style="stop-color:#4EC4F4"/>
	</linearGradient>
	<rect x="893.2" y="177.6" class="st12" width="47.8" height="63.7"/>
	<rect x="956.2" y="177.6" class="st10" width="47.8" height="159.3"/>
	<linearGradient id="SVGID_5_" gradientUnits="userSpaceOnUse" x1="980.0816" y1="288.8017" x2="980.0816" y2="177.6367">
		<stop  offset="0.1499" style="stop-color:#00ADF2"/>
		<stop  offset="0.5512" style="stop-color:#27B8F3"/>
		<stop  offset="1" style="stop-color:#4EC4F4"/>
	</linearGradient>
	<rect x="956.2" y="177.6" class="st13" width="47.8" height="111.2"/>
	<linearGradient id="SVGID_6_" gradientUnits="userSpaceOnUse" x1="791.106" y1="291.0002" x2="791.106" y2="177.6367">
		<stop  offset="0.1499" style="stop-color:#00ADF2"/>
		<stop  offset="0.5512" style="stop-color:#27B8F3"/>
		<stop  offset="1" style="stop-color:#4EC4F4"/>
	</linearGradient>
	<rect x="767.2" y="177.6" class="st14" width="47.8" height="113.4"/>
	<rect x="708.6" y="187" class="st9" width="44.9" height="10.3"/>
	<rect x="708.6" y="214.1" class="st9" width="44.9" height="10.3"/>
	<rect x="708.6" y="241.3" class="st9" width="44.9" height="10.3"/>
	<rect x="708.6" y="268.5" class="st9" width="44.9" height="10.3"/>
	<rect x="708.6" y="295.6" class="st9" width="44.9" height="10.3"/>
	<rect x="708.6" y="322.8" class="st9" width="44.9" height="10.3"/>
	<rect x="708.6" y="349.9" class="st9" width="44.9" height="10.3"/>
	<rect x="708.6" y="377.1" class="st9" width="44.9" height="10.3"/>
	<rect x="708.6" y="404.2" class="st9" width="44.9" height="10.3"/>
	<rect x="708.6" y="431.4" class="st9" width="44.9" height="10.3"/>
	<rect x="708.6" y="458.6" class="st9" width="44.9" height="10.3"/>
	<rect x="708.6" y="485.7" class="st9" width="44.9" height="10.3"/>
	<rect x="708.6" y="512.9" class="st9" width="44.9" height="10.3"/>
	<rect x="708.6" y="540" class="st9" width="44.9" height="10.3"/>
	<rect x="708.6" y="567.2" class="st9" width="44.9" height="10.3"/>
	<rect x="708.6" y="594.4" class="st9" width="44.9" height="10.3"/>
	<rect x="708.6" y="621.5" class="st9" width="44.9" height="10.3"/>
	<rect x="708.6" y="648.7" class="st9" width="44.9" height="10.3"/>
	<g>
		<path class="st8" d="M653.4,667.5H323.3c-4.1,0-7.5-3.4-7.5-7.5V485.1c0-4.1,3.4-7.5,7.5-7.5h330.1c4.1,0,7.5,3.4,7.5,7.5v174.8
			C660.9,664.1,657.6,667.5,653.4,667.5z"/>
		<rect x="457" y="504.7" class="st15" width="184.8" height="10.3"/>
		<rect x="457" y="535.2" class="st15" width="184.8" height="10.3"/>
		<rect x="457" y="565.8" class="st15" width="184.8" height="10.3"/>
		<rect x="350" y="596.3" class="st15" width="291.8" height="10.3"/>
		<rect x="350" y="626.8" class="st15" width="291.8" height="10.3"/>
		
			<ellipse transform="matrix(0.1607 -0.987 0.987 0.1607 -199.7661 848.2106)" class="st6" cx="398.8" cy="541.6" rx="42.8" ry="42.8"/>
	</g>
	<g>
		<path class="st16" d="M921.2,748.8l-14.9,6.6l-23.8,6.1c-3.1,0.7-5.2,3.4-5.2,6.6l0,0l69.4-0.3l-1.7-12.2l-9.9-6.8H921.2z"/>
		<path class="st1" d="M914.4,760.8l-8-5.4l-23.3,3.9c-3.1,0.7-5.7,5.6-5.7,8.7l0,0l69.4-0.3l-1.7-12.2l-5.7,5l-9.9-0.1
			C924.9,761.4,918.4,763,914.4,760.8z"/>
		<polygon class="st16" points="942.1,755.6 921.2,750.3 921.2,721.5 942.1,721.5 		"/>
		<path class="st17" d="M1089.7,669.3c0,0-132.5-47.9-147.9-42c0,0-19.8,0-24,31.4l0.8,67.9h26l6.8-51.8c1.1-3.3,4.9-4.8,7.9-3.1
			l80.1,44.6L1089.7,669.3z"/>
		<path class="st17" d="M1018.9,681.5l-80.1,49.4c-4.8,2.9-7.7,8.1-7.7,13.7v4.7c0,10.4,8.4,18.8,18.8,18.8l108.8-5.4V731
			c0,0,33.4-13,31.7-40.8L1018.9,681.5z"/>
		<polygon class="st16" points="1064.6,728.2 1119.3,768.1 1119.3,768.1 1058.8,762.7 1058.8,731 		"/>
		<path class="st1" d="M1064.6,728.2l-5.8,2.8v13.6l0,0c3.7-1.8,8-1.6,11.5,0.5l26.9,20.5c2.1,1.6,4.7,2.5,7.4,2.5h14.8l0,0
			L1064.6,728.2z"/>
		<path class="st16" d="M1019.3,498.2c0,0,4.3,24.9-5.7,39.6l35.2-3.3l-14.1-44.8L1019.3,498.2z"/>
		<g>
			<path class="st18" d="M1038.5,497c-0.5-2.9-1.7-5.5-3-8.1c-3.8-7.9-8-16.1-15.1-21.2c-3.1-2.2-6.8-3.8-9.6-6.4
				c-0.7,0.4-1.4,0.8-2.1,1.3l-3.8,0.7c-3.8,0.7-7.2,3.3-8.6,6.9c-1.4,3.6-0.6,8,2.2,10.6c1.7,1.6,3.9,2.5,5.9,3.6
				c4.3,2.4,8,6.1,10.3,10.5c0.8,1.6,1.5,3.3,2.5,4.7c3.2,4.5,9.1,5.9,14.5,7c1,0.2,2.1,0.4,3.1,0.1c0.7-0.2,1.4-0.8,1.9-1.4
				C1038.5,503,1038.9,499.8,1038.5,497z"/>
		</g>
		<g>
			<path class="st16" d="M1037.4,482.5c-4-4.4-8.1-8.8-12.6-12.6c-1.3-1.1-2.8-2.3-4.5-2.8c-1.7-0.5-3.4-0.4-5.1-0.2
				c-1.4,0.2-2.5,0.1-3.4,0c-3.5-0.4-7,1-9.5,3.5v0c-2.5,2.6-2.8,6.4-1.1,9.5c2.4,4.4-2.7,10.7-2,15.6c0.1,1,4.2,1,4.4,2
				c0.5,3.4,1,6.8,2.5,9.9c1.4,3.1,4,5.9,7.3,6.8c3.7,1,7.7-0.5,11-2.4c4.8-2.6,9.1-6,12.8-10c3.1-3.3,5.9-7.7,4.9-12.2
				C1041.4,486.9,1039.4,484.7,1037.4,482.5z"/>
		</g>
		<path class="st1" d="M1064.1,545.8c-7.3,22.7,33.7,144.7,33.7,144.7c-17.6,23.2-59.9-9.3-87.2-3.4c0,0,0.3-51.2-10-74.2
			l-13.9-22.7c-3.1-5.1-2.9-11.6,0.7-16.5l26.3-36l37.6-14.3c3.2-1.2,6.7-0.3,8.9,2.3l0,0C1064.8,531.4,1066.3,538.9,1064.1,545.8z"
			/>
		<g>
			<linearGradient id="SVGID_7_" gradientUnits="userSpaceOnUse" x1="1015.5306" y1="455.4922" x2="1092.6558" y2="577.269">
				<stop  offset="0" style="stop-color:#FEC55E"/>
				<stop  offset="1" style="stop-color:#FF5722"/>
			</linearGradient>
			<path class="st19" d="M1071,553.5c0.7-16.9-5.4-33.3-5.8-50.2c-0.3-13.1,2.3-27.6-5.4-38.2c-6.4-8.7-18.1-11.7-28.9-11.9
				c-5.3-0.1-10.7,0.3-15.6,2.3c-3,1.2-5.9,3.2-8.2,5.5c-1.3,1.3-2.7,2.4-2,4.1c0.6,1.5,3.2,2.8,4.5,3.4c2,0.7,4.1,0.9,6.1,1.5
				c4.8,1.4,5.1,4.9,5.7,9.2c0.7,5.1,1.2,10.2,1.3,15.3c0.1,2,0.1,4.1,0.4,6c0.2,1,0.5,2,0.9,2.9c1.5,3.4,4.7,5.7,7.6,8.1
				c2.3,1.9,5.3,4.5,6,7.6c0.8,3.6-0.6,7.5,0.4,11.2c1.6,6.1,7,10.2,11,15c5.9,7.2,8.7,16.6,9.5,25.8c0.8,9.3,8.5,20.8,10,27.9
				C1074.9,584.5,1070.3,569.5,1071,553.5z"/>
		</g>
		<path class="st16" d="M878,520.6l15.5,19.9c0.4,0.5,0.7,1.1,0.9,1.7l6,17.4l57.3,34.4l71.3-30.9c6.3-2.7,13.7-0.3,17.2,5.6l0,0
			c4.2,7.2,1,16.5-6.8,19.5l-76.3,30.1c-3.1,1.2-6.5,0.7-9.1-1.3l-61.6-47.7h-0.5c-3.4,0-6.4-2.3-7.2-5.6l-2.1-7.7
			c0,0-2.6-4.3-1.7-8.8c0.7-3.4,2.8-10.1,2.8-10.7l-10.4-14.8l0.9-1.6C875.3,519.3,877.1,519.5,878,520.6z"/>
		<path class="st1" d="M1050.2,566.1c-3.7-6.4-11.6-9-18.4-6.1l-39.1,13.5c-3.7,8,14.7,20.1,13.2,32.8l37.2-19.3
			C1051.3,583.8,1054.7,573.8,1050.2,566.1z"/>
	</g>
	<g>
		<rect x="317.8" y="337" class="st5" width="341.2" height="121.4"/>
		<rect x="331.2" y="350.2" class="st4" width="97.3" height="95.1"/>
		<rect x="441.9" y="363.1" class="st4" width="206.3" height="16"/>
		<rect x="442.2" y="390" class="st4" width="206.3" height="16"/>
		<rect x="442.6" y="416.9" class="st4" width="111" height="16"/>
	</g>
	<rect x="262.2" y="398.4" class="st20" width="38.9" height="127.7"/>
	<g>
		<g>
			<path class="st16" d="M454.3,223.1c1-3.5,3.2-6.8,6.5-8.3l-4.4-3.7c1.9,0.1,3.9,0.2,5.8,0.8c1.9,0.6,3.6,1.5,5.3,2.4
				c2.6,1.3,4,1.5,5.3,4.3c1.4,2.9,2.8,5.9,4.2,8.8c0.6,1.3,1.2,2.6,1.6,3.9c0.6,2,2.9,4.1,3.1,6.2c0.1,1.7-1.9,3.5-1.8,5.2
				c0.1,1.5,0.2,3.1,0.1,4.7c-0.2,2-0.8,3.8-1.5,5.7c-1.1,3.3-2.2,8.1-5.2,10.2c-3.1,2.3-6.5,4.3-10.5,4.3c-0.9,0-1.8-0.1-2.5-0.6
				c-0.7-0.5-1.1-1.3-1.5-2.1c-4.5-9.6-4.9-20.5-5.2-31.1C453.4,230.3,453.3,226.6,454.3,223.1z"/>
		</g>
		<path class="st16" d="M540.4,291l17.2-23.6c1.4-1.9,2.3-4.1,2.7-6.5l10.9-65.4h-15.1l-16.6,53.9c-1.2,3.8-3.4,7.2-6.4,9.8
			l-13.6,11.6L540.4,291z"/>
		<path class="st16" d="M358.6,343.9l-17.4,24.4c-4.1,5.7-4.4,13.3-0.9,19.3l50.1,85.3l9.7-11.7l-32.4-69.9
			c-2.9-6.2-1.9-13.5,2.5-18.8l15-17.9L358.6,343.9z"/>
		<path class="st16" d="M398.3,457.3l8,15.7v17.8L387.5,502l0,0c-2.7-3.9-2.1-9.3,1.5-12.4l1.4-1.2l0.1-15.3L398.3,457.3z"/>
		<rect x="387.5" y="740.4" class="st16" width="20.2" height="16.9"/>
		<path class="st21" d="M391.6,752H408l3.1,9.2v4.4c0,2.5-2,4.4-4.4,4.4h-17.1l-18.1-6.8v-3.1c0-5.1,2.5-9.9,6.6-12.9l9.5-6.8v10.9
			L391.6,752z"/>
		<path class="st4" d="M406.6,763.9h-17.1l-17.8-6.7c-0.2,1-0.3,1.9-0.3,2.9v3.1l18.1,6.8h17.1c2.5,0,4.4-2,4.4-4.4v-4.4l-0.2-0.6
			C410.4,762.5,408.7,763.9,406.6,763.9z"/>
		
			<rect x="492.4" y="740.4" transform="matrix(-1 -1.224647e-16 1.224647e-16 -1 1004.9105 1497.5924)" class="st16" width="20.2" height="16.9"/>
		<path class="st22" d="M503.8,472.7c0,0,4.3,29.3,7.7,57.7c0.7,6.1,1.1,12.3,1.1,18.5v64.1v131.9h-20.2c0,0-15.6-68.3-18.7-113.8
			c-0.8-12.1-2.9-24-5.5-35.8l-21.2-95.3v-23.3L503.8,472.7z"/>
		<path class="st22" d="M396.1,480.2c0,0-4.5,25.3-7.9,53.9c-0.4,3.6-0.7,7.2-0.7,10.9v68v131.9l20.1,0.4c0,0,17.2-65.5,19.4-115.6
			c0.3-8,1.8-15.8,3.5-23.6l22.6-77v-52.5L396.1,480.2z"/>
		<path class="st21" d="M508.4,752H492l-3.1,9.2v4.4c0,2.5,2,4.4,4.4,4.4h17.1l18.1-6.8v-3.1c0-5.1-2.5-9.9-6.6-12.9l-9.5-6.8v10.9
			L508.4,752z"/>
		<path class="st4" d="M493.4,763.9h17.1l17.8-6.7c0.2,1,0.3,1.9,0.3,2.9v3.1l-18.1,6.8h-17.1c-2.5,0-4.4-2-4.4-4.4v-4.4l0.2-0.6
			C489.7,762.5,491.3,763.9,493.4,763.9z"/>
		<linearGradient id="SVGID_8_" gradientUnits="userSpaceOnUse" x1="446.9289" y1="269.615" x2="446.9289" y2="499.6742">
			<stop  offset="0.1499" style="stop-color:#00ADF2"/>
			<stop  offset="0.5512" style="stop-color:#27B8F3"/>
			<stop  offset="1" style="stop-color:#4EC4F4"/>
		</linearGradient>
		<path class="st23" d="M431.2,284.6l-22.6,7c-8.2,2.6-15.7,7.3-21.4,13.7l-34.9,38.9l33.5,19.6l11.9-17.4c0,0,2.4,104.5-3.2,140.7
			c0,0,68.8,28,114.3,0c0,0-17.1-92.2-3.1-138l35.9-57l-22-22.5l-34.3,17.8l-7.9-2.7H431.2z"/>
		<path class="st16" d="M572.6,191.4l2.5-11.9c0.4-1.7-0.3-3.4-1.6-4.5l-6.1-5h-4.7c0,0,2.4-12.8,1.5-20.4h-1.5l-8.1,27.2v15.7
			l2.7,5.7h12.9L572.6,191.4z"/>
		<path class="st16" d="M477.3,284.6c0,0-9.6-7.2-9.6-18.1h-29c0,0-0.6,15-7.5,18.1H477.3z"/>
		<g>
			<path class="st1" d="M425.9,240c0.5-3.2-0.4-6.4-0.6-9.6c-0.4-4.6,0.4-9,2.5-13.1c1.7-3.3,3.6-6.5,6.4-8.9
				c5.4-4.7,13-5.7,20.1-5.6c2.2,0,4.4,0.1,6.4,1c1.6,0.7,3,1.7,4.6,2.2c1.1,0.3,2.2,0.4,3.3,0.7c1.5,0.4,2.9,1.1,4.3,1.8
				c1.4,0.8,2.8,1.7,3.8,3c1,1.4,1.3,3.3,0.3,4.8c-1,1.5-2.2,1.2-3.7,1.6c-2.9,0.9-7.4,3.4-8,6.6c-0.4,2.5,1.3,4.8,2.9,6.7
				c1.6,1.9,3.3,4.2,2.9,6.7c-0.1,0.4-0.2,0.8-0.5,1c-0.6,0.5-1.5,0.1-2.3,0.3c-1,0.2-1.7,1.1-1.9,2.1c-0.7,3.4,0.1,6.8-0.3,10.2
				c-0.4,3.6-2.4,7-4.1,10.2c-1.1,2-2.1,4.1-3.8,5.6c-1.5,1.4-3.4,2.3-5.2,3c-5.3,2.1-10.9,3.2-16.6,3.3c-10.2,0.2-8-9.1-11.1-15.7
				c-0.7-1.5-1.8-2.9-2.2-4.5C421.7,249.1,425.2,244.7,425.9,240z"/>
		</g>
	</g>
	<g>
		<rect x="101.2" y="619.1" class="st4" width="253.7" height="149.6"/>
		<rect x="101.2" y="619.1" class="st24" width="253.7" height="33.4"/>
		<linearGradient id="SVGID_9_" gradientUnits="userSpaceOnUse" x1="224.9591" y1="744.067" x2="224.9591" y2="684.0229">
			<stop  offset="0.1499" style="stop-color:#00ADF2"/>
			<stop  offset="0.5512" style="stop-color:#27B8F3"/>
			<stop  offset="1" style="stop-color:#4EC4F4"/>
		</linearGradient>
		<path class="st25" d="M110.2,744.1c0,0,229.7,0,229.7,0c-0.4,0,0.6-54.6-0.1-60c-8.3,4.4-14.7,12.8-23.6,17.2
			c-7.1,3.5-15.7,5.7-23.7,4.3c-7.5-1.3-13.6-6.9-21.2-7.4c-10-0.7-16.7,7.4-23.8,13c-10,7.8-22.7,17.3-35.5,19.3
			c-8.3,1.3-15-2.5-20.2-8.7c-6.7-8.1-10.1-15.5-21.4-17c-8.8-1.2-18.8,1-25.8,6.5c-8.7,6.8-13.9,17.9-23.9,22.6
			c-3.5,1.7-2.9,2.3-6.7,2c-2.5-0.2-0.9-3.7-3.2-1.7C109.1,735.5,110.2,741.8,110.2,744.1z"/>
	</g>
	<g>
		<polygon class="st16" points="193.6,752 236.1,752 220.7,741.4 217.3,731.5 193.6,731.5 		"/>
		<polygon class="st16" points="45.2,732.4 82.1,750.8 74.8,733.6 77.1,723.4 57.1,710.8 		"/>
		<path class="st1" d="M45.8,724.3l-8.4,16.1c-1.6,3.2-0.1,7.1,3.3,8.2l52.9,18h23.9c0,0,2.6-2.1,3.4-5.6l-27.4-12.8l-12.4-17.1
			l-11.6,8.1l-16.5-5.6L45.8,724.3z"/>
		<path class="st26" d="M36.7,738.4l-2.7,4.7c-1,1.8-0.3,4,1.6,4.8l52,20.8h25.6c4.2,0,7.7-3.4,7.7-7.7l0,0H85.1L36.7,738.4z"/>
		<path class="st1" d="M190.1,739v18.7c0,3.5,2.8,6.3,6.3,6.3h59.1l24.8-4.3l0,0c-1.4-3.6-4.4-6.3-8.1-7.5l-25.7-8.1l-19.2-12.6
			l-7.3,15.4h-21.3L190.1,739z"/>
		<path class="st26" d="M196.1,768.7h75.2c5,0,9-4,9-9l0,0h-91.9v1.3C188.4,765.2,191.8,768.7,196.1,768.7z"/>
		<linearGradient id="SVGID_10_" gradientUnits="userSpaceOnUse" x1="50.6774" y1="615.6042" x2="140.3368" y2="615.6042">
			<stop  offset="0.1499" style="stop-color:#00ADF2"/>
			<stop  offset="0.5512" style="stop-color:#27B8F3"/>
			<stop  offset="1" style="stop-color:#4EC4F4"/>
		</linearGradient>
		<path class="st27" d="M78.6,500.4l-2.5,18.4c-2,14.8-1.6,29.7,1.3,44.4l9.9,51.3c2.2,11.3,0.9,23.1-3.7,33.7l-32.9,70.4l26.6,12.3
			l45.6-82.3c1.5-2.8,2.5-5.9,2.9-9l14.6-134.9L78.6,500.4z"/>
		<linearGradient id="SVGID_11_" gradientUnits="userSpaceOnUse" x1="110.8242" y1="620.8518" x2="219.3928" y2="620.8518">
			<stop  offset="0.1499" style="stop-color:#00ADF2"/>
			<stop  offset="0.5512" style="stop-color:#27B8F3"/>
			<stop  offset="1" style="stop-color:#4EC4F4"/>
		</linearGradient>
		<path class="st28" d="M181,511.6c0,0,14,42.8,22,92.6c8,50.3,10,107.7,16.4,127.7h-28c0,0-19-60-20.6-105.3
			c-0.3-7.9-3-15.5-7.6-22c-16.5-22.8-53.7-76.6-52.3-94.9L181,511.6z"/>
		<path class="st16" d="M135.9,392.8L93.3,393l6.8-111.4c0,0,13.9,0,14.8,0c3.5,0,7,0,10.5,0c3.1,0,6.4-1.1,9.4-0.8
			c-2.3,1.3-3.7,3.9-4.3,6.6c-0.6,3-0.5,8.6-0.3,11.9c0.2,3.4,10.2,18.6,10.2,21.6C140.3,324.7,135.9,389.1,135.9,392.8z"/>
		<path class="st4" d="M98.5,308.8c-2,33-5.1,84.2-5.1,84.2l42.6-0.2c0-3.7,4.4-68.1,4.4-71.8c0-1.3-1.7-4.6-3.7-8.4
			C121.8,319.5,106.3,313.1,98.5,308.8z"/>
		<rect y="391.9" class="st4" width="292.4" height="127.7"/>
		<path class="st16" d="M141.5,282.3c-3,3.3-9.6,4-14,4.3c-9.8,0.7-19.9,0-29.7,0v-51.9c0,0,47.7,0,47.7,0c-0.3,0-0.2,5.5,0.1,11.5
			c0.2,5.1,4.8,17,4.9,19.9c0,0.9-4.3,1.6-4.3,1.9L141.5,282.3z"/>
		<g>
			<path class="st21" d="M149.8,228.5c-2.2-2.8-6.2-3.4-9.8-3.1c-3.6,0.2-7.3,1-10.7-0.1c-3.5-1.2-6.5-4.3-10.2-4.2
				c-5,0.2-8.2,6.2-13.2,6.9c-3.7,0.5-7.7-2.1-11.2-0.6c-3.4,1.4-4.3,5.7-4.1,9.3c0.2,3.6,1,7.5-0.5,10.8c-1.2,2.6-3.8,4.6-4.3,7.4
				c-1,5.3,5.5,9.2,6.2,14.5c0.5,3.3-1.3,6.4-1.9,9.6c-0.5,2.8,0.7,6.3,3,7.2l-0.1,0c2.4,2,6.2,1.1,8.4-1.1c2.2-2.2,3.1-5.3,3.9-8.3
				c0.7-2.5,1.4-5.1,1.4-7.7c0-4.9-2.6-10.3,0.1-14.4c1.8-1,4.1,0.6,4.8,2.5c0.8,1.9,0.7,4.1,1.3,6c0.6,2,2.5,3.9,4.5,3.4
				c2.5-0.6,2.7-4,2.3-6.5c-0.4-2.5-0.5-5.8,1.8-6.8c1.8-0.8,4.2,0.4,5.7-0.8c1.4-1.1,1.1-3.2,1.6-4.9c0.8-2.8,3.7-4.3,6.5-4.9
				c2.8-0.6,5.7-0.4,8.5-1.3C149.2,239.7,153.1,232.8,149.8,228.5z"/>
		</g>
		<path class="st1" d="M100.1,288.8l-4.2,2.2l-2.6,4.4c-3,5-7.4,9-12.8,11.4l-4.5,2c-9.9,4.5-17.2,13.3-19.8,23.8l-8.1,33.2
			c-5.6,22.8-6.6,46.5-3.1,69.8l8.4,54.9h22.8l1.4-81.8c0.1-4.3,0.5-8.6,1.3-12.8l0.5-2.9l53.2-0.3c0,0-5.3-66.6-16.8-75.4l4.7-3.6
			l-10.5-4.5c-3.3-1.4-5.6-4.3-6.3-7.8c-0.3-1.3-0.5-2.6-0.8-3.7L100.1,288.8z"/>
		<path class="st1" d="M130.1,299.4l4.6,2.2l16.9,10.8c6,3.8,11,8.9,14.7,15c9.3,15.2,25.9,45.2,24.9,64.5l-58.6,0.9
			c0,0-3.7-44.9,2.1-64.2c1.4-4.8,1.4-9.9-0.1-14.6L130.1,299.4z"/>
		<path class="st16" d="M138.9,393.4l0.5-5.2c0.4-3.1,3.1-5.5,6.3-5.3l0,0l1.2,2.1l21.6-0.4c3-0.1,5.3,2.8,4.5,5.7l-1,4
			c-0.5,2.1-2.3,3.5-4.5,3.5h-1.8l0,0c0,3.4-2.7,6.2-6.1,6.2h-8c-3.4,0-6.1-2.8-6.1-6.1v-5L138.9,393.4z"/>
		<rect x="25.6" y="408.2" class="st29" width="9.4" height="95"/>
		<rect x="42.3" y="408.2" class="st29" width="9.4" height="95"/>
		<rect x="59" y="408.2" class="st30" width="9.4" height="95"/>
		<rect x="75.6" y="408.2" class="st29" width="9.4" height="95"/>
		<rect x="92.3" y="408.2" class="st29" width="9.4" height="95"/>
		<rect x="109" y="408.2" class="st29" width="9.4" height="95"/>
		<rect x="125.7" y="408.2" class="st29" width="9.4" height="95"/>
		<rect x="142.4" y="408.2" class="st29" width="9.4" height="95"/>
		<rect x="159" y="408.2" class="st29" width="9.4" height="95"/>
		<rect x="175.7" y="408.2" class="st29" width="9.4" height="95"/>
		<rect x="192.4" y="408.2" class="st29" width="9.4" height="95"/>
		<rect x="25.6" y="479.5" class="st31" width="9.4" height="23.7"/>
		<rect x="42.3" y="455.7" class="st31" width="9.4" height="47.5"/>
		<rect x="59" y="455.7" class="st32" width="9.4" height="47.5"/>
		<rect x="75.6" y="425.6" class="st31" width="9.4" height="77.6"/>
		<rect x="92.3" y="441.5" class="st31" width="9.4" height="61.7"/>
		<rect x="109" y="481.7" class="st31" width="9.4" height="21.5"/>
		<rect x="125.7" y="441.5" class="st31" width="9.4" height="61.7"/>
		<rect x="142.4" y="474.7" class="st31" width="9.4" height="28.5"/>
		<rect x="159" y="455.7" class="st31" width="9.4" height="47.5"/>
		<rect x="175.7" y="437.7" class="st31" width="9.4" height="65.5"/>
		<rect x="192.4" y="428.8" class="st31" width="9.4" height="74.4"/>
		<path class="st1" d="M100.1,288.8l-4.2,2.2l-7.2,12.2l-12.7,5.7c-9.9,4.5-17.2,13.3-19.8,23.8l-8.1,33.2
			c-5.6,22.8-6.6,46.5-3.1,69.8l8.4,54.9h22.8l1.4-81.8C77.8,404.5,82,380,82,380L100.1,288.8z"/>
		<path class="st16" d="M57.8,490.6l-2.2,30.3l0,0c0.7,3.2,3.1,5.8,6.3,6.6l0.8,0.2l17.3,1.2c3,0.2,5.8-1.2,7.4-3.7l1.3-2
			c1.1-1.7,1.7-3.8,1.7-5.9v-3.7c0-4.3-1.8-8.5-5.1-11.4l-10.9-9.8v-1.9H57.8z"/>
		<rect x="212.8" y="413.4" class="st33" width="60.8" height="9.4"/>
		<rect x="212.8" y="439.6" class="st34" width="60.8" height="4.7"/>
		<rect x="212.8" y="451" class="st34" width="60.8" height="4.7"/>
		<rect x="212.8" y="462.5" class="st34" width="60.8" height="4.7"/>
		<rect x="212.8" y="474" class="st34" width="30.4" height="4.7"/>
	</g>
</g>
</svg>
