<svg width="214" height="151" viewBox="0 0 214 151" fill="none" xmlns="http://www.w3.org/2000/svg">
<path d="M214 0L75.5817 139.374L63.2775 106.19L214 0Z" fill="#C4C4C4"/>
<path d="M117.253 68.162L126.754 87.8477L75.5815 139.374L63.2774 106.189L117.253 68.162Z" fill="#0074A2"/>
<path d="M75.5817 139.374L88.3247 114.573L214 0L102.386 121.908L75.5817 139.374Z" fill="#EFEFEF"/>
<path d="M88.3247 114.573L160.39 150.901L214 0L88.3247 114.573Z" fill="#EFEFEF"/>
<path d="M63.2775 106.19L214 0L0 84.1831L63.2775 106.19Z" fill="#EFEFEF"/>
<path d="M137.66 69.5968L162.275 145.597L160.391 150.901L88.2563 114.529L137.66 69.5968Z" fill="#00ADF2"/>
<path d="M8.80789 80.7185L117.253 68.162L63.3298 106.33L3.8147e-05 84.1829L8.80789 80.7185Z" fill="#00ADF2"/>
<path d="M137.66 69.5968L162.275 145.597L134.042 72.8871L137.66 69.5968Z" fill="#00ADF2"/>
<path d="M117.253 68.162L112.444 71.5663L8.80789 80.7185L117.253 68.162Z" fill="#00ADF2"/>
<path d="M88.2563 114.529L102.545 121.735L91.6101 128.93L88.2563 114.529Z" fill="#C4C4C4"/>
<path d="M208.686 14.9587L204.384 8.76615L214 0L208.686 14.9587Z" fill="#00ADF2"/>
<path d="M202.334 8.2186L192.625 8.40865L214 0L202.334 8.2186Z" fill="#00ADF2"/>
</svg>
