<svg width="401" height="318" viewBox="0 0 401 318" fill="none" xmlns="http://www.w3.org/2000/svg">
<path d="M214.316 317.539C212.359 317.539 210.547 317.103 209.098 316.231L125.522 267.907C123.638 266.817 122.55 265.073 122.55 263.257C122.55 261.367 123.638 259.696 125.522 258.606L272.667 173.44C274.117 172.568 276.001 172.132 277.886 172.132C279.771 172.132 281.655 172.568 283.105 173.44L366.68 221.836C368.565 222.926 369.652 224.67 369.652 226.487C369.652 228.376 368.565 230.048 366.68 231.138L219.535 316.304C218.086 317.103 216.274 317.539 214.316 317.539Z" fill="#D7EDFE"/>
<path d="M363.274 216.241L355.155 211.881C355.155 211.881 354.503 199.382 355.518 189.499C356.895 175.547 367.188 159.415 377.916 163.339C388.643 167.263 372.987 181.433 369.507 193.278C366.028 205.05 363.274 216.241 363.274 216.241Z" fill="#27DEBF"/>
<path d="M363.274 216.241L355.155 211.881C355.155 211.881 354.503 199.382 355.518 189.499C356.895 175.547 367.188 159.415 377.916 163.339C388.643 167.263 372.987 181.433 369.507 193.278C366.028 205.05 363.274 216.241 363.274 216.241Z" fill="#00ADF2"/>
<path d="M359.287 214.788C359.504 214.788 359.649 214.642 359.649 214.424C358.635 183.468 373.929 167.917 374.146 167.772C374.291 167.627 374.291 167.409 374.146 167.263C374.002 167.118 373.784 167.118 373.639 167.263C373.494 167.409 357.91 183.177 358.925 214.424C358.925 214.642 359.142 214.788 359.287 214.788Z" fill="white"/>
<path d="M367.478 218.712L363.274 216.241C363.274 216.241 361.969 206.431 365.883 195.603C369.797 184.921 379.945 179.108 384.657 180.706C390.383 182.668 390.383 188.119 388.353 191.752C385.816 195.967 370.595 206.649 367.478 218.712Z" fill="#3DBFF4"/>
<path d="M365.23 217.767C365.448 217.767 365.593 217.621 365.593 217.403C365.52 197.856 383.859 184.63 384.004 184.485C384.149 184.34 384.222 184.122 384.077 183.976C383.932 183.831 383.714 183.758 383.569 183.904C383.352 184.049 364.795 197.493 364.868 217.403C364.868 217.621 365.013 217.767 365.23 217.767Z" fill="white"/>
<path d="M118.926 224.67V207.666C118.926 207.666 118.056 198.074 111.315 190.735C104.574 183.468 98.5578 185.939 96.6007 189.354C94.6436 192.842 99.0652 199.382 101.965 203.088C105.371 207.521 118.926 228.158 118.926 237.46V224.67Z" fill="#27DEBF"/>
<path d="M118.926 224.67V207.666C118.926 207.666 118.056 198.074 111.315 190.735C104.574 183.468 98.5578 185.939 96.6007 189.354C94.6436 192.842 99.0652 199.382 101.965 203.088C105.371 207.521 118.926 228.158 118.926 237.46V224.67Z" fill="#5A5A78"/>
<path d="M118.926 221.982C118.709 221.982 118.564 221.837 118.491 221.619C115.447 203.016 101.312 190.299 101.167 190.154C101.022 190.008 100.95 189.718 101.167 189.572C101.312 189.427 101.602 189.354 101.747 189.572C101.892 189.718 116.244 202.652 119.289 221.473C119.361 221.764 119.216 221.982 118.926 221.982C118.926 221.982 118.999 221.982 118.926 221.982Z" fill="white"/>
<path d="M118.999 226.923C118.999 226.923 119.578 225.252 117.042 224.816C114.577 224.38 113.635 222.345 113.345 218.857C113.127 215.369 112.04 212.898 108.923 212.39C105.806 211.881 103.342 213.48 101.312 211.881C99.2826 210.355 94.0637 206.576 89.7146 208.248C85.3655 209.992 86.8152 213.698 89.0622 216.096C91.3093 218.494 91.9616 219.293 90.222 223.29C88.4823 227.214 89.7871 230.92 93.7738 231.792C97.7604 232.664 100.007 232.228 100.08 236.661C100.152 241.093 100.732 243.055 102.907 244.727C105.081 246.471 111.968 245.671 114.867 246.325C117.766 246.979 118.926 249.595 118.926 249.595V226.923H118.999Z" fill="#53C7F5"/>
<path d="M118.999 245.09C118.854 245.09 118.709 245.017 118.709 244.872C111.388 223.145 94.9336 214.424 94.7886 214.352C94.6437 214.279 94.5712 214.061 94.6437 213.916C94.7162 213.77 94.9336 213.698 95.0786 213.77C95.2236 213.843 111.968 222.709 119.361 244.727C119.434 244.872 119.361 245.09 119.144 245.163C119.071 245.09 119.071 245.09 118.999 245.09Z" fill="white"/>
<path d="M108.561 226.196H108.488C103.704 225.106 96.0932 225.688 96.0207 225.688C95.8032 225.688 95.6583 225.542 95.6583 225.397C95.6583 225.179 95.8032 225.034 95.9482 225.034C96.2381 225.034 103.777 224.452 108.633 225.542C108.851 225.615 108.923 225.76 108.923 225.978C108.851 226.051 108.706 226.196 108.561 226.196Z" fill="white"/>
<path d="M112.403 236.588C110.228 236.588 107.908 236.443 107.764 236.443C107.546 236.443 107.401 236.297 107.474 236.079C107.474 235.861 107.619 235.716 107.836 235.789C107.908 235.789 113.2 236.152 115.302 235.789C115.519 235.789 115.664 235.861 115.664 236.079C115.664 236.297 115.592 236.443 115.374 236.443C114.65 236.515 113.562 236.588 112.403 236.588Z" fill="white"/>
<path d="M106.314 223.58C106.096 223.58 105.951 223.435 105.951 223.217C106.169 219.366 107.401 216.096 107.474 215.95C107.546 215.805 107.763 215.66 107.908 215.732C108.053 215.805 108.198 216.023 108.126 216.168C108.126 216.168 106.821 219.511 106.676 223.217C106.676 223.435 106.531 223.58 106.314 223.58Z" fill="white"/>
<path d="M123.058 256.862C123.058 259.187 124.797 262.021 126.899 263.256L210.475 311.653C212.577 312.888 216.056 312.888 218.158 311.653L365.303 226.487C367.405 225.251 369.145 222.417 369.145 220.092C369.145 217.766 367.405 214.932 365.303 213.697L281.728 165.301C279.626 164.065 276.147 164.065 274.044 165.301L126.899 250.467C124.797 251.702 123.058 254.536 123.058 256.862Z" fill="#27DEBF"/>
<path d="M369.145 220.019C369.145 222.345 367.405 225.179 365.303 226.414L218.158 311.58C217.071 312.161 215.694 312.525 214.317 312.525V304.168C215.694 304.168 217.071 303.877 218.158 303.223L365.303 218.057C367.188 216.967 367.405 215.296 366.028 214.133C367.768 215.514 369.145 217.985 369.145 220.019Z" fill="#DCE2F6"/>
<path d="M126.899 254.9L210.475 303.296C212.577 304.531 216.056 304.531 218.158 303.296L365.303 218.13C367.405 216.894 367.405 214.932 365.303 213.697L281.728 165.301C279.626 164.065 276.146 164.065 274.044 165.301L126.899 250.467C124.797 251.702 124.797 253.664 126.899 254.9Z" fill="#ECECF8"/>
<path d="M214.317 304.241V312.598C212.939 312.598 211.562 312.307 210.475 311.653L126.899 263.257C124.797 262.021 123.058 259.187 123.058 256.862C123.058 254.682 124.58 252.066 126.537 250.685C124.797 251.92 124.942 253.737 126.899 254.9L210.475 303.296C211.562 303.878 212.939 304.241 214.317 304.241Z" fill="#DCE2F6"/>
<path d="M119.506 250.612C117.549 249.45 117.621 247.488 117.621 245.09V129.403C117.621 126.932 119.361 123.953 121.463 122.718L268.608 37.5514C270.71 36.3161 274.044 36.2434 276.074 37.4061C278.031 38.5688 277.959 40.5308 277.959 42.9288V158.615C277.959 161.086 276.219 164.065 274.117 165.301L126.972 250.467C124.797 251.702 121.463 251.775 119.506 250.612Z" fill="#27DEBF"/>
<path d="M277.886 42.8562C277.886 40.3855 276.146 39.4408 274.044 40.6035L126.899 125.77C125.812 126.351 124.87 127.441 124.217 128.676L118.708 125.479C119.433 124.244 120.376 123.226 121.39 122.572L268.535 37.4062C270.637 36.1708 273.972 36.0981 276.001 37.2608C278.031 38.4962 277.886 40.4582 277.886 42.8562Z" fill="#22B7F3"/>
<path d="M123.058 132.528V248.214C123.058 250.685 124.797 251.63 126.899 250.467L274.044 165.301C276.147 164.065 277.886 161.086 277.886 158.615V42.9289C277.886 40.4582 276.147 39.5135 274.044 40.6762L126.899 125.842C124.797 127.078 123.058 130.057 123.058 132.528Z" fill="#4CC3F4"/>
<path d="M126.464 250.685C124.362 251.702 121.318 251.63 119.506 250.612C117.549 249.45 117.621 247.488 117.621 245.09V129.33C117.621 128.095 118.056 126.714 118.781 125.552L124.29 128.749C123.565 129.984 123.13 131.292 123.13 132.528V248.287C123.058 250.54 124.58 251.557 126.464 250.685Z" fill="url(#paint0_linear)"/>
<path d="M129.001 130.275L270.855 48.1609C272.16 47.4342 273.174 48.0155 273.174 49.4689V150.477C273.174 151.93 272.16 153.747 270.855 154.473L129.001 236.587C127.697 237.314 126.682 236.733 126.682 235.279V134.272C126.682 132.818 127.697 131.002 129.001 130.275Z" fill="#47476A"/>
<path d="M158.648 155.709L241.933 107.458C244.398 106.004 246.427 107.022 246.427 109.71C246.427 112.399 244.398 115.742 241.933 117.122L158.648 165.373C156.183 166.827 154.154 165.809 154.154 163.121C154.226 160.432 156.183 157.089 158.648 155.709Z" fill="#E8F8FF"/>
<path opacity="0.39" d="M245.05 109.71C245.05 111.89 243.31 114.797 241.281 115.96L224.247 125.842L157.923 164.211C157.27 164.574 156.763 164.647 156.546 164.647C155.893 164.647 155.531 164.138 155.531 163.121C155.531 160.941 157.27 158.034 159.3 156.871L224.247 119.302L242.658 108.693C243.31 108.33 243.818 108.257 244.035 108.257C244.76 108.184 245.05 108.693 245.05 109.71Z" fill="#CDF1FF"/>
<path d="M245.05 109.71C245.05 111.89 243.31 114.797 241.281 115.96L224.247 125.842L157.923 164.211C157.27 164.574 156.763 164.647 156.546 164.647C155.893 164.647 155.531 164.138 155.531 163.121C155.531 160.941 157.27 158.034 159.3 156.871L224.247 119.302L242.658 108.693C243.31 108.33 243.818 108.257 244.035 108.257C244.76 108.184 245.05 108.693 245.05 109.71Z" fill="#3DBFF4"/>
<path d="M245.05 109.71C245.05 111.89 243.311 114.797 241.281 115.96L224.247 125.842V119.302L242.658 108.693C243.311 108.33 243.818 108.257 244.035 108.257C244.76 108.184 245.05 108.693 245.05 109.71Z" fill="#47476A"/>
<path d="M178.436 145.826L159.373 156.871C157.343 158.034 155.603 160.941 155.603 163.121C155.603 164.138 155.966 164.647 156.618 164.647C156.908 164.647 157.343 164.574 157.995 164.211L178.436 152.366V145.826Z" fill="#E8F8FF"/>
<path opacity="0.4" d="M178.436 152.366L201.487 138.995V132.528L178.436 145.826V152.366Z" fill="white"/>
<path d="M137.555 250.685L274.117 171.623C275.204 171.042 276.871 171.042 277.959 171.623L280.206 172.858C281.293 173.44 281.293 174.457 280.206 175.111L143.643 254.173C142.556 254.754 140.889 254.754 139.802 254.173L137.555 252.938C136.467 252.284 136.467 251.266 137.555 250.685Z" fill="#DCE2F6"/>
<path d="M148.283 257.08L284.845 178.018C285.932 177.436 287.454 177.291 288.324 177.8L323.842 198.365C324.712 198.873 324.567 199.745 323.479 200.399L187.135 279.389C186.047 279.97 184.525 280.115 183.655 279.607L147.92 259.115C147.05 258.606 147.195 257.661 148.283 257.08Z" fill="#ECEEF4"/>
<path d="M266.578 211.227L270.855 208.756C271.073 208.683 271.073 208.465 270.928 208.393L266.868 205.995C266.723 205.922 266.433 205.922 266.216 205.995L261.939 208.465C261.722 208.538 261.722 208.756 261.867 208.829L265.926 211.227C266.144 211.299 266.433 211.299 266.578 211.227ZM260.345 202.652L256.068 205.123C255.851 205.195 255.851 205.413 255.996 205.486L260.055 207.884C260.2 207.957 260.49 207.957 260.707 207.884L264.984 205.413C265.201 205.341 265.201 205.123 265.056 205.05L260.997 202.652C260.852 202.507 260.562 202.579 260.345 202.652ZM246.573 210.645L239.324 214.86C239.107 214.933 239.107 215.151 239.252 215.223L243.311 217.621C243.456 217.694 243.746 217.694 243.963 217.621L251.212 213.407C251.429 213.334 251.429 213.116 251.284 213.043L247.225 210.645C247.007 210.5 246.718 210.573 246.573 210.645ZM254.111 206.285L249.834 208.756C249.689 208.829 249.617 209.047 249.762 209.119L253.821 211.517C253.966 211.59 254.256 211.59 254.473 211.517L258.75 209.047C258.968 208.974 258.968 208.756 258.823 208.683L254.763 206.285C254.546 206.14 254.328 206.14 254.111 206.285ZM237.367 215.95L233.09 218.421C232.873 218.493 232.873 218.711 233.018 218.784L237.077 221.182C237.222 221.255 237.512 221.255 237.729 221.182L242.006 218.711C242.223 218.639 242.223 218.421 242.078 218.348L238.019 215.95C237.802 215.877 237.512 215.877 237.367 215.95ZM231.061 219.583L226.784 222.054C226.567 222.127 226.567 222.345 226.712 222.418L230.771 224.816C230.916 224.888 231.206 224.888 231.423 224.816L235.7 222.345C235.917 222.272 235.917 222.054 235.772 221.982L231.713 219.583C231.568 219.511 231.278 219.511 231.061 219.583ZM247.152 229.248L251.429 226.778C251.574 226.705 251.647 226.487 251.502 226.414L247.442 224.016C247.297 223.944 247.007 223.944 246.79 224.016L242.513 226.487C242.296 226.56 242.296 226.778 242.441 226.85L246.5 229.248C246.645 229.394 246.935 229.394 247.152 229.248ZM240.846 232.882L245.123 230.411C245.34 230.338 245.34 230.12 245.195 230.048L241.136 227.65C240.991 227.577 240.701 227.577 240.484 227.65L236.207 230.12C235.99 230.193 235.99 230.411 236.135 230.484L240.194 232.882C240.411 233.027 240.701 232.954 240.846 232.882ZM234.612 236.515L238.889 234.044C239.107 233.972 239.107 233.754 238.962 233.681L234.902 231.283C234.757 231.21 234.467 231.21 234.25 231.283L229.973 233.754C229.756 233.826 229.756 234.044 229.901 234.117L233.96 236.515C234.178 236.588 234.467 236.588 234.612 236.515ZM228.379 240.148L232.655 237.678C232.873 237.605 232.873 237.387 232.728 237.314L228.669 234.916C228.524 234.844 228.234 234.844 228.016 234.916L223.74 237.387C223.522 237.46 223.522 237.678 223.667 237.75L227.726 240.148C227.944 240.221 228.161 240.221 228.379 240.148ZM260.345 214.86L264.621 212.389C264.839 212.317 264.839 212.099 264.694 212.026L260.635 209.628C260.49 209.555 260.2 209.555 259.982 209.628L255.706 212.099C255.488 212.171 255.488 212.389 255.633 212.462L259.692 214.86C259.91 214.933 260.2 214.933 260.345 214.86ZM253.386 225.615L262.954 220.092C263.172 220.019 263.172 219.801 263.027 219.729L253.096 213.988C252.951 213.915 252.661 213.915 252.444 213.988L247.515 216.822C247.297 216.895 247.297 217.113 247.442 217.185L252.734 220.238C252.879 220.31 252.879 220.528 252.661 220.601L248.747 222.854C248.53 222.926 248.53 223.144 248.675 223.217L252.734 225.615C252.879 225.76 253.169 225.76 253.386 225.615ZM224.827 223.217L220.55 225.688C220.333 225.76 220.333 225.978 220.478 226.051L224.537 228.449C224.682 228.522 224.972 228.522 225.189 228.449L229.466 225.978C229.683 225.906 229.683 225.688 229.539 225.615L225.479 223.217C225.262 223.072 225.044 223.144 224.827 223.217ZM218.593 226.85L214.317 229.321C214.099 229.394 214.099 229.612 214.244 229.684L218.303 232.082C218.448 232.155 218.738 232.155 218.956 232.082L223.232 229.612C223.45 229.539 223.45 229.321 223.305 229.248L219.246 226.85C219.028 226.705 218.738 226.705 218.593 226.85ZM184.018 265.437C184.163 265.509 184.453 265.509 184.67 265.437L188.947 262.966C189.164 262.893 189.164 262.675 189.019 262.603L184.96 260.205C184.815 260.132 184.525 260.132 184.308 260.205L180.031 262.675C179.814 262.748 179.814 262.966 179.959 263.039L184.018 265.437ZM168.578 255.772L164.302 258.243C164.084 258.315 164.084 258.533 164.229 258.606L168.289 261.004C168.433 261.077 168.723 261.077 168.941 261.004L173.217 258.533C173.435 258.461 173.435 258.243 173.29 258.17L169.231 255.772C169.013 255.627 168.796 255.699 168.578 255.772ZM176.479 263.039C176.624 263.111 176.914 263.111 177.132 263.039L181.408 260.568C181.626 260.495 181.626 260.277 181.481 260.205L177.422 257.807C177.277 257.734 176.987 257.734 176.769 257.807L172.493 260.277C172.275 260.35 172.275 260.568 172.42 260.641L176.479 263.039ZM193.731 266.89L198.007 264.419C198.225 264.347 198.225 264.129 198.08 264.056L194.021 261.658C193.876 261.585 193.586 261.585 193.368 261.658L189.092 264.129C188.947 264.201 188.874 264.419 189.019 264.492L193.078 266.89C193.296 267.035 193.586 267.035 193.731 266.89ZM186.845 270.523C186.99 270.596 187.28 270.596 187.497 270.523L191.774 268.053C191.991 267.98 191.991 267.762 191.846 267.689L187.787 265.291C187.642 265.219 187.352 265.219 187.135 265.291L182.858 267.762C182.641 267.835 182.641 268.053 182.786 268.125L186.845 270.523ZM174.812 252.138L170.536 254.609C170.318 254.682 170.318 254.9 170.463 254.973L174.522 257.371C174.667 257.443 174.957 257.443 175.175 257.371L179.451 254.9C179.669 254.827 179.669 254.609 179.524 254.537L175.465 252.138C175.32 252.066 175.03 252.066 174.812 252.138ZM206.053 234.044L201.777 236.515C201.559 236.588 201.559 236.806 201.704 236.878L205.763 239.276C205.908 239.349 206.198 239.349 206.416 239.276L210.692 236.806C210.91 236.733 210.91 236.515 210.765 236.442L206.706 234.044C206.561 233.972 206.271 233.972 206.053 234.044ZM181.046 248.505L176.769 250.976C176.552 251.048 176.552 251.266 176.697 251.339L180.756 253.737C180.901 253.81 181.191 253.81 181.408 253.737L185.685 251.266C185.902 251.194 185.902 250.976 185.757 250.903L181.698 248.505C181.553 248.432 181.263 248.432 181.046 248.505ZM212.36 230.484L208.083 232.954C207.865 233.027 207.865 233.245 208.01 233.318L212.07 235.716C212.215 235.788 212.504 235.788 212.722 235.716L216.999 233.245C217.216 233.172 217.216 232.954 217.071 232.882L213.012 230.484C212.794 230.338 212.504 230.338 212.36 230.484ZM199.82 237.678L195.543 240.148C195.325 240.221 195.325 240.439 195.47 240.512L199.53 242.91C199.675 242.982 199.965 242.982 200.182 242.91L204.459 240.439C204.676 240.366 204.676 240.148 204.531 240.076L200.472 237.678C200.327 237.605 200.037 237.605 199.82 237.678ZM193.586 241.311L189.309 243.782C189.092 243.854 189.092 244.072 189.237 244.145L193.296 246.543C193.441 246.616 193.731 246.616 193.948 246.543L198.225 244.072C198.442 244 198.442 243.782 198.297 243.709L194.238 241.311C194.021 241.166 193.731 241.166 193.586 241.311ZM187.352 244.944L183.075 247.415C182.858 247.488 182.858 247.706 183.003 247.778L187.062 250.176C187.207 250.249 187.497 250.249 187.715 250.176L191.991 247.706C192.209 247.633 192.209 247.415 192.064 247.342L188.004 244.944C187.787 244.799 187.497 244.799 187.352 244.944ZM215.839 247.342L220.115 244.872C220.333 244.799 220.333 244.581 220.188 244.508L216.129 242.11C215.984 242.038 215.694 242.038 215.476 242.11L211.2 244.581C210.982 244.654 210.982 244.872 211.127 244.944L215.186 247.342C215.404 247.488 215.694 247.488 215.839 247.342ZM274.189 194.659L269.913 197.129C269.695 197.202 269.695 197.42 269.84 197.493L273.899 199.891C274.044 199.963 274.334 199.963 274.552 199.891L278.828 197.42C279.046 197.347 279.046 197.129 278.901 197.057L274.842 194.659C274.624 194.513 274.334 194.513 274.189 194.659ZM266.651 199.019L262.374 201.489C262.157 201.562 262.157 201.78 262.302 201.853L266.361 204.251C266.506 204.323 266.796 204.323 267.013 204.251L271.29 201.78C271.507 201.707 271.507 201.489 271.362 201.417L267.303 199.019C267.086 198.946 266.796 198.946 266.651 199.019ZM280.423 191.025L276.147 193.496C275.929 193.569 275.929 193.787 276.074 193.859L280.133 196.257C280.278 196.33 280.568 196.33 280.786 196.257L285.062 193.787C285.28 193.714 285.28 193.496 285.135 193.423L281.075 191.025C280.858 190.953 280.641 190.953 280.423 191.025ZM245.848 223.217L250.124 220.746C250.342 220.673 250.342 220.455 250.197 220.383L246.138 217.985C245.993 217.912 245.703 217.912 245.485 217.985L241.209 220.455C240.991 220.528 240.991 220.746 241.136 220.819L245.195 223.217C245.413 223.29 245.703 223.29 245.848 223.217ZM287.309 187.392C287.164 187.319 286.874 187.319 286.657 187.392L282.38 189.863C282.163 189.935 282.163 190.153 282.308 190.226L286.367 192.624C286.512 192.697 286.802 192.697 287.019 192.624L291.296 190.153C291.513 190.081 291.513 189.863 291.368 189.79L287.309 187.392ZM222.145 243.709L226.422 241.238C226.639 241.166 226.639 240.948 226.494 240.875L222.435 238.477C222.29 238.404 222 238.404 221.783 238.477L217.506 240.948C217.289 241.02 217.289 241.238 217.433 241.311L221.493 243.709C221.638 243.854 221.928 243.854 222.145 243.709ZM298.762 199.382L303.039 196.911C303.256 196.839 303.256 196.621 303.111 196.548L299.052 194.15C298.907 194.077 298.617 194.077 298.399 194.15L294.123 196.621C293.905 196.693 293.905 196.911 294.05 196.984L298.11 199.382C298.327 199.455 298.617 199.455 298.762 199.382ZM286.657 199.6L290.933 197.129C291.151 197.057 291.151 196.839 291.006 196.766L286.947 194.368C286.802 194.295 286.512 194.295 286.294 194.368L282.018 196.839C281.8 196.911 281.8 197.129 281.945 197.202L286.004 199.6C286.222 199.745 286.512 199.673 286.657 199.6ZM293.181 190.807C293.036 190.735 292.746 190.735 292.528 190.807L288.252 193.278C288.107 193.351 288.034 193.569 288.179 193.641L292.238 196.039C292.383 196.112 292.673 196.112 292.891 196.039L297.167 193.569C297.385 193.496 297.385 193.278 297.24 193.205L293.181 190.807ZM294.485 190.008L304.416 195.749C304.561 195.821 304.851 195.821 305.068 195.749L309.345 193.278C309.562 193.205 309.562 192.987 309.417 192.915L299.487 187.174C299.342 187.101 299.052 187.101 298.834 187.174L294.558 189.645C294.34 189.79 294.268 189.935 294.485 190.008ZM280.061 198.001L275.784 200.472C275.567 200.545 275.567 200.763 275.712 200.835L279.771 203.233C279.916 203.306 280.206 203.306 280.423 203.233L284.7 200.763C284.917 200.69 284.917 200.472 284.772 200.399L280.713 198.001C280.496 197.929 280.206 197.929 280.061 198.001ZM233.018 225.252L228.741 227.722C228.524 227.795 228.524 228.013 228.669 228.086L232.728 230.484C232.873 230.556 233.163 230.556 233.38 230.484L237.657 228.013C237.874 227.94 237.874 227.722 237.729 227.65L233.67 225.252C233.453 225.179 233.163 225.179 233.018 225.252ZM291.876 203.015C292.021 203.088 292.311 203.088 292.528 203.015L296.805 200.545C297.022 200.472 297.022 200.254 296.877 200.181L292.818 197.783C292.673 197.711 292.383 197.711 292.166 197.783L287.889 200.254C287.672 200.327 287.672 200.545 287.817 200.617L291.876 203.015ZM239.252 221.618L234.975 224.089C234.757 224.162 234.757 224.38 234.902 224.452L238.962 226.85C239.107 226.923 239.397 226.923 239.614 226.85L243.891 224.38C244.108 224.307 244.108 224.089 243.963 224.016L239.904 221.618C239.686 221.546 239.397 221.546 239.252 221.618ZM190.252 261.876C190.396 261.949 190.686 261.949 190.904 261.876L195.181 259.405C195.325 259.333 195.398 259.115 195.253 259.042L191.194 256.644C191.049 256.571 190.759 256.571 190.541 256.644L186.265 259.115C186.047 259.187 186.047 259.405 186.192 259.478L190.252 261.876ZM183.003 254.173L178.726 256.644C178.509 256.717 178.509 256.935 178.654 257.007L182.713 259.405C182.858 259.478 183.148 259.478 183.365 259.405L187.642 256.935C187.86 256.862 187.86 256.644 187.715 256.571L183.655 254.173C183.438 254.1 183.148 254.1 183.003 254.173ZM197.138 258.17L201.414 255.699C201.632 255.627 201.632 255.409 201.487 255.336L197.428 252.938C197.283 252.865 196.993 252.865 196.775 252.938L192.499 255.409C192.281 255.481 192.281 255.699 192.426 255.772L196.485 258.17C196.63 258.315 196.92 258.315 197.138 258.17ZM203.371 254.609L207.648 252.138C207.865 252.066 207.865 251.848 207.72 251.775L203.661 249.377C203.516 249.304 203.226 249.304 203.009 249.377L198.732 251.848C198.515 251.92 198.515 252.138 198.66 252.211L202.719 254.609C202.936 254.682 203.154 254.682 203.371 254.609ZM209.605 250.976L213.882 248.505C214.099 248.432 214.099 248.214 213.954 248.142L209.895 245.744C209.75 245.671 209.46 245.671 209.243 245.744L204.966 248.214C204.749 248.287 204.749 248.505 204.894 248.578L208.953 250.976C209.17 251.048 209.46 251.048 209.605 250.976ZM189.237 250.612L184.96 253.083C184.743 253.156 184.743 253.374 184.888 253.446L188.947 255.845C189.092 255.917 189.382 255.917 189.599 255.845L193.876 253.374C194.093 253.301 194.093 253.083 193.948 253.01L189.889 250.612C189.672 250.467 189.382 250.467 189.237 250.612ZM195.47 246.979L191.194 249.45C190.976 249.522 190.976 249.74 191.121 249.813L195.181 252.211C195.325 252.284 195.615 252.284 195.833 252.211L200.11 249.74C200.327 249.668 200.327 249.45 200.182 249.377L196.123 246.979C195.905 246.834 195.688 246.834 195.47 246.979ZM220.478 232.518L216.201 234.989C215.984 235.062 215.984 235.28 216.129 235.352L220.188 237.75C220.333 237.823 220.623 237.823 220.84 237.75L225.117 235.28C225.334 235.207 225.334 234.989 225.189 234.916L221.13 232.518C220.913 232.373 220.695 232.373 220.478 232.518ZM214.244 236.152L209.967 238.622C209.75 238.695 209.75 238.913 209.895 238.986L213.954 241.384C214.099 241.456 214.389 241.456 214.607 241.384L218.883 238.913C219.101 238.84 219.101 238.622 218.956 238.55L214.896 236.152C214.679 236.006 214.389 236.006 214.244 236.152ZM226.712 228.885L222.435 231.356C222.217 231.428 222.218 231.646 222.362 231.719L226.422 234.117C226.567 234.19 226.857 234.19 227.074 234.117L231.351 231.646C231.568 231.574 231.568 231.356 231.423 231.283L227.364 228.885C227.219 228.74 226.929 228.812 226.712 228.885ZM201.704 243.346L197.428 245.816C197.21 245.889 197.21 246.107 197.355 246.18L201.414 248.578C201.559 248.65 201.849 248.65 202.067 248.578L206.343 246.107C206.561 246.034 206.561 245.816 206.416 245.744L202.357 243.346C202.212 243.273 201.922 243.273 201.704 243.346ZM208.01 239.712L203.734 242.183C203.516 242.256 203.516 242.474 203.661 242.546L207.72 244.944C207.865 245.017 208.155 245.017 208.373 244.944L212.649 242.474C212.867 242.401 212.867 242.183 212.722 242.11L208.663 239.712C208.445 239.64 208.155 239.64 208.01 239.712ZM200.037 263.329L204.314 260.859C204.531 260.786 204.531 260.568 204.386 260.495L200.327 258.097C200.182 258.025 199.892 258.025 199.675 258.097L195.398 260.568C195.181 260.641 195.181 260.859 195.325 260.931L199.385 263.329C199.53 263.402 199.82 263.402 200.037 263.329ZM167.056 261.731L162.997 259.333C162.852 259.26 162.562 259.26 162.345 259.333L158.068 261.803C157.851 261.876 157.851 262.094 157.996 262.167L162.055 264.565C162.2 264.637 162.49 264.637 162.707 264.565L166.984 262.094C167.201 262.021 167.201 261.803 167.056 261.731ZM175.175 263.765L171.115 261.367C170.97 261.295 170.681 261.295 170.463 261.367L163.867 265.146C163.649 265.219 163.649 265.437 163.794 265.509L167.854 267.907C167.999 267.98 168.289 267.98 168.506 267.907L175.102 264.129C175.32 264.056 175.32 263.911 175.175 263.765ZM160.967 257.08L156.908 254.682C156.763 254.609 156.473 254.609 156.256 254.682L150.965 257.734C150.747 257.807 150.747 258.025 150.892 258.097L154.951 260.495C155.096 260.568 155.386 260.568 155.604 260.495L160.895 257.443C161.112 257.298 161.112 257.153 160.967 257.08ZM164.954 254.755C165.099 254.827 165.389 254.827 165.607 254.755L169.883 252.284C170.101 252.211 170.101 251.993 169.956 251.92L165.896 249.522C165.752 249.45 165.462 249.45 165.244 249.522L160.967 251.993C160.75 252.066 160.75 252.284 160.895 252.356L164.954 254.755ZM182.713 266.236L178.654 263.838C178.509 263.765 178.219 263.765 178.002 263.838L169.811 268.634C169.593 268.707 169.593 268.925 169.738 268.997L173.797 271.395C173.942 271.468 174.232 271.468 174.45 271.395L182.641 266.599C182.858 266.454 182.858 266.309 182.713 266.236ZM185.54 271.323L181.481 268.925C181.336 268.852 181.046 268.852 180.828 268.925L175.537 271.977C175.32 272.049 175.32 272.267 175.465 272.34L179.524 274.738C179.669 274.811 179.959 274.811 180.176 274.738L185.467 271.686C185.685 271.541 185.757 271.395 185.54 271.323ZM211.417 227.795C211.562 227.868 211.852 227.868 212.07 227.795L216.346 225.324C216.564 225.252 216.564 225.034 216.419 224.961L212.36 222.563C212.215 222.49 211.925 222.49 211.707 222.563L207.431 225.034C207.213 225.106 207.213 225.324 207.358 225.397L211.417 227.795ZM198.95 235.062C199.095 235.134 199.385 235.134 199.602 235.062L203.879 232.591C204.096 232.518 204.096 232.3 203.951 232.228L199.892 229.83C199.747 229.757 199.457 229.757 199.24 229.83L194.963 232.3C194.746 232.373 194.746 232.591 194.891 232.664L198.95 235.062ZM171.188 251.121C171.333 251.194 171.623 251.194 171.84 251.121L176.117 248.65C176.334 248.578 176.334 248.36 176.189 248.287L172.13 245.889C171.985 245.816 171.695 245.816 171.478 245.889L167.201 248.36C166.984 248.432 166.984 248.65 167.129 248.723L171.188 251.121ZM205.183 231.428C205.328 231.501 205.618 231.501 205.836 231.428L210.112 228.958C210.33 228.885 210.33 228.667 210.185 228.594L206.126 226.196C205.981 226.124 205.691 226.124 205.473 226.196L201.197 228.667C200.979 228.74 200.979 228.958 201.124 229.03L205.183 231.428ZM192.716 238.695C192.861 238.768 193.151 238.768 193.368 238.695L197.645 236.224C197.862 236.152 197.862 235.934 197.717 235.861L193.658 233.463C193.513 233.39 193.223 233.39 193.006 233.463L188.729 235.934C188.512 236.006 188.512 236.224 188.657 236.297L192.716 238.695ZM188.657 271.541C188.512 271.468 188.222 271.468 188.004 271.541L181.408 275.319C181.191 275.392 181.191 275.61 181.336 275.683L185.395 278.081C185.54 278.153 185.83 278.153 186.047 278.081L192.644 274.302C192.861 274.229 192.861 274.011 192.716 273.939L188.657 271.541ZM183.728 243.854C183.873 243.927 184.163 243.927 184.38 243.854L188.657 241.384C188.874 241.311 188.874 241.093 188.729 241.02L184.67 238.622C184.525 238.55 184.235 238.55 184.018 238.622L179.741 241.093C179.524 241.166 179.524 241.384 179.669 241.456L183.728 243.854ZM177.494 247.488C177.639 247.56 177.929 247.56 178.146 247.488L182.423 245.017C182.641 244.944 182.641 244.726 182.496 244.654L178.436 242.256C178.291 242.183 178.002 242.183 177.784 242.256L173.507 244.726C173.29 244.799 173.29 245.017 173.435 245.09L177.494 247.488ZM304.416 204.541C304.271 204.469 303.981 204.469 303.763 204.541L293.253 210.645C293.036 210.718 293.036 210.936 293.181 211.009L297.24 213.407C297.385 213.479 297.675 213.479 297.892 213.407L308.402 207.303C308.62 207.23 308.62 207.012 308.475 206.939L304.416 204.541ZM290.644 212.535C290.499 212.462 290.209 212.462 289.991 212.535L285.715 215.005C285.497 215.078 285.497 215.296 285.642 215.369L289.701 217.767C289.846 217.839 290.136 217.839 290.354 217.767L294.63 215.296C294.848 215.223 294.848 215.005 294.703 214.933L290.644 212.535ZM206.271 259.696L210.547 257.225C210.765 257.153 210.765 256.935 210.62 256.862L206.561 254.464C206.416 254.391 206.126 254.391 205.908 254.464L201.632 256.935C201.414 257.007 201.414 257.225 201.559 257.298L205.618 259.696C205.763 259.769 206.053 259.769 206.271 259.696ZM278.104 219.801C277.959 219.729 277.669 219.729 277.451 219.801L273.175 222.272C272.957 222.345 272.957 222.563 273.102 222.636L277.161 225.034C277.306 225.106 277.596 225.106 277.814 225.034L282.09 222.563C282.308 222.49 282.308 222.272 282.163 222.2L278.104 219.801ZM310.649 200.908C310.505 200.835 310.215 200.835 309.997 200.908L305.72 203.379C305.503 203.451 305.503 203.669 305.648 203.742L309.707 206.14C309.852 206.213 310.142 206.213 310.36 206.14L314.636 203.669C314.854 203.597 314.854 203.379 314.709 203.306L310.649 200.908ZM321.015 199.673L311.084 193.932C310.939 193.859 310.649 193.859 310.432 193.932L306.155 196.403C305.938 196.475 305.938 196.693 306.083 196.766L316.013 202.507C316.158 202.579 316.448 202.579 316.666 202.507L320.942 200.036C321.16 199.963 321.16 199.745 321.015 199.673ZM254.763 233.318C254.618 233.245 254.328 233.245 254.111 233.318L248.82 236.37C248.602 236.442 248.602 236.66 248.747 236.733L252.806 239.131C252.951 239.204 253.241 239.204 253.459 239.131L258.75 236.079C258.968 236.006 258.968 235.788 258.823 235.716L254.763 233.318ZM270.565 224.162C270.42 224.089 270.13 224.089 269.913 224.162L263.317 227.94C263.099 228.013 263.099 228.231 263.244 228.304L267.303 230.702C267.448 230.774 267.738 230.774 267.956 230.702L274.552 226.923C274.769 226.85 274.769 226.632 274.624 226.56L270.565 224.162ZM240.266 241.674C240.121 241.602 239.831 241.602 239.614 241.674L204.386 262.021C204.169 262.094 204.169 262.312 204.314 262.385L208.373 264.783C208.518 264.855 208.808 264.855 209.025 264.783L244.253 244.436C244.47 244.363 244.47 244.145 244.326 244.072L240.266 241.674ZM203.081 263.184C202.936 263.111 202.646 263.111 202.429 263.184L197.138 266.236C196.92 266.309 196.92 266.527 197.065 266.599L201.124 268.997C201.269 269.07 201.559 269.07 201.777 268.997L207.068 265.945C207.213 265.873 207.286 265.655 207.141 265.582L203.081 263.184ZM247.515 237.46C247.37 237.387 247.08 237.387 246.862 237.46L241.571 240.512C241.354 240.584 241.354 240.802 241.499 240.875L245.558 243.273C245.703 243.346 245.993 243.346 246.21 243.273L251.502 240.221C251.719 240.148 251.719 239.93 251.574 239.858L247.515 237.46ZM195.905 267.399C195.76 267.326 195.47 267.326 195.253 267.399L189.962 270.451C189.744 270.523 189.744 270.741 189.889 270.814L193.948 273.212C194.093 273.285 194.383 273.285 194.601 273.212L199.892 270.16C200.11 270.087 200.11 269.869 199.965 269.797L195.905 267.399ZM262.012 229.103C261.867 229.03 261.577 229.03 261.36 229.103L256.068 232.155C255.923 232.228 255.851 232.446 255.996 232.518L260.055 234.916C260.2 234.989 260.49 234.989 260.707 234.916L265.999 231.864C266.216 231.792 266.216 231.574 266.071 231.501L262.012 229.103ZM284.337 216.168C284.192 216.095 283.902 216.095 283.685 216.168L279.408 218.639C279.191 218.711 279.191 218.929 279.336 219.002L283.395 221.4C283.54 221.473 283.83 221.473 284.047 221.4L288.324 218.929C288.541 218.857 288.541 218.639 288.397 218.566L284.337 216.168ZM298.399 206.358L302.676 203.887C302.894 203.815 302.894 203.597 302.749 203.524L298.689 201.126C298.544 201.053 298.255 201.053 298.037 201.126L293.76 203.597C293.543 203.669 293.543 203.887 293.688 203.96L297.747 206.358C297.892 206.503 298.182 206.503 298.399 206.358ZM272.885 207.593L277.161 205.123C277.379 205.05 277.379 204.832 277.234 204.759L273.175 202.361C273.03 202.289 272.74 202.289 272.522 202.361L268.246 204.832C268.028 204.905 268.028 205.123 268.173 205.195L272.232 207.593C272.377 207.739 272.667 207.666 272.885 207.593ZM256.286 230.774L268.753 223.508C268.97 223.435 268.97 223.217 268.825 223.144L264.766 220.746C264.621 220.673 264.331 220.673 264.114 220.746L251.647 228.013C251.429 228.086 251.429 228.304 251.574 228.376L255.633 230.774C255.778 230.847 256.068 230.847 256.286 230.774ZM291.513 209.991C291.658 210.064 291.948 210.064 292.166 209.991L296.442 207.521C296.66 207.448 296.66 207.23 296.515 207.157L292.456 204.759C292.311 204.687 292.021 204.687 291.803 204.759L287.527 207.23C287.309 207.303 287.309 207.521 287.454 207.593L291.513 209.991ZM286.294 206.576L290.571 204.105C290.716 204.033 290.789 203.815 290.644 203.742L286.584 201.344C286.439 201.271 286.149 201.271 285.932 201.344L281.655 203.815C281.438 203.887 281.438 204.105 281.583 204.178L285.642 206.576C285.787 206.721 286.077 206.721 286.294 206.576ZM249.979 234.335L254.256 231.864C254.473 231.792 254.473 231.574 254.328 231.501L250.269 229.103C250.124 229.03 249.834 229.03 249.617 229.103L245.34 231.574C245.123 231.646 245.123 231.864 245.268 231.937L249.327 234.335C249.544 234.48 249.834 234.48 249.979 234.335ZM277.669 217.985C277.814 218.057 278.104 218.057 278.321 217.985L282.598 215.514C282.815 215.441 282.815 215.223 282.67 215.151L278.611 212.753C278.466 212.68 278.176 212.68 277.959 212.753L273.682 215.223C273.465 215.296 273.465 215.514 273.61 215.587L277.669 217.985ZM218.738 252.429L223.015 249.958C223.232 249.886 223.232 249.668 223.087 249.595L219.028 247.197C218.883 247.124 218.593 247.124 218.376 247.197L214.099 249.668C213.882 249.74 213.882 249.958 214.027 250.031L218.086 252.429C218.303 252.574 218.593 252.574 218.738 252.429ZM224.972 248.796L229.249 246.325C229.466 246.252 229.466 246.034 229.321 245.962L225.262 243.564C225.117 243.491 224.827 243.491 224.61 243.564L220.333 246.034C220.115 246.107 220.115 246.325 220.26 246.398L224.32 248.796C224.537 248.941 224.827 248.941 224.972 248.796ZM212.504 256.063L216.781 253.592C216.999 253.519 216.999 253.301 216.854 253.228L212.794 250.83C212.649 250.758 212.36 250.758 212.142 250.83L207.865 253.301C207.648 253.374 207.648 253.592 207.793 253.665L211.852 256.063C212.07 256.208 212.287 256.135 212.504 256.063ZM237.512 241.602L241.789 239.131C242.006 239.058 242.006 238.84 241.861 238.768L237.802 236.37C237.657 236.297 237.367 236.297 237.149 236.37L232.873 238.84C232.655 238.913 232.655 239.131 232.8 239.204L236.86 241.602C237.077 241.674 237.294 241.674 237.512 241.602ZM231.278 245.235L235.555 242.764C235.772 242.692 235.772 242.474 235.627 242.401L231.568 240.003C231.423 239.93 231.133 239.93 230.916 240.003L226.639 242.474C226.422 242.546 226.422 242.764 226.567 242.837L230.626 245.235C230.771 245.308 231.061 245.308 231.278 245.235ZM243.746 237.968L248.022 235.498C248.24 235.425 248.24 235.207 248.095 235.134L244.036 232.736C243.891 232.664 243.601 232.664 243.383 232.736L239.107 235.207C238.889 235.28 238.889 235.498 239.034 235.57L243.093 237.968C243.311 238.114 243.601 238.114 243.746 237.968ZM277.886 187.61C278.031 187.682 278.321 187.682 278.539 187.61L282.815 185.139C283.033 185.066 283.033 184.848 282.888 184.776L281.8 184.122C281.655 184.049 281.365 184.049 281.148 184.122L276.871 186.592C276.726 186.665 276.654 186.883 276.799 186.956L277.886 187.61ZM246.79 207.375C246.935 207.448 247.225 207.448 247.442 207.375L251.719 204.905C251.936 204.832 251.936 204.614 251.791 204.541L247.732 202.143C247.587 202.071 247.297 202.071 247.08 202.143L242.803 204.614C242.586 204.687 242.586 204.905 242.731 204.977L246.79 207.375ZM259.33 200.109C259.475 200.181 259.765 200.181 259.982 200.109L264.259 197.638C264.476 197.565 264.476 197.347 264.331 197.275L260.272 194.877C260.127 194.804 259.837 194.804 259.62 194.877L255.343 197.347C255.198 197.42 255.126 197.638 255.271 197.711L259.33 200.109ZM239.179 211.808C239.324 211.881 239.614 211.881 239.831 211.808L244.108 209.337C244.325 209.265 244.325 209.047 244.181 208.974L240.121 206.576C239.976 206.503 239.686 206.503 239.469 206.576L235.192 209.047C234.975 209.119 234.975 209.337 235.12 209.41L239.179 211.808ZM253.024 203.742C253.169 203.815 253.459 203.815 253.676 203.742L257.953 201.271C258.098 201.199 258.17 200.981 258.025 200.908L253.966 198.51C253.821 198.437 253.531 198.437 253.314 198.51L249.037 200.981C248.82 201.053 248.82 201.271 248.965 201.344L253.024 203.742ZM226.639 219.002C226.784 219.075 227.074 219.075 227.291 219.002L231.568 216.531C231.786 216.459 231.786 216.241 231.641 216.168L227.581 213.77C227.436 213.697 227.146 213.697 226.929 213.77L222.652 216.241C222.435 216.313 222.435 216.531 222.58 216.604L226.639 219.002ZM232.945 215.369C233.09 215.441 233.38 215.441 233.598 215.369L237.874 212.898C238.092 212.825 238.092 212.607 237.947 212.535L233.888 210.137C233.743 210.064 233.453 210.064 233.235 210.137L228.959 212.607C228.741 212.68 228.741 212.898 228.886 212.971L232.945 215.369ZM265.346 194.877C265.491 194.949 265.781 194.949 265.999 194.877L270.275 192.406C270.493 192.333 270.493 192.115 270.348 192.043L269.26 191.389C269.115 191.316 268.826 191.316 268.608 191.389L264.331 193.859C264.114 193.932 264.114 194.15 264.259 194.223L265.346 194.877ZM284.12 184.049C284.265 184.122 284.555 184.122 284.772 184.049L289.049 181.578C289.266 181.506 289.266 181.288 289.121 181.215L288.034 180.561C287.889 180.488 287.599 180.488 287.382 180.561L283.105 183.032C282.888 183.104 282.888 183.322 283.033 183.395L284.12 184.049ZM292.746 188.991C292.891 189.063 293.181 189.063 293.398 188.991L297.675 186.52C297.892 186.447 297.892 186.229 297.747 186.156L293.688 183.758C293.543 183.686 293.253 183.686 293.036 183.758L288.759 186.229C288.541 186.302 288.541 186.52 288.686 186.592L292.746 188.991ZM304.633 202.725L308.91 200.254C309.127 200.181 309.127 199.963 308.982 199.891L304.923 197.493C304.778 197.42 304.488 197.42 304.271 197.493L299.994 199.963C299.777 200.036 299.777 200.254 299.922 200.327L303.981 202.725C304.126 202.87 304.416 202.87 304.633 202.725ZM271.58 191.243C271.725 191.316 272.015 191.316 272.232 191.243L276.509 188.773C276.726 188.7 276.726 188.482 276.581 188.409L275.494 187.755C275.349 187.682 275.059 187.682 274.842 187.755L270.565 190.226C270.348 190.299 270.348 190.517 270.493 190.589L271.58 191.243ZM220.405 222.636C220.55 222.708 220.84 222.708 221.058 222.636L225.334 220.165C225.552 220.092 225.552 219.874 225.407 219.801L221.348 217.403C221.203 217.331 220.913 217.331 220.695 217.403L216.419 219.874C216.274 219.947 216.201 220.165 216.346 220.238L220.405 222.636Z" fill="#DBE0EE"/>
<path opacity="0.4" d="M238.889 254.972L239.759 255.481L263.099 268.924L304.488 244.944L305.358 244.436L281.22 230.483L238.889 254.972Z" fill="black"/>
<path d="M239.759 255.481L263.099 268.925L304.488 244.944L281.22 231.501L239.759 255.481Z" fill="#27DEBF"/>
<path d="M239.759 255.481L263.099 268.925L304.488 244.944L281.22 231.501L239.759 255.481Z" fill="#DCE2F6"/>
<path d="M119.506 250.612C119.868 250.83 120.231 250.976 120.666 251.121C120.231 250.976 119.796 250.83 119.506 250.612C119.361 250.54 119.288 250.467 119.143 250.394C119.216 250.467 119.361 250.54 119.506 250.612Z" fill="#27DEBF"/>
<path d="M126.174 250.977C126.174 250.902 126.249 250.902 126.174 250.977C126.249 250.902 126.249 250.902 126.174 250.977Z" fill="#27DEBF"/>
<path d="M393.355 1.36344L301.299 54.6286C300.502 55.1373 299.777 56.2273 299.777 57.2447V160.578C299.777 161.522 300.429 162.685 301.299 163.121L304.053 164.647C304.851 165.083 306.228 165.083 307.025 164.647L399.082 111.382C399.879 110.873 400.604 109.783 400.604 108.766V5.43281C400.604 4.48814 399.951 3.32546 399.082 2.88945L396.327 1.36344C395.53 0.854766 394.153 0.854766 393.355 1.36344Z" fill="#FAFAFA"/>
<path d="M305.503 163.775V60.442C305.503 59.4973 306.155 58.3346 307.025 57.826L399.081 4.63342C399.879 4.12475 400.604 4.56075 400.604 5.50543V108.838C400.604 109.783 399.951 110.946 399.081 111.454L307.025 164.72C306.155 165.156 305.503 164.72 305.503 163.775Z" fill="url(#paint1_linear)"/>
<path d="M307.025 164.647C306.228 165.083 304.778 165.156 304.053 164.647L301.299 163.121C300.502 162.685 299.777 161.522 299.777 160.578V57.2446C299.777 56.736 299.994 56.2273 300.284 55.7186L305.938 58.9887C305.648 59.4247 305.503 60.006 305.503 60.442V163.775C305.503 164.647 306.155 165.156 307.025 164.647Z" fill="#00ADF2"/>
<path d="M400.531 5.21481C400.386 4.48814 399.806 4.19747 399.081 4.63347L307.025 57.8987C306.59 58.1167 306.228 58.5527 305.938 58.9887L300.212 55.7187C300.502 55.2827 300.864 54.9193 301.226 54.6286L393.283 1.36344C394.08 0.854766 395.457 0.854766 396.254 1.36344L399.009 2.88945C399.806 3.32546 400.459 4.27013 400.531 5.21481Z" fill="#00ADF2"/>
<path d="M288.614 119.012C287.672 118.431 283.323 115.96 283.105 115.815C282.453 115.379 282.163 114.361 282.815 113.707L299.922 95.2496L305.503 98.447L288.396 116.905C287.744 117.631 287.962 118.576 288.614 119.012Z" fill="#FAFAFA"/>
<path d="M288.614 119.012C287.672 118.431 283.323 115.96 283.105 115.815C282.453 115.379 282.163 114.361 282.815 113.707L299.922 95.2496L305.503 98.447L288.396 116.905C287.744 117.631 287.962 118.576 288.614 119.012Z" fill="#00ADF2"/>
<path d="M305.503 98.5197L288.397 116.977C287.527 117.922 288.252 119.375 289.484 119.303L305.503 117.995V98.5197Z" fill="#FAFAFA"/>
<path d="M305.503 98.5197L288.397 116.977C287.527 117.922 288.252 119.375 289.484 119.303L305.503 117.995V98.5197Z" fill="#3DBFF4"/>
<path d="M358.054 90.163C356.75 89.3637 354.938 89.4364 352.908 90.6717C348.921 92.9971 345.659 98.6651 345.659 103.316C345.659 105.641 346.457 107.24 347.761 108.039C348.631 108.548 351.893 110.437 352.691 110.946C353.995 111.745 355.807 111.6 357.837 110.437C361.824 108.112 365.086 102.444 365.086 97.7931C365.086 95.4677 364.288 93.8691 362.983 93.0697C362.114 92.4884 358.852 90.6717 358.054 90.163Z" fill="#ECECF8"/>
<path d="M360.447 108.257L346.095 99.9729C345.805 101.063 345.587 102.226 345.587 103.243C345.587 105.568 346.385 107.167 347.689 107.966C348.559 108.475 351.821 110.364 352.618 110.873C353.923 111.672 355.735 111.527 357.765 110.364C358.707 109.783 359.65 109.129 360.447 108.257Z" fill="#DBE0EE"/>
<path d="M357.838 93.5058C353.851 95.8311 350.589 101.499 350.589 106.15C350.589 110.801 353.851 112.69 357.838 110.365C361.824 108.039 365.086 102.371 365.086 97.7205C365.086 93.0698 361.824 91.1804 357.838 93.5058Z" fill="#FAFAFA"/>
<path d="M357.838 96.4851C355.228 98.0111 353.126 101.645 353.126 104.624C353.126 107.603 355.228 108.839 357.838 107.313C360.447 105.787 362.549 102.153 362.549 99.1738C362.477 96.1945 360.375 94.9591 357.838 96.4851Z" fill="#47476A"/>
<path d="M389.296 83.6229C389.296 84.2769 389.296 84.8582 389.223 85.5849L381.033 90.3083L376.104 87.4742C376.104 86.8929 376.104 86.0936 376.104 85.5849C376.104 79.9895 374.799 75.4841 372.479 72.2868L379.148 62.7673L384.077 65.6014C387.411 69.8161 389.296 75.9201 389.296 83.6229Z" fill="#27DEBF"/>
<path d="M389.296 83.6231C389.296 84.2771 389.296 84.8584 389.223 85.5851L381.032 90.3085C381.032 89.7271 381.032 88.9278 381.032 88.4191C381.032 82.8237 379.728 78.3184 377.408 75.121L384.077 65.6016C387.411 69.8163 389.296 75.9203 389.296 83.6231Z" fill="#4FC8F8"/>
<path d="M377.408 75.1208L372.479 72.2868L379.148 62.6947L384.077 65.6014L377.408 75.1208Z" fill="#00AFF5"/>
<path d="M381.105 88.4189C381.105 89.0002 381.105 89.7996 381.105 90.3083L376.176 87.4742C376.176 86.8929 376.176 86.0935 376.176 85.5849C376.176 79.9895 374.871 75.4841 372.552 72.2867L377.481 75.1208C379.728 78.3181 381.105 82.8235 381.105 88.4189Z" fill="#00A4E5"/>
<path d="M382.627 63.2759L376.031 72.7953L371.102 69.9613C371.03 69.8886 370.885 69.8159 370.812 69.7433C368.855 69.1619 366.608 69.0166 364.288 69.3073L359.359 66.4732L361.824 55.8638C366.608 55.1371 370.885 55.8638 374.364 57.8985C375.161 58.3345 378.133 60.0785 379.22 60.6599C379.438 60.8052 379.655 60.8779 379.873 61.0232C380.018 61.0959 380.163 61.2412 380.308 61.3139C380.453 61.3865 380.598 61.5319 380.743 61.6045C380.815 61.6772 380.96 61.7499 381.033 61.8225C381.467 62.1132 381.83 62.4765 382.192 62.7672C382.265 62.9125 382.41 63.0579 382.627 63.2759Z" fill="#27DEBF"/>
<path d="M375.958 72.7226L371.029 69.8885L370.74 69.6705C372.769 70.2519 374.509 71.2692 375.958 72.7226Z" fill="#00A4E5"/>
<path d="M382.627 63.2762L376.031 72.7956C373.059 69.8889 369 68.5809 364.288 69.2349L366.753 58.6254C373.059 57.6081 378.641 59.2794 382.627 63.2762Z" fill="#63D1FD"/>
<path d="M361.679 55.7186L366.68 58.6253L364.216 69.2347L359.287 66.3281L361.679 55.7186Z" fill="#00A8EC"/>
<path d="M374.291 57.7532C375.089 58.1892 378.061 59.9332 379.148 60.5146C375.669 58.5526 371.392 57.8259 366.681 58.5526L361.752 55.7185C366.463 54.9919 370.74 55.7185 374.291 57.7532Z" fill="#88DDFF"/>
<path d="M364.288 59.134L361.824 69.7434C359.649 70.3247 357.33 71.2694 354.938 72.6501C352.546 74.0308 350.226 75.7748 347.979 77.7368L343.05 74.9028L340.658 67.0547C343.63 64.366 346.674 62.1133 349.936 60.224C353.198 58.3346 356.315 57.0266 359.287 56.2999L364.288 59.134Z" fill="#27DEBF"/>
<path d="M340.658 66.9821L345.66 69.8887L348.052 77.6642L343.05 74.8301L340.658 66.9821Z" fill="#00A8EC"/>
<path d="M364.288 59.134C361.316 59.8606 358.127 61.1686 354.937 63.058C351.748 64.9473 348.631 67.2 345.659 69.8887L340.73 67.0547C343.702 64.366 346.746 62.1133 350.008 60.224C353.27 58.3346 356.387 57.0266 359.359 56.2999L364.288 59.134Z" fill="#ADE8FF"/>
<path d="M364.288 59.1338L361.824 69.7432C359.649 70.3246 357.33 71.2692 354.938 72.6499C352.546 74.0306 350.226 75.7746 347.979 77.7366L345.587 69.8886C348.559 67.1999 351.603 64.9472 354.865 63.0578C358.127 61.1685 361.317 59.8605 364.288 59.1338Z" fill="#88DDFF"/>
<path d="M345.66 79.9168C341.238 84.4222 337.469 89.8723 334.57 95.6857L328.118 93.3603L323.189 90.5263C327.104 82.6055 332.322 75.1935 338.339 69.2347L343.268 72.0688L345.66 79.9168Z" fill="#27DEBF"/>
<path d="M343.268 72.0688C337.251 78.0275 332.033 85.4396 328.118 93.3603L323.189 90.5263C327.104 82.6055 332.322 75.1935 338.339 69.2347L343.268 72.0688Z" fill="#CDF1FF"/>
<path d="M345.66 79.9168C341.238 84.4222 337.396 89.8722 334.569 95.6856L328.118 93.3603C332.032 85.4395 337.251 78.0275 343.268 72.0687L345.66 79.9168Z" fill="#ADE8FF"/>
<path d="M333.12 98.9555C330.51 105.06 328.988 111.091 328.843 117.05L320.507 121.846L315.578 119.012C315.723 110.873 317.97 102.08 321.667 93.7961L328.191 96.1215L333.12 98.9555Z" fill="#27DEBF"/>
<path d="M326.596 96.5575L321.667 93.7235L328.118 96.0489L333.12 98.9555L326.596 96.5575Z" fill="#00A8EC"/>
<path d="M326.596 96.5575C322.899 104.914 320.652 113.634 320.507 121.773L315.578 118.939C315.723 110.8 317.97 102.008 321.667 93.7235L326.596 96.5575Z" fill="#E8F8FF"/>
<path d="M333.12 98.9557C330.51 105.06 328.988 111.091 328.843 117.05L320.507 121.846C320.652 113.707 322.899 104.914 326.596 96.6304L333.12 98.9557Z" fill="#CDF1FF"/>
<path d="M385.382 79.7714L384.077 78.972L348.342 106.804L348.487 112.108L349.791 112.835L385.382 79.7714Z" fill="#DBE0EE"/>
<path d="M349.791 112.835L349.646 107.53L385.381 79.7714L349.791 112.835Z" fill="#ECECF8"/>
<path d="M348.342 106.804L349.646 107.53L385.382 79.7714L384.077 78.972L348.342 106.804Z" fill="white"/>
<path d="M145.383 80.7158C112.804 74.5821 109.89 72.7953 95.8751 64.0177C91.3651 61.1875 85.7787 57.6924 77.9086 53.1939L75.0449 51.5591L72.1813 53.1939C64.1876 57.7601 58.55 61.2949 54.0119 64.1416C39.8562 73.015 37.3081 74.5767 4.70705 80.71L0 81.5951V146.387C0 192.298 24.455 225.853 72.6827 247.54L75.0449 248.6L77.4071 247.546C125.635 225.96 150.09 192.405 150.09 146.387V81.6009L145.383 80.7158Z" fill="#2BCC71"/>
<path d="M150.09 146.387V81.6009L145.383 80.7158C112.804 74.5821 109.89 72.7953 95.8751 64.0177C91.3651 61.1875 85.7787 57.6924 77.9086 53.1939L75.0449 51.5591V248.6L77.4071 247.546C125.635 225.96 150.09 192.405 150.09 146.387V146.387Z" fill="#24A95E"/>
<path d="M69.2723 81.8438L67.4515 82.9713C53.6059 91.5854 47.8729 95.1086 27.6008 99.6467L23.0908 100.656V146.388C23.0908 178.82 38.3103 202.438 69.2723 219.864V81.8438Z" fill="white"/>
<path d="M122.489 99.646C102.24 95.1079 96.5178 91.59 82.6949 82.9987L80.8176 81.8384V219.904C111.781 202.542 126.999 178.913 126.999 146.387V100.655L122.489 99.646Z" fill="#E2E2E2"/>
<defs>
<linearGradient id="paint0_linear" x1="122.043" y1="125.552" x2="122.043" y2="251.413" gradientUnits="userSpaceOnUse">
<stop stop-color="#22B7F3"/>
<stop offset="1" stop-color="#03AEF2"/>
</linearGradient>
<linearGradient id="paint1_linear" x1="353.053" y1="4.41858" x2="353.053" y2="164.889" gradientUnits="userSpaceOnUse">
<stop stop-color="#3DBFF4"/>
<stop offset="1" stop-color="#B9EBFF"/>
</linearGradient>
</defs>
</svg>
