<svg width="478" height="274" viewBox="0 0 478 274" fill="none" xmlns="http://www.w3.org/2000/svg">
<rect opacity="0.9" width="478" height="274" rx="5" fill="white"/>
<path d="M72 134.5C72 163.591 88.9049 188.735 113.423 200.645L78.3613 104.588C74.288 113.725 72 123.842 72 134.5Z" fill="#1C769B"/>
<path d="M146.789 140.927L124.735 205.01C131.324 206.947 138.282 208.004 145.5 208.004C154.056 208.004 162.267 206.525 169.906 203.838C169.712 203.521 169.529 203.191 169.382 202.826L146.789 140.927Z" fill="#1C769B"/>
<path d="M195.119 130.794C195.119 121.706 191.852 115.418 189.059 110.525C185.329 104.462 181.834 99.336 181.834 93.2853C181.834 86.5257 186.958 80.2356 194.178 80.2356C194.505 80.2356 194.813 80.2806 195.126 80.2972C182.06 68.3144 164.633 61 145.499 61C119.817 61 97.2315 74.1754 84.0917 94.127C85.8177 94.1815 87.4418 94.2171 88.8194 94.2171C96.5036 94.2171 108.411 93.2829 108.411 93.2829C112.37 93.0458 112.835 98.8713 108.875 99.336C108.875 99.336 104.894 99.8054 100.463 100.04L127.229 179.65L143.316 131.41L131.871 100.04C127.907 99.8054 124.156 99.336 124.156 99.336C120.197 99.1013 120.659 93.0482 124.626 93.2829C124.626 93.2829 136.762 94.2171 143.984 94.2171C151.671 94.2171 163.573 93.2829 163.573 93.2829C167.537 93.0458 168.002 98.8713 164.04 99.336C164.04 99.336 160.055 99.8054 155.631 100.04L182.192 179.045L189.53 154.551C192.696 144.379 195.119 137.082 195.119 130.794Z" fill="#1C769B"/>
<path d="M210.495 106.795C210.495 114.252 209.101 122.635 204.902 133.122L182.453 198.027C204.304 185.29 218.999 161.614 218.999 134.502C218.999 121.72 215.735 109.706 209.997 99.2363C210.317 101.579 210.495 104.087 210.495 106.795Z" fill="#1C769B"/>
<path d="M181.837 93.2829C181.837 86.5233 186.96 80.2332 194.18 80.2332C194.507 80.2332 194.815 80.2782 195.128 80.2948C182.06 68.3144 164.633 61 145.5 61C119.817 61 97.2316 74.1754 84.0918 94.127C85.8179 94.1815 87.442 94.2171 88.8195 94.2171C96.5038 94.2171 108.411 93.2829 108.411 93.2829C112.37 93.0459 112.835 98.8713 108.875 99.336C108.875 99.336 104.895 99.8054 100.463 100.04L110.67 130.398C117.615 132.849 125.138 134.199 132.995 134.199C136.265 134.199 139.477 133.964 142.619 133.516L143.318 131.413L131.874 100.043C127.909 99.8078 124.159 99.3384 124.159 99.3384C120.199 99.1036 120.661 93.0506 124.628 93.2853C124.628 93.2853 136.765 94.2195 143.987 94.2195C151.674 94.2195 163.576 93.2853 163.576 93.2853C167.54 93.0482 168.005 98.8737 164.043 99.3384C164.043 99.3384 160.057 99.8078 155.633 100.043L164.477 126.351C173.453 121.523 181.059 114.707 186.605 106.529C183.933 102.093 181.837 97.9632 181.837 93.2829Z" fill="#2795B7"/>
<path d="M145.5 61C122.437 61 101.895 71.6456 88.4188 88.2613C100.248 90.7199 113.238 92.0832 126.871 92.0832C152.686 92.0832 176.206 87.2062 193.891 79.2066C180.964 67.8805 164.038 61 145.5 61Z" fill="#3FB5D1"/>
<path d="M174.009 130.094C174.193 130.094 174.343 129.992 174.343 129.868C174.343 129.743 174.193 129.642 174.009 129.642C173.824 129.642 173.674 129.743 173.674 129.868C173.674 129.992 173.824 130.094 174.009 130.094Z" fill="white"/>
<path d="M174.677 130.094C174.739 130.094 174.789 129.992 174.789 129.868C174.789 129.743 174.739 129.642 174.677 129.642C174.616 129.642 174.566 129.743 174.566 129.868C174.566 129.992 174.616 130.094 174.677 130.094Z" fill="white"/>
<path d="M175.457 130.094C175.58 130.094 175.68 129.992 175.68 129.868C175.68 129.743 175.58 129.642 175.457 129.642C175.334 129.642 175.234 129.743 175.234 129.868C175.234 129.992 175.334 130.094 175.457 130.094Z" fill="white"/>
<path d="M346.568 205.226H307.361L308.69 187.655H345.239L346.568 205.226Z" fill="#C9C7C7"/>
<path d="M348.392 204.301H304.626V208H348.392V204.301Z" fill="#E6E6E6"/>
<path d="M402.715 73.9097H251.214C250.145 73.9097 249.119 74.3374 248.363 75.0988C247.607 75.8602 247.183 76.8929 247.183 77.9696V77.9696V171.01H406.746V77.9696C406.746 77.4365 406.642 76.9085 406.439 76.416C406.237 75.9234 405.94 75.4758 405.566 75.0988C405.191 74.7218 404.747 74.4228 404.258 74.2187C403.769 74.0147 403.245 73.9097 402.715 73.9097H402.715Z" fill="#3F3D56"/>
<path d="M247.183 171.01V187.071C247.183 187.634 247.287 188.191 247.49 188.71C247.692 189.23 247.989 189.702 248.363 190.1C248.738 190.498 249.182 190.813 249.671 191.028C250.16 191.244 250.684 191.354 251.214 191.354H402.715C403.784 191.354 404.81 190.903 405.566 190.1C406.322 189.297 406.746 188.207 406.746 187.071V171.01H247.183Z" fill="#E6E6E6"/>
<path d="M398.54 82.2327H255.389V164.537H398.54V82.2327Z" fill="#E6E6E6"/>
<path d="M394.893 87.7809H258.124V156.213H394.893V87.7809Z" fill="white"/>
<path d="M268.622 98.8781C268.498 98.8782 268.379 98.9302 268.291 99.0226C268.204 99.115 268.154 99.2402 268.154 99.3709V124.279C268.154 124.409 268.204 124.535 268.291 124.627C268.379 124.719 268.498 124.771 268.622 124.771H295.951C296.076 124.771 296.195 124.719 296.282 124.627C296.37 124.535 296.419 124.409 296.42 124.279V99.3709C296.419 99.2402 296.37 99.115 296.282 99.0226C296.195 98.9302 296.076 98.8782 295.951 98.8781H268.622Z" fill="#C1EAF9"/>
<path d="M313.317 98.8781C313.188 98.8782 313.065 98.9303 312.974 99.023C312.883 99.1157 312.832 99.2413 312.832 99.3724V124.277C312.832 124.408 312.883 124.534 312.974 124.627C313.065 124.719 313.188 124.771 313.317 124.771H341.524C341.653 124.771 341.776 124.719 341.867 124.626C341.958 124.534 342.009 124.408 342.009 124.277V99.3724C342.009 99.2414 341.958 99.1157 341.867 99.0231C341.776 98.9304 341.653 98.8783 341.524 98.8781H313.317Z" fill="#C1EAF9"/>
<path d="M357.078 98.8781C356.95 98.8783 356.828 98.9299 356.738 99.0216C356.648 99.1134 356.598 99.2377 356.598 99.3675V124.282C356.598 124.412 356.648 124.536 356.738 124.628C356.828 124.72 356.95 124.771 357.078 124.771H385.295C385.423 124.771 385.545 124.72 385.634 124.628C385.724 124.536 385.775 124.412 385.775 124.282V99.3675C385.775 99.2377 385.724 99.1134 385.634 99.0216C385.545 98.9299 385.423 98.8783 385.295 98.8781H357.078Z" fill="#C1EAF9"/>
<path d="M269.111 135.869C268.857 135.87 268.613 136.016 268.434 136.276C268.255 136.536 268.154 136.889 268.154 137.256C268.154 137.623 268.255 137.976 268.434 138.236C268.613 138.496 268.857 138.642 269.111 138.643H294.551C294.805 138.642 295.048 138.496 295.228 138.236C295.407 137.976 295.508 137.623 295.508 137.256C295.508 136.889 295.407 136.536 295.228 136.276C295.048 136.016 294.805 135.87 294.551 135.869H269.111Z" fill="#E6E6E6"/>
<path d="M269.133 140.492C268.873 140.493 268.624 140.639 268.441 140.9C268.257 141.16 268.154 141.512 268.154 141.879C268.154 142.247 268.257 142.599 268.441 142.859C268.624 143.119 268.873 143.266 269.133 143.267H280.852C281.112 143.266 281.361 143.119 281.544 142.859C281.728 142.599 281.831 142.247 281.831 141.879C281.831 141.512 281.728 141.16 281.544 140.9C281.361 140.639 281.112 140.493 280.852 140.492H269.133Z" fill="#00ADF2"/>
<path d="M313.852 135.869C313.581 135.87 313.322 136.016 313.13 136.276C312.939 136.536 312.832 136.889 312.832 137.256C312.832 137.623 312.939 137.976 313.13 138.236C313.322 138.496 313.581 138.642 313.852 138.643H340.989C341.259 138.642 341.519 138.496 341.71 138.236C341.902 137.976 342.009 137.623 342.009 137.256C342.009 136.889 341.902 136.536 341.71 136.276C341.519 136.016 341.259 135.87 340.989 135.869H313.852Z" fill="#E6E6E6"/>
<path d="M313.81 140.492C313.551 140.493 313.302 140.639 313.118 140.9C312.935 141.16 312.832 141.512 312.832 141.879C312.832 142.247 312.935 142.599 313.118 142.859C313.302 143.119 313.551 143.266 313.81 143.267H325.53C325.79 143.266 326.038 143.119 326.222 142.859C326.405 142.599 326.509 142.247 326.509 141.879C326.509 141.512 326.405 141.16 326.222 140.9C326.038 140.639 325.79 140.493 325.53 140.492H313.81Z" fill="#00ADF2"/>
<path d="M357.618 135.869C357.347 135.87 357.088 136.016 356.897 136.276C356.705 136.536 356.598 136.889 356.598 137.256C356.598 137.623 356.705 137.976 356.897 138.236C357.088 138.496 357.347 138.642 357.618 138.643H384.755C385.026 138.642 385.285 138.496 385.476 138.236C385.668 137.976 385.775 137.623 385.775 137.256C385.775 136.889 385.668 136.536 385.476 136.276C385.285 136.016 385.026 135.87 384.755 135.869H357.618Z" fill="#E6E6E6"/>
<path d="M269.111 131.245C268.857 131.245 268.613 131.294 268.434 131.381C268.255 131.467 268.154 131.585 268.154 131.707C268.154 131.83 268.255 131.947 268.434 132.034C268.613 132.121 268.857 132.169 269.111 132.17H294.551C294.805 132.169 295.048 132.121 295.228 132.034C295.407 131.947 295.508 131.83 295.508 131.707C295.508 131.585 295.407 131.467 295.228 131.381C295.048 131.294 294.805 131.245 294.551 131.245H269.111Z" fill="#E6E6E6"/>
<path d="M313.852 131.245C313.581 131.245 313.322 131.294 313.13 131.381C312.939 131.467 312.832 131.585 312.832 131.707C312.832 131.83 312.939 131.947 313.13 132.034C313.322 132.121 313.581 132.169 313.852 132.17H340.989C341.259 132.169 341.519 132.121 341.71 132.034C341.902 131.947 342.009 131.83 342.009 131.707C342.009 131.585 341.902 131.467 341.71 131.381C341.519 131.294 341.259 131.245 340.989 131.245H313.852Z" fill="#E6E6E6"/>
<path d="M357.618 131.245C357.347 131.245 357.088 131.294 356.897 131.381C356.705 131.467 356.598 131.585 356.598 131.707C356.598 131.83 356.705 131.947 356.897 132.034C357.088 132.121 357.347 132.169 357.618 132.17H384.755C385.026 132.169 385.285 132.121 385.476 132.034C385.668 131.947 385.775 131.83 385.775 131.707C385.775 131.585 385.668 131.467 385.476 131.381C385.285 131.294 385.026 131.245 384.755 131.245H357.618Z" fill="#E6E6E6"/>
<path d="M357.642 140.492C357.365 140.493 357.099 140.639 356.903 140.9C356.708 141.16 356.598 141.512 356.598 141.879C356.598 142.247 356.708 142.599 356.903 142.859C357.099 143.119 357.365 143.266 357.642 143.267H370.142C370.42 143.266 370.685 143.119 370.881 142.859C371.077 142.599 371.186 142.247 371.186 141.879C371.186 141.512 371.077 141.16 370.881 140.9C370.685 140.639 370.42 140.493 370.142 140.492H357.642Z" fill="#00ADF2"/>
<path d="M269.957 61.6295H239V207.269H269.957V61.6295Z" fill="#1C769B"/>
<path d="M247.625 68.7371H239V70.2595H247.625V68.7371Z" fill="#F2F2F2"/>
<path d="M247.625 82.9424H239V84.4648H247.625V82.9424Z" fill="#F2F2F2"/>
<path d="M247.625 97.6623H239V99.1846H247.625V97.6623Z" fill="#F2F2F2"/>
<path d="M247.625 111.868H239V113.39H247.625V111.868Z" fill="#F2F2F2"/>
<path d="M247.625 126.587H239V128.11H247.625V126.587Z" fill="#F2F2F2"/>
<path d="M247.625 140.793H239V142.315H247.625V140.793Z" fill="#F2F2F2"/>
<path d="M247.625 155.004H239V156.526H247.625V155.004Z" fill="#F2F2F2"/>
<path d="M247.625 169.719H239V171.241H247.625V169.719Z" fill="#F2F2F2"/>
<path d="M247.625 183.929H239V185.451H247.625V183.929Z" fill="#F2F2F2"/>
<path d="M247.625 198.644H239V200.166H247.625V198.644Z" fill="#F2F2F2"/>
<path d="M270.457 77C268.481 77 267 78.5328 267 80.5768V192.985L274 193L273.921 80.47C273.783 78.0447 272.432 77 270.457 77Z" fill="#2795B7"/>
<path d="M263.767 77C261.614 77 260 78.533 260 80.5772V193H266.996V80.5772C267.08 78.202 265.919 77 263.767 77Z" fill="#3FB5D1"/>
<path d="M277.231 77C275.385 77 274 78.533 274 80.5772V193H280V80.5772C279.935 78.1019 279.077 77 277.231 77Z" fill="#3FB5D1"/>
<path d="M279.984 78.8566C279.984 78.8566 278.844 77.3623 277.322 77.3623C275.292 77.3623 273.77 78.8846 273.77 80.9146C273.77 78.8846 272.247 77.3623 270.217 77.3623C268.187 77.3623 266.665 78.8846 266.665 80.9146C266.665 78.8846 265.207 77.5035 263.177 77.5035C261.655 77.5035 260.434 79.2914 260.434 79.2914L266.157 68.7351L270.217 61.6308L274.276 68.7351L279.984 78.8566Z" fill="#FFD15C"/>
<path d="M274.067 68.1048H266.455L270.007 61L274.067 68.1048Z" fill="#334A5E"/>
<path d="M280 193H260V198H280V193Z" fill="#FFD15C"/>
<path d="M263.082 207H276.517C278.507 207 280 205.5 280 203.5V198H260.096V203.5C259.599 205.5 261.092 207 263.082 207Z" fill="#EE5252"/>
<g filter="url(#filter0_d)">
<circle cx="239" cy="143" r="33" fill="#EE5252"/>
</g>
<path d="M227.608 155.288C225.368 155.288 223.416 154.819 221.752 153.88C220.109 152.92 218.84 151.576 217.944 149.848C217.048 148.099 216.6 146.051 216.6 143.704C216.6 141.357 217.048 139.32 217.944 137.592C218.84 135.843 220.109 134.499 221.752 133.56C223.416 132.621 225.368 132.152 227.608 132.152C229.848 132.152 231.789 132.621 233.432 133.56C235.096 134.499 236.376 135.843 237.272 137.592C238.168 139.32 238.616 141.357 238.616 143.704C238.616 146.051 238.168 148.099 237.272 149.848C236.376 151.576 235.096 152.92 233.432 153.88C231.789 154.819 229.848 155.288 227.608 155.288ZM227.608 151.416C229.485 151.416 230.957 150.755 232.024 149.432C233.112 148.109 233.656 146.2 233.656 143.704C233.656 141.208 233.123 139.309 232.056 138.008C230.989 136.685 229.507 136.024 227.608 136.024C225.709 136.024 224.227 136.685 223.16 138.008C222.115 139.309 221.592 141.208 221.592 143.704C221.592 146.2 222.125 148.109 223.192 149.432C224.259 150.755 225.731 151.416 227.608 151.416ZM262.012 155H256.572L252.668 147.8C252.348 147.245 251.964 146.851 251.516 146.616C251.068 146.36 250.502 146.232 249.82 146.232H247.356V155H242.428V132.44H252.796C255.441 132.44 257.436 133.027 258.78 134.2C260.145 135.352 260.828 137.027 260.828 139.224C260.828 140.931 260.348 142.36 259.388 143.512C258.449 144.664 257.116 145.421 255.388 145.784C256.561 146.083 257.553 146.925 258.364 148.312L262.012 155ZM252.06 142.456C253.489 142.456 254.524 142.211 255.164 141.72C255.804 141.208 256.124 140.419 256.124 139.352C256.124 138.264 255.804 137.475 255.164 136.984C254.524 136.493 253.489 136.248 252.06 136.248H247.292V142.456H252.06Z" fill="white"/>
<defs>
<filter id="filter0_d" x="191" y="95" width="96" height="96" filterUnits="userSpaceOnUse" color-interpolation-filters="sRGB">
<feFlood flood-opacity="0" result="BackgroundImageFix"/>
<feColorMatrix in="SourceAlpha" type="matrix" values="0 0 0 0 0 0 0 0 0 0 0 0 0 0 0 0 0 0 127 0"/>
<feOffset/>
<feGaussianBlur stdDeviation="7.5"/>
<feColorMatrix type="matrix" values="0 0 0 0 0 0 0 0 0 0 0 0 0 0 0 0 0 0 0.25 0"/>
<feBlend mode="normal" in2="BackgroundImageFix" result="effect1_dropShadow"/>
<feBlend mode="normal" in="SourceGraphic" in2="effect1_dropShadow" result="shape"/>
</filter>
</defs>
</svg>
