<?xml version="1.0" encoding="utf-8"?>
<!-- Generator: Adobe Illustrator 22.0.1, SVG Export Plug-In . SVG Version: 6.00 Build 0)  -->
<svg version="1.1" id="Layer_1" xmlns="http://www.w3.org/2000/svg" xmlns:xlink="http://www.w3.org/1999/xlink" x="0px" y="0px"
	 viewBox="0 0 66 72" style="enable-background:new 0 0 66 72;" xml:space="preserve">
<style type="text/css">
	.st0{fill:#D6EFF9;}
	.st1{fill:#4E5F83;}
</style>
<g>
	<path class="st0" d="M35.5,66c-0.2,0-0.4-0.1-0.5-0.2L22.2,54h-4.7c-4.8,0-8.8-3.9-8.8-8.8v-36c0-4.8,3.9-8.8,8.8-8.8h36
		c4.8,0,8.8,3.9,8.8,8.8v36c0,4.8-3.9,8.8-8.8,8.8h-4.7L36,65.8C35.9,65.9,35.7,66,35.5,66z"/>
	<g>
		<g>
			<path class="st1" d="M30.5,72c-0.2,0-0.4-0.1-0.5-0.2L17.2,60h-4.7c-4.8,0-8.8-3.9-8.8-8.8v-36c0-4.8,3.9-8.8,8.8-8.8h36
				c4.8,0,8.8,3.9,8.8,8.8v36c0,4.8-3.9,8.8-8.8,8.8h-4.7L31,71.8C30.9,71.9,30.7,72,30.5,72z M12.5,8c-4,0-7.3,3.3-7.3,7.3v36
				c0,4,3.3,7.3,7.3,7.3h5c0.2,0,0.4,0.1,0.5,0.2l12.5,11.5L43,58.7c0.1-0.1,0.3-0.2,0.5-0.2h5c4,0,7.3-3.3,7.3-7.3v-36
				c0-4-3.3-7.3-7.3-7.3H12.5z"/>
		</g>
		<g>
			<path class="st1" d="M43.8,36.3c-0.4,0-0.8-0.3-0.8-0.8c0-8.2-6.6-14.8-14.8-14.8c-0.4,0-0.8-0.3-0.8-0.8c0-0.4,0.3-0.8,0.8-0.8
				c9,0,16.3,7.3,16.3,16.3C44.5,36,44.2,36.3,43.8,36.3z"/>
		</g>
		<g>
			<path class="st1" d="M49.5,36.3c-0.4,0-0.8-0.3-0.8-0.8c0-11.3-9.2-20.6-20.6-20.6c-0.4,0-0.8-0.3-0.8-0.8c0-0.4,0.3-0.8,0.8-0.8
				c12.2,0,22.1,9.9,22.1,22.1C50.3,36,49.9,36.3,49.5,36.3z"/>
		</g>
		<g>
			<path class="st1" d="M40.8,55c-5.9,0-12.7-3.8-20.5-11.6C9.3,32.3,6.2,23.3,10.8,15.8c0.1-0.2,0.3-0.3,0.6-0.4
				c0.2,0,0.5,0.1,0.6,0.2l8.9,8.9c0.2,0.2,0.3,0.5,0.2,0.8c-1.1,3.5,1.9,6.8,6.2,11.2l0,0c4.4,4.4,7.7,7.3,11.2,6.2
				c0.3-0.1,0.6,0,0.8,0.2l8.9,8.9c0.2,0.2,0.2,0.4,0.2,0.6c0,0.2-0.2,0.4-0.4,0.6C45.7,54.3,43.3,55,40.8,55z M11.6,17.4
				c-3.5,6.7-0.3,14.9,9.8,24.9s18.2,13.3,24.9,9.8l-7.9-7.9c-4.4,1.1-8.4-2.9-12.2-6.7c-3.8-3.8-7.8-7.8-6.7-12.2L11.6,17.4z"/>
		</g>
		<g>
			<path class="st1" d="M20.4,25.8c-0.2,0-0.4-0.1-0.5-0.2l-8.9-8.9c-0.2-0.2-0.3-0.6-0.1-0.9l0.1-0.2c0.1-0.1,0.1-0.2,0.2-0.3
				c0.7-1,1.5-2,2.4-2.9c2.4-2.4,5.4,0.5,7.3,2.4c1.9,1.9,4.8,4.8,2.4,7.3c-0.7,0.7-1.2,1.4-1.6,2l0,0c-0.2,0.3-0.4,0.7-0.5,1.1
				c-0.1,0.2-0.3,0.4-0.5,0.5C20.5,25.8,20.4,25.8,20.4,25.8z M12.4,16.1l7.7,7.7c0.1-0.1,0.1-0.2,0.2-0.3v0
				c0.5-0.8,1.1-1.6,1.8-2.4c1.1-1,0.5-2.3-2.4-5.2c-2.9-2.9-4.1-3.4-5.2-2.4C13.7,14.3,13,15.2,12.4,16.1z"/>
		</g>
		<g>
			<path class="st1" d="M47.6,53c-0.2,0-0.4-0.1-0.5-0.2l-8.9-8.9c-0.2-0.2-0.3-0.5-0.2-0.7c0.1-0.3,0.3-0.5,0.5-0.5
				c0.4-0.1,0.8-0.3,1.2-0.5c0.7-0.4,1.3-0.9,2-1.6c2.5-2.4,5.4,0.5,7.3,2.4c1.3,1.3,2.3,2.5,2.9,3.5c0.9,1.8,0.2,3-0.5,3.7
				c-0.9,0.9-1.9,1.7-2.9,2.4c-0.1,0.1-0.2,0.1-0.3,0.2L48,52.9C47.8,53,47.7,53,47.6,53z M40,43.7l7.7,7.7c0.9-0.6,1.7-1.3,2.6-2.1
				c0.6-0.6,0.6-1.2,0.2-2c-0.5-0.9-1.4-1.9-2.6-3.1c-2.9-2.9-4.1-3.4-5.2-2.4c-0.8,0.8-1.5,1.4-2.3,1.8
				C40.3,43.5,40.2,43.6,40,43.7z"/>
		</g>
		<g>
			<path class="st1" d="M8.5,46c-0.4,0-0.8-0.3-0.8-0.8v-5.7c0-0.4,0.3-0.8,0.8-0.8c0.4,0,0.8,0.3,0.8,0.8v5.7
				C9.3,45.7,8.9,46,8.5,46z"/>
		</g>
		<g>
			<path class="st1" d="M8.5,52.2c-0.4,0-0.8-0.3-0.8-0.8v-2.2c0-0.4,0.3-0.8,0.8-0.8c0.4,0,0.8,0.3,0.8,0.8v2.2
				C9.3,51.9,8.9,52.2,8.5,52.2z"/>
		</g>
		<g>
			<path class="st1" d="M30.5,66c-0.2,0-0.4-0.1-0.5-0.2l-6.5-6c-0.3-0.3-0.3-0.8,0-1.1c0.3-0.3,0.8-0.3,1.1,0l6,5.5l2.2-2
				c0.3-0.3,0.8-0.3,1.1,0c0.3,0.3,0.3,0.8,0,1.1L31,65.8C30.9,65.9,30.7,66,30.5,66z"/>
		</g>
	</g>
</g>
</svg>
