<?xml version="1.0" encoding="utf-8"?>
<!-- Generator: Adobe Illustrator 22.0.1, SVG Export Plug-In . SVG Version: 6.00 Build 0)  -->
<svg version="1.1" id="Layer_1" xmlns="http://www.w3.org/2000/svg" xmlns:xlink="http://www.w3.org/1999/xlink" x="0px" y="0px"
	 viewBox="0 0 66 72" style="enable-background:new 0 0 66 72;" xml:space="preserve">
<style type="text/css">
	.st0{fill:#D6EFF9;}
	.st1{fill:#4E5F83;}
</style>
<g>
	<g>
		<path class="st0" d="M60.1,66.7H10.2c-2.1,0-3.8-1.7-3.8-3.8V28.8c0-2.1,1.7-3.8,3.8-3.8h49.9c2.1,0,3.8,1.7,3.8,3.8v34.1
			C63.9,65,62.2,66.7,60.1,66.7z"/>
	</g>
	<g>
		<path class="st1" d="M55.8,72H5.9c-2.5,0-4.5-2-4.5-4.5V33.4c0-2.5,2-4.5,4.5-4.5h49.9c2.5,0,4.5,2,4.5,4.5v34.1
			C60.4,70,58.3,72,55.8,72z M5.9,30.3c-1.7,0-3,1.4-3,3v34.1c0,1.7,1.4,3,3,3h49.9c1.7,0,3-1.4,3-3V33.4c0-1.7-1.4-3-3-3H5.9z"/>
	</g>
	<g>
		<path class="st1" d="M30.9,55c-1.3,0-2.7-0.5-3.7-1.5L2.6,30.7l1-1.1l24.6,22.8c1.5,1.4,3.9,1.4,5.5,0l24.6-22.8l1,1.1L34.6,53.5
			C33.6,54.5,32.2,55,30.9,55z"/>
	</g>
	<g>
		
			<rect x="-0.8" y="59.1" transform="matrix(0.7324 -0.6809 0.6809 0.7324 -37.037 25.3827)" class="st1" width="29.2" height="1.5"/>
	</g>
	<g>
		<rect x="47.2" y="45.2" transform="matrix(0.6809 -0.7324 0.7324 0.6809 -28.49 54.209)" class="st1" width="1.5" height="29.2"/>
	</g>
	<g>
		<path class="st1" d="M56.2,47.9c-0.4,0-0.7-0.3-0.7-0.7v-1.8c0-0.4,0.3-0.7,0.7-0.7s0.7,0.3,0.7,0.7v1.8
			C56.9,47.6,56.6,47.9,56.2,47.9z"/>
	</g>
	<g>
		<path class="st1" d="M56.2,56.6c-0.4,0-0.7-0.3-0.7-0.7v-5.3c0-0.4,0.3-0.7,0.7-0.7s0.7,0.3,0.7,0.7v5.3
			C56.9,56.3,56.6,56.6,56.2,56.6z"/>
	</g>
	<g>
		<path class="st1" d="M60.4,34.7h-1.5V13.4c0-1.1-0.9-2-2-2H14.6c-1.1,0-2,0.9-2,2v16h-1.5v-16c0-1.9,1.6-3.5,3.5-3.5h42.3
			c1.9,0,3.5,1.6,3.5,3.5V34.7z"/>
	</g>
	<g>
		<path class="st1" d="M54.6,16.5h-4c-0.4,0-0.7-0.3-0.7-0.7s0.3-0.7,0.7-0.7h4c0.4,0,0.7,0.3,0.7,0.7S55,16.5,54.6,16.5z"/>
	</g>
	<g>
		<path class="st1" d="M29.2,16.5H16.9c-0.4,0-0.7-0.3-0.7-0.7s0.3-0.7,0.7-0.7h12.4c0.4,0,0.7,0.3,0.7,0.7S29.6,16.5,29.2,16.5z"/>
	</g>
	<g>
		<path class="st1" d="M54.6,22.9h-7c-0.4,0-0.7-0.3-0.7-0.7s0.3-0.7,0.7-0.7h7c0.4,0,0.7,0.3,0.7,0.7S55,22.9,54.6,22.9z"/>
	</g>
	<g>
		<path class="st1" d="M40.6,22.9H16.9c-0.4,0-0.7-0.3-0.7-0.7s0.3-0.7,0.7-0.7h23.7c0.4,0,0.7,0.3,0.7,0.7S41,22.9,40.6,22.9z"/>
	</g>
</g>
</svg>
