<?xml version="1.0" encoding="utf-8"?>
<!-- Generator: Adobe Illustrator 22.0.1, SVG Export Plug-In . SVG Version: 6.00 Build 0)  -->
<svg version="1.1" id="Layer_1" xmlns="http://www.w3.org/2000/svg" xmlns:xlink="http://www.w3.org/1999/xlink" x="0px" y="0px"
	 viewBox="0 0 66 72" style="enable-background:new 0 0 66 72;" xml:space="preserve">
<style type="text/css">
	.st0{fill:#D6EFF9;}
	.st1{fill:#4E5F83;}
</style>
<g>
	<g>
		<path class="st0" d="M39.2,66.7c-0.2,0-0.4-0.1-0.5-0.2L21.1,48.9c-4.8-4.8-7.5-11.3-7.5-18.1c0-6.8,2.7-13.3,7.5-18.1
			c4.8-4.8,11.3-7.5,18.1-7.5c6.8,0,13.3,2.7,18.1,7.5l0,0l0,0c4.8,4.8,7.5,11.3,7.5,18.1c0,6.8-2.7,13.3-7.5,18.1L39.7,66.4
			C39.6,66.6,39.4,66.7,39.2,66.7z"/>
	</g>
	<g>
		<g>
			<path class="st1" d="M33,68c-0.2,0-0.4-0.1-0.5-0.2L14.9,50.2c-4.8-4.8-7.5-11.3-7.5-18.1c0-6.8,2.7-13.3,7.5-18.1
				C19.7,9.2,26.2,6.5,33,6.5c6.8,0,13.3,2.7,18.1,7.5l0,0l0,0c4.8,4.8,7.5,11.3,7.5,18.1c0,6.8-2.7,13.3-7.5,18.1L33.5,67.8
				C33.4,67.9,33.2,68,33,68z M33,8c-6.4,0-12.5,2.5-17,7.1c-4.6,4.6-7.1,10.6-7.1,17c0,6.4,2.5,12.5,7.1,17l17,17l17-17
				c4.6-4.6,7.1-10.6,7.1-17c0-6.4-2.5-12.5-7.1-17l0,0C45.5,10.5,39.4,8,33,8z"/>
		</g>
	</g>
	<g>
		<path class="st1" d="M33,41.9c-6.6,0-11.9-5.3-11.9-11.9C21.1,23.4,26.4,18,33,18c6.6,0,11.9,5.3,11.9,11.9
			C44.9,36.5,39.6,41.9,33,41.9z M33,19.5c-5.7,0-10.4,4.7-10.4,10.4c0,5.7,4.7,10.4,10.4,10.4c5.7,0,10.4-4.7,10.4-10.4
			C43.4,24.2,38.7,19.5,33,19.5z"/>
	</g>
	<g>
		<path class="st1" d="M38.1,62.6L36.6,64c16.4,0.2,26.5,2,27.6,3.2C63,68.6,51.6,70.5,33,70.5S3,68.6,1.8,67.3
			C2.9,66,13.2,64.2,30,64l-1.5-1.5l0,0c-9,0.2-28.3,1-28.3,4.7C0.3,71.9,31.7,72,33,72c1.3,0,32.8-0.1,32.8-4.8
			C65.8,63.7,47.4,62.8,38.1,62.6z"/>
	</g>
	<g>
		<path class="st1" d="M25,53.5c-0.2,0-0.4-0.1-0.6-0.3l-6.5-7.5c-0.3-0.3-0.2-0.8,0.1-1.1c0.3-0.3,0.8-0.2,1.1,0.1l6.5,7.5
			c0.3,0.3,0.2,0.8-0.1,1.1C25.3,53.5,25.1,53.5,25,53.5z"/>
	</g>
	<g>
		<path class="st1" d="M28.5,57.4c-0.2,0-0.4-0.1-0.6-0.3l-1.8-2.2c-0.3-0.3-0.2-0.8,0.1-1.1c0.3-0.3,0.8-0.2,1.1,0.1l1.8,2.2
			c0.3,0.3,0.2,0.8-0.1,1.1C28.8,57.3,28.6,57.4,28.5,57.4z"/>
	</g>
	<g>
		<path class="st1" d="M40.5,29.4c-0.3,0-0.6-0.2-0.7-0.6c-1.5-5.5-6.6-5.6-6.8-5.6c-0.4,0-0.7-0.3-0.7-0.8c0-0.4,0.3-0.7,0.7-0.7
			c0.1,0,6.4,0.1,8.2,6.7c0.1,0.4-0.1,0.8-0.5,0.9C40.6,29.3,40.5,29.4,40.5,29.4z"/>
	</g>
</g>
</svg>
