<?xml version="1.0" encoding="utf-8"?>
<!-- Generator: Adobe Illustrator 22.0.1, SVG Export Plug-In . SVG Version: 6.00 Build 0)  -->
<svg version="1.1" id="Layer_1" xmlns="http://www.w3.org/2000/svg" xmlns:xlink="http://www.w3.org/1999/xlink" x="0px" y="0px"
	 viewBox="0 0 66 72" style="enable-background:new 0 0 66 72;" xml:space="preserve">
<style type="text/css">
	.st0{fill:#4E5F83;}
	.st1{fill:#D6EFF9;}
</style>
<g>
	<path class="st0" d="M246.1,79.4C246.1,79.4,246.1,79.4,246.1,79.4c-0.3,0-0.6-0.2-0.7-0.5l-4.8-14c-0.1-0.3,0-0.6,0.2-0.8
		c0.2-0.2,0.5-0.3,0.8-0.2l14,4.8c0.3,0.1,0.5,0.4,0.5,0.7c0,0.3-0.2,0.6-0.4,0.7l-6.1,2.7l-2.7,6.1
		C246.7,79.3,246.4,79.4,246.1,79.4z M242.5,65.9l3.7,10.7l2.1-4.6c0.1-0.2,0.2-0.3,0.4-0.4l4.6-2.1L242.5,65.9z"/>
</g>
<g>
	<g>
		<path class="st1" d="M36.5,61h-20c-1.5,0-2.8-1.2-2.8-2.8v-20c0-1.5,1.2-2.8,2.8-2.8h20c1.5,0,2.8,1.2,2.8,2.8v20
			C39.2,59.8,38,61,36.5,61z"/>
	</g>
	<g>
		<path class="st1" d="M59.5,31h-43c-1.5,0-2.8-1.2-2.8-2.8v-8c0-1.5,1.2-2.8,2.8-2.8h43c1.5,0,2.8,1.2,2.8,2.8v8
			C62.3,29.8,61,31,59.5,31z"/>
	</g>
	<g>
		<g>
			<g>
				<path class="st0" d="M21.8,57.4c-0.4,0-0.8-0.3-0.8-0.8V56c0-2.4,1.4-3.5,2.5-4.3c1-0.7,1.7-1.3,1.7-2.7c0-1.6-1-2.9-2.4-3.3
					c-1.1-0.3-2.3-0.1-3.2,0.5c-0.9,0.7-1.4,1.7-1.4,2.8c0,0.4-0.3,0.8-0.8,0.8c-0.4,0-0.8-0.3-0.8-0.8c0-1.6,0.8-3.1,2-4
					c1.3-1,2.9-1.2,4.5-0.8c2.1,0.6,3.5,2.5,3.5,4.8c0,2.2-1.3,3.1-2.4,3.9c-1,0.8-1.9,1.4-1.9,3.1v0.6C22.6,57,22.2,57.4,21.8,57.4
					z"/>
			</g>
			<g>
				<path class="st0" d="M22.5,60.2c-0.4-0.4-1-0.4-1.4,0c-0.2,0.2-0.3,0.4-0.3,0.7c0,0.3,0.1,0.5,0.3,0.7c0.2,0.2,0.4,0.3,0.7,0.3
					c0.3,0,0.5-0.1,0.7-0.3c0.2-0.2,0.3-0.4,0.3-0.7C22.8,60.6,22.7,60.4,22.5,60.2z"/>
			</g>
		</g>
		<g>
			<g>
				<path class="st0" d="M59.5,72h-53c-2.1,0-3.8-1.7-3.8-3.8v-51c0-0.4,0.3-0.8,0.8-0.8h59c0.4,0,0.8,0.3,0.8,0.8v51
					C63.3,70.3,61.6,72,59.5,72z M4.3,18v50.3c0,1.2,1,2.3,2.3,2.3h53c1.2,0,2.3-1,2.3-2.3V18H4.3z"/>
			</g>
			<g>
				<path class="st0" d="M31.5,66h-20c-1.5,0-2.8-1.2-2.8-2.8v-20c0-1.5,1.2-2.8,2.8-2.8h20c1.5,0,2.8,1.2,2.8,2.8v20
					C34.2,64.8,33,66,31.5,66z M11.5,42c-0.7,0-1.3,0.6-1.3,1.3v20c0,0.7,0.6,1.3,1.3,1.3h20c0.7,0,1.3-0.6,1.3-1.3v-20
					c0-0.7-0.6-1.3-1.3-1.3H11.5z"/>
			</g>
			<g>
				<path class="st0" d="M54.5,36h-43c-1.5,0-2.8-1.2-2.8-2.8v-8c0-1.5,1.2-2.8,2.8-2.8h43c1.5,0,2.8,1.2,2.8,2.8v8
					C57.3,34.8,56,36,54.5,36z M11.5,24c-0.7,0-1.3,0.6-1.3,1.3v8c0,0.7,0.6,1.3,1.3,1.3h43c0.7,0,1.3-0.6,1.3-1.3v-8
					c0-0.7-0.6-1.3-1.3-1.3H11.5z"/>
			</g>
			<g>
				<path class="st0" d="M62.5,18h-59c-0.4,0-0.8-0.3-0.8-0.8v-7c0-2.1,1.7-3.8,3.8-3.8h53c2.1,0,3.8,1.7,3.8,3.8v7
					C63.3,17.7,62.9,18,62.5,18z M4.3,16.5h57.5v-6.3c0-1.2-1-2.3-2.3-2.3h-53c-1.2,0-2.3,1-2.3,2.3V16.5z"/>
			</g>
			<g>
				<path class="st0" d="M56.5,13.3c-0.3,0-0.5-0.1-0.7-0.3c-0.2-0.2-0.3-0.4-0.3-0.7c0-0.3,0.1-0.5,0.3-0.7c0.4-0.4,1-0.4,1.4,0
					c0.2,0.2,0.3,0.4,0.3,0.7c0,0.3-0.1,0.5-0.3,0.7C57,13.1,56.8,13.3,56.5,13.3z"/>
			</g>
			<g>
				<path class="st0" d="M49.5,12.3c0-0.6,0.5-1,1-1l0,0c0.6,0,1,0.4,1,1l0,0c0,0.5-0.4,1-1,1l0,0C49.9,13.3,49.5,12.8,49.5,12.3z"
					/>
			</g>
			<g>
				<path class="st0" d="M44.5,13.3c-0.3,0-0.5-0.1-0.7-0.3c-0.2-0.2-0.3-0.4-0.3-0.7c0-0.3,0.1-0.5,0.3-0.7c0.4-0.4,1-0.4,1.4,0
					c0.2,0.2,0.3,0.5,0.3,0.7c0,0.3-0.1,0.5-0.3,0.7C45,13.1,44.8,13.3,44.5,13.3z"/>
			</g>
			<g>
				<path class="st0" d="M55.5,42h-5c-0.4,0-0.8-0.3-0.8-0.8c0-0.4,0.3-0.8,0.8-0.8h5c0.4,0,0.8,0.3,0.8,0.8
					C56.2,41.7,55.9,42,55.5,42z"/>
			</g>
			<g>
				<path class="st0" d="M46.5,42h-7c-0.4,0-0.8-0.3-0.8-0.8c0-0.4,0.3-0.8,0.8-0.8h7c0.4,0,0.8,0.3,0.8,0.8
					C47.2,41.7,46.9,42,46.5,42z"/>
			</g>
			<g>
				<path class="st0" d="M50.5,48h-11c-0.4,0-0.8-0.3-0.8-0.8c0-0.4,0.3-0.8,0.8-0.8h11c0.4,0,0.8,0.3,0.8,0.8
					C51.2,47.7,50.9,48,50.5,48z"/>
			</g>
			<g>
				<path class="st0" d="M52.4,54H39.5c-0.4,0-0.8-0.3-0.8-0.8c0-0.4,0.3-0.8,0.8-0.8h12.9c0.4,0,0.8,0.3,0.8,0.8
					C53.1,53.7,52.8,54,52.4,54z"/>
			</g>
			<g>
				<path class="st0" d="M55.5,60h-5c-0.4,0-0.8-0.3-0.8-0.8s0.3-0.8,0.8-0.8h5c0.4,0,0.8,0.3,0.8,0.8S55.9,60,55.5,60z"/>
			</g>
			<g>
				<path class="st0" d="M46.5,60h-7c-0.4,0-0.8-0.3-0.8-0.8s0.3-0.8,0.8-0.8h7c0.4,0,0.8,0.3,0.8,0.8S46.9,60,46.5,60z"/>
			</g>
			<g>
				<path class="st0" d="M51.5,66h-12c-0.4,0-0.8-0.3-0.8-0.8c0-0.4,0.3-0.8,0.8-0.8h12c0.4,0,0.8,0.3,0.8,0.8
					C52.2,65.7,51.9,66,51.5,66z"/>
			</g>
			<g>
				<g>
					<path class="st0" d="M30.4,30h-8.8c-0.4,0-0.8-0.3-0.8-0.8c0-0.4,0.3-0.8,0.8-0.8h8.8c0.4,0,0.8,0.3,0.8,0.8
						C31.1,29.7,30.8,30,30.4,30z"/>
				</g>
				<g>
					<path class="st0" d="M17.6,30h-2.2c-0.4,0-0.8-0.3-0.8-0.8c0-0.4,0.3-0.8,0.8-0.8h2.2c0.4,0,0.8,0.3,0.8,0.8
						C18.3,29.7,18,30,17.6,30z"/>
				</g>
			</g>
		</g>
	</g>
</g>
</svg>
