<?xml version="1.0" encoding="utf-8"?>
<!-- Generator: Adobe Illustrator 22.0.1, SVG Export Plug-In . SVG Version: 6.00 Build 0)  -->
<svg version="1.1" id="Layer_1" xmlns="http://www.w3.org/2000/svg" xmlns:xlink="http://www.w3.org/1999/xlink" x="0px" y="0px"
	 viewBox="0 0 496.9 370.7" style="enable-background:new 0 0 496.9 370.7;" xml:space="preserve">
<style type="text/css">
	.st0{fill:#D6EFF9;}
	.st1{fill:#00957A;}
	.st2{fill:#00C876;}
	.st3{fill:#BFE7F8;}
	.st4{fill:#407BFF;}
	.st5{fill:#79AADB;}
	.st6{fill:#00AEF4;}
	.st7{clip-path:url(#SVGID_2_);}
	.st8{fill:#00D1FD;}
	.st9{fill:#FCC604;}
	.st10{fill:#FEAA52;}
	.st11{opacity:0.1;}
	.st12{fill:#87BFE7;}
	.st13{clip-path:url(#SVGID_4_);fill:#79AADB;}
	.st14{clip-path:url(#SVGID_4_);fill:#7AABDC;}
	.st15{clip-path:url(#SVGID_4_);fill:#7AACDC;}
	.st16{clip-path:url(#SVGID_4_);fill:#7BADDD;}
	.st17{clip-path:url(#SVGID_4_);fill:#7CAEDD;}
	.st18{clip-path:url(#SVGID_4_);fill:#7DAFDE;}
	.st19{clip-path:url(#SVGID_4_);fill:#7DB0DF;}
	.st20{clip-path:url(#SVGID_4_);fill:#7EB1DF;}
	.st21{clip-path:url(#SVGID_4_);fill:#7FB2E0;}
	.st22{clip-path:url(#SVGID_4_);fill:#7FB3E0;}
	.st23{clip-path:url(#SVGID_4_);fill:#80B5E1;}
	.st24{clip-path:url(#SVGID_4_);fill:#81B6E2;}
	.st25{clip-path:url(#SVGID_4_);fill:#81B7E2;}
	.st26{clip-path:url(#SVGID_4_);fill:#82B8E3;}
	.st27{clip-path:url(#SVGID_4_);fill:#83B9E3;}
	.st28{clip-path:url(#SVGID_4_);fill:#84BAE4;}
	.st29{clip-path:url(#SVGID_4_);fill:#84BBE5;}
	.st30{clip-path:url(#SVGID_4_);fill:#85BCE5;}
	.st31{clip-path:url(#SVGID_4_);fill:#86BDE6;}
	.st32{clip-path:url(#SVGID_4_);fill:#86BEE6;}
	.st33{clip-path:url(#SVGID_4_);fill:#87BFE7;}
	.st34{fill:#FFDC45;}
	.st35{fill:#F9BA10;}
	.st36{fill:#F7AA26;}
	.st37{fill:#B68B39;}
	.st38{opacity:0.3;}
	.st39{fill:#FFFFFF;}
</style>
<g>
	<g>
		<path class="st0" d="M197.8,50.9c-9.4,0.1-18.8,0.7-28,1.8C138,56.6,107,66.1,78.3,80.5C49,95.1,22,112.7,9.4,144.3
			c-10.2,25.7-16.2,54.8,4.5,77c5.9,6.3,15.1,10,22.4,14.6c9.3,5.8,18.4,12,27.3,18.3c17.9,12.8,35.1,26.4,52.3,40.1
			c33.2,26.5,65.7,48.6,107.9,58c35.6,7.9,74.1,7.6,109.8-1.7c34.8-9.1,76.1-28.1,91.7-62.8c8.4-18.8,5.2-35.2-1.8-53.9
			c-11.1-29.4-28-56.4-47.3-81.1c-24.8-31.7-54.7-60.2-89.6-80.6C259.8,56.7,228.6,50.6,197.8,50.9z"/>
	</g>
	<g>
		<g>
			<path class="st1" d="M475.6,218.1l-19-0.3l13.7,5.1c-5.3,4.6-9.6,8-16,12.7l-27.4-4.5l20.4,9.6c-7.3,5.1-11.1,7.8-19,11.9
				c-11.9-4.2-24.7-8-24.7-8l15.3,12.9c-9.6,4.5-19.3,7.8-28.6,9c-1.5,0.2-0.1,0-1.5,0.2l-16.5-6.9l6.6,7.8
				c-39.4,2.3-49-12.9-49-12.9s0.1-0.7,0.6-2.1c0.3-1.1,0.8-2.5,1.7-4.3c3.1-7,10.3-19,27-33.6l0,13.4l6.6-16.8
				c1.5-0.9,3-1.9,4.7-2.8c5.2-3.1,4.2-3.2,10.4-5.2l-0.2,18.7l9-21.6c3.7-1.1,7.4-2,11.3-2.8l-4.2,17.5l13.1-18.9
				c7.3-1.3,9.9-1.5,17.3-2l-4.6,18.2L437,194c11.2-0.5,10.7-0.3,20.3,0.2l-5.9,15l13.5-15.1c16,1.2,32,3.6,32,3.6
				S489.7,205.7,475.6,218.1z"/>
		</g>
	</g>
	<g>
		<path class="st2" d="M471.8,80.3c-6.3,5.8-10.4,14.5-10.9,22.9c-0.7,1.3-1.6,2.9-2.5,4.6c-1.7-8.2-5.8-15.7-11.4-21.8
			c0.4,8.6,4.4,17.4,10.7,23.2c-1.6,2.8-3.3,6.1-5.4,9.7c-0.9,1.7-1.9,3.4-3,5.2c-0.5,0.9-1,1.7-1.5,2.6
			c-3.3-11.7-10.7-21.9-20.1-29.6c1.9,12.1,9.5,23.7,19.7,30.3c-0.5,0.8-0.9,1.5-1.4,2.3c-2.2,3.9-4.8,7.9-7.4,12.1
			c-1.2,1.9-2.4,3.8-3.7,5.8c-2.8-14.3-10.5-27.3-20.8-37.5c0.6,14.9,8.2,29.9,19.7,39.3c-3,4.5-6.1,9.2-9.4,13.9
			c-0.1,0-0.2,0.1-0.2,0.1c0,0,0.1,0,0.1,0.1c-1.1,1.6-2.3,3.2-3.4,4.9c-0.1,0.2-0.2,0.3-0.3,0.5c-2.4-16.3-12-32-25.4-41.3
			c3,16.6,12,31.5,24,43.2c-5.9,8.1-11.7,15.4-17.1,22c-0.5,0.5-0.9,1.1-1.3,1.6c0.5-20.3-8.2-41.3-22.8-54.9
			c0.8,20.6,9.1,40.1,21.7,56.2c-2.1,2.5-4.1,4.8-6,7c-1.3,1.5-2.6,3-3.9,4.4c-1.2,1.4-2.4,2.6-3.6,3.9c0,0-0.1,0.1-0.1,0.1
			c-1.9-19.2-12.4-38-27.7-49.3c2.9,19.3,12.8,36.9,26.3,50.8c-8.3,8.9-13.5,13.8-13.5,14.5c0,0.4,3.9-2.4,10.6-8.6
			c12.8,9.6,28.7,14.2,44.7,14.5c-11.4-10.9-28-16.8-43.6-15.6c1.1-1,2.2-2.1,3.3-3.2c0,0,0.1,0.1,0.1,0.1c0-0.1,0-0.1,0-0.2
			c0.1-0.1,0.1-0.1,0.2-0.2c1.2-1.2,2.4-2.4,3.7-3.7c1.3-1.3,2.6-2.8,4-4.2c0.5-0.5,1-1.1,1.5-1.6c17.9,9.4,38.6,12.2,58.5,9.7
			c-16-11.3-37.4-15.8-56.5-11.9c1.7-1.9,3.4-3.9,5.2-5.9c2.3-2.7,4.6-5.5,7-8.5c19.5,6.2,40.6,5.1,60-1.3c-18-8.2-40.1-8.5-58.2-1
			c3.5-4.4,7-9.1,10.6-14c1.6-2.2,3.2-4.5,4.7-6.7c15.7,5.6,32.9,5.6,49,1.3c-14.1-7.5-31.9-8.9-47.1-4.1c3.6-5.3,7-10.5,10.1-15.6
			c14.7,2,30.5-2.5,41.7-11.8c-13.8-1.2-27.6,2.2-39.8,8.7c2.4-4.1,4.8-8,6.9-11.7c1.1-2,2.2-3.9,3.2-5.8c0.4-0.8,0.8-1.6,1.2-2.3
			c9.1,2.8,19.4,0.7,26.8-5.6c-8.8-2.1-17.7-0.5-25.7,3.7c0.2-0.4,0.4-0.8,0.6-1.2c1.9-3.6,3.5-6.9,5-9.8c0,0,0,0,0,0
			c0,0,0-0.1,0-0.1c0.2-0.5,0.4-0.9,0.6-1.3c8.6-0.6,17.3-4.7,22.9-11c-7.9,0.8-15.4,4.1-21.8,8.8c0.5-1,0.9-1.9,1.3-2.7
			C467.4,97.3,470.7,88.9,471.8,80.3z"/>
	</g>
	<g>
		<path class="st1" d="M20.9,156.4c6.5,5.5,11,14,11.9,22.4c0.8,1.3,1.7,2.8,2.7,4.5c1.3-8.2,5.1-16,10.4-22.3
			c0,8.6-3.7,17.6-9.6,23.7c1.7,2.8,3.6,5.9,5.8,9.4c1,1.6,2.1,3.3,3.2,5.1c0.5,0.8,1.1,1.7,1.6,2.5c2.8-11.8,9.8-22.4,18.8-30.5
			c-1.4,12.2-8.5,24.1-18.4,31.1c0.5,0.7,1,1.5,1.5,2.3c2.4,3.8,5.1,7.6,7.9,11.8c1.3,1.8,2.6,3.7,4,5.6
			c2.2-14.4,9.3-27.7,19.1-38.4c0,14.9-6.9,30.2-17.9,40.1c3.2,4.4,6.5,8.9,10,13.5c0.1,0,0.2,0.1,0.2,0.1c0,0-0.1,0-0.1,0.1
			c1.2,1.6,2.4,3.1,3.7,4.7c0.1,0.2,0.2,0.3,0.4,0.5c1.7-16.4,10.6-32.5,23.6-42.4c-2.3,16.7-10.6,32-22.1,44.2
			c6.3,7.8,12.4,14.9,18,21.2c0.5,0.5,0.9,1,1.4,1.5c-1.4-20.2,6.4-41.6,20.4-55.8c0.1,20.6-7.3,40.5-19.2,57.1
			c2.2,2.4,4.3,4.7,6.3,6.7c1.4,1.4,2.8,2.9,4.1,4.2c1.3,1.3,2.6,2.5,3.8,3.7c0,0,0.1,0.1,0.1,0.1c1-19.3,10.7-38.6,25.5-50.5
			c-2.1,19.4-11.1,37.4-24.1,51.9c8.7,8.5,14.1,13.2,14.1,13.9c0,0.4-4-2.3-10.9-8.2c-12.4,10.1-28.1,15.5-44,16.5
			c10.9-11.4,27.3-18,42.8-17.5c-1.1-0.9-2.3-2-3.5-3.1c0,0-0.1,0.1-0.1,0.1c0-0.1,0-0.1,0-0.2c-0.1-0.1-0.1-0.1-0.2-0.2
			c-1.2-1.1-2.5-2.3-3.9-3.5c-1.3-1.3-2.7-2.7-4.2-4.1c-0.5-0.5-1-1-1.6-1.5c-17.4,10.2-38,13.9-58.1,12.2
			c15.5-12,36.7-17.4,55.9-14.4c-1.8-1.8-3.6-3.7-5.4-5.7c-2.4-2.6-4.8-5.3-7.4-8.2c-19.2,7-40.4,6.8-60,1.4
			c17.6-9,39.7-10.3,58.1-3.5c-3.7-4.2-7.4-8.8-11.2-13.6c-1.7-2.2-3.4-4.4-5-6.5c-15.4,6.3-32.6,7-48.9,3.5
			c13.8-8.1,31.5-10.3,46.9-6.2c-3.8-5.1-7.4-10.2-10.8-15.1c-14.5,2.6-30.6-1.1-42.2-10c13.8-1.9,27.7,1,40.2,7
			c-2.6-4-5.1-7.7-7.4-11.4c-1.2-1.9-2.4-3.8-3.5-5.6c-0.5-0.8-0.9-1.5-1.3-2.3c-9,3.2-19.3,1.6-27-4.4c8.7-2.5,17.7-1.3,25.9,2.6
			c-0.2-0.4-0.5-0.8-0.7-1.1c-2.1-3.5-3.8-6.7-5.4-9.5c0,0,0,0,0,0c0,0,0-0.1,0-0.1c-0.2-0.4-0.5-0.9-0.7-1.3
			c-8.6-0.2-17.5-3.9-23.3-9.9c8,0.5,15.6,3.4,22.2,7.8c-0.5-0.9-1-1.8-1.4-2.6C26,173.2,22.4,165,20.9,156.4z"/>
	</g>
	<g>
		<path class="st3" d="M67.1,310.8c0,0-20.1,48.4,38.9,59s100.2-79.9,157.5-60.1c57.3,19.8,132.5,6.4,126.4-15.2
			c0,0-79.4-56.6-150.4-47.8"/>
	</g>
	<g>
		<g>
			<path class="st4" d="M385.8,155.6l-136.7-18c-4.8-0.6-9.8-0.4-14.5,0.7L75.1,175.9c-5.8,1.4-9.8,6.5-9.7,12.4l6.9,120.9
				c0.2,8.2,3.5,12.6,11.5,10.3l158.8-44.6L377.4,296c7.1,1.1,13.5-4.2,13.7-11.2l3.1-113.3C394.4,165.6,391.7,156.5,385.8,155.6z"
				/>
		</g>
		<g>
			<path class="st5" d="M385.8,155.6l-136.7-18c-4.8-0.6-9.8-0.4-14.5,0.7L75.1,175.9c-5.8,1.4-9.8,6.5-9.7,12.4l7,125.7
				c1.4,3.2,3.4,7.8,11.4,5.5l158.8-44.6L377.4,296c7.1,1.1,13.5-4.2,13.7-11.2l3.1-113.3C394.4,165.6,391.7,156.5,385.8,155.6z"/>
		</g>
	</g>
	<g>
		<g>
			<path class="st6" d="M415.2,152.6L250,191.9c-2.2,0.5-4.3-0.8-4.8-3L219.9,82.9c-0.5-2.2,0.8-4.3,3-4.8l165.2-39.3
				c2.2-0.5,4.3,0.8,4.8,3l25.3,106.1C418.6,150,417.3,152.1,415.2,152.6z"/>
		</g>
		<g>
			<defs>
				<path id="SVGID_1_" d="M411.9,153.4l-158.6,37.7c-4,0.9-8-1.5-8.9-5.5l-23.7-99.5c-0.9-4,1.5-8,5.5-8.9l162-38.6
					c2.1-0.5,4.2,0.8,4.6,2.9l24.5,102.9C418.3,148.5,415.8,152.5,411.9,153.4z"/>
			</defs>
			<clipPath id="SVGID_2_">
				<use xlink:href="#SVGID_1_"  style="overflow:visible;"/>
			</clipPath>
			<g class="st7">
				<path class="st8" d="M272.1,66.3c0,0,1.7,34.3,33.7,33c32-1.3,58.6-14.3,70.7,9.9s36,14.7,36,14.7l-22.3-93.8L272.1,66.3z"/>
			</g>
		</g>
		<g>
			<path class="st9" d="M271.1,114.4l-21.2,5c-1.8,0.4-3.6-0.7-4-2.5l-5-21.2c-0.4-1.8,0.7-3.6,2.5-4l21.2-5c1.8-0.4,3.6,0.7,4,2.5
				l5,21.2C274,112.2,272.9,114,271.1,114.4z"/>
		</g>
		<g>
			<g>
				<path class="st10" d="M253.3,112.5c-0.1,0-0.3-0.1-0.4-0.2c-0.3-0.2-0.5-0.4-0.5-0.7l-3.3-13.9c-0.1-0.6,0.2-1.3,0.9-1.4
					l10.6-2.5c0.6-0.1,1.3,0.2,1.4,0.9l3.3,13.9c0.1,0.6-0.2,1.3-0.9,1.4l0,0l-10.6,2.5C253.7,112.5,253.5,112.5,253.3,112.5z
					 M253.5,111.1L253.5,111.1L253.5,111.1z M250.6,97.6l3.2,13.3l10-2.4l-3.2-13.3L250.6,97.6z"/>
			</g>
			<g>
				<g>
					
						<rect x="261.7" y="95.3" transform="matrix(0.9727 -0.2319 0.2319 0.9727 -15.0219 64.2686)" class="st10" width="8.3" height="1.5"/>
				</g>
				<g>
					
						<rect x="262.8" y="100.1" transform="matrix(0.9727 -0.2319 0.2319 0.9727 -16.096 64.6617)" class="st10" width="8.3" height="1.5"/>
				</g>
				<g>
					
						<rect x="263.9" y="104.8" transform="matrix(0.9727 -0.2319 0.2319 0.9727 -17.1701 65.0545)" class="st10" width="8.3" height="1.5"/>
				</g>
			</g>
			<g>
				<g>
					
						<rect x="242.1" y="99.9" transform="matrix(0.9727 -0.2319 0.2319 0.9727 -16.6342 59.8612)" class="st10" width="8.3" height="1.5"/>
				</g>
				<g>
					
						<rect x="243.3" y="104.7" transform="matrix(0.9727 -0.2319 0.2319 0.9727 -17.7083 60.2542)" class="st10" width="8.3" height="1.5"/>
				</g>
				<g>
					
						<rect x="244.4" y="109.5" transform="matrix(0.9727 -0.2319 0.2319 0.9727 -18.7824 60.6471)" class="st10" width="8.3" height="1.5"/>
				</g>
			</g>
		</g>
		<g>
			<g>
				<path class="st0" d="M279.2,135.1l-27.2,6.5c-0.7,0.2-1.3-0.2-1.5-0.9l-0.7-2.7c-0.2-0.7,0.2-1.3,0.9-1.5L278,130
					c0.7-0.2,1.3,0.2,1.5,0.9l0.7,2.7C280.2,134.3,279.8,135,279.2,135.1z"/>
			</g>
			<g>
				<path class="st0" d="M316.3,126.3l-27.2,6.5c-0.7,0.2-1.3-0.2-1.5-0.9l-0.7-2.7c-0.2-0.7,0.2-1.3,0.9-1.5l27.2-6.5
					c0.7-0.2,1.3,0.2,1.5,0.9l0.7,2.7C317.4,125.5,317,126.1,316.3,126.3z"/>
			</g>
			<g>
				<path class="st0" d="M353.5,117.5l-27.2,6.5c-0.7,0.2-1.3-0.2-1.5-0.9l-0.7-2.7c-0.2-0.7,0.2-1.3,0.9-1.5l27.2-6.5
					c0.7-0.2,1.3,0.2,1.5,0.9l0.7,2.7C354.6,116.6,354.2,117.3,353.5,117.5z"/>
			</g>
			<g>
				<path class="st0" d="M390.7,108.6l-27.2,6.5c-0.7,0.2-1.3-0.2-1.5-0.9l-0.7-2.7c-0.2-0.7,0.2-1.3,0.9-1.5l27.2-6.5
					c0.7-0.2,1.3,0.2,1.5,0.9l0.7,2.7C391.7,107.8,391.3,108.4,390.7,108.6z"/>
			</g>
		</g>
		<g>
			<g>
				<path class="st0" d="M274.3,149.3l-19.4,4.6c-0.7,0.2-1.3-0.2-1.5-0.9l-0.7-2.7c-0.2-0.7,0.2-1.3,0.9-1.5l19.4-4.6
					c0.7-0.2,1.3,0.2,1.5,0.9l0.7,2.7C275.4,148.5,275,149.1,274.3,149.3z"/>
			</g>
		</g>
		<g>
			<g>
				<path class="st0" d="M300.7,156l-42.8,10.2c-0.7,0.2-1.3-0.2-1.5-0.9l-0.7-2.7c-0.2-0.7,0.2-1.3,0.9-1.5l42.8-10.2
					c0.7-0.2,1.3,0.2,1.5,0.9l0.7,2.7C301.7,155.2,301.3,155.9,300.7,156z"/>
			</g>
		</g>
		<g>
			<g>
				<path class="st0" d="M352.4,143.7l-42.8,10.2c-0.7,0.2-1.3-0.2-1.5-0.9l-0.7-2.7c-0.2-0.7,0.2-1.3,0.9-1.5l42.8-10.2
					c0.7-0.2,1.3,0.2,1.5,0.9l0.7,2.7C353.5,142.9,353.1,143.5,352.4,143.7z"/>
			</g>
		</g>
	</g>
	<g>
		<circle class="st2" cx="488.8" cy="154.3" r="5.8"/>
	</g>
	<g>
		<g>
			<g>
				
					<rect x="76" y="71.9" transform="matrix(0.8496 -0.5274 0.5274 0.8496 -61.9467 84.0614)" class="st4" width="80.9" height="157.6"/>
			</g>
			<g>
				<polygon class="st2" points="192.4,196.3 123.6,238.9 40.5,105.1 85.6,77.1 109.3,62.4 111.9,66.7 				"/>
			</g>
		</g>
		<g>
			<path class="st1" d="M125.2,233l-0.3-0.4L47,106.9l61.5-38.2l0.3,0.4l78,125.6L125.2,233z M48.3,107.2l77.2,124.4l59.8-37.1
				L108.2,70.1L48.3,107.2z"/>
		</g>
		<g>
			
				<ellipse transform="matrix(0.8496 -0.5274 0.5274 0.8496 -61.5597 83.8343)" class="st1" cx="116.2" cy="149.9" rx="14.8" ry="18.6"/>
		</g>
	</g>
	<g class="st11">
		<polygon points="131.8,192.6 109.7,195.8 85.6,77.1 109.3,62.4 111.9,66.7 		"/>
	</g>
	<g>
		<g>
			<g>
				
					<rect x="99.7" y="32.8" transform="matrix(0.9874 -0.158 0.158 0.9874 -15.8579 23.5358)" class="st4" width="80.9" height="157.6"/>
			</g>
			<g>
				
					<rect x="99.7" y="32.8" transform="matrix(0.9874 -0.158 0.158 0.9874 -15.8579 23.5358)" class="st2" width="80.9" height="157.6"/>
			</g>
		</g>
		<g>
			<path class="st1" d="M116.4,190.9l-0.1-0.5L93,44.3l0.5-0.1l71-11.4l0.1,0.5l23.4,146l-0.5,0.1L116.4,190.9z M94.1,45.2
				l23.1,144.5l69.5-11.1L163.6,34L94.1,45.2z"/>
		</g>
		<g>
			
				<ellipse transform="matrix(0.9874 -0.158 0.158 0.9874 -15.7281 23.5438)" class="st1" cx="140.3" cy="110.7" rx="14.8" ry="18.6"/>
		</g>
	</g>
	<g>
		<path class="st12" d="M385.8,160.4l-134.8-18c-4.8-0.6-9.6-0.4-14.3,0.7L79.4,180.7c-5.7,1.4-9.7,6.5-9.6,12.4l2.3,119.4
			c0.2,8.2,8,14,15.9,11.8l156.6-44.6l132.8,21.1c7,1.1,13.3-4.2,13.5-11.2l3.1-113.3C394.3,170.4,391.6,161.3,385.8,160.4z"/>
	</g>
	<g>
		<path class="st5" d="M252.3,165c-0.8-0.1-1.3-0.9-1.2-1.7c0.1-0.8,0.9-1.4,1.7-1.3l115.8,14.9c0.8,0.1,1.4,0.9,1.3,1.7
			s-0.9,1.4-1.7,1.3L252.3,165C252.3,165,252.3,165,252.3,165z"/>
	</g>
	<g>
		<path class="st5" d="M240.5,265.4c-0.7-0.1-1.2-0.7-1.2-1.4l-2.5-100c0-0.8,0.6-1.5,1.5-1.5c0.8,0,1.5,0.6,1.5,1.5l2.5,100
			c0,0.8-0.6,1.5-1.5,1.5C240.7,265.4,240.6,265.4,240.5,265.4z"/>
	</g>
	<g>
		<g>
			<path class="st5" d="M84.4,225.7c0,0,1.9,29.9,1.7,40.5c-0.2,8.1-3.2,34.4-3.2,34.4S102,275.2,84.4,225.7z"/>
		</g>
		<g>
			<path class="st5" d="M84.4,225.7c0.2,1.4,141.4-29.6,141.4-29.6s-3.6,44.6-47.1,59.2C135.3,269.8,84.4,225.7,84.4,225.7z"/>
		</g>
		<g>
			<path class="st5" d="M225.5,195.5c0,0,11.5,27.4-0.3,68.2"/>
		</g>
		<g>
			<g>
				<defs>
					<path id="SVGID_3_" d="M84.1,225.1c0.2,1.4,141.4-29.6,141.4-29.6s-4.4,40.9-47.9,55.4C134.1,265.4,84.1,225.1,84.1,225.1z"/>
				</defs>
				<clipPath id="SVGID_4_">
					<use xlink:href="#SVGID_3_"  style="overflow:visible;"/>
				</clipPath>
				<polygon class="st13" points="134,178 90.4,191.9 94.5,170.4 				"/>
				<polygon class="st13" points="140.5,179.2 89.7,195.4 90.4,191.9 134,178 				"/>
				<polygon class="st14" points="146.9,180.5 89.1,198.9 89.7,195.4 140.5,179.2 				"/>
				<polygon class="st15" points="153.4,181.7 88.4,202.4 89.1,198.9 146.9,180.5 				"/>
				<polygon class="st16" points="159.9,183 87.7,205.9 88.4,202.4 153.4,181.7 				"/>
				<polygon class="st17" points="166.3,184.2 87.1,209.5 87.7,205.9 159.9,183 				"/>
				<polygon class="st18" points="172.8,185.4 86.4,213 87.1,209.5 166.3,184.2 				"/>
				<polygon class="st19" points="179.3,186.7 85.7,216.5 86.4,213 172.8,185.4 				"/>
				<polygon class="st20" points="185.7,187.9 85,220 85.7,216.5 179.3,186.7 				"/>
				<polygon class="st21" points="192.2,189.2 84.4,223.5 85,220 185.7,187.9 				"/>
				<polygon class="st22" points="198.7,190.4 83.7,227 84.4,223.5 192.2,189.2 				"/>
				<polygon class="st23" points="205.1,191.6 83.4,230.4 83.2,229.6 83.7,227 198.7,190.4 				"/>
				<polygon class="st24" points="211.6,192.9 84.4,233.4 83.4,230.4 205.1,191.6 				"/>
				<polygon class="st25" points="218.1,194.1 85.3,236.4 84.4,233.4 211.6,192.9 				"/>
				<polygon class="st26" points="224.5,195.3 86.3,239.4 85.3,236.4 218.1,194.1 				"/>
				<polygon class="st27" points="227.7,195.9 228.2,197.5 87.2,242.4 86.3,239.4 224.5,195.3 				"/>
				<polygon class="st28" points="228.2,197.5 228.4,198.1 227.9,200.9 88.2,245.4 87.2,242.4 				"/>
				<polygon class="st29" points="227.2,204.4 89.1,248.4 88.2,245.4 227.9,200.9 				"/>
				<polygon class="st30" points="226.5,207.9 90.1,251.4 89.1,248.4 227.2,204.4 				"/>
				<polygon class="st31" points="225.9,211.4 91.1,254.4 90.1,251.4 226.5,207.9 				"/>
				<polygon class="st32" points="225.2,214.9 92,257.4 91.1,254.4 225.9,211.4 				"/>
				<polygon class="st33" points="224.5,218.4 98.5,258.6 92,257.4 92,257.4 225.2,214.9 				"/>
				<polygon class="st33" points="98.5,258.6 224.5,218.4 212.6,280.5 				"/>
			</g>
		</g>
		<g>
			<circle class="st5" cx="171.4" cy="238.2" r="5.8"/>
		</g>
	</g>
	<g>
		<path class="st5" d="M81.4,194.6c-0.4-0.1-0.7-0.4-0.8-0.8c-0.1-0.5,0.2-1.1,0.7-1.2l7.8-1.8c0.5-0.1,1.1,0.2,1.2,0.7
			c0.1,0.5-0.2,1.1-0.7,1.2l-7.8,1.8C81.7,194.7,81.5,194.7,81.4,194.6z M97,191c-0.4-0.1-0.7-0.4-0.8-0.8c-0.1-0.5,0.2-1.1,0.7-1.2
			l7.8-1.8c0.5-0.1,1.1,0.2,1.2,0.7c0.1,0.5-0.2,1.1-0.7,1.2l-7.8,1.8C97.3,191.1,97.1,191.1,97,191z M112.6,187.4
			c-0.4-0.1-0.7-0.4-0.8-0.8c-0.1-0.5,0.2-1.1,0.7-1.2l7.8-1.8c0.5-0.1,1.1,0.2,1.2,0.7c0.1,0.5-0.2,1.1-0.7,1.2l-7.8,1.8
			C112.9,187.5,112.7,187.5,112.6,187.4z M128.2,183.8c-0.4-0.1-0.7-0.4-0.8-0.8c-0.1-0.5,0.2-1.1,0.7-1.2l7.8-1.8
			c0.5-0.1,1.1,0.2,1.2,0.7c0.1,0.5-0.2,1.1-0.7,1.2l-7.8,1.8C128.5,183.9,128.3,183.9,128.2,183.8z M143.8,180.2
			c-0.4-0.1-0.7-0.4-0.8-0.8c-0.1-0.5,0.2-1.1,0.7-1.2l7.8-1.8c0.5-0.1,1.1,0.2,1.2,0.7c0.1,0.5-0.2,1.1-0.7,1.2l-7.8,1.8
			C144,180.3,143.9,180.3,143.8,180.2z M159.4,176.6c-0.4-0.1-0.7-0.4-0.8-0.8c-0.1-0.5,0.2-1.1,0.7-1.2l7.8-1.8
			c0.5-0.1,1.1,0.2,1.2,0.7s-0.2,1.1-0.7,1.2l-7.8,1.8C159.6,176.7,159.5,176.7,159.4,176.6z M174.9,173c-0.4-0.1-0.7-0.4-0.8-0.8
			c-0.1-0.5,0.2-1.1,0.7-1.2l7.8-1.8c0.5-0.1,1.1,0.2,1.2,0.7c0.1,0.5-0.2,1.1-0.7,1.2l-7.8,1.8C175.2,173.1,175.1,173.1,174.9,173z
			 M190.5,169.4c-0.4-0.1-0.7-0.4-0.8-0.8c-0.1-0.5,0.2-1.1,0.7-1.2l7.8-1.8c0.5-0.1,1.1,0.2,1.2,0.7c0.1,0.5-0.2,1.1-0.7,1.2
			l-7.8,1.8C190.8,169.5,190.7,169.5,190.5,169.4z M206.1,165.8c-0.4-0.1-0.7-0.4-0.8-0.8c-0.1-0.5,0.2-1.1,0.7-1.2l7.8-1.8
			c0.5-0.1,1.1,0.2,1.2,0.7c0.1,0.5-0.2,1.1-0.7,1.2l-7.8,1.8C206.4,165.9,206.3,165.9,206.1,165.8z M221.7,162.2
			c-0.4-0.1-0.7-0.4-0.8-0.8c-0.1-0.5,0.2-1.1,0.7-1.2l7.8-1.8c0.5-0.1,1.1,0.2,1.2,0.7c0.1,0.5-0.2,1.1-0.7,1.2l-7.8,1.8
			C222,162.3,221.8,162.3,221.7,162.2z"/>
	</g>
	<g>
		<g>
			<path class="st5" d="M252,187.3c-0.8-0.1-1.3-0.9-1.2-1.7c0.1-0.8,0.9-1.4,1.7-1.3l115.8,14.9c0.8,0.1,1.4,0.9,1.3,1.7
				c-0.1,0.8-0.9,1.4-1.7,1.3L252,187.3C252,187.3,252,187.3,252,187.3z"/>
		</g>
		<g>
			<path class="st5" d="M252,215.2c-0.8-0.1-1.3-0.9-1.2-1.7c0.1-0.8,0.9-1.4,1.7-1.3l115.8,14.9c0.8,0.1,1.4,0.9,1.3,1.7
				c-0.1,0.8-0.9,1.4-1.7,1.3L252,215.2C252,215.2,252,215.2,252,215.2z"/>
		</g>
	</g>
	<g id="coin_1_">
		<g id="coin_10_">
			<g id="coin_13_">
				<g>
					<path class="st34" d="M321.6,165.8c4.9,17.6-5.4,35.8-23,40.7c-17.6,4.9-35.8-5.4-40.7-23c-4.9-17.6,5.4-35.8,23-40.7
						C298.5,137.9,316.7,148.2,321.6,165.8z"/>
				</g>
			</g>
			<g id="coin_12_">
				<g>
					<path class="st35" d="M299.5,209.6c-19.3,5.4-39.3-5.9-44.7-25.2c-5.4-19.3,6-39.3,25.2-44.7c19.3-5.4,39.3,6,44.7,25.2
						C330,184.2,318.7,204.2,299.5,209.6z M281.7,145.9c-15.9,4.4-25.2,20.9-20.8,36.8c4.4,15.9,20.9,25.2,36.8,20.8
						c15.9-4.4,25.2-20.9,20.8-36.8C314.1,150.8,297.6,141.5,281.7,145.9z"/>
				</g>
			</g>
			<g>
				<g>
					<path class="st36" d="M281.9,170.3l-4.5,9.8c-0.3,0.4-0.9,1.1-2,0.6c0,0.1-2.7-1.3-2.7-1.3l-2.8,4.1l4.8,2.2
						c0.5,0.2,1.1,0.5,1.6,0.7l0,0c0.3,0.2,0.7,0.3,1,0.5l-2.9,6.2l3.7,1.7l2.8-6.1c1,0.5,2,1,3,1.4l-2.8,6.1l3.7,1.7l2.9-6.2
						c6.4,2.5,11.5,3,14.8-2.7c2.6-4.5,1.4-7.7-1.8-10.2c2.7-0.1,4.9-1.4,6.1-4.8c1.6-4.6-1.5-7.9-6.1-10.5l2.8-6.1l-3.7-1.7l-2.8,6
						c-1-0.5-2-0.9-3-1.3l2.8-6l-3.7-1.7l-2.8,6.1c-0.8-0.4-1.6-0.7-2.4-1.1l-5.1-2.4l-1.8,4c0,0,2.8,1.2,2.7,1.2
						c1.5,0.7,1.6,1.8,1.4,2.6L281.9,170.3L281.9,170.3z M295.5,185c-2,4.2-8.6,1.1-11.6-0.4c-0.3-0.1-0.5-0.2-0.7-0.3l3.8-8.2
						c0.3,0.1,0.6,0.2,0.9,0.4l0,0C291.1,177.9,297.5,180.7,295.5,185z M299.2,172.6c-1.8,3.9-7.3,1.2-9.8,0
						c-0.2-0.1-0.4-0.2-0.6-0.3l3.4-7.4c0.2,0.1,0.5,0.2,0.8,0.3C295.6,166.4,301,168.7,299.2,172.6z"/>
				</g>
			</g>
		</g>
	</g>
	<g id="coin_14_">
		<g>
			<path class="st37" d="M151.2,260.7c-1.5,3.1,12.5,13.2,31.4,22.5s35.4,14.3,37,11.2l3.5-7.2c-4.7-4.6-21.6-8.7-35-15.3
				c-12.8-6.3-25-13-33.3-18.6C154.9,253.3,151.7,259.7,151.2,260.7z"/>
		</g>
		<g>
			<g>
				<path class="st35" d="M219.4,284.3l-5.3,10.7c-0.3-0.1-0.7-0.1-1-0.2l5.4-11C218.8,284.1,219.1,284.2,219.4,284.3z"/>
			</g>
			<g>
				<path class="st35" d="M210.5,280.7l-5.8,11.9c-0.3-0.1-0.6-0.2-1-0.3l5.9-11.9C209.9,280.5,210.2,280.6,210.5,280.7z"/>
			</g>
			<g>
				<path class="st35" d="M201.4,277.4l-5.8,11.7c-0.3-0.1-0.6-0.3-0.9-0.4l5.8-11.7C200.8,277.2,201.1,277.3,201.4,277.4z"/>
			</g>
			<g>
				<path class="st35" d="M192.4,273.9l-5.6,11.4c-0.3-0.1-0.6-0.3-0.9-0.4l5.6-11.4C191.8,273.6,192.1,273.7,192.4,273.9z"/>
			</g>
			<g>
				<path class="st35" d="M183.8,269.7l-5.6,11.3c-0.3-0.2-0.6-0.3-0.9-0.5l5.6-11.3C183.2,269.4,183.5,269.5,183.8,269.7z"/>
			</g>
			<g>
				<path class="st35" d="M175.3,265.2l-5.5,11.2c-0.3-0.2-0.6-0.3-0.9-0.5l5.5-11.2C174.7,264.8,175,265,175.3,265.2z"/>
			</g>
			<g>
				<path class="st35" d="M166.9,260.4l-5.4,10.9c-0.3-0.2-0.6-0.4-0.8-0.6l5.3-10.8C166.3,260,166.6,260.2,166.9,260.4z"/>
			</g>
			<g>
				<path class="st35" d="M158.7,255.3l-4.9,9.9c-0.3-0.3-0.5-0.5-0.7-0.8l4.8-9.7C158.1,254.9,158.4,255.1,158.7,255.3z"/>
			</g>
		</g>
		<g>
			<path class="st35" d="M154.8,253.5c-1.5,3.1,12.5,13.2,31.4,22.5c18.9,9.3,35.4,14.3,37,11.2c1.5-3.1-12.5-13.2-31.4-22.5
				C172.9,255.4,156.3,250.4,154.8,253.5z"/>
		</g>
		<g>
			<path class="st34" d="M157.9,255.1c-1.2,2.5,13.7,12.4,28.8,19.8c15.1,7.4,31.9,13.2,33.1,10.7c1.2-2.5-13.6-12.3-28.7-19.8
				C176.1,258.4,159.1,252.6,157.9,255.1z"/>
		</g>
		<g id="coin_15_">
			<g>
				<path class="st36" d="M184.7,264.5c-2.3-1.2-4.3-2-6.1-2.4c-0.7-0.2-1.3-0.2-1.7-0.2c-0.4,0-0.8,0.1-1.1,0.2
					c-0.1,0-0.2,0-0.2,0.1l-4-2.1l-0.4,0.8l3.8,1.9l-0.2,0.4l-3.8-1.9l-0.4,0.8l3.9,2c0.1,0.1,0.1,0.3,0.3,0.5
					c0.3,0.5,0.8,1.1,1.4,1.7c0.6,0.6,1.5,1.3,2.6,2c1.1,0.7,2.2,1.4,3.3,1.9c2.2,1.1,3.4,1.4,4,1.4c0.6,0,0.8-0.3,0.3-0.9
					c-0.3-0.3-0.7-0.7-1.3-1c-0.8-0.5-1.3-0.8-1.7-1c-0.9-0.5-1.7-0.8-2.3-0.9c-0.3-0.1-0.5-0.1-0.7,0c0,0,0,0,0,0
					c-0.1-0.1-0.2-0.1-0.3-0.2c-0.4-0.2-0.7-0.5-0.9-0.8c-0.3-0.3-0.5-0.6-0.5-0.7c0,0,0,0,0-0.1l10.6,5.4c0.1,0.2,0.5,0.7,1.4,1.7
					c1.2,1.3,3.1,2.6,5.5,3.8c1.9,1,3.7,1.7,5.3,2.1c0.7,0.2,1.2,0.3,1.7,0.3c0.4,0,0.7-0.1,1.1-0.2l3.6,1.9l0.4-0.8l-3.3-1.7
					l0.2-0.4l3.3,1.7l0.4-0.8l-3.7-1.9c0-0.1-0.1-0.3-0.3-0.6c-0.2-0.4-0.7-1-1.5-1.7c-0.8-0.8-2-1.6-3.6-2.5
					c-0.5-0.3-1-0.5-1.3-0.7c-2.5-1.3-3.4-1.3-3.7-1.1c0,0,0,0,0,0c-0.1,0.3,0.1,0.7,0.6,1.1c0.6,0.5,1.4,1.1,2.6,1.6l0.2,0.1
					c0.8,0.4,1.5,0.6,2,0.7c0,0,0.1,0,0.1,0c0,0,0,0,0.1,0c0.3,0.2,0.5,0.4,0.6,0.6c0.1,0.2,0.2,0.3,0.3,0.5c0,0,0,0,0,0l-8.4-4.3
					c-0.1-0.1-0.3-0.4-0.5-0.7c-0.5-0.6-1.1-1.3-1.9-2.1C189,266.9,187.1,265.7,184.7,264.5z M194.9,274.6l4.8,2.4
					c-0.1,0-0.2,0-0.4-0.1c-0.5-0.1-1.1-0.4-2-0.7c-0.9-0.5-1.6-0.9-2.1-1.3C195.1,274.8,195,274.7,194.9,274.6z M188.4,270.2
					l-10.1-5.2l0.2-0.4l9.5,4.8L188.4,270.2z M193.6,272.4l7.8,4c0,0,0,0.1-0.1,0.2c0,0.1-0.1,0.2-0.1,0.2l-7.3-3.7L193.6,272.4z
					 M186,267c0.3,0.3,0.6,0.6,0.8,0.8l-7.4-3.8c0.2,0,0.5,0,0.9,0.1c0.6,0.1,1.6,0.5,3,1.2C184.5,265.9,185.4,266.5,186,267z"/>
			</g>
		</g>
		<g id="scintillation_9_" class="st38">
			<path class="st39" d="M206.9,277.7c3.2,1.6,3.7,3.1,3.1,4.2c0.5-0.9,2.4-1.5,5.4,0c0,0-4.4-2-3.2-4.4
				C211,279.9,206.9,277.7,206.9,277.7z"/>
		</g>
		<g id="scintillation_8_" class="st38">
			<path class="st39" d="M171.2,257.4c5.2,2.7,6.4,4.3,5.9,5.3c0.4-0.8,3.1-0.8,8,1.6c0,0-7.1-3.4-6.1-5.5
				C178,260.9,171.2,257.4,171.2,257.4z"/>
		</g>
		<g id="scintillation_7_" class="st38">
			<path class="st39" d="M180.6,269.8c3.2,1.7,3.8,3.2,3.2,4.4c0.5-1,2.5-1.6,5.5,0c0,0-4.5-2.1-3.3-4.5
				C184.8,272,180.6,269.8,180.6,269.8z"/>
		</g>
	</g>
	<g id="coin_16_">
		<g>
			<path class="st37" d="M352.5,291.1c1.5,2.8-11,12.3-27.8,21.2c-16.8,8.9-31.7,13.9-33.1,11.1l-3.4-6.4
				c4.1-4.3,19.3-8.5,31.2-14.8c11.4-6,22.3-12.4,29.6-17.7C348.9,284.5,352,290.2,352.5,291.1z"/>
		</g>
		<g>
			<g>
				<path class="st35" d="M291.5,314.3l5.1,9.6c0.3-0.1,0.6-0.1,0.9-0.2l-5.2-9.8C292,314,291.7,314.1,291.5,314.3z"/>
			</g>
			<g>
				<path class="st35" d="M299.4,310.7l5.6,10.6c0.3-0.1,0.6-0.2,0.9-0.3l-5.6-10.6C300,310.5,299.7,310.6,299.4,310.7z"/>
			</g>
			<g>
				<path class="st35" d="M307.6,307.5l5.5,10.4c0.3-0.1,0.6-0.2,0.8-0.4l-5.5-10.4C308.1,307.3,307.8,307.4,307.6,307.5z"/>
			</g>
			<g>
				<path class="st35" d="M315.6,304.1l5.4,10.2c0.3-0.1,0.5-0.3,0.8-0.4l-5.4-10.1C316.1,303.8,315.8,303.9,315.6,304.1z"/>
			</g>
			<g>
				<path class="st35" d="M323.3,300l5.3,10.1c0.3-0.1,0.5-0.3,0.8-0.4l-5.3-10.1C323.8,299.8,323.5,299.9,323.3,300z"/>
			</g>
			<g>
				<path class="st35" d="M330.8,295.7l5.3,10c0.3-0.2,0.5-0.3,0.8-0.5l-5.3-10C331.4,295.4,331.1,295.6,330.8,295.7z"/>
			</g>
			<g>
				<path class="st35" d="M338.3,291.2l5.1,9.7c0.3-0.2,0.5-0.4,0.7-0.5l-5.1-9.6C338.8,290.9,338.5,291,338.3,291.2z"/>
			</g>
			<g>
				<path class="st35" d="M345.6,286.4l4.7,8.9c0.2-0.2,0.5-0.5,0.7-0.7l-4.6-8.7C346.1,286,345.8,286.2,345.6,286.4z"/>
			</g>
		</g>
		<g>
			<path class="st35" d="M316.1,308.5c-14.6,7.2-26.6,10.9-27.9,8.4c-1.5-2.8,11-12.3,27.8-21.2c16.8-8.9,31.7-13.9,33.1-11.1
				c1.5,2.8-11,12.3-27.8,21.2C319.5,306.8,317.8,307.7,316.1,308.5"/>
		</g>
		<g>
			<path class="st34" d="M346.3,286.2c1.2,2.2-12.1,11.6-25.5,18.7c-13.5,7.1-28.5,12.8-29.7,10.6c-1.2-2.2,11.9-11.5,25.4-18.6
				C329.9,289.7,345.1,283.9,346.3,286.2z"/>
		</g>
		<g id="coin_18_">
			<g>
				<path class="st36" d="M317.4,298.8c-0.7,0.7-1.3,1.3-1.7,1.9c-0.2,0.3-0.4,0.5-0.5,0.7l-7.5,4.1c0,0,0,0,0,0
					c0.1-0.1,0.1-0.3,0.3-0.4c0.1-0.2,0.3-0.3,0.5-0.5c0,0,0,0,0.1,0c0,0,0.1,0,0.1,0c0.4-0.1,1-0.3,1.8-0.7l0.1-0.1
					c1-0.6,1.8-1.1,2.3-1.5c0.5-0.5,0.7-0.8,0.6-1.1c0,0,0,0,0,0c-0.3-0.2-1.1-0.1-3.3,1.1c-0.3,0.2-0.7,0.4-1.2,0.7
					c-1.4,0.9-2.5,1.7-3.2,2.4c-0.7,0.7-1.1,1.2-1.3,1.6c-0.1,0.2-0.2,0.4-0.2,0.5l-3.3,1.8l0.4,0.8l2.9-1.6l0.2,0.3l-2.9,1.6
					l0.4,0.8l3.2-1.8c0.3,0.1,0.7,0.1,1,0.1c0.4,0,0.9-0.1,1.5-0.3c1.5-0.4,3.1-1.1,4.7-2c2.2-1.2,3.8-2.4,4.9-3.6
					c0.8-0.9,1.1-1.3,1.2-1.5l9.4-5.2c0,0,0,0,0,0.1c0,0.1-0.2,0.4-0.5,0.7c-0.2,0.3-0.5,0.5-0.8,0.8c-0.1,0.1-0.2,0.1-0.2,0.2
					c0,0,0,0,0,0c-0.2-0.1-0.4,0-0.7,0c-0.6,0.1-1.3,0.4-2.1,0.9c-0.3,0.2-0.8,0.5-1.5,0.9c-0.5,0.3-0.9,0.7-1.2,1
					c-0.5,0.5-0.3,0.9,0.3,0.8c0.5,0,1.6-0.3,3.6-1.4c1-0.6,2-1.2,2.9-1.9c1-0.7,1.7-1.3,2.3-1.9c0.6-0.6,1-1.2,1.3-1.6
					c0.1-0.2,0.2-0.4,0.2-0.5l3.5-1.9l-0.4-0.8l-3.4,1.9l-0.2-0.3l3.4-1.8L334,291l-3.6,2c-0.1,0-0.1,0-0.2-0.1
					c-0.2-0.1-0.6-0.1-1-0.1c-0.4,0-0.9,0.1-1.6,0.2c-1.5,0.4-3.4,1.2-5.4,2.3C320.2,296.5,318.5,297.7,317.4,298.8z M313,305.1
					c-0.4,0.4-1,0.8-1.8,1.2c-0.7,0.4-1.3,0.6-1.7,0.7c-0.1,0-0.2,0.1-0.3,0.1l4.2-2.3C313.3,304.9,313.2,305,313,305.1z M319.5,300
					l8.4-4.6l0.2,0.3l-9,5L319.5,300z M314.2,303.4l-6.5,3.6c0,0-0.1-0.1-0.1-0.2c0-0.1-0.1-0.1-0.1-0.2l6.9-3.8L314.2,303.4z
					 M323.6,296.1c1.3-0.7,2.2-1.1,2.7-1.2c0.4-0.1,0.6-0.1,0.8-0.1l-6.6,3.6c0.2-0.2,0.4-0.4,0.7-0.7
					C321.7,297.2,322.5,296.7,323.6,296.1z"/>
			</g>
		</g>
		<g id="scintillation_12_" class="st38">
			<path class="st39" d="M302.6,308c-2.8,1.6-3.2,2.9-2.7,3.9c-0.5-0.8-2.2-1.3-4.9,0.1c0,0,3.9-2,2.8-4
				C299,310,302.6,308,302.6,308z"/>
		</g>
		<g id="scintillation_11_" class="st38">
			<path class="st39" d="M334.3,288.6c-4.6,2.5-5.7,4-5.2,4.9c-0.4-0.7-2.8-0.7-7.2,1.7c0,0,6.3-3.3,5.4-5.1
				C328.3,292,334.3,288.6,334.3,288.6z"/>
		</g>
		<g id="scintillation_10_" class="st38">
			<path class="st39" d="M326.1,300.1c-2.9,1.6-3.3,3-2.7,4c-0.5-0.9-2.3-1.3-5,0.1c0,0,4-2,2.8-4.2
				C322.4,302.2,326.1,300.1,326.1,300.1z"/>
		</g>
	</g>
	<g>
		<path class="st12" d="M197.5,83.7c-0.4-0.1-0.7-0.4-0.8-0.8c-0.6-3.3-0.5-6.6,0.1-9.8c0.2-0.8,0.4-1.7,0.6-2.5
			c0.2-0.5,0.7-0.8,1.2-0.7c0.5,0.2,0.8,0.7,0.7,1.2c-0.2,0.8-0.4,1.5-0.6,2.3c-0.6,3-0.6,6.1-0.1,9.1c0.1,0.5-0.3,1.1-0.8,1.2
			C197.7,83.8,197.6,83.8,197.5,83.7z M204,61.5c-0.2,0-0.3-0.1-0.5-0.2c-0.4-0.4-0.4-1-0.1-1.4c2.8-3.1,6.3-5.5,10.1-7.1
			c0.5-0.2,1.1,0,1.3,0.6c0.2,0.5,0,1.1-0.6,1.3c-3.6,1.4-6.8,3.7-9.4,6.5C204.6,61.4,204.3,61.5,204,61.5z M225.4,52.1
			c-0.4-0.1-0.7-0.4-0.8-0.8c-0.1-0.5,0.3-1.1,0.8-1.1l11.8-1.9c0.5-0.1,1.1,0.2,1.2,0.8c0.1,0.5-0.2,1.1-0.8,1.2l-0.2,0l-11.7,1.9
			C225.6,52.1,225.5,52.1,225.4,52.1z M249,47.3c-0.4-0.1-0.7-0.3-0.8-0.7c-0.1-0.5,0.2-1.1,0.7-1.2c3.9-1,7.8-2.1,11.5-3.3
			c0.5-0.2,1.1,0.1,1.2,0.7c0.2,0.5-0.1,1.1-0.7,1.2c-3.8,1.1-7.7,2.3-11.6,3.3C249.3,47.3,249.1,47.3,249,47.3z M272,40.3
			c-0.3-0.1-0.6-0.3-0.8-0.7c-0.2-0.5,0.1-1.1,0.6-1.3c3.9-1.4,7.7-2.8,11.2-4.2c0.5-0.2,1.1,0,1.3,0.6c0.2,0.5,0,1.1-0.6,1.3
			c-3.6,1.4-7.4,2.8-11.3,4.2C272.3,40.4,272.1,40.4,272,40.3z M294.3,31.4c-0.3-0.1-0.6-0.3-0.7-0.6c-0.2-0.5,0-1.1,0.5-1.3
			c3.8-1.8,7.4-3.7,10.5-5.6c0.5-0.3,1.1-0.1,1.4,0.3c0.3,0.5,0.1,1.1-0.3,1.4c-3.2,1.9-6.8,3.8-10.7,5.7
			C294.7,31.4,294.5,31.4,294.3,31.4z M314.7,18.8c-0.2,0-0.4-0.2-0.6-0.3c-0.4-0.4-0.3-1.1,0.1-1.4c3.4-2.9,6-5.8,7.7-8.7
			c0.3-0.5,0.9-0.6,1.4-0.4c0.5,0.3,0.6,0.9,0.4,1.4c-1.8,3.1-4.5,6.2-8.1,9.2C315.3,18.8,315,18.9,314.7,18.8z"/>
	</g>
	<g>
		<path class="st12" d="M209.1,36.7c-0.4-0.1-0.7-0.4-0.8-0.8c-0.1-0.5,0.3-1.1,0.9-1.1c1.3-0.2,2.6-0.4,3.9-0.6
			c0.5-0.1,1.1,0.3,1.1,0.8c0.1,0.5-0.3,1.1-0.8,1.1c-1.3,0.2-2.6,0.4-3.9,0.6C209.3,36.7,209.2,36.7,209.1,36.7z M224.8,34.2
			c-0.4-0.1-0.7-0.4-0.8-0.8c-0.1-0.5,0.3-1.1,0.8-1.2c4-0.7,8-1.5,11.7-2.3c0.5-0.1,1.1,0.2,1.2,0.8c0.1,0.5-0.2,1.1-0.8,1.2
			c-3.8,0.8-7.8,1.6-11.8,2.4C225.1,34.2,225,34.2,224.8,34.2z M248.3,29c-0.4-0.1-0.7-0.3-0.8-0.7c-0.1-0.5,0.2-1.1,0.7-1.2
			c4-1.1,7.8-2.2,11.5-3.4c0.5-0.2,1.1,0.1,1.3,0.6c0.2,0.5-0.1,1.1-0.6,1.3c-3.6,1.2-7.5,2.3-11.6,3.4
			C248.5,29.1,248.4,29.1,248.3,29z M271,21.6c-0.3-0.1-0.6-0.3-0.7-0.6c-0.2-0.5,0-1.1,0.6-1.3c3.9-1.6,7.5-3.2,10.8-4.9
			c0.5-0.3,1.1-0.1,1.3,0.4c0.3,0.5,0.1,1.1-0.4,1.3c-3.3,1.7-7,3.4-11,5C271.4,21.6,271.2,21.6,271,21.6z M292.2,10.4
			c-0.2,0-0.5-0.2-0.6-0.4c-0.3-0.4-0.2-1.1,0.2-1.4c6.4-4.7,8.2-8,8.2-8c0.3-0.5,0.9-0.7,1.3-0.4c0.5,0.3,0.7,0.8,0.4,1.3
			c-0.1,0.2-2,3.7-8.8,8.7C292.7,10.4,292.4,10.4,292.2,10.4z"/>
	</g>
	<g>
		<path class="st12" d="M106.3,350.3C106.3,350.3,106.3,350.3,106.3,350.3c-7.7-1.5-11-5.6-11.1-5.8c-0.3-0.4-0.3-1.1,0.2-1.4
			c0.4-0.3,1.1-0.3,1.4,0.2c0,0,3,3.7,9.9,5c0.5,0.1,0.9,0.6,0.8,1.2C107.3,350.1,106.8,350.4,106.3,350.3z M118.2,350.3
			c-0.4-0.1-0.7-0.4-0.8-0.8c-0.1-0.5,0.3-1.1,0.8-1.1c3.5-0.6,7.4-1.6,11.3-3.1c0.5-0.2,1.1,0.1,1.3,0.6c0.2,0.5-0.1,1.1-0.6,1.3
			c-4.1,1.6-8.1,2.7-11.7,3.2C118.4,350.4,118.3,350.4,118.2,350.3z M140.6,342.1c-0.3-0.1-0.5-0.2-0.7-0.5
			c-0.3-0.5-0.1-1.1,0.4-1.4c3.3-1.8,6.7-3.8,10.2-6.1c0.5-0.3,1.1-0.2,1.4,0.3c0.3,0.5,0.2,1.1-0.3,1.4c-3.5,2.3-7,4.4-10.4,6.2
			C141.1,342.1,140.9,342.2,140.6,342.1z M160.8,329.2c-0.2,0-0.5-0.2-0.6-0.4c-0.3-0.5-0.2-1.1,0.3-1.4l9.9-6.8
			c0.5-0.3,1.1-0.2,1.4,0.3c0.3,0.5,0.2,1.1-0.3,1.4l-9.9,6.8C161.4,329.2,161.1,329.2,160.8,329.2z M180.6,315.5
			c-0.2,0-0.5-0.2-0.6-0.4c-0.3-0.5-0.2-1.1,0.3-1.4l9.9-6.8c0.5-0.3,1.1-0.2,1.4,0.3c0.3,0.5,0.2,1.1-0.3,1.4l-9.9,6.8
			C181.1,315.5,180.8,315.6,180.6,315.5z"/>
	</g>
</g>
</svg>
