<?xml version="1.0" encoding="utf-8"?>
<!-- Generator: Adobe Illustrator 22.0.1, SVG Export Plug-In . SVG Version: 6.00 Build 0)  -->
<svg version="1.1" id="Layer_1" xmlns="http://www.w3.org/2000/svg" xmlns:xlink="http://www.w3.org/1999/xlink" x="0px" y="0px"
	 viewBox="0 0 59 54" style="enable-background:new 0 0 59 54;" xml:space="preserve">
<style type="text/css">
	.st0{fill:#6FB3D0;}
</style>
<g>
	<g>
		<g>
			<path class="st0" d="M53.2,23.9H49c0,0,0,0,0,0V10.7c0-2.9-2.4-5.3-5.2-5.3H32.2l-3.1-3.2C29,2.1,28.7,2,28.5,2s-0.4,0.1-0.6,0.2
				l-3.5,3.6l-3.5-3.6c-0.3-0.3-0.9-0.3-1.2,0l-3.1,3.2c0,0,0,0-0.1,0H0.8C0.4,5.4,0,5.8,0,6.3v44.9C0,51.6,0.4,52,0.8,52h43
				c2.9,0,5.2-2.4,5.2-5.3v-4c0,0,0,0,0-0.1h4.1c0.5,0,0.8-0.4,0.8-0.9V24.7C54,24.3,53.6,23.9,53.2,23.9z M43.8,7.1
				c2,0,3.6,1.6,3.6,3.6v5.2c-0.9-0.9-2.2-1.4-3.6-1.4h-2.6l-7.3-7.4H43.8z M28.5,4.1l10.3,10.4H33L25.6,7L28.5,4.1z M20.2,4.1
				l10.3,10.4H9.9L20.2,4.1z M1.7,7.1h13.1l-7.3,7.4H1.7V7.1z M47.4,42.7v4c0,2-1.6,3.6-3.6,3.6H1.7V16.2h42.1c2,0,3.6,1.6,3.6,3.6
				v4.1c0,0,0,0,0,0h-15c-5.1,0-9.3,4.2-9.3,9.3c0,0,0,0,0,0v0.1c0,0,0,0,0,0c0,5.2,4.2,9.3,9.3,9.3L47.4,42.7
				C47.4,42.7,47.4,42.7,47.4,42.7z M52.3,41h-20c-4.2,0-7.6-3.4-7.7-7.7c0-4.2,3.4-7.7,7.7-7.7h20V41z M28.6,33.2
				c0,2.1,1.7,3.8,3.7,3.8s3.7-1.7,3.7-3.8c0-2.1-1.7-3.8-3.7-3.8S28.6,31.2,28.6,33.2z M34.4,33.2c0,1.1-0.9,2.1-2,2.1
				s-2-0.9-2-2.1c0-1.1,0.9-2.1,2-2.1S34.4,32.1,34.4,33.2z"/>
		</g>
	</g>
</g>
</svg>
