<?xml version="1.0" encoding="utf-8"?>
<!-- Generator: Adobe Illustrator 22.0.1, SVG Export Plug-In . SVG Version: 6.00 Build 0)  -->
<svg version="1.1" id="Layer_1" xmlns="http://www.w3.org/2000/svg" xmlns:xlink="http://www.w3.org/1999/xlink" x="0px" y="0px"
	 viewBox="0 0 778.8 506" style="enable-background:new 0 0 778.8 506;" xml:space="preserve">
<style type="text/css">
	.st0{fill:#D6EFF9;}
	.st1{clip-path:url(#SVGID_2_);fill:#BFE7F8;}
	.st2{fill:#00957A;}
	.st3{fill:#00C876;}
	.st4{fill:#1E3C79;}
	.st5{fill:#1E598F;}
	.st6{fill:#FCC604;}
	.st7{fill:#00AEF4;}
	.st8{clip-path:url(#SVGID_4_);fill:#00D1FD;}
	.st9{fill:none;stroke:#FEAA52;stroke-width:2.2807;stroke-miterlimit:10;}
	.st10{fill:#E2104B;}
	.st11{fill:#FEAA52;}
	.st12{fill:#FFDC45;}
	.st13{fill:#F9BA10;}
	.st14{fill:#F7AA26;}
	.st15{fill:#B68B39;}
	.st16{opacity:0.3;fill:#FFFFFF;}
	.st17{fill:none;stroke:#87BFE7;stroke-width:4.55;stroke-linecap:round;stroke-miterlimit:10;}
	.st18{fill:none;stroke:#87BFE7;stroke-width:1.82;stroke-linecap:round;stroke-miterlimit:10;}
	.st19{fill:none;stroke:#87BFE7;stroke-width:1.82;stroke-linecap:round;stroke-miterlimit:10;stroke-dasharray:11.4878,11.4878;}
	.st20{fill:none;stroke:#87BFE7;stroke-width:1.82;stroke-linecap:round;stroke-miterlimit:10;stroke-dasharray:10.1695,10.1695;}
</style>
<g>
	<path class="st0" d="M292.1,123.7c-33.4,26-41.5,51.7-57.6,33.1c-16.7-19.3,6.8-52.2,26.2-59.8C278.3,90.1,318,103.6,292.1,123.7z"
		/>
	<path class="st0" d="M591.5,69.1c-85.8-46-207.4-33.3-291.5,64.6s-199.9,96.5-191.7,194.7s212.6,183.4,383.8,125.4
		S740.8,149.2,591.5,69.1z"/>
	<g>
		<defs>
			<path id="SVGID_1_" d="M591.5,69.1c-85.8-46-207.4-33.3-291.5,64.6s-199.9,96.5-191.7,194.7s212.6,183.4,383.8,125.4
				S740.8,149.2,591.5,69.1z"/>
		</defs>
		<clipPath id="SVGID_2_">
			<use xlink:href="#SVGID_1_"  style="overflow:visible;opacity:0.2;"/>
		</clipPath>
		<path class="st1" d="M100.2,432.3c0,0,29.8-72.1,133.6-48.4s191.3,43,247.7-10.8s245.7-103.8,204.7-11
			C645.2,455,435.5,587,266.9,517.3S100.2,432.3,100.2,432.3z"/>
	</g>
	<g>
		<g>
			<g>
				<g>
					<path class="st2" d="M149,262.7l15.5,7.8l-13.2-1.7c2.4,5.9,4.4,10.5,7.5,17l24,8l-20.5-0.9c3.7,7.2,5.6,11,10.2,17.7
						c11.3,1.6,23.3,4,23.3,4l-17.8,3.9c5.8,7.7,12.2,14.4,19.3,19.3c1.1,0.8,0,0.1,1.1,0.8l16.2,1.4l-8.6,3.5
						c30.8,18.5,44.9,10.3,44.9,10.3s0.2-0.6,0.5-2c0.2-1,0.4-2.4,0.5-4.1c0.5-6.9-0.3-19.7-7.5-38.6l-5.7,10.8l1.8-16.3
						c-0.8-1.4-1.6-2.8-2.6-4.3c-2.9-4.6-2-4.4-6.2-8.6l-7.8,15.1l1.9-21.2c-2.5-2.4-5.1-4.8-7.9-7l-4,15.9l-2.6-20.8
						c-5.3-4.1-7.3-5.4-13.1-9l-4,16.6l-3.8-20.9c-8.8-5.1-8.5-4.8-16.4-8.4l-1.6,14.6l-4.5-17.9c-13.4-5.8-27.3-10.6-27.3-10.6
						S142.8,246.7,149,262.7z"/>
				</g>
			</g>
		</g>
		<path class="st3" d="M168.7,156c4.6,6.2,6.8,14.7,5.8,22.4c0.4,1.3,0.9,2.8,1.5,4.5c2.9-7,7.9-13.1,13.9-17.6
			c-1.8,7.6-6.9,14.8-13.5,18.9c0.9,2.8,2,6,3.2,9.6c0.6,1.6,1.1,3.4,1.8,5.2c0.3,0.8,0.6,1.7,0.9,2.6c5-9.9,13.4-17.8,23-23
			c-3.8,10.5-12.6,19.6-22.8,23.7c0.3,0.8,0.6,1.5,0.8,2.3c1.3,3.8,2.9,7.8,4.5,12.1c0.8,1.9,1.5,3.8,2.3,5.8c5-12.3,14-22.6,25-30
			c-3.1,13.2-12.4,25.3-24.3,31.7c1.9,4.6,3.9,9.3,6,14.1c0.1,0,0.1,0.1,0.2,0.1c0,0-0.1,0-0.1,0c0.7,1.6,1.5,3.3,2.2,4.9
			c0.1,0.2,0.2,0.3,0.2,0.5c5-14.2,16.2-26.6,29.8-32.5c-5.6,14.3-16.1,26.1-28.8,34.5c3.9,8.2,7.8,15.8,11.5,22.6
			c0.3,0.6,0.6,1.1,0.9,1.6c3-18.2,14.4-35.5,29.8-45.1c-4.2,18.2-15,34.3-29,46.5c1.4,2.6,2.8,5,4.2,7.3c0.9,1.6,1.8,3.1,2.7,4.6
			c0.9,1.4,1.7,2.8,2.5,4.1c0,0,0,0.1,0.1,0.1c5-16.8,17.6-31.9,33.2-39.4c-5.9,16.8-17.7,30.8-32.2,40.9c5.9,9.3,9.7,14.6,9.6,15.2
			c-0.1,0.4-3.1-2.9-8-9.5c-13.1,6.4-28.1,7.8-42.4,5.3c12-7.8,27.9-10.2,41.6-6.4c-0.8-1.1-1.6-2.2-2.4-3.4c0,0-0.1,0-0.1,0.1
			c0-0.1,0-0.1,0-0.2c0-0.1-0.1-0.1-0.1-0.2c-0.9-1.3-1.7-2.6-2.7-3.9c-0.9-1.4-1.9-2.9-2.8-4.5c-0.4-0.5-0.7-1.1-1.1-1.7
			c-17.6,5.4-36.6,4.3-54-1.4c16.2-7.4,36.1-7.7,52.5-1c-1.2-2-2.4-4-3.6-6.2c-1.6-2.8-3.2-5.7-4.8-8.8
			c-18.5,2.2-37.2-2.4-53.4-11.4c17.5-4.3,37.3-0.8,52.2,9.1c-2.4-4.5-4.7-9.3-7.1-14.4c-1.1-2.3-2.1-4.6-3.1-6.8
			c-15,2.3-30.4-0.7-44-7.2c13.9-4.3,30-2.5,42.8,4.4c-2.3-5.4-4.4-10.6-6.4-15.6c-13.4-0.7-26.9-7.4-35.3-17.7
			c12.6,1.3,24.3,6.7,34.1,14.6c-1.5-4.1-2.9-7.9-4.1-11.7c-0.7-2-1.3-3.9-1.9-5.7c-0.2-0.8-0.5-1.5-0.7-2.3c-8.7,1-17.4-2.7-23-9.6
			c8.2-0.4,16,2.6,22.4,7.7c-0.1-0.4-0.2-0.8-0.4-1.2c-1.1-3.6-2-6.8-2.8-9.6c0,0,0,0,0,0c0,0,0,0,0-0.1c-0.1-0.4-0.2-0.9-0.3-1.3
			c-7.6-2-14.6-7.2-18.6-13.7c6.9,2.1,13.1,6.3,18,11.6c-0.2-0.9-0.5-1.8-0.7-2.6C169.7,171.9,168.2,163.8,168.7,156z"/>
		<path class="st3" d="M274.4,137.5c4.9,6.1,12.6,10.3,20.2,11.2c1.2,0.7,2.5,1.6,4,2.5c-7.5,1-14.6,4.4-20.5,9.1
			c7.8,0.2,16.1-3,21.7-8.3c2.5,1.6,5.3,3.4,8.5,5.5c1.4,1,3,2,4.5,3c0.7,0.5,1.5,1,2.3,1.5c-10.8,2.3-20.6,8.5-28.1,16.5
			c11.1-1,22.1-7.3,28.6-16.1c0.7,0.5,1.3,0.9,2,1.4c3.4,2.3,6.9,4.8,10.6,7.4c1.6,1.2,3.3,2.4,5,3.7c-13.1,1.7-25.4,7.9-35.3,16.7
			c13.6,0.3,27.6-5.7,36.8-15.5c4,3,8,6.1,12.1,9.4c0,0.1,0,0.1,0.1,0.2c0,0,0-0.1,0.1-0.1c1.4,1.1,2.8,2.3,4.2,3.4
			c0.1,0.1,0.3,0.2,0.4,0.3c-15,1.2-29.8,9-39,20.6c15.2-1.8,29.3-9,40.7-19.2c7,5.9,13.3,11.5,18.9,16.8c0.5,0.4,0.9,0.9,1.4,1.3
			c-18.4-1.6-37.9,5-51.2,17.5c18.7,0.5,36.9-5.9,52.3-16.4c2.1,2,4.2,4,6,5.9c1.3,1.3,2.6,2.6,3.7,3.8c1.2,1.2,2.3,2.4,3.3,3.5
			c0,0,0.1,0.1,0.1,0.1c-17.5,0.6-35.3,9-46.4,22.3c17.7-1.5,34.3-9.4,47.7-20.9c7.6,8.1,11.7,13.1,12.3,13.1c0.4,0-2-3.7-7.2-10.1
			c9.5-11.1,14.6-25.3,15.8-39.7c-10.5,9.7-16.9,24.5-16.7,38.7c-0.8-1-1.8-2.1-2.7-3.2c0,0,0.1-0.1,0.1-0.1c-0.1,0-0.1,0-0.2,0
			c-0.1-0.1-0.1-0.1-0.2-0.2c-1-1.1-2.1-2.3-3.1-3.6c-1.1-1.2-2.4-2.5-3.6-3.9c-0.4-0.5-0.9-1-1.4-1.5c9.6-15.7,13.4-34.3,12.2-52.6
			c-11.2,13.8-16.5,33-14.2,50.6c-1.6-1.6-3.3-3.3-5.1-5.1c-2.3-2.2-4.7-4.5-7.3-6.9c6.7-17.3,7-36.6,2.4-54.5
			c-8.5,15.8-10.1,35.9-4.3,52.8c-3.8-3.4-7.8-6.9-12.1-10.5c-1.9-1.6-3.9-3.2-5.8-4.7c6-13.9,7-29.6,4.1-44.4
			c-7.6,12.4-10,28.4-6.5,42.5c-4.6-3.6-9.2-7-13.5-10.1c2.7-13.2-0.4-27.9-8.3-38.6c-1.9,12.5,0.4,25.2,5.6,36.7
			c-3.6-2.5-7-4.8-10.2-6.9c-1.7-1.1-3.4-2.2-5.1-3.3c-0.7-0.4-1.4-0.8-2-1.3c3.1-8.1,1.8-17.5-3.5-24.6c-2.5,7.9-1.5,16.1,1.8,23.6
			c-0.3-0.2-0.7-0.4-1-0.6c-3.2-1.9-6-3.6-8.6-5.1c0,0,0,0,0,0c0,0,0,0-0.1,0c-0.4-0.2-0.8-0.5-1.2-0.7c0-7.8-3.3-16-8.6-21.4
			c0.3,7.2,2.8,14.3,6.7,20.3c-0.9-0.5-1.6-0.9-2.4-1.3C289.6,142.5,282.1,139,274.4,137.5z"/>
		<g>
			<g>
				<g>
					<path class="st2" d="M593.7,388.4l-14.1-10.1l7.6,10.9c-6.4,0.7-11.4,1-18.5,1.3L550.4,373l10.3,17.8c-8.1,0-12.4,0.1-20.4-0.9
						c-6.7-9.3-14.4-18.8-14.4-18.8l4.8,17.5c-9.5-1.6-18.4-4.1-26.1-8.1c-1.2-0.6-0.1,0-1.2-0.6l-8.8-13.7l1,9.3
						c-30.7-18.6-30-35-30-35s0.5-0.5,1.5-1.3c0.8-0.6,1.9-1.4,3.5-2.3c5.9-3.6,17.6-8.9,37.7-11.2l-6.9,10l13.6-9.2
						c1.6,0.1,3.3,0.1,5,0.3c5.5,0.4,4.8-0.2,10.5,1.5l-9.8,13.9l17.9-11.5c3.3,1.1,6.6,2.3,9.9,3.7l-12.2,10.9l19.6-7.3
						c6.1,2.8,8.2,4,14,7.5L557,356.7l20.3-6.3c8.6,5.4,8.2,5.3,15.1,10.6l-12.1,8.2l17.9-4.3c11.3,9.1,22.1,19.3,22.1,19.3
						S610.7,386.5,593.7,388.4z"/>
				</g>
			</g>
		</g>
		<g>
			<g>
				<g>
					<path class="st3" d="M593.1,339l-17.2-2.2l11.8,6c-5.3,3.6-9.6,6.2-15.8,9.8l-24.3-6.9l17.5,10.8c-7.1,3.8-10.9,5.9-18.4,8.8
						c-10.3-5-21.5-9.8-21.5-9.8l12.5,13.2c-9.1,3.1-18.2,5-26.8,5.1c-1.4,0-0.1,0-1.4,0l-14.2-8l5.2,7.7
						c-35.8-2.1-42.9-16.8-42.9-16.8s0.2-0.7,0.7-1.9c0.4-0.9,1-2.2,1.9-3.7c3.5-6,11.3-16.1,28-27.6l-1.4,12.1l7.7-14.5
						c1.5-0.7,2.9-1.4,4.5-2.1c5-2.2,4.2-2.5,9.9-3.6l-2.1,16.8l10.4-18.6c3.4-0.6,6.9-1.1,10.5-1.4l-5.6,15.4l13.9-15.7
						c6.7-0.4,9.1-0.3,15.9,0l-6,16l14.9-15.1c10.1,0.7,9.7,0.8,18.3,2.3l-6.9,13l13.8-12.2c14.3,2.7,28.6,6.6,28.6,6.6
						S607.3,329.3,593.1,339z"/>
				</g>
			</g>
		</g>
	</g>
	<g>
		<path class="st4" d="M650.1,307.8l-248.5,87.6c-3.2,1.1-6.8-0.6-7.9-3.8L337.3,232c-1.1-3.2,0.6-6.8,3.8-7.9l248.5-87.6
			c3.2-1.1,6.8,0.6,7.9,3.8l56.3,159.6C655,303.1,653.3,306.6,650.1,307.8z"/>
		
			<rect x="347.6" y="213" transform="matrix(0.9431 -0.3325 0.3325 0.9431 -51.2564 174.9534)" class="st5" width="275.9" height="48.5"/>
		<path class="st6" d="M624.5,297.5L594.6,308c-2.8,1-5.9-0.5-6.8-3.3l-5.5-15.7c-1-2.8,0.5-5.9,3.3-6.8l29.9-10.5
			c2.8-1,5.9,0.5,6.8,3.3l5.5,15.7C628.7,293.5,627.3,296.5,624.5,297.5z"/>
		<path class="st0" d="M510.5,295.4l-117,41.3c-1.6,0.6-3.3-0.3-3.9-1.9l-1.1-3.1c-0.6-1.6,0.3-3.3,1.9-3.9l117-41.3
			c1.6-0.6,3.3,0.3,3.9,1.9l1.1,3.1C512.9,293.1,512.1,294.8,510.5,295.4z"/>
		<path class="st0" d="M517.1,314.2l-117,41.3c-1.6,0.6-3.3-0.3-3.9-1.9l-1.1-3.1c-0.6-1.6,0.3-3.3,1.9-3.9l117-41.3
			c1.6-0.6,3.3,0.3,3.9,1.9l1.1,3.1C519.5,311.9,518.7,313.6,517.1,314.2z"/>
		<path class="st0" d="M460.1,355.5l-53.3,18.8c-1.6,0.6-3.3-0.3-3.9-1.9l-1.1-3.1c-0.6-1.6,0.3-3.3,1.9-3.9l53.3-18.8
			c1.6-0.6,3.3,0.3,3.9,1.9l1.1,3.1C462.5,353.2,461.6,354.9,460.1,355.5z"/>
	</g>
	<g>
		<path class="st7" d="M491.5,416.2H228c-3.4,0-6.2-2.8-6.2-6.2V240.7c0-3.4,2.8-6.2,6.2-6.2h263.5c3.4,0,6.2,2.8,6.2,6.2V410
			C497.7,413.4,494.9,416.2,491.5,416.2z"/>
		<g>
			<defs>
				<path id="SVGID_3_" d="M486.2,416.2h-253c-6.4,0-11.5-5.2-11.5-11.5V246c0-6.4,5.2-11.5,11.5-11.5h258.5c3.3,0,6,2.7,6,6v164.2
					C497.7,411,492.6,416.2,486.2,416.2z"/>
			</defs>
			<clipPath id="SVGID_4_">
				<use xlink:href="#SVGID_3_"  style="overflow:visible;"/>
			</clipPath>
			<path class="st8" d="M306.5,234.5c0,0-9.7,52.5,39,62s93.6-0.6,103.1,40.4c9.5,41,49,35.1,49,35.1V222.3L306.5,234.5z"/>
		</g>
		<path class="st6" d="M287.7,306.7h-33.7c-2.9,0-5.2-2.3-5.2-5.2v-33.7c0-2.9,2.3-5.2,5.2-5.2h33.7c2.9,0,5.2,2.3,5.2,5.2v33.7
			C292.9,304.4,290.6,306.7,287.7,306.7z"/>
		<g>
			<g>
				<path class="st9" d="M279.3,296.5h-16.9c-0.4,0-0.7-0.3-0.7-0.7v-22.2c0-0.4,0.3-0.7,0.7-0.7h16.9c0.4,0,0.7,0.3,0.7,0.7v22.2
					C279.9,296.2,279.6,296.5,279.3,296.5z"/>
				<g>
					<line class="st9" x1="279.9" y1="277.1" x2="292.9" y2="277.1"/>
					<line class="st9" x1="279.9" y1="284.7" x2="292.9" y2="284.7"/>
					<line class="st9" x1="279.9" y1="292.3" x2="292.9" y2="292.3"/>
				</g>
				<g>
					<line class="st9" x1="248.7" y1="277.1" x2="261.7" y2="277.1"/>
					<line class="st9" x1="248.7" y1="284.7" x2="261.7" y2="284.7"/>
					<line class="st9" x1="248.7" y1="292.3" x2="261.7" y2="292.3"/>
				</g>
			</g>
		</g>
		<g>
			<path class="st0" d="M292.5,340.9h-43.4c-1,0-1.9-0.9-1.9-1.9v-4.4c0-1,0.9-1.9,1.9-1.9h43.4c1,0,1.9,0.9,1.9,1.9v4.4
				C294.4,340.1,293.5,340.9,292.5,340.9z"/>
			<path class="st0" d="M351.8,340.9h-43.4c-1,0-1.9-0.9-1.9-1.9v-4.4c0-1,0.9-1.9,1.9-1.9h43.4c1,0,1.9,0.9,1.9,1.9v4.4
				C353.7,340.1,352.8,340.9,351.8,340.9z"/>
			<path class="st0" d="M411.1,340.9h-43.4c-1,0-1.9-0.9-1.9-1.9v-4.4c0-1,0.9-1.9,1.9-1.9h43.4c1,0,1.9,0.9,1.9,1.9v4.4
				C413,340.1,412.1,340.9,411.1,340.9z"/>
			<path class="st0" d="M470.4,340.9H427c-1,0-1.9-0.9-1.9-1.9v-4.4c0-1,0.9-1.9,1.9-1.9h43.4c1,0,1.9,0.9,1.9,1.9v4.4
				C472.3,340.1,471.4,340.9,470.4,340.9z"/>
		</g>
		<g>
			<path class="st0" d="M280.1,360.5h-31c-1,0-1.9-0.9-1.9-1.9v-4.4c0-1,0.9-1.9,1.9-1.9h31c1,0,1.9,0.9,1.9,1.9v4.4
				C282,359.7,281.1,360.5,280.1,360.5z"/>
		</g>
		<g>
			<path class="st0" d="M317.4,380.1h-68.3c-1,0-1.9-0.9-1.9-1.9v-4.4c0-1,0.9-1.9,1.9-1.9h68.3c1,0,1.9,0.9,1.9,1.9v4.4
				C319.3,379.3,318.5,380.1,317.4,380.1z"/>
		</g>
		<g>
			<path class="st0" d="M400,380.1h-68.3c-1,0-1.9-0.9-1.9-1.9v-4.4c0-1,0.9-1.9,1.9-1.9H400c1,0,1.9,0.9,1.9,1.9v4.4
				C401.9,379.3,401,380.1,400,380.1z"/>
		</g>
		<g>
			<circle class="st10" cx="453.6" cy="393" r="8.5"/>
			<circle class="st11" cx="465.6" cy="393" r="8.5"/>
		</g>
	</g>
	<g id="coin_635_">
		<g id="coin_638_">
			<g id="coin_650_">
				<path class="st12" d="M279.3,398.3c-6.9,18.7-27.6,28.4-46.4,21.5c-18.7-6.9-28.4-27.6-21.5-46.4c6.9-18.7,27.6-28.4,46.4-21.5
					C276.5,358.8,286.1,379.5,279.3,398.3z"/>
			</g>
			<g id="coin_647_">
				<path class="st13" d="M231.7,423.1c-20.5-7.5-31.1-30.3-23.6-50.9c7.5-20.5,30.3-31.1,50.9-23.6c20.5,7.5,31.1,30.3,23.6,50.9
					C275,420,252.2,430.6,231.7,423.1z M256.6,355.2c-16.9-6.2-35.7,2.5-41.9,19.4c-6.2,16.9,2.5,35.7,19.4,41.9
					c16.9,6.2,35.7-2.5,41.9-19.4C282.2,380.2,273.5,361.4,256.6,355.2z"/>
			</g>
			<path id="coin_641_" class="st14" d="M256.4,390.6c-0.8-1.5-1.9-3-3.2-4.4c-0.8-0.8-1.2-1.2-1.6-1.5l3.6-9.9c0,0,0.1,0.1,0.1,0.1
				c0.4,0.3,0.7,0.6,1,0.9c0.4,0.4,0.6,0.8,0.7,1.2c0,0,0,0.1,0,0.1c-0.1,0-0.1,0-0.2,0.1c-0.8,0.2-1.5,0.8-2.1,1.7l-0.1,0.2
				c-0.5,1.3-0.5,2.6,0.1,3.6c0.5,1.1,1.4,1.8,2.8,2.3c0,0,0,0,0,0c1.5,0.3,3.4,0.1,4.7-2.8c0.1-0.4,0.3-0.9,0.4-1.6
				c0.2-2.1-0.2-4-1.2-5.6c-0.9-1.5-1.9-2.7-3-3.6c-0.6-0.5-1.2-0.9-1.6-1.2l1.6-4.4l-4.2-1.6l-1.4,3.9l-1.9-0.7l1.4-3.9l-4.2-1.6
				l-1.6,4.3c-1.3-0.2-2.4-0.2-3.3-0.1c-1.1,0.1-2.1,0.3-3,0.8c-2.3,1.1-3.9,2.8-4.7,5c-1.1,2.9-0.6,5.7,1.4,8.5
				c1.5,2,2.4,3,3.1,3.5l-4.6,12.5c-0.1,0-0.1-0.1-0.2-0.1c-0.4-0.3-0.9-0.8-1.5-1.5c-0.5-0.6-0.8-1.2-0.8-1.7c0-0.1,0-0.3,0-0.4
				c0.1,0,0.1,0,0.2,0c0.6,0.1,1.2,0,1.7-0.1c1-0.4,1.7-1.1,2.1-2.2c0.2-0.4,0.3-1.1,0.3-2.2c0-0.8-0.2-1.5-0.8-2.2
				c-1-1.2-2.7-1.9-4.2-1.7c-1.3,0.2-3.1,0.9-4.1,3.5c-0.5,1.3-0.6,2.8-0.5,4.4c0.2,1.6,0.7,3.1,1.5,4.4c0.9,1.4,2,2.6,3.2,3.6
				c0.6,0.5,1,0.8,1.2,1l-1.7,4.7l4.2,1.6l1.6-4.5l1.9,0.7l-1.6,4.5l4.2,1.6l1.7-4.7c0.2,0,0.5,0.1,0.8,0.1c1,0.1,2.1,0.2,3.2,0.1
				c1.2,0,2.3-0.3,3.3-0.7c2.6-1.1,4.4-3.1,5.4-5.8C258,395.8,257.8,393.1,256.4,390.6z M242.3,376.4c-0.4-0.8-0.4-1.8,0-2.9
				c0.5-0.9,1.1-1.5,1.8-1.8c0.2-0.1,0.4-0.2,0.6-0.2l-2.1,5.6C242.5,376.9,242.4,376.6,242.3,376.4z M245.5,388.2l-4.1,11.1
				l-1.9-0.7l4.4-11.9L245.5,388.2z M246.3,380.2l3.1-8.6c0.2,0.1,0.6,0.2,1,0.3c0.4,0.1,0.7,0.3,0.9,0.3l-3.4,9.2L246.3,380.2z
				 M250.4,397.2c-0.7,1.7-1.6,2.6-2.7,2.9c-0.8,0.2-1.4,0.3-1.8,0.3l3.2-8.7c0.4,0.5,0.8,1,1.2,1.7
				C250.9,394.5,251,395.8,250.4,397.2z"/>
		</g>
	</g>
	<g id="coin_363_">
		<path class="st15" d="M513.5,271.6c2.4,3-10.2,17.1-28.2,31.5c-17.9,14.4-34.4,23.7-36.8,20.7l-5.5-6.8c3.9-6.1,21-14.4,33.7-24.6
			c12.1-9.8,23.6-19.8,31.1-27.8C507.8,264.5,512.7,270.6,513.5,271.6z"/>
		<g>
			<path class="st13" d="M446.3,313l8.2,10.2c0.3-0.1,0.7-0.3,1.1-0.4l-8.4-10.5C446.8,312.5,446.6,312.7,446.3,313z"/>
			<path class="st13" d="M454.9,307l9.1,11.3c0.3-0.2,0.6-0.4,0.9-0.6l-9.1-11.3C455.5,306.6,455.2,306.8,454.9,307z"/>
			<path class="st13" d="M463.9,301.3l9,11.2c0.3-0.2,0.6-0.4,0.9-0.6l-8.9-11.1C464.5,300.9,464.2,301.1,463.9,301.3z"/>
			<path class="st13" d="M472.6,295.4l8.7,10.8c0.3-0.2,0.6-0.4,0.9-0.7l-8.7-10.8C473.2,294.9,472.9,295.2,472.6,295.4z"/>
			<path class="st13" d="M480.9,288.9l8.6,10.8c0.3-0.2,0.6-0.5,0.8-0.7l-8.6-10.8C481.4,288.4,481.1,288.6,480.9,288.9z"/>
			<path class="st13" d="M488.8,282l8.5,10.6c0.3-0.2,0.5-0.5,0.8-0.7l-8.5-10.6C489.4,281.5,489.1,281.8,488.8,282z"/>
			<path class="st13" d="M496.6,274.9l8.3,10.3c0.3-0.3,0.5-0.5,0.8-0.8l-8.3-10.3C497.2,274.4,496.9,274.7,496.6,274.9z"/>
			<path class="st13" d="M504.2,267.6l7.6,9.5c0.2-0.3,0.4-0.7,0.6-1l-7.4-9.3C504.7,267,504.5,267.3,504.2,267.6z"/>
		</g>
		<path class="st13" d="M474.2,300.6c-15.7,11.9-29.1,19-31.3,16.4c-2.4-3,10.2-17.1,28.2-31.5c17.9-14.4,34.4-23.7,36.8-20.7
			c2.4,3-10.2,17.1-28.2,31.5C477.9,297.7,476.1,299.2,474.2,300.6"/>
		<path class="st12" d="M505,267.1c1.9,2.4-11.7,16.5-26.1,28c-14.4,11.5-30.9,21.7-32.8,19.3c-1.9-2.4,11.6-16.4,25.9-27.9
			C486.4,275,503.1,264.8,505,267.1z"/>
		<path id="coin_364_" class="st14" d="M473.6,288.7c-0.7,1-1.2,1.9-1.6,2.7c-0.2,0.5-0.3,0.7-0.4,0.9l-7.9,6.6c0,0,0,0,0,0
			c0-0.2,0.1-0.3,0.2-0.6c0.1-0.2,0.3-0.5,0.5-0.7c0,0,0,0,0.1-0.1c0,0,0.1,0,0.1,0c0.5-0.2,1.1-0.6,2-1.2l0.2-0.1
			c1.1-0.9,1.9-1.7,2.4-2.4c0.5-0.7,0.6-1.1,0.4-1.4c0,0,0,0,0,0c-0.4-0.1-1.3,0.1-3.7,2.1c-0.3,0.3-0.7,0.6-1.2,1.1
			c-1.5,1.4-2.5,2.6-3.2,3.6c-0.6,0.9-1,1.7-1.2,2.2c-0.1,0.3-0.1,0.5-0.1,0.7l-3.5,2.9l0.7,0.8l3.1-2.6l0.3,0.4l-3.1,2.6l0.7,0.8
			l3.4-2.9c0.4,0,0.8,0,1.2-0.1c0.5-0.1,1-0.3,1.7-0.7c1.6-0.8,3.4-2,5.2-3.5c2.3-1.9,4-3.7,5-5.4c0.7-1.2,1-1.8,1.1-2.1l10-8.3
			c0,0,0,0.1,0,0.1c0,0.2-0.2,0.5-0.4,0.9c-0.2,0.4-0.5,0.7-0.8,1.1c-0.1,0.1-0.2,0.2-0.2,0.2c0,0,0,0-0.1,0c-0.2,0-0.4,0-0.8,0.2
			c-0.6,0.3-1.4,0.8-2.3,1.5c-0.4,0.3-0.8,0.7-1.6,1.4c-0.5,0.5-0.9,1-1.2,1.4c-0.4,0.7-0.2,1.1,0.5,0.9c0.6-0.2,1.8-0.7,3.9-2.5
			c1.1-0.9,2.1-1.8,3.1-2.9c1-1,1.7-2,2.3-2.8c0.6-0.9,0.9-1.6,1.1-2.2c0.1-0.3,0.1-0.5,0.2-0.6l3.7-3.1l-0.7-0.8l-3.6,3l-0.3-0.4
			l3.6-3l-0.7-0.8l-3.8,3.2c-0.1,0-0.1,0-0.2,0c-0.3,0-0.7,0-1.2,0.1c-0.5,0.1-1.1,0.3-1.8,0.6c-1.7,0.8-3.7,2.2-5.9,4
			C476.4,285.4,474.7,287.1,473.6,288.7z M469.8,297.2c-0.4,0.5-1,1.1-1.9,1.9c-0.8,0.6-1.4,1-1.9,1.3c-0.1,0.1-0.3,0.1-0.4,0.2
			l4.5-3.7C470.1,296.9,470,297,469.8,297.2z M476.3,289.7l8.9-7.4l0.3,0.4l-9.6,7.9L476.3,289.7z M470.8,294.9l-6.9,5.7
			c0,0-0.1-0.1-0.2-0.2c-0.1-0.1-0.1-0.1-0.1-0.2l7.4-6.1L470.8,294.9z M480.3,284.1c1.4-1.1,2.3-1.8,3-2c0.4-0.2,0.7-0.2,0.9-0.3
			l-7,5.8c0.2-0.3,0.4-0.6,0.6-1C478.3,285.9,479.1,285.1,480.3,284.1z"/>
		<path id="scintillation_114_" class="st16" d="M458.1,302.9c-3,2.5-3.2,4.1-2.3,5.3c-0.7-0.9-2.9-1.1-5.8,1.2c0,0,4.2-3.2,2.4-5.4
			C454.2,306.3,458.1,302.9,458.1,302.9z"/>
		<path id="scintillation_113_" class="st16" d="M491.4,272.8c-4.9,4.1-5.8,6.1-5,7c-0.6-0.8-3.5-0.1-8.2,3.6c0,0,6.8-5.4,5.2-7.3
			C485,278.1,491.4,272.8,491.4,272.8z"/>
		<path id="scintillation_112_" class="st16" d="M484.3,288.2c-3.1,2.6-3.3,4.3-2.3,5.4c-0.7-0.9-3-1.1-5.9,1.3c0,0,4.3-3.3,2.4-5.6
			C480.3,291.6,484.3,288.2,484.3,288.2z"/>
	</g>
	<g id="coin_355_">
		<g id="coin_356_">
			<g id="coin_361_">
				<path class="st12" d="M493.7,145.3c8.9,17.9,1.6,39.6-16.3,48.4c-17.9,8.9-39.6,1.6-48.4-16.3c-8.9-17.9-1.6-39.6,16.3-48.4
					C463.2,120.1,484.8,127.4,493.7,145.3z"/>
			</g>
			<g id="coin_360_">
				<path class="st13" d="M479,196.8c-19.6,9.7-43.4,1.7-53.1-17.9c-9.7-19.6-1.7-43.4,17.9-53.1c19.6-9.7,43.4-1.7,53.1,17.9
					C506.6,163.3,498.5,187.1,479,196.8z M446.8,132.1c-16.1,8-22.7,27.6-14.7,43.8c8,16.1,27.6,22.7,43.8,14.7
					c16.1-8,22.7-27.6,14.7-43.8C482.6,130.7,463,124.1,446.8,132.1z"/>
			</g>
			<path class="st14" d="M452,158.2l-2.8,11.4c-0.2,0.5-0.8,1.3-2,1c0,0.1-3.2-0.8-3.2-0.8l-2.2,5l5.6,1.4c0.6,0.2,1.2,0.3,1.8,0.5
				l0,0c0.4,0.1,0.8,0.2,1.2,0.3l-1.8,7.2l4.3,1.1l1.8-7.2c1.2,0.3,2.3,0.6,3.5,0.9l-1.8,7.1l4.3,1.1l1.8-7.2
				c7.4,1.4,13,0.8,15.3-5.9c1.9-5.4-0.1-8.5-4-10.6c2.8-0.7,5-2.5,5.5-6.4c0.8-5.3-3.2-8.1-8.7-10l1.8-7.2l-4.3-1.1l-1.7,7
				c-1.1-0.3-2.3-0.6-3.5-0.8l1.7-7l-4.3-1.1l-1.8,7.2c-0.9-0.2-1.9-0.4-2.8-0.7l-6-1.5l-1.2,4.7c0,0,3.2,0.7,3.2,0.8
				c1.8,0.4,2.1,1.6,2,2.5L452,158.2L452,158.2z M469.7,171.3c-1.2,5-9,2.9-12.5,2c-0.3-0.1-0.6-0.2-0.8-0.2l2.4-9.6
				c0.3,0.1,0.6,0.2,1.1,0.2l0,0C463.5,164.5,471,166.2,469.7,171.3z M471,157.2c-1.1,4.5-7.6,2.8-10.5,2c-0.3-0.1-0.5-0.1-0.7-0.2
				l2.2-8.7c0.2,0.1,0.6,0.1,0.9,0.2C465.9,151.2,472.2,152.6,471,157.2z"/>
		</g>
	</g>
	<g>
		<g id="coin_324_">
			<path class="st15" d="M522,428.7c0,3.8-18.7,6.9-41.7,6.9c-23,0-41.7-3.1-41.7-6.9v-8.8c6.9-2.3,25.4,1.9,41.7,1.9
				c15.6,0,30.8-0.6,41.7-2.2C522,419.7,522,427.5,522,428.7z"/>
			<g>
				<path class="st13" d="M443.7,418.9V432c0.3,0.1,0.7,0.2,1.1,0.3v-13.4C444.5,418.9,444.1,418.9,443.7,418.9z"/>
				<path class="st13" d="M454.2,419.7v14.5c0.4,0,0.7,0.1,1.1,0.1v-14.5C455,419.7,454.6,419.7,454.2,419.7z"/>
				<path class="st13" d="M464.8,420.8v14.3c0.4,0,0.7,0,1.1,0.1v-14.3C465.5,420.9,465.1,420.9,464.8,420.8z"/>
				<path class="st13" d="M475.3,421.7v13.9c0.4,0,0.7,0,1.1,0v-13.9C476,421.7,475.6,421.7,475.3,421.7z"/>
				<path class="st13" d="M485.8,421.8v13.8c0.4,0,0.7,0,1.1,0v-13.8C486.5,421.8,486.2,421.8,485.8,421.8z"/>
				<path class="st13" d="M496.3,421.5v13.7c0.4,0,0.7-0.1,1.1-0.1v-13.6C497,421.4,496.7,421.4,496.3,421.5z"/>
				<path class="st13" d="M506.8,420.8v13.3c0.4-0.1,0.7-0.1,1.1-0.2v-13.2C507.5,420.8,507.2,420.8,506.8,420.8z"/>
				<path class="st13" d="M517.3,419.8v12.1c0.4-0.1,0.8-0.2,1.1-0.4v-11.9C518.1,419.7,517.7,419.7,517.3,419.8z"/>
			</g>
			<path class="st13" d="M522,419.9c0,3.8-18.7,6.9-41.7,6.9c-23,0-41.7-3.1-41.7-6.9c0-3.8,18.7-6.9,41.7-6.9
				C503.4,413,522,416.1,522,419.9z"/>
			<path class="st12" d="M518.2,419.9c0,3.1-19.4,5.5-37.9,5.5c-18.4,0-37.7-2.5-37.7-5.5c0-3.1,19.3-5.5,37.7-5.5
				C498.8,414.4,518.2,416.9,518.2,419.9z"/>
			<path id="coin_325_" class="st14" d="M480.2,417.1c-1.1,0.3-2.1,0.7-2.9,1.1c-0.4,0.2-0.7,0.4-0.9,0.5l-10.3,0.2c0,0,0,0,0,0
				c0.1-0.1,0.3-0.2,0.5-0.3c0.2-0.1,0.5-0.2,0.9-0.3c0,0,0.1,0,0.1,0c0,0,0.1,0,0.1,0c0.5,0.1,1.3,0.2,2.3,0.3l0.2,0
				c1.4,0,2.5-0.1,3.3-0.4c0.8-0.2,1.2-0.5,1.2-0.8c0,0,0,0,0,0c-0.2-0.3-1.1-0.7-4.2-0.7c-0.4,0-0.9,0-1.6,0.1
				c-2,0.2-3.6,0.4-4.7,0.8c-1.1,0.3-1.9,0.7-2.3,1c-0.3,0.2-0.4,0.3-0.6,0.5l-4.5,0.1l0,1l4-0.1l0,0.5l-4,0.1l0,1l4.5-0.1
				c0.3,0.3,0.6,0.5,1,0.7c0.4,0.2,1,0.4,1.8,0.6c1.8,0.4,3.9,0.5,6.2,0.5c3,0,5.5-0.4,7.3-1.1c1.4-0.5,1.9-0.8,2.2-1l13-0.2
				c0,0,0,0-0.1,0.1c-0.1,0.1-0.4,0.3-0.9,0.4c-0.4,0.2-0.8,0.3-1.3,0.3c-0.1,0-0.2,0-0.3,0c0,0,0,0,0,0c-0.1-0.1-0.4-0.3-0.7-0.3
				c-0.7-0.2-1.6-0.2-2.7-0.2c-0.5,0-1.1,0-2.1,0.1c-0.7,0.1-1.3,0.2-1.8,0.4c-0.8,0.3-0.8,0.7-0.2,1c0.6,0.3,1.9,0.6,4.6,0.5
				c1.4,0,2.8-0.1,4.2-0.3c1.4-0.2,2.6-0.4,3.5-0.7c1-0.3,1.7-0.7,2.2-1c0.2-0.2,0.4-0.3,0.5-0.4l4.8-0.1l0-1l-4.6,0.1l0-0.5
				l4.6-0.1l0-1l-4.9,0.1c0,0-0.1-0.1-0.2-0.2c-0.2-0.2-0.6-0.5-1-0.7c-0.4-0.2-1-0.5-1.8-0.6c-1.9-0.4-4.3-0.6-7.1-0.6
				C484.5,416.3,482,416.6,480.2,417.1z M472,421.4c-0.6,0.2-1.5,0.2-2.7,0.3c-1,0-1.7-0.1-2.3-0.2c-0.1,0-0.3-0.1-0.4-0.1l5.8-0.1
				C472.3,421.3,472.2,421.3,472,421.4z M481.7,419.6l11.6-0.2l0,0.5l-12.4,0.2L481.7,419.6z M474.2,420.2l-8.9,0.1
				c0-0.1,0-0.1,0-0.2c0-0.1,0-0.2,0-0.2l9.6-0.1L474.2,420.2z M488.4,417.7c1.8,0,2.9,0.1,3.5,0.3c0.4,0.1,0.7,0.3,0.9,0.4
				l-9.1,0.1c0.3-0.1,0.7-0.3,1.2-0.4C485.7,417.9,486.8,417.7,488.4,417.7z"/>
			<path id="scintillation_87_" class="st16" d="M459.2,418.5c-3.9,0.1-5.1,1.2-5.1,2.7c0-1.2-1.6-2.7-5.3-2.6c0,0,5.3,0.1,5.2-2.7
				C454.1,418.7,459.2,418.5,459.2,418.5z"/>
			<path id="scintillation_86_" class="st16" d="M504.1,415.8c-6.4,0.1-8.3,1.1-8.3,2.3c0-1-2.6-2.3-8.6-2.3c0,0,8.6,0.1,8.6-2.4
				C495.7,416,504.1,415.8,504.1,415.8z"/>
			<path id="scintillation_85_" class="st16" d="M488.8,423.4c-4,0.1-5.2,1.3-5.2,2.8c0-1.2-1.7-2.7-5.4-2.7c0,0,5.4,0.1,5.4-2.8
				C483.6,423.6,488.8,423.4,488.8,423.4z"/>
		</g>
		<g id="coin_321_">
			<path class="st15" d="M530.3,420.2c0,3.8-18.7,6.9-41.7,6.9c-23,0-41.7-3.1-41.7-6.9v-8.8c6.9-2.3,25.4,1.9,41.7,1.9
				c15.6,0,30.8-0.6,41.7-2.2C530.3,411.1,530.3,419,530.3,420.2z"/>
			<g>
				<path class="st13" d="M452,410.4v13.1c0.3,0.1,0.7,0.2,1.1,0.3v-13.4C452.7,410.4,452.3,410.4,452,410.4z"/>
				<path class="st13" d="M462.5,411.1v14.5c0.4,0.1,0.7,0.1,1.1,0.1v-14.5C463.2,411.2,462.9,411.2,462.5,411.1z"/>
				<path class="st13" d="M473,412.3v14.3c0.4,0,0.7,0,1.1,0.1v-14.3C473.7,412.4,473.4,412.3,473,412.3z"/>
				<path class="st13" d="M483.5,413.2v13.9c0.4,0,0.7,0,1.1,0v-13.9C484.3,413.2,483.9,413.2,483.5,413.2z"/>
				<path class="st13" d="M494,413.2V427c0.4,0,0.7,0,1.1,0v-13.8C494.8,413.2,494.4,413.2,494,413.2z"/>
				<path class="st13" d="M504.5,412.9v13.7c0.4,0,0.7-0.1,1.1-0.1v-13.6C505.3,412.9,504.9,412.9,504.5,412.9z"/>
				<path class="st13" d="M515.1,412.3v13.3c0.4-0.1,0.7-0.1,1.1-0.2v-13.2C515.8,412.2,515.4,412.3,515.1,412.3z"/>
				<path class="st13" d="M525.6,411.3v12.1c0.4-0.1,0.8-0.2,1.1-0.4v-11.9C526.3,411.2,525.9,411.2,525.6,411.3z"/>
			</g>
			<path class="st13" d="M530.3,411.4c0,3.8-18.7,6.9-41.7,6.9c-23,0-41.7-3.1-41.7-6.9c0-3.8,18.7-6.9,41.7-6.9
				C511.6,404.5,530.3,407.6,530.3,411.4z"/>
			<path class="st12" d="M526.4,411.4c0,3.1-19.4,5.5-37.9,5.5c-18.4,0-37.7-2.5-37.7-5.5s19.3-5.5,37.7-5.5
				C507,405.9,526.4,408.4,526.4,411.4z"/>
			<path id="coin_322_" class="st14" d="M488.5,408.5c-1.1,0.3-2.1,0.7-2.9,1.1c-0.4,0.2-0.7,0.4-0.9,0.5l-10.3,0.2c0,0,0,0,0,0
				c0.1-0.1,0.3-0.2,0.5-0.3c0.2-0.1,0.5-0.2,0.9-0.3c0,0,0.1,0,0.1,0c0,0,0.1,0,0.1,0c0.5,0.1,1.3,0.2,2.3,0.3l0.2,0
				c1.4,0,2.5-0.1,3.3-0.4c0.8-0.2,1.2-0.5,1.2-0.8c0,0,0,0,0,0c-0.2-0.3-1.1-0.7-4.2-0.7c-0.4,0-0.9,0-1.6,0.1
				c-2,0.2-3.6,0.4-4.7,0.8c-1.1,0.3-1.9,0.7-2.3,1c-0.3,0.2-0.4,0.3-0.6,0.5l-4.5,0.1l0,1l4-0.1l0,0.5l-4,0.1l0,1l4.5-0.1
				c0.3,0.3,0.6,0.5,1,0.7c0.4,0.2,1,0.4,1.8,0.6c1.8,0.4,3.9,0.5,6.2,0.5c3,0,5.5-0.4,7.3-1.1c1.4-0.5,1.9-0.8,2.2-1l13-0.2
				c0,0,0,0-0.1,0.1c-0.1,0.1-0.4,0.3-0.9,0.4c-0.4,0.2-0.8,0.3-1.3,0.3c-0.1,0-0.2,0-0.3,0c0,0,0,0,0,0c-0.1-0.1-0.4-0.3-0.7-0.3
				c-0.7-0.2-1.6-0.2-2.7-0.2c-0.5,0-1.1,0-2.1,0.1c-0.7,0.1-1.3,0.2-1.8,0.4c-0.8,0.3-0.8,0.7-0.2,1c0.6,0.3,1.9,0.6,4.6,0.5
				c1.4,0,2.8-0.1,4.2-0.3c1.4-0.2,2.6-0.4,3.5-0.7c1-0.3,1.7-0.7,2.3-1c0.2-0.2,0.4-0.3,0.5-0.4l4.8-0.1l0-1l-4.6,0.1l0-0.5
				l4.6-0.1l0-1l-4.9,0.1c0,0-0.1-0.1-0.2-0.2c-0.2-0.2-0.6-0.5-1-0.7c-0.4-0.2-1-0.5-1.8-0.6c-1.9-0.4-4.3-0.6-7.1-0.6
				C492.7,407.7,490.3,408,488.5,408.5z M480.2,412.8c-0.6,0.2-1.5,0.2-2.7,0.3c-1,0-1.7-0.1-2.3-0.2c-0.1,0-0.3-0.1-0.4-0.1
				l5.8-0.1C480.6,412.7,480.4,412.8,480.2,412.8z M490,411.1l11.6-0.2l0,0.5l-12.4,0.2L490,411.1z M482.4,411.6l-8.9,0.1
				c0-0.1,0-0.1,0-0.2c0-0.1,0-0.2,0-0.2l9.6-0.1L482.4,411.6z M496.6,409.2c1.8,0,2.9,0.1,3.5,0.3c0.4,0.1,0.7,0.3,0.9,0.4L492,410
				c0.3-0.1,0.7-0.3,1.2-0.4C493.9,409.3,495.1,409.2,496.6,409.2z"/>
			<path id="scintillation_84_" class="st16" d="M467.5,410c-3.9,0.1-5.1,1.2-5.1,2.7c0-1.2-1.6-2.7-5.3-2.6c0,0,5.3,0.1,5.2-2.8
				C462.4,410.1,467.5,410,467.5,410z"/>
			<path id="scintillation_83_" class="st16" d="M512.3,407.3c-6.4,0.1-8.3,1.1-8.3,2.3c0-1-2.6-2.3-8.6-2.3c0,0,8.6,0.1,8.6-2.4
				C504,407.5,512.3,407.3,512.3,407.3z"/>
			<path id="scintillation_82_" class="st16" d="M497.1,414.9c-4,0.1-5.2,1.3-5.2,2.8c0-1.2-1.7-2.7-5.4-2.7c0,0,5.4,0.1,5.4-2.8
				C491.9,415,497.1,414.9,497.1,414.9z"/>
		</g>
		<g id="coin_318_">
			<path class="st15" d="M522.6,407.5c0,3.8-18.7,6.9-41.7,6.9c-23,0-41.7-3.1-41.7-6.9v-8.8c6.9-2.3,25.4,1.9,41.7,1.9
				c15.6,0,30.8-0.6,41.7-2.2C522.6,398.4,522.6,406.3,522.6,407.5z"/>
			<g>
				<path class="st13" d="M444.3,397.7v13.1c0.3,0.1,0.7,0.2,1.1,0.3v-13.4C445,397.7,444.6,397.7,444.3,397.7z"/>
				<path class="st13" d="M454.8,398.4v14.5c0.4,0,0.7,0.1,1.1,0.1v-14.5C455.5,398.5,455.2,398.4,454.8,398.4z"/>
				<path class="st13" d="M465.3,399.6v14.3c0.4,0,0.7,0,1.1,0.1v-14.3C466,399.7,465.7,399.6,465.3,399.6z"/>
				<path class="st13" d="M475.8,400.4v13.9c0.4,0,0.7,0,1.1,0v-13.9C476.6,400.5,476.2,400.5,475.8,400.4z"/>
				<path class="st13" d="M486.3,400.5v13.8c0.4,0,0.7,0,1.1,0v-13.8C487.1,400.5,486.7,400.5,486.3,400.5z"/>
				<path class="st13" d="M496.8,400.2v13.7c0.4,0,0.7-0.1,1.1-0.1v-13.6C497.6,400.2,497.2,400.2,496.8,400.2z"/>
				<path class="st13" d="M507.4,399.6v13.3c0.4-0.1,0.7-0.1,1.1-0.2v-13.2C508.1,399.5,507.7,399.5,507.4,399.6z"/>
				<path class="st13" d="M517.9,398.5v12.1c0.4-0.1,0.8-0.2,1.1-0.4v-11.9C518.6,398.5,518.2,398.5,517.9,398.5z"/>
			</g>
			<path class="st13" d="M522.6,398.7c0,3.8-18.7,6.9-41.7,6.9c-23,0-41.7-3.1-41.7-6.9c0-3.8,18.7-6.9,41.7-6.9
				C503.9,391.8,522.6,394.9,522.6,398.7z"/>
			<path class="st12" d="M518.7,398.7c0,3.1-19.4,5.5-37.9,5.5s-37.7-2.5-37.7-5.5c0-3.1,19.3-5.5,37.7-5.5S518.7,395.7,518.7,398.7
				z"/>
			<path id="coin_319_" class="st14" d="M480.8,395.8c-1.1,0.3-2.1,0.7-2.9,1.1c-0.4,0.2-0.7,0.4-0.9,0.5l-10.3,0.2c0,0,0,0,0,0
				c0.1-0.1,0.3-0.2,0.5-0.3c0.2-0.1,0.5-0.2,0.9-0.3c0,0,0.1,0,0.1,0c0,0,0.1,0,0.1,0c0.5,0.1,1.3,0.2,2.3,0.3l0.2,0
				c1.4,0,2.5-0.1,3.3-0.4c0.8-0.2,1.2-0.5,1.2-0.8c0,0,0,0,0,0c-0.2-0.3-1.1-0.7-4.2-0.7c-0.4,0-0.9,0-1.6,0.1
				c-2,0.2-3.6,0.4-4.7,0.8c-1.1,0.3-1.9,0.7-2.3,1c-0.3,0.2-0.4,0.3-0.6,0.5l-4.5,0.1l0,1l4-0.1l0,0.5l-4,0.1l0,1l4.5-0.1
				c0.3,0.3,0.6,0.5,1,0.7c0.4,0.2,1,0.4,1.8,0.6c1.8,0.4,3.9,0.6,6.2,0.5c3,0,5.5-0.4,7.3-1.1c1.4-0.5,1.9-0.8,2.2-1l13-0.2
				c0,0,0,0-0.1,0.1c-0.1,0.1-0.4,0.3-0.9,0.4c-0.4,0.2-0.8,0.3-1.3,0.3c-0.1,0-0.2,0-0.3,0c0,0,0,0,0,0c-0.1-0.1-0.4-0.3-0.7-0.3
				c-0.7-0.2-1.6-0.2-2.7-0.2c-0.5,0-1.1,0-2.1,0.1c-0.7,0.1-1.3,0.2-1.8,0.4c-0.8,0.3-0.8,0.7-0.2,1c0.6,0.3,1.9,0.6,4.6,0.5
				c1.4,0,2.8-0.1,4.2-0.3c1.4-0.2,2.6-0.4,3.5-0.7c1-0.3,1.7-0.7,2.2-1c0.2-0.2,0.4-0.3,0.5-0.4l4.8-0.1l0-1l-4.6,0.1l0-0.5
				l4.6-0.1l0-1l-4.9,0.1c0,0-0.1-0.1-0.2-0.2c-0.2-0.2-0.5-0.5-1-0.7c-0.4-0.2-1-0.5-1.8-0.6c-1.9-0.4-4.3-0.6-7.1-0.6
				C485,395,482.6,395.3,480.8,395.8z M472.5,400.1c-0.6,0.2-1.5,0.2-2.7,0.3c-1,0-1.7-0.1-2.3-0.2c-0.1,0-0.3-0.1-0.4-0.1l5.8-0.1
				C472.9,400,472.7,400.1,472.5,400.1z M482.3,398.3l11.6-0.2l0,0.5l-12.4,0.2L482.3,398.3z M474.7,398.9l-8.9,0.1
				c0-0.1,0-0.1,0-0.2c0-0.1,0-0.2,0-0.2l9.6-0.2L474.7,398.9z M488.9,396.5c1.8,0,2.9,0.1,3.6,0.3c0.4,0.1,0.7,0.3,0.9,0.4
				l-9.1,0.1c0.3-0.1,0.7-0.3,1.2-0.4C486.2,396.6,487.4,396.5,488.9,396.5z"/>
			<path id="scintillation_81_" class="st16" d="M459.8,397.3c-3.9,0.1-5.1,1.2-5.1,2.7c0-1.2-1.6-2.7-5.3-2.6c0,0,5.3,0.1,5.2-2.7
				C454.7,397.4,459.8,397.3,459.8,397.3z"/>
			<path id="scintillation_80_" class="st16" d="M504.6,394.6c-6.4,0.1-8.3,1.1-8.3,2.3c0-1-2.6-2.3-8.6-2.3c0,0,8.6,0.1,8.6-2.4
				C496.3,394.8,504.6,394.6,504.6,394.6z"/>
			<path id="scintillation_79_" class="st16" d="M489.4,402.2c-4,0.1-5.2,1.3-5.2,2.8c0-1.2-1.7-2.7-5.4-2.7c0,0,5.4,0.1,5.4-2.8
				C484.2,402.3,489.4,402.2,489.4,402.2z"/>
		</g>
		<g id="coin_315_">
			<path class="st15" d="M529.1,399.4c0,3.8-18.7,6.9-41.7,6.9c-23,0-41.7-3.1-41.7-6.9v-8.8c6.9-2.3,25.4,1.9,41.7,1.9
				c15.6,0,30.8-0.6,41.7-2.2C529.1,390.3,529.1,398.1,529.1,399.4z"/>
			<g>
				<path class="st13" d="M450.8,389.6v13.1c0.3,0.1,0.7,0.2,1.1,0.3v-13.4C451.5,389.6,451.2,389.6,450.8,389.6z"/>
				<path class="st13" d="M461.3,390.3v14.5c0.4,0,0.7,0.1,1.1,0.1v-14.5C462.1,390.4,461.7,390.3,461.3,390.3z"/>
				<path class="st13" d="M471.9,391.5v14.3c0.4,0,0.7,0,1.1,0.1v-14.3C472.6,391.5,472.2,391.5,471.9,391.5z"/>
				<path class="st13" d="M482.4,392.3v13.9c0.4,0,0.7,0,1.1,0v-13.9C483.1,392.4,482.7,392.3,482.4,392.3z"/>
				<path class="st13" d="M492.9,392.4v13.8c0.4,0,0.7,0,1.1,0v-13.8C493.6,392.4,493.2,392.4,492.9,392.4z"/>
				<path class="st13" d="M503.4,392.1v13.7c0.4,0,0.7-0.1,1.1-0.1V392C504.1,392.1,503.8,392.1,503.4,392.1z"/>
				<path class="st13" d="M513.9,391.4v13.2c0.4-0.1,0.7-0.1,1.1-0.2v-13.2C514.6,391.4,514.3,391.4,513.9,391.4z"/>
				<path class="st13" d="M524.4,390.4v12.1c0.4-0.1,0.8-0.2,1.1-0.4v-11.9C525.1,390.3,524.8,390.4,524.4,390.4z"/>
			</g>
			<path class="st13" d="M529.1,390.6c0,3.8-18.7,6.9-41.7,6.9c-23,0-41.7-3.1-41.7-6.9c0-3.8,18.7-6.9,41.7-6.9
				C510.5,383.7,529.1,386.8,529.1,390.6z"/>
			<path class="st12" d="M525.3,390.6c0,3.1-19.4,5.5-37.9,5.5c-18.4,0-37.7-2.5-37.7-5.5c0-3.1,19.3-5.5,37.7-5.5
				C505.9,385.1,525.3,387.5,525.3,390.6z"/>
			<path id="coin_316_" class="st14" d="M487.3,387.7c-1.1,0.3-2.1,0.7-2.9,1.1c-0.4,0.2-0.7,0.4-0.9,0.5l-10.3,0.2c0,0,0,0,0,0
				c0.1-0.1,0.3-0.2,0.5-0.3c0.2-0.1,0.5-0.2,0.9-0.3c0,0,0.1,0,0.1,0c0,0,0.1,0,0.1,0c0.5,0.2,1.3,0.2,2.3,0.3l0.2,0
				c1.4,0,2.5-0.1,3.3-0.4c0.8-0.2,1.2-0.5,1.2-0.8c0,0,0,0,0,0c-0.2-0.3-1.1-0.7-4.2-0.7c-0.4,0-0.9,0-1.6,0.1
				c-2,0.2-3.6,0.4-4.7,0.8c-1.1,0.3-1.9,0.7-2.3,1c-0.3,0.2-0.4,0.3-0.6,0.5l-4.5,0.1l0,1l4-0.1l0,0.5l-4,0.1l0,1l4.5-0.1
				c0.3,0.3,0.6,0.5,1,0.7c0.4,0.2,1,0.4,1.8,0.6c1.8,0.4,3.9,0.5,6.2,0.5c3,0,5.5-0.4,7.3-1.1c1.4-0.5,1.9-0.8,2.2-1l13-0.2
				c0,0,0,0-0.1,0.1c-0.1,0.1-0.4,0.3-0.9,0.4c-0.4,0.2-0.8,0.3-1.3,0.3c-0.1,0-0.2,0-0.3,0c0,0,0,0,0,0c-0.1-0.1-0.4-0.3-0.7-0.3
				c-0.7-0.2-1.6-0.2-2.7-0.2c-0.5,0-1.1,0-2.1,0.1c-0.7,0.1-1.3,0.2-1.8,0.4c-0.8,0.3-0.8,0.7-0.2,1c0.6,0.3,1.9,0.6,4.6,0.5
				c1.4,0,2.8-0.1,4.2-0.3c1.4-0.2,2.6-0.4,3.5-0.7c1-0.3,1.7-0.7,2.2-1c0.2-0.2,0.4-0.3,0.5-0.4l4.8-0.1l0-1l-4.6,0.1l0-0.5
				l4.6-0.1l0-1l-4.9,0.1c0,0-0.1-0.1-0.2-0.2c-0.2-0.2-0.5-0.5-1-0.7c-0.4-0.2-1-0.5-1.8-0.6c-1.9-0.4-4.3-0.6-7.1-0.6
				C491.6,386.9,489.1,387.2,487.3,387.7z M479.1,392c-0.6,0.2-1.5,0.2-2.7,0.3c-1,0-1.7-0.1-2.3-0.2c-0.1,0-0.3-0.1-0.4-0.1
				l5.8-0.1C479.4,391.9,479.3,391.9,479.1,392z M488.8,390.2l11.6-0.2l0,0.5l-12.4,0.2L488.8,390.2z M481.2,390.8l-8.9,0.1
				c0-0.1,0-0.1,0-0.2c0-0.1,0-0.2,0-0.2l9.6-0.1L481.2,390.8z M495.4,388.3c1.8,0,2.9,0.1,3.6,0.3c0.4,0.1,0.7,0.3,0.9,0.4
				l-9.1,0.1c0.3-0.1,0.7-0.3,1.2-0.4C492.8,388.5,493.9,388.4,495.4,388.3z"/>
			<path id="scintillation_78_" class="st16" d="M466.3,389.1c-3.9,0.1-5.1,1.2-5.1,2.7c0-1.2-1.6-2.7-5.3-2.6c0,0,5.3,0.1,5.2-2.7
				C461.2,389.3,466.3,389.1,466.3,389.1z"/>
			<path id="scintillation_77_" class="st16" d="M511.2,386.5c-6.4,0.1-8.3,1.1-8.3,2.3c0-1-2.6-2.3-8.6-2.3c0,0,8.6,0.1,8.6-2.4
				C502.8,386.6,511.2,386.5,511.2,386.5z"/>
			<path id="scintillation_76_" class="st16" d="M495.9,394c-4,0.1-5.2,1.3-5.2,2.8c0-1.2-1.7-2.7-5.4-2.7c0,0,5.4,0.1,5.4-2.8
				C490.7,394.2,495.9,394,495.9,394z"/>
		</g>
		<g id="coin_312_">
			<path class="st15" d="M521.3,388.1c0,3.8-18.7,6.9-41.7,6.9c-23,0-41.7-3.1-41.7-6.9v-8.8c6.9-2.3,25.4,1.9,41.7,1.9
				c15.6,0,30.8-0.6,41.7-2.2C521.3,379,521.3,386.8,521.3,388.1z"/>
			<g>
				<path class="st13" d="M443,378.3v13.1c0.3,0.1,0.7,0.2,1.1,0.3v-13.4C443.7,378.3,443.4,378.3,443,378.3z"/>
				<path class="st13" d="M453.5,379v14.5c0.4,0.1,0.7,0.1,1.1,0.1v-14.5C454.3,379.1,453.9,379,453.5,379z"/>
				<path class="st13" d="M464,380.2v14.3c0.4,0,0.7,0.1,1.1,0.1v-14.3C464.8,380.2,464.4,380.2,464,380.2z"/>
				<path class="st13" d="M474.6,381v13.9c0.4,0,0.7,0,1.1,0v-13.9C475.3,381.1,474.9,381,474.6,381z"/>
				<path class="st13" d="M485.1,381.1v13.8c0.4,0,0.7,0,1.1,0v-13.8C485.8,381.1,485.4,381.1,485.1,381.1z"/>
				<path class="st13" d="M495.6,380.8v13.7c0.4,0,0.7-0.1,1.1-0.1v-13.6C496.3,380.8,495.9,380.8,495.6,380.8z"/>
				<path class="st13" d="M506.1,380.1v13.2c0.4-0.1,0.7-0.1,1.1-0.2v-13.2C506.8,380.1,506.5,380.1,506.1,380.1z"/>
				<path class="st13" d="M516.6,379.1v12.1c0.4-0.1,0.8-0.2,1.1-0.4V379C517.3,379,517,379.1,516.6,379.1z"/>
			</g>
			<path class="st13" d="M521.3,379.3c0,3.8-18.7,6.9-41.7,6.9c-23,0-41.7-3.1-41.7-6.9c0-3.8,18.7-6.9,41.7-6.9
				C502.6,372.4,521.3,375.5,521.3,379.3z"/>
			<path class="st12" d="M517.5,379.3c0,3.1-19.4,5.5-37.9,5.5c-18.4,0-37.7-2.5-37.7-5.5c0-3.1,19.3-5.5,37.7-5.5
				C498,373.8,517.5,376.2,517.5,379.3z"/>
			<path id="coin_313_" class="st14" d="M479.5,376.4c-1.1,0.3-2.1,0.7-2.9,1.1c-0.4,0.2-0.7,0.4-0.9,0.5l-10.3,0.2c0,0,0,0,0,0
				c0.1-0.1,0.3-0.2,0.5-0.3c0.2-0.1,0.5-0.2,0.9-0.3c0,0,0.1,0,0.1,0c0,0,0.1,0,0.1,0c0.5,0.1,1.3,0.2,2.3,0.3l0.2,0
				c1.4,0,2.5-0.1,3.3-0.4c0.8-0.2,1.2-0.5,1.2-0.8c0,0,0,0,0,0c-0.2-0.3-1.1-0.7-4.2-0.7c-0.4,0-0.9,0-1.6,0.1
				c-2,0.2-3.6,0.4-4.7,0.8c-1.1,0.3-1.9,0.7-2.3,1c-0.3,0.2-0.4,0.3-0.6,0.5l-4.5,0.1l0,1l4-0.1l0,0.5l-4,0.1l0,1l4.5-0.1
				c0.3,0.3,0.6,0.5,1,0.7c0.4,0.2,1,0.4,1.8,0.6c1.8,0.4,3.9,0.5,6.2,0.5c3,0,5.5-0.4,7.3-1.1c1.4-0.5,1.9-0.8,2.2-1l13-0.2
				c0,0,0,0-0.1,0.1c-0.1,0.1-0.4,0.3-0.9,0.4c-0.4,0.2-0.8,0.3-1.3,0.3c-0.1,0-0.2,0-0.3,0c0,0,0,0,0,0c-0.1-0.1-0.4-0.3-0.7-0.3
				c-0.7-0.2-1.6-0.2-2.7-0.2c-0.5,0-1.1,0-2.1,0.1c-0.7,0.1-1.3,0.2-1.8,0.4c-0.8,0.3-0.8,0.7-0.2,1c0.6,0.3,1.9,0.6,4.6,0.5
				c1.4,0,2.8-0.1,4.2-0.3c1.4-0.2,2.6-0.4,3.5-0.7c1-0.3,1.7-0.7,2.2-1c0.2-0.2,0.4-0.3,0.5-0.4l4.8-0.1l0-1l-4.6,0.1l0-0.5
				l4.6-0.1l0-1l-4.9,0.1c0,0-0.1-0.1-0.2-0.2c-0.2-0.2-0.5-0.5-1-0.7c-0.4-0.3-1-0.5-1.8-0.6c-1.9-0.4-4.3-0.6-7.1-0.6
				C483.7,375.6,481.3,375.9,479.5,376.4z M471.2,380.7c-0.6,0.2-1.5,0.2-2.7,0.3c-1,0-1.7-0.1-2.3-0.2c-0.1,0-0.3-0.1-0.4-0.1
				l5.8-0.1C471.6,380.6,471.5,380.7,471.2,380.7z M481,378.9l11.6-0.2l0,0.5l-12.4,0.2L481,378.9z M473.4,379.5l-8.9,0.1
				c0-0.1,0-0.1,0-0.2c0-0.1,0-0.2,0-0.2l9.6-0.2L473.4,379.5z M487.6,377c1.8,0,2.9,0.1,3.6,0.3c0.4,0.1,0.7,0.3,0.9,0.4l-9.1,0.1
				c0.3-0.1,0.7-0.3,1.2-0.4C485,377.2,486.1,377.1,487.6,377z"/>
			<path id="scintillation_75_" class="st16" d="M458.5,377.9c-3.9,0.1-5.1,1.2-5.1,2.7c0-1.2-1.6-2.7-5.3-2.6c0,0,5.3,0.1,5.3-2.8
				C453.4,378,458.5,377.9,458.5,377.9z"/>
			<path id="scintillation_74_" class="st16" d="M503.3,375.2c-6.4,0.1-8.3,1.1-8.3,2.3c0-1-2.6-2.3-8.6-2.3c0,0,8.6,0.1,8.6-2.4
				C495,375.3,503.3,375.2,503.3,375.2z"/>
			<path id="scintillation_73_" class="st16" d="M488.1,382.7c-4,0.1-5.2,1.3-5.2,2.8c0-1.2-1.7-2.7-5.4-2.7c0,0,5.4,0.1,5.4-2.8
				C482.9,382.9,488.1,382.7,488.1,382.7z"/>
		</g>
		<g id="coin_309_">
			<path class="st15" d="M527.5,379.5c0,3.8-18.7,6.9-41.7,6.9c-23,0-41.7-3.1-41.7-6.9v-8.8c6.9-2.3,25.4,1.9,41.7,1.9
				c15.6,0,30.8-0.6,41.7-2.2C527.5,370.5,527.5,378.3,527.5,379.5z"/>
			<g>
				<path class="st13" d="M449.2,369.7v13.1c0.3,0.1,0.7,0.2,1.1,0.3v-13.4C449.9,369.7,449.5,369.7,449.2,369.7z"/>
				<path class="st13" d="M459.7,370.5v14.5c0.4,0,0.7,0.1,1.1,0.1v-14.5C460.4,370.5,460.1,370.5,459.7,370.5z"/>
				<path class="st13" d="M470.2,371.6v14.3c0.4,0,0.7,0.1,1.1,0.1v-14.3C470.9,371.7,470.6,371.7,470.2,371.6z"/>
				<path class="st13" d="M480.7,372.5v13.9c0.4,0,0.7,0,1.1,0v-13.9C481.4,372.5,481.1,372.5,480.7,372.5z"/>
				<path class="st13" d="M491.2,372.6v13.8c0.4,0,0.7,0,1.1,0v-13.8C492,372.6,491.6,372.6,491.2,372.6z"/>
				<path class="st13" d="M501.7,372.3v13.7c0.4,0,0.7-0.1,1.1-0.1v-13.6C502.5,372.2,502.1,372.2,501.7,372.3z"/>
				<path class="st13" d="M512.3,371.6v13.3c0.4-0.1,0.7-0.1,1.1-0.2v-13.2C513,371.6,512.6,371.6,512.3,371.6z"/>
				<path class="st13" d="M522.8,370.6v12.1c0.4-0.1,0.8-0.2,1.1-0.4v-11.9C523.5,370.5,523.1,370.6,522.8,370.6z"/>
			</g>
			<path class="st13" d="M527.5,370.8c0,3.8-18.7,6.9-41.7,6.9c-23,0-41.7-3.1-41.7-6.9c0-3.8,18.7-6.9,41.7-6.9
				C508.8,363.9,527.5,366.9,527.5,370.8z"/>
			<path class="st12" d="M523.6,370.8c0,3.1-19.4,5.5-37.9,5.5c-18.4,0-37.7-2.5-37.7-5.5c0-3.1,19.3-5.5,37.7-5.5
				C504.2,365.2,523.6,367.7,523.6,370.8z"/>
			<path id="coin_310_" class="st14" d="M485.6,367.9c-1.1,0.3-2.1,0.7-2.9,1.1c-0.4,0.2-0.7,0.4-0.9,0.5l-10.3,0.2c0,0,0,0,0,0
				c0.1-0.1,0.3-0.2,0.5-0.3c0.2-0.1,0.5-0.2,0.9-0.3c0,0,0.1,0,0.1,0c0,0,0.1,0,0.1,0c0.5,0.2,1.3,0.2,2.3,0.3l0.2,0
				c1.4,0,2.5-0.1,3.3-0.4c0.8-0.2,1.2-0.5,1.2-0.8c0,0,0,0,0,0c-0.2-0.3-1.1-0.7-4.2-0.7c-0.4,0-0.9,0-1.6,0.1
				c-2,0.2-3.6,0.4-4.7,0.8c-1.1,0.3-1.9,0.7-2.3,1c-0.3,0.2-0.4,0.3-0.6,0.5l-4.5,0.1l0,1l4-0.1l0,0.5l-4,0.1l0,1l4.5-0.1
				c0.3,0.3,0.6,0.5,1,0.7c0.4,0.2,1,0.4,1.8,0.6c1.8,0.4,3.9,0.5,6.2,0.5c3,0,5.5-0.4,7.3-1.1c1.4-0.5,1.9-0.8,2.2-1l13-0.2
				c0,0,0,0-0.1,0.1c-0.1,0.1-0.4,0.3-0.9,0.5c-0.4,0.2-0.8,0.3-1.3,0.3c-0.1,0-0.2,0-0.3,0c0,0,0,0,0,0c-0.1-0.1-0.4-0.3-0.7-0.3
				c-0.7-0.2-1.6-0.2-2.7-0.2c-0.5,0-1.1,0-2.1,0.1c-0.7,0.1-1.3,0.2-1.8,0.4c-0.8,0.3-0.8,0.7-0.2,1c0.6,0.3,1.9,0.6,4.6,0.5
				c1.4,0,2.8-0.1,4.2-0.3c1.4-0.2,2.6-0.4,3.5-0.7c1-0.3,1.7-0.7,2.2-1c0.2-0.2,0.4-0.3,0.5-0.4l4.8-0.1l0-1l-4.6,0.1l0-0.5
				l4.6-0.1l0-1l-4.9,0.1c0,0-0.1-0.1-0.2-0.2c-0.2-0.2-0.5-0.5-1-0.7c-0.4-0.3-1-0.5-1.8-0.6c-1.9-0.4-4.3-0.6-7.1-0.6
				C489.9,367.1,487.5,367.4,485.6,367.9z M477.4,372.2c-0.6,0.2-1.5,0.2-2.7,0.3c-1,0-1.7-0.1-2.3-0.2c-0.1,0-0.3-0.1-0.4-0.1
				l5.8-0.1C477.8,372.1,477.6,372.1,477.4,372.2z M487.2,370.4l11.6-0.2l0,0.5l-12.4,0.2L487.2,370.4z M479.6,371l-8.9,0.1
				c0-0.1,0-0.1,0-0.2c0-0.1,0-0.2,0-0.2l9.6-0.1L479.6,371z M493.8,368.5c1.8,0,2.9,0.1,3.6,0.3c0.4,0.1,0.7,0.3,0.9,0.4l-9.1,0.1
				c0.3-0.1,0.7-0.3,1.2-0.4C491.1,368.7,492.3,368.5,493.8,368.5z"/>
			<path id="scintillation_72_" class="st16" d="M464.7,369.3c-3.9,0.1-5.1,1.2-5.1,2.7c0-1.2-1.6-2.7-5.3-2.6c0,0,5.3,0.1,5.2-2.7
				C459.6,369.5,464.7,369.3,464.7,369.3z"/>
			<path id="scintillation_71_" class="st16" d="M509.5,366.6c-6.4,0.1-8.3,1.1-8.3,2.3c0-1-2.6-2.3-8.6-2.3c0,0,8.6,0.1,8.6-2.4
				C501.2,366.8,509.5,366.6,509.5,366.6z"/>
			<path id="scintillation_70_" class="st16" d="M494.3,374.2c-4,0.1-5.2,1.3-5.2,2.7c0-1.2-1.7-2.7-5.4-2.7c0,0,5.4,0.1,5.4-2.8
				C489.1,374.4,494.3,374.2,494.3,374.2z"/>
		</g>
	</g>
	<g id="coin_8_">
		<path class="st15" d="M311.4,430.5c-0.1,3.8-18.8,6.4-41.9,5.7c-23-0.6-41.6-4.3-41.5-8.1l0.2-8.8c6.9-2.1,25.3,2.6,41.6,3
			c15.6,0.4,30.8,0.3,41.7-1C311.7,421.4,311.5,429.2,311.4,430.5z"/>
		<g>
			<path class="st13" d="M233.4,418.5l-0.4,13.1c0.3,0.1,0.7,0.2,1.1,0.3l0.4-13.4C234.2,418.5,233.8,418.5,233.4,418.5z"/>
			<path class="st13" d="M243.9,419.5l-0.4,14.4c0.4,0.1,0.7,0.1,1.1,0.2l0.4-14.5C244.7,419.6,244.3,419.5,243.9,419.5z"/>
			<path class="st13" d="M254.4,421l-0.4,14.3c0.4,0,0.7,0.1,1.1,0.1l0.4-14.3C255.1,421.1,254.8,421,254.4,421z"/>
			<path class="st13" d="M264.9,422.1l-0.4,13.9c0.4,0,0.7,0,1.1,0l0.4-13.9C265.6,422.2,265.2,422.1,264.9,422.1z"/>
			<path class="st13" d="M275.4,422.5l-0.4,13.8c0.4,0,0.7,0,1.1,0l0.4-13.8C276.1,422.5,275.8,422.5,275.4,422.5z"/>
			<path class="st13" d="M285.9,422.5l-0.4,13.6c0.4,0,0.7,0,1.1,0l0.4-13.6C286.6,422.5,286.3,422.5,285.9,422.5z"/>
			<path class="st13" d="M296.4,422.1l-0.4,13.2c0.4,0,0.7-0.1,1.1-0.1l0.4-13.2C297.2,422.1,296.8,422.1,296.4,422.1z"/>
			<path class="st13" d="M307,421.4l-0.3,12.1c0.4-0.1,0.8-0.2,1.1-0.3l0.3-11.9C307.7,421.3,307.3,421.4,307,421.4z"/>
		</g>
		<path class="st13" d="M311.7,421.7c-0.1,3.8-18.8,6.4-41.9,5.7c-23-0.6-41.6-4.3-41.5-8.1c0.1-3.8,18.8-6.4,41.9-5.7
			C293.2,414.3,311.8,417.9,311.7,421.7z"/>
		<path class="st12" d="M307.8,421.6c-0.1,3.1-19.6,5-38,4.5c-18.4-0.5-37.6-3.5-37.5-6.6c0.1-3,19.4-5,37.8-4.5
			C288.6,415.5,307.9,418.5,307.8,421.6z"/>
		<path id="coin_9_" class="st14" d="M269.9,417.6c-1.2,0.3-2.1,0.6-2.9,1c-0.4,0.2-0.7,0.4-0.9,0.4l-10.3-0.1c0,0,0,0,0,0
			c0.1-0.1,0.3-0.2,0.5-0.3c0.2-0.1,0.5-0.2,0.9-0.2c0,0,0.1,0,0.1,0c0,0,0.1,0,0.1,0c0.5,0.2,1.3,0.3,2.3,0.4l0.2,0
			c1.4,0,2.5-0.1,3.3-0.3c0.8-0.2,1.2-0.4,1.2-0.8c0,0,0,0,0,0c-0.2-0.3-1.1-0.8-4.2-0.8c-0.4,0-0.9,0-1.6,0c-2,0.1-3.6,0.3-4.7,0.6
			c-1.1,0.3-1.9,0.6-2.3,0.9c-0.3,0.2-0.4,0.3-0.6,0.4l-4.5-0.1l0,1l4,0l0,0.5l-4,0l0,1l4.5,0.1c0.3,0.3,0.6,0.5,1,0.7
			c0.4,0.2,1,0.4,1.7,0.6c1.8,0.4,3.9,0.7,6.2,0.7c3,0,5.5-0.3,7.3-0.9c1.4-0.5,1.9-0.7,2.2-0.9l13,0.2c0,0,0,0-0.1,0.1
			c-0.1,0.1-0.4,0.3-0.9,0.4c-0.4,0.1-0.8,0.2-1.3,0.3c-0.1,0-0.2,0-0.3,0c0,0,0,0,0,0c-0.1-0.1-0.4-0.3-0.7-0.4
			c-0.7-0.2-1.6-0.3-2.7-0.3c-0.5,0-1.1,0-2.1,0.1c-0.7,0-1.3,0.2-1.8,0.3c-0.8,0.3-0.8,0.7-0.2,1c0.6,0.3,1.9,0.6,4.6,0.7
			c1.4,0,2.8-0.1,4.2-0.2c1.4-0.1,2.6-0.4,3.5-0.6c1-0.3,1.8-0.6,2.3-0.9c0.2-0.2,0.4-0.3,0.5-0.3l4.8,0.1l0-1l-4.6-0.1l0-0.5
			l4.6,0.1l0-1l-4.9-0.1c0,0-0.1-0.1-0.2-0.2c-0.2-0.2-0.5-0.5-0.9-0.7c-0.4-0.3-1-0.5-1.8-0.7c-1.9-0.5-4.3-0.8-7.1-0.8
			C274.2,417,271.8,417.2,269.9,417.6z M261.6,421.7c-0.6,0.1-1.5,0.2-2.7,0.2c-1,0-1.7-0.1-2.3-0.3c-0.1,0-0.3-0.1-0.4-0.1l5.8,0.1
			C262,421.6,261.8,421.7,261.6,421.7z M271.4,420.2l11.6,0.1l0,0.5l-12.4-0.2L271.4,420.2z M263.8,420.6l-8.9-0.1
			c0-0.1,0-0.1,0-0.2c0-0.1,0-0.2,0-0.2l9.6,0.1L263.8,420.6z M278.1,418.5c1.8,0,2.9,0.2,3.5,0.4c0.4,0.2,0.7,0.3,0.9,0.4l-9.1-0.1
			c0.3-0.1,0.7-0.2,1.2-0.4C275.4,418.6,276.5,418.5,278.1,418.5z"/>
		<path id="scintillation_24_" class="st16" d="M248.9,418.5c-3.9,0-5.1,1.1-5.1,2.5c0-1.2-1.5-2.7-5.2-2.8c0,0,5.3,0.2,5.3-2.6
			C243.8,418.5,248.9,418.5,248.9,418.5z"/>
		<path id="scintillation_23_" class="st16" d="M293.8,417.1c-6.4-0.1-8.4,0.9-8.4,2.1c0-1-2.6-2.4-8.6-2.5c0,0,8.6,0.3,8.7-2.2
			C285.5,417,293.8,417.1,293.8,417.1z"/>
		<path id="scintillation_22_" class="st16" d="M278.4,424.2c-4,0-5.3,1.1-5.3,2.6c0-1.2-1.6-2.8-5.3-2.9c0,0,5.4,0.3,5.5-2.7
			C273.2,424.2,278.4,424.2,278.4,424.2z"/>
	</g>
	<g id="coin_5_">
		<path class="st15" d="M244.2,418.7c-0.2,3.8,18.2,7.9,41.2,9.2c23,1.3,41.8-0.7,42-4.6l0.5-8.8c-6.7-2.6-25.5,0.4-41.7-0.5
			c-15.6-0.9-30.7-2.3-41.5-4.5C244.7,409.6,244.2,417.4,244.2,418.7z"/>
		<g>
			<path class="st13" d="M322.9,413.3l-0.7,13.1c-0.4,0.1-0.7,0.2-1.1,0.2l0.8-13.4C322.2,413.3,322.5,413.3,322.9,413.3z"/>
			<path class="st13" d="M312.3,413.4l-0.8,14.4c-0.4,0-0.7,0.1-1.1,0.1l0.8-14.5C311.6,413.5,312,413.4,312.3,413.4z"/>
			<path class="st13" d="M301.8,414l-0.8,14.3c-0.4,0-0.7,0-1.1,0l0.8-14.2C301,414.1,301.4,414,301.8,414z"/>
			<path class="st13" d="M291.2,414.3l-0.8,13.9c-0.4,0-0.7,0-1.1,0l0.8-13.8C290.5,414.3,290.9,414.3,291.2,414.3z"/>
			<path class="st13" d="M280.7,413.8l-0.8,13.8c-0.4,0-0.7-0.1-1.1-0.1l0.8-13.8C280,413.7,280.4,413.8,280.7,413.8z"/>
			<path class="st13" d="M270.3,412.9l-0.8,13.6c-0.4,0-0.7-0.1-1.1-0.1l0.8-13.6C269.5,412.8,269.9,412.8,270.3,412.9z"/>
			<path class="st13" d="M259.8,411.6l-0.7,13.2c-0.4-0.1-0.7-0.1-1.1-0.2l0.7-13.2C259.1,411.5,259.4,411.6,259.8,411.6z"/>
			<path class="st13" d="M249.4,410l-0.7,12.1c-0.4-0.1-0.7-0.3-1.1-0.4l0.7-11.9C248.6,409.9,249,410,249.4,410z"/>
		</g>
		<path class="st13" d="M244.7,409.9c-0.2,3.8,18.2,7.9,41.2,9.2c23,1.3,41.8-0.7,42-4.6c0.2-3.8-18.2-7.9-41.2-9.2
			C263.7,404.1,244.9,406.1,244.7,409.9z"/>
		<path class="st12" d="M248.5,410.1c-0.2,3,19.1,6.6,37.5,7.6c18.4,1,37.8-0.4,37.9-3.4c0.2-3-18.9-6.6-37.3-7.6
			C268.2,405.7,248.7,407.1,248.5,410.1z"/>
		<path id="coin_6_" class="st14" d="M279.4,408.1c-2.8-0.2-5.2-0.1-7.1,0.2c-0.8,0.1-1.4,0.3-1.8,0.5c-0.4,0.2-0.8,0.4-1,0.6
			c-0.1,0.1-0.1,0.1-0.2,0.2l-4.9-0.4l-0.1,1l4.6,0.3l0,0.5l-4.6-0.3l-0.1,1l4.8,0.3c0.1,0.1,0.3,0.2,0.5,0.4
			c0.5,0.4,1.2,0.8,2.2,1.1c0.9,0.4,2,0.7,3.4,0.9c1.4,0.3,2.8,0.4,4.2,0.5c2.7,0.2,4,0,4.6-0.3c0.6-0.3,0.6-0.7-0.1-1
			c-0.4-0.2-1-0.4-1.8-0.5c-1-0.1-1.6-0.2-2.1-0.2c-1.1-0.1-2-0.1-2.7,0.1c-0.3,0.1-0.6,0.2-0.7,0.3c0,0,0,0,0,0
			c-0.1,0-0.2,0-0.3-0.1c-0.5-0.1-0.9-0.2-1.3-0.4c-0.4-0.2-0.7-0.4-0.8-0.5c0,0,0,0-0.1-0.1l13,0.9c0.2,0.2,0.8,0.5,2.1,1.1
			c1.8,0.8,4.2,1.3,7.2,1.5c2.3,0.2,4.4,0.1,6.2-0.2c0.8-0.1,1.4-0.3,1.8-0.5c0.4-0.2,0.7-0.4,1-0.6l4.5,0.3l0.1-1l-4-0.3l0-0.5
			l4,0.3l0.1-1l-4.5-0.3c-0.1-0.1-0.3-0.3-0.5-0.5c-0.4-0.3-1.1-0.7-2.2-1.1c-1.1-0.4-2.7-0.8-4.7-1c-0.7-0.1-1.2-0.1-1.6-0.2
			c-3.1-0.2-4,0.2-4.2,0.5c0,0,0,0,0,0c0,0.3,0.4,0.6,1.1,0.9c0.8,0.3,1.9,0.4,3.3,0.5l0.2,0c1,0,1.8,0,2.3-0.2c0,0,0.1,0,0.1,0
			c0,0,0.1,0,0.1,0c0.3,0.1,0.6,0.2,0.8,0.3c0.2,0.1,0.4,0.2,0.5,0.3c0,0,0,0,0,0l-10.3-0.7c-0.2-0.1-0.4-0.3-0.8-0.5
			c-0.8-0.4-1.7-0.9-2.8-1.2C284.8,408.8,282.4,408.3,279.4,408.1z M294.1,414l5.8,0.4c-0.1,0-0.2,0.1-0.4,0.1
			c-0.5,0.1-1.3,0.1-2.3,0.1c-1.1-0.1-2-0.2-2.6-0.4C294.4,414.1,294.2,414,294.1,414z M285.7,412.3l-12.4-0.9l0-0.5l11.6,0.8
			L285.7,412.3z M291.8,412.3l9.6,0.7c0,0,0,0.1,0,0.2c0,0.1,0,0.2-0.1,0.2l-8.9-0.6L291.8,412.3z M281.9,410.2
			c0.5,0.2,0.8,0.3,1.1,0.5l-9-0.7c0.2-0.1,0.5-0.2,0.9-0.3c0.6-0.2,1.8-0.2,3.6-0.1C279.9,409.7,281.1,409.9,281.9,410.2z"/>
		<path id="scintillation_6_" class="st16" d="M307.4,412c3.9,0.3,5,1.5,4.9,3c0.1-1.1,1.8-2.6,5.4-2.3c0,0-5.3-0.2-5.1-3
			C312.5,412.5,307.4,412,307.4,412z"/>
		<path id="scintillation_5_" class="st16" d="M262.8,406.8c6.4,0.4,8.3,1.6,8.2,2.8c0.1-1,2.8-2.1,8.8-1.8c0,0-8.6-0.4-8.5-2.9
			C271.1,407.4,262.8,406.8,262.8,406.8z"/>
		<path id="scintillation_4_" class="st16" d="M277.6,415.2c4,0.3,5.1,1.6,5,3c0.1-1.2,1.8-2.6,5.6-2.4c0,0-5.4-0.2-5.2-3.1
			C282.8,415.7,277.6,415.2,277.6,415.2z"/>
	</g>
	<g id="coin_2_">
		<path class="st15" d="M264.2,216.1c-1,3.7,16.2,11.6,38.4,17.7c22.2,6.1,41,8.1,42,4.4l2.3-8.5c-6-4-25-4.9-40.7-9.3
			c-15-4.1-29.5-8.8-39.6-13.2C266.6,207.4,264.5,214.9,264.2,216.1z"/>
		<g>
			<path class="st13" d="M342.2,227.5l-3.5,12.6c-0.4,0-0.7,0-1.1,0l3.6-12.9C341.5,227.3,341.9,227.4,342.2,227.5z"/>
			<path class="st13" d="M331.9,225.4l-3.8,13.9c-0.4,0-0.7-0.1-1.1-0.2l3.8-14C331.2,225.3,331.6,225.3,331.9,225.4z"/>
			<path class="st13" d="M321.5,223.7l-3.8,13.8c-0.4-0.1-0.7-0.1-1.1-0.2l3.8-13.7C320.7,223.6,321.1,223.7,321.5,223.7z"/>
			<path class="st13" d="M311.1,221.8l-3.7,13.4c-0.4-0.1-0.7-0.2-1.1-0.3l3.7-13.4C310.4,221.6,310.7,221.7,311.1,221.8z"/>
			<path class="st13" d="M300.9,219.1l-3.7,13.3c-0.3-0.1-0.7-0.2-1-0.3l3.7-13.3C300.2,218.8,300.6,219,300.9,219.1z"/>
			<path class="st13" d="M290.9,216l-3.6,13.2c-0.3-0.1-0.7-0.2-1-0.4l3.6-13.1C290.2,215.7,290.6,215.8,290.9,216z"/>
			<path class="st13" d="M280.9,212.5l-3.5,12.8c-0.3-0.1-0.7-0.3-1-0.4l3.5-12.7C280.2,212.3,280.6,212.4,280.9,212.5z"/>
			<path class="st13" d="M271.1,208.8l-3.2,11.7c-0.3-0.2-0.7-0.4-1-0.7l3.2-11.5C270.4,208.5,270.7,208.6,271.1,208.8z"/>
		</g>
		<path class="st13" d="M266.5,207.7c-1,3.7,16.2,11.6,38.4,17.7c22.2,6.1,41,8.1,42,4.4c1-3.7-16.2-11.6-38.4-17.7
			C286.3,206,267.5,204,266.5,207.7z"/>
		<path class="st12" d="M270.2,208.7c-0.8,2.9,17.3,10.5,35,15.4c17.8,4.9,37,7.6,37.8,4.7c0.8-2.9-17.1-10.4-34.9-15.3
			C290.4,208.5,271,205.7,270.2,208.7z"/>
		<path id="coin_3_" class="st14" d="M300.8,213.3c-2.7-0.8-5.1-1.2-7-1.3c-0.8,0-1.4,0-1.9,0.1c-0.5,0.1-0.8,0.3-1.1,0.4
			c-0.1,0-0.2,0.1-0.2,0.1l-4.7-1.4l-0.3,1l4.5,1.3l-0.1,0.4l-4.5-1.3l-0.3,1l4.7,1.4c0.1,0.1,0.2,0.3,0.4,0.5c0.4,0.5,1,1,1.9,1.6
			c0.8,0.5,1.9,1.1,3.2,1.6c1.3,0.5,2.6,1,4,1.4c2.6,0.8,3.9,0.8,4.6,0.7c0.7-0.1,0.8-0.5,0.1-1c-0.4-0.3-0.9-0.6-1.6-0.8
			c-0.9-0.3-1.5-0.6-2-0.7c-1.1-0.3-2-0.5-2.7-0.5c-0.3,0-0.6,0-0.8,0.1c0,0,0,0,0,0c-0.1,0-0.2-0.1-0.3-0.1
			c-0.4-0.2-0.8-0.4-1.2-0.7c-0.4-0.3-0.6-0.5-0.7-0.7c0,0,0,0,0-0.1L307,220c0.2,0.2,0.7,0.7,1.8,1.5c1.6,1.1,3.8,2.1,6.7,3
			c2.2,0.6,4.3,1,6.1,1.2c0.8,0.1,1.4,0,1.8-0.1c0.4-0.1,0.7-0.2,1.1-0.4l4.3,1.3l0.3-1l-3.9-1.1l0.1-0.4l3.9,1.1l0.3-1l-4.4-1.3
			c-0.1-0.1-0.2-0.3-0.4-0.6c-0.3-0.4-1-0.9-1.9-1.5c-1-0.6-2.5-1.3-4.4-2c-0.7-0.2-1.1-0.4-1.5-0.5c-3-0.8-3.9-0.7-4.2-0.4
			c0,0,0,0,0,0c-0.1,0.3,0.2,0.7,0.9,1.1c0.7,0.4,1.8,0.8,3.1,1.2l0.2,0.1c1,0.2,1.7,0.3,2.3,0.3c0,0,0.1,0,0.1,0c0,0,0,0,0.1,0
			c0.3,0.1,0.6,0.3,0.8,0.5c0.2,0.1,0.3,0.3,0.4,0.4c0,0,0,0,0,0l-9.9-2.9c-0.1-0.1-0.4-0.3-0.7-0.7c-0.6-0.6-1.5-1.2-2.5-1.8
			C306,215,303.7,214.1,300.8,213.3z M313.9,222.1l5.6,1.6c-0.1,0-0.2,0-0.4,0c-0.6,0-1.3-0.1-2.3-0.4c-1.1-0.3-1.9-0.6-2.5-1
			C314.2,222.2,314,222.1,313.9,222.1z M306.1,218.7l-11.9-3.5l0.1-0.4l11.1,3.3L306.1,218.7z M312.1,220l9.2,2.7c0,0,0,0.1,0,0.2
			c0,0.1-0.1,0.2-0.1,0.2l-8.6-2.5L312.1,220z M302.8,215.8c0.4,0.3,0.8,0.5,1,0.7l-8.7-2.5c0.2,0,0.5-0.1,0.9-0.1
			c0.7,0,1.8,0.2,3.5,0.6C301,214.9,302.1,215.3,302.8,215.8z"/>
		<path id="scintillation_3_" class="st16" d="M327.4,223c3.7,1.1,4.6,2.5,4.2,3.9c0.3-1.1,2.3-2.1,5.8-1.1c0,0-5.1-1.3-4.3-4
			C332.3,224.5,327.4,223,327.4,223z"/>
		<path id="scintillation_2_" class="st16" d="M284.9,208.5c6.1,1.8,7.7,3.3,7.4,4.5c0.3-1,3.2-1.5,8.9,0.1c0,0-8.3-2.2-7.7-4.6
			C292.9,210.8,284.9,208.5,284.9,208.5z"/>
		<path id="scintillation_1_" class="st16" d="M297.6,219.8c3.8,1.1,4.7,2.6,4.3,4c0.3-1.1,2.3-2.2,5.9-1.2c0,0-5.2-1.3-4.5-4.2
			C302.6,221.4,297.6,219.8,297.6,219.8z"/>
	</g>
	<circle class="st3" cx="276.4" cy="121.7" r="5.2"/>
	<circle class="st3" cx="140.4" cy="215.6" r="5.2"/>
	<circle class="st3" cx="256.3" cy="123" r="3.6"/>
	<circle class="st2" cx="611.3" cy="356.4" r="6.1"/>
	<circle class="st2" cx="632.7" cy="368.5" r="2.5"/>
	<circle class="st0" cx="302.9" cy="84.2" r="6.9"/>
	<g>
		<g>
			<path class="st6" d="M572,190.6c-0.8-0.4-1.4-1-1.7-1.9c-0.3-0.9-0.2-1.8,0.2-2.5l15.5-26c0.5-0.8,1.1-1.3,1.9-1.5
				s1.6-0.1,2.3,0.3s1.2,0.9,1.5,1.8l3.6,10.9c6.7-2.3,11.6-4.7,14.7-7.2c3.5-2.7,5.2-5.9,5.2-9.6s-1.9-8.1-5.7-13.4
				c-0.5-0.6-0.6-1.2-0.4-1.8s0.6-1.1,1.2-1.4s1.2-0.4,1.9-0.2c3.6,1.1,6.8,3,9.9,5.8c3.3,2.9,5.5,6.2,6.7,9.8
				c2.9,8.6,1.5,15.9-4.2,21.8c-4.6,4.7-12.4,9-23.6,12.9l3.3,9.9c0.3,0.8,0.2,1.6-0.1,2.3c-0.4,0.7-0.9,1.2-1.7,1.6
				c-0.8,0.3-1.6,0.3-2.4,0L572,190.6z"/>
		</g>
	</g>
	<line class="st17" x1="577" y1="125.4" x2="558.9" y2="107.3"/>
	<line class="st17" x1="592.5" y1="121.7" x2="594.3" y2="96.1"/>
	<line class="st17" x1="605.2" y1="129.2" x2="623.4" y2="111.8"/>
	<g>
		<g>
			<path class="st18" d="M401.4,123c-0.5-1.8-0.9-3.6-1.2-5.3"/>
			<path class="st19" d="M399.7,106.2c3-29.6,43.2-33.8,67.7-46.3c5.1-2.6,9.9-5.9,13.1-10.6c1.1-1.6,2-3.3,2.6-5.1"/>
			<path class="st18" d="M484.2,38.6c0.1-1.8-0.2-3.6-0.8-5.4"/>
		</g>
	</g>
	<g>
		<g>
			<path class="st18" d="M444.5,84.5c0,0,2-0.4,5.3-1.4"/>
			<path class="st20" d="M459.5,80c15.7-5.7,38.2-17.1,39.3-35.6"/>
			<path class="st18" d="M498.6,39.3c-0.3-1.7-0.7-3.5-1.3-5.3"/>
		</g>
	</g>
</g>
</svg>
