<?xml version="1.0" encoding="utf-8"?>
<!-- Generator: Adobe Illustrator 22.0.1, SVG Export Plug-In . SVG Version: 6.00 Build 0)  -->
<svg version="1.1" id="Layer_1" xmlns="http://www.w3.org/2000/svg" xmlns:xlink="http://www.w3.org/1999/xlink" x="0px" y="0px"
	 viewBox="0 0 59 54" style="enable-background:new 0 0 59 54;" xml:space="preserve">
<style type="text/css">
	.st0{fill:#6FB3D0;}
</style>
<g>
	<g>
		<path class="st0" d="M52.5,4.5H2.7c-1.4,0-2.6,1.2-2.6,2.6v35.8c0,1.4,1.2,2.6,2.6,2.6h49.8c1.4,0,2.6-1.2,2.6-2.6V7.1
			C55.1,5.7,53.9,4.5,52.5,4.5z M53.4,42.9c0,0.5-0.4,0.9-0.9,0.9H2.7c-0.5,0-0.9-0.4-0.9-0.9v-3.5h51.6V42.9z M53.4,37.7H1.8V7.1
			c0-0.5,0.4-0.9,0.9-0.9h49.8c0.5,0,0.9,0.4,0.9,0.9V37.7z M39.1,47.8H16.1c-0.5,0-0.9,0.4-0.9,0.9s0.4,0.9,0.9,0.9h22.9
			c0.5,0,0.9-0.4,0.9-0.9S39.5,47.8,39.1,47.8z M27.6,10.8c-6.1,0-11,5-11,11.2c0,6.2,4.9,11.2,11,11.2s11-5,11-11.2
			C38.6,15.8,33.7,10.8,27.6,10.8z M27.6,31.5c-5.2,0-9.4-4.3-9.4-9.5c0-5.3,4.2-9.5,9.4-9.5S37,16.7,37,22
			C37,27.2,32.8,31.5,27.6,31.5z M28,21.3c-1.5-0.6-2.1-0.9-2.1-1.6c0-1,0.9-1.5,1.8-1.5c0.5,0,0.9,0.1,1.3,0.4
			c0.3,0.2,0.5,0.6,0.5,1c0,0.4,0.4,0.8,0.8,0.8S31,20,31,19.6c0-1.7-1.3-2.7-2.7-2.9V16c0-0.4-0.4-0.8-0.8-0.8s-0.8,0.4-0.8,0.8
			v0.7c-1.3,0.3-2.5,1.3-2.5,3c0,1.9,1.7,2.5,3.1,3.1c1.5,0.6,2.2,1,2.2,1.7c0,0.5-0.2,0.9-0.5,1.1c-0.4,0.3-0.9,0.4-1.4,0.4
			c-1,0-2.1-0.6-2.1-1.6c0-0.4-0.4-0.8-0.8-0.8S24,24,24,24.4c0,1.8,1.3,2.9,2.8,3.2v0.7c0,0.4,0.4,0.8,0.8,0.8s0.8-0.4,0.8-0.8
			v-0.7c0.6-0.1,1.2-0.3,1.7-0.7c0.8-0.6,1.2-1.4,1.2-2.4C31.2,22.6,29.4,21.9,28,21.3z M27.6,6.9c-8.2,0-14.8,6.8-14.8,15.1
			c0,8.3,6.7,15.1,14.8,15.1S42.4,30.3,42.4,22C42.4,13.7,35.8,6.9,27.6,6.9z M27.6,35.4c-7.3,0-13.2-6-13.2-13.4S20.3,8.5,27.6,8.5
			s13.2,6,13.2,13.4S34.9,35.4,27.6,35.4z"/>
	</g>
</g>
</svg>
