<?xml version="1.0" encoding="utf-8"?>
<!-- Generator: Adobe Illustrator 22.0.1, SVG Export Plug-In . SVG Version: 6.00 Build 0)  -->
<svg version="1.1" id="Layer_1" xmlns="http://www.w3.org/2000/svg" xmlns:xlink="http://www.w3.org/1999/xlink" x="0px" y="0px"
	 viewBox="0 0 109.7 99" style="enable-background:new 0 0 109.7 99;" xml:space="preserve">
<style type="text/css">
	.st0{fill:#FFDC45;}
	.st1{fill:#F9BA10;}
	.st2{fill:#F7AA26;}
	.st3{fill:#B68B39;}
	.st4{opacity:0.3;fill:#FFFFFF;}
</style>
<g>
	<g id="coin_635_">
		<g id="coin_638_">
			<g id="coin_650_">
				<path class="st0" d="M90.3,57.2c-7.6,20.6-30.4,31.2-51,23.6c-20.6-7.5-31.2-30.4-23.6-51C23.2,9.3,46-1.3,66.6,6.3
					C87.2,13.8,97.8,36.6,90.3,57.2z"/>
			</g>
			<g id="coin_647_">
				<path class="st1" d="M38,84.5C15.4,76.2,3.8,51.1,12.1,28.6C20.3,6,45.4-5.6,67.9,2.7c22.6,8.3,34.2,33.3,25.9,55.9
					C85.6,81.1,60.5,92.7,38,84.5z M65.3,9.9c-18.6-6.8-39.2,2.8-46,21.3c-6.8,18.6,2.8,39.2,21.3,46c18.6,6.8,39.2-2.8,46-21.3
					C93.4,37.3,83.9,16.7,65.3,9.9z"/>
			</g>
			<path id="coin_641_" class="st2" d="M65.2,48.8c-0.9-1.7-2.1-3.3-3.6-4.8c-0.8-0.8-1.4-1.4-1.7-1.7l4-10.9c0,0,0.1,0.1,0.1,0.1
				c0.4,0.3,0.8,0.7,1.1,1c0.4,0.4,0.7,0.9,0.8,1.3c0,0,0,0.1,0,0.1c-0.1,0-0.1,0-0.2,0.1c-0.9,0.3-1.7,0.9-2.3,1.9l-0.1,0.2
				c-0.5,1.5-0.5,2.8,0.1,4c0.6,1.2,1.6,2,3.1,2.6c0,0,0,0,0.1,0c1.6,0.3,3.8,0.1,5.2-3.1c0.2-0.4,0.3-1,0.4-1.8
				c0.2-2.3-0.2-4.4-1.3-6.2c-1-1.7-2.1-3-3.3-3.9c-0.7-0.6-1.3-1-1.8-1.3l1.8-4.8l-4.7-1.7l-1.6,4.2l-2.1-0.8l1.6-4.2l-4.7-1.7
				l-1.7,4.7c-1.5-0.2-2.6-0.2-3.6-0.2c-1.2,0.1-2.3,0.4-3.3,0.9c-2.5,1.2-4.3,3.1-5.2,5.5c-1.2,3.2-0.6,6.3,1.6,9.3
				c1.6,2.2,2.7,3.3,3.4,3.8l-5,13.7c-0.1,0-0.1-0.1-0.2-0.2c-0.5-0.3-1-0.9-1.6-1.6c-0.5-0.7-0.8-1.3-0.9-1.9c0-0.2,0-0.3,0-0.4
				c0.1,0,0.1,0,0.2,0c0.7,0.1,1.3,0,1.9-0.2c1.1-0.4,1.8-1.3,2.3-2.4c0.2-0.5,0.3-1.2,0.4-2.4c0-0.9-0.2-1.7-0.8-2.5
				c-1-1.3-3-2.1-4.6-1.9c-1.5,0.2-3.4,1-4.5,3.9c-0.5,1.5-0.7,3.1-0.5,4.8c0.2,1.7,0.8,3.4,1.7,4.8c1,1.6,2.2,2.9,3.5,4
				c0.6,0.5,1,0.9,1.3,1.1l-1.9,5.1l4.7,1.7l1.8-4.9l2.1,0.8L45.2,68l4.7,1.7l1.9-5.2c0.2,0,0.5,0.1,0.8,0.1
				c1.1,0.1,2.3,0.2,3.6,0.2c1.3,0,2.6-0.3,3.7-0.8c2.8-1.2,4.8-3.4,5.9-6.3C66.8,54.5,66.7,51.5,65.2,48.8z M49.6,33.1
				c-0.4-0.9-0.4-2,0-3.2c0.5-1,1.2-1.6,2-2c0.2-0.1,0.4-0.2,0.6-0.2L50,33.9C49.9,33.7,49.7,33.5,49.6,33.1z M53.2,46.2l-4.5,12.3
				l-2.1-0.8l4.8-13.1L53.2,46.2z M54,37.4l3.5-9.4c0.2,0.1,0.6,0.2,1.1,0.4c0.4,0.2,0.7,0.3,0.9,0.4l-3.7,10.1L54,37.4z M58.6,56.1
				c-0.8,1.8-1.8,2.9-3,3.1c-0.8,0.2-1.5,0.3-2,0.3l3.5-9.6c0.4,0.5,0.8,1.1,1.3,1.9C59.1,53.1,59.2,54.5,58.6,56.1z"/>
		</g>
	</g>
	<g id="coin_8_">
		<path class="st3" d="M91.6,92.6c-0.1,4.2-20.7,7-46,6.3C20.3,98.2-0.1,94.2,0,90l0.3-9.6c7.6-2.3,27.8,2.8,45.7,3.3
			c17.1,0.5,33.8,0.3,45.9-1.1C91.9,82.6,91.6,91.2,91.6,92.6z"/>
		<g>
			<path class="st1" d="M5.9,79.4L5.5,93.8c0.4,0.1,0.8,0.3,1.2,0.4l0.4-14.7C6.7,79.4,6.3,79.4,5.9,79.4z"/>
			<path class="st1" d="M17.4,80.5L17,96.4c0.4,0.1,0.8,0.1,1.2,0.2l0.4-15.9C18.2,80.7,17.8,80.6,17.4,80.5z"/>
			<path class="st1" d="M28.9,82.2l-0.4,15.7c0.4,0,0.8,0.1,1.2,0.1l0.4-15.7C29.7,82.3,29.3,82.2,28.9,82.2z"/>
			<path class="st1" d="M40.4,83.4L40,98.7c0.4,0,0.8,0,1.2,0.1l0.4-15.2C41.2,83.5,40.8,83.5,40.4,83.4z"/>
			<path class="st1" d="M52,83.9L51.6,99c0.4,0,0.8,0,1.2,0l0.4-15.1C52.8,83.9,52.4,83.9,52,83.9z"/>
			<path class="st1" d="M63.5,83.8l-0.4,15c0.4,0,0.8,0,1.2-0.1l0.4-15C64.3,83.8,63.9,83.8,63.5,83.8z"/>
			<path class="st1" d="M75.1,83.4L74.7,98c0.4,0,0.8-0.1,1.2-0.1l0.4-14.5C75.9,83.4,75.5,83.4,75.1,83.4z"/>
			<path class="st1" d="M86.7,82.6L86.3,96c0.4-0.1,0.8-0.3,1.2-0.4l0.4-13.1C87.5,82.6,87.1,82.6,86.7,82.6z"/>
		</g>
		<path class="st1" d="M91.8,83c-0.1,4.2-20.7,7-46,6.3c-25.3-0.7-45.7-4.7-45.6-8.9c0.1-4.2,20.7-7,46-6.3
			C71.6,74.8,92,78.8,91.8,83z"/>
		<path class="st0" d="M87.6,82.8c-0.1,3.4-21.5,5.5-41.7,4.9c-20.2-0.6-41.3-3.9-41.2-7.2C4.8,77.2,26,75,46.2,75.6
			C66.5,76.2,87.7,79.5,87.6,82.8z"/>
		<path id="coin_9_" class="st2" d="M46,78.5c-1.3,0.3-2.4,0.7-3.2,1.1c-0.5,0.2-0.8,0.4-1,0.5L30.5,80c0,0,0,0,0,0
			c0.1-0.1,0.3-0.2,0.6-0.3c0.3-0.1,0.6-0.2,0.9-0.3c0,0,0.1,0,0.1,0c0,0,0.1,0,0.1,0c0.6,0.2,1.4,0.3,2.5,0.4l0.2,0
			c1.5,0,2.8-0.1,3.7-0.3c0.9-0.2,1.3-0.5,1.3-0.9c0,0,0,0,0,0c-0.2-0.4-1.2-0.8-4.6-0.9c-0.5,0-1,0-1.8,0c-2.2,0.1-3.9,0.4-5.2,0.7
			c-1.2,0.3-2.1,0.7-2.5,1c-0.3,0.2-0.5,0.4-0.6,0.5l-5-0.1l0,1.1l4.4,0.1l0,0.5l-4.4-0.1l0,1.1l4.9,0.1c0.3,0.3,0.7,0.6,1.1,0.8
			c0.5,0.3,1.1,0.5,1.9,0.7c2,0.5,4.3,0.7,6.8,0.8c3.3,0,6-0.3,8-1c1.5-0.5,2.1-0.8,2.4-1l14.3,0.2c0,0,0,0-0.1,0.1
			c-0.1,0.1-0.5,0.3-1,0.5c-0.4,0.2-0.9,0.3-1.4,0.3c-0.1,0-0.3,0-0.4,0c0,0,0,0,0,0c-0.1-0.2-0.4-0.3-0.8-0.4
			c-0.8-0.2-1.8-0.3-3-0.3c-0.5,0-1.2,0-2.3,0.1c-0.8,0.1-1.5,0.2-2,0.3c-0.9,0.3-0.9,0.8-0.2,1.1c0.7,0.3,2.1,0.7,5.1,0.7
			c1.5,0,3.1-0.1,4.6-0.2c1.5-0.2,2.8-0.4,3.9-0.7c1.1-0.3,1.9-0.7,2.5-1c0.3-0.2,0.4-0.3,0.6-0.4l5.3,0.1l0-1.1L65.2,82l0-0.5
			l5.1,0.1l0-1.1l-5.4-0.1c-0.1,0-0.1-0.1-0.2-0.2c-0.2-0.3-0.6-0.5-1-0.8c-0.5-0.3-1.1-0.5-1.9-0.8c-2.1-0.5-4.7-0.8-7.8-0.9
			C50.7,77.8,48,78,46,78.5z M36.8,83c-0.7,0.2-1.7,0.2-2.9,0.2c-1.1,0-1.9-0.1-2.5-0.3c-0.2,0-0.3-0.1-0.4-0.1l6.4,0.1
			C37.2,82.9,37,82.9,36.8,83z M47.6,81.3l12.8,0.2l0,0.5l-13.6-0.2L47.6,81.3z M39.2,81.7l-9.8-0.1c0-0.1,0-0.1,0-0.3
			c0-0.1,0-0.2,0-0.2L40,81.2L39.2,81.7z M54.9,79.5c1.9,0,3.2,0.2,3.9,0.4c0.5,0.2,0.8,0.3,1,0.4l-10-0.1c0.3-0.1,0.8-0.3,1.3-0.4
			C52,79.6,53.2,79.4,54.9,79.5z"/>
		<path id="scintillation_24_" class="st4" d="M22.9,79.5c-4.3,0-5.6,1.2-5.7,2.8c0-1.3-1.7-3-5.7-3.1c0,0,5.8,0.3,5.9-2.9
			C17.3,79.5,22.9,79.5,22.9,79.5z"/>
		<path id="scintillation_23_" class="st4" d="M72.2,77.9c-7-0.1-9.2,0.9-9.2,2.3c0-1.1-2.8-2.6-9.4-2.8c0,0,9.5,0.3,9.5-2.4
			C63.1,77.8,72.2,77.9,72.2,77.9z"/>
		<path id="scintillation_22_" class="st4" d="M55.3,85.7c-4.4,0-5.8,1.2-5.8,2.9c0-1.3-1.7-3-5.9-3.1c0,0,5.9,0.3,6-2.9
			C49.5,85.8,55.3,85.7,55.3,85.7z"/>
	</g>
	<g id="coin_5_">
		<path class="st3" d="M17.7,79.7c-0.2,4.2,20,8.7,45.3,10.2s45.9-0.8,46.2-5l0.5-9.6c-7.4-2.9-28,0.5-45.8-0.5
			c-17.1-1-33.7-2.6-45.6-5C18.2,69.7,17.7,78.3,17.7,79.7z"/>
		<g>
			<path class="st1" d="M104.2,73.7l-0.8,14.4c-0.4,0.1-0.8,0.2-1.2,0.3l0.8-14.7C103.4,73.7,103.8,73.7,104.2,73.7z"/>
			<path class="st1" d="M92.6,73.9l-0.9,15.9c-0.4,0-0.8,0.1-1.2,0.1l0.9-15.9C91.8,73.9,92.2,73.9,92.6,73.9z"/>
			<path class="st1" d="M81,74.5l-0.9,15.7c-0.4,0-0.8,0-1.2,0l0.9-15.6C80.2,74.6,80.6,74.6,81,74.5z"/>
			<path class="st1" d="M69.4,74.8l-0.9,15.2c-0.4,0-0.8,0-1.2,0l0.9-15.2C68.6,74.8,69,74.8,69.4,74.8z"/>
			<path class="st1" d="M57.9,74.3L57,89.4c-0.4,0-0.8-0.1-1.2-0.1l0.9-15.1C57.1,74.2,57.5,74.2,57.9,74.3z"/>
			<path class="st1" d="M46.3,73.3l-0.8,15c-0.4,0-0.8-0.1-1.2-0.2l0.8-14.9C45.5,73.2,45.9,73.2,46.3,73.3z"/>
			<path class="st1" d="M34.8,71.9L34,86.4c-0.4-0.1-0.8-0.2-1.2-0.2l0.8-14.5C34,71.8,34.4,71.9,34.8,71.9z"/>
			<path class="st1" d="M23.4,70.1l-0.7,13.3c-0.4-0.2-0.8-0.3-1.2-0.5l0.7-13C22.6,70,23,70.1,23.4,70.1z"/>
		</g>
		<path class="st1" d="M18.2,70c-0.2,4.2,20,8.7,45.3,10.2c25.3,1.4,45.9-0.8,46.2-5c0.2-4.2-20-8.7-45.3-10.1
			C39.1,63.6,18.4,65.8,18.2,70z"/>
		<path class="st0" d="M22.4,70.3c-0.2,3.4,21,7.3,41.2,8.4c20.2,1.1,41.5-0.4,41.7-3.7c0.2-3.3-20.8-7.3-41-8.4
			C44.1,65.4,22.6,66.9,22.4,70.3z"/>
		<path id="coin_6_" class="st2" d="M56.4,68.1c-3.1-0.2-5.7-0.2-7.8,0.2c-0.8,0.1-1.5,0.3-2,0.6c-0.5,0.2-0.8,0.5-1.1,0.7
			c-0.1,0.1-0.2,0.1-0.2,0.2l-5.4-0.4l-0.1,1.1l5.1,0.4l0,0.5L39.7,71l-0.1,1.1l5.3,0.4c0.1,0.1,0.3,0.2,0.5,0.4
			c0.5,0.4,1.3,0.8,2.4,1.2c1,0.4,2.3,0.7,3.8,1c1.5,0.3,3.1,0.5,4.6,0.6c3,0.2,4.4,0,5.1-0.3c0.7-0.3,0.7-0.8-0.1-1.1
			c-0.5-0.2-1.1-0.4-1.9-0.5c-1.1-0.1-1.8-0.2-2.3-0.3c-1.2-0.1-2.2-0.1-3,0.1c-0.4,0.1-0.6,0.2-0.8,0.3c0,0,0,0,0,0
			c-0.1,0-0.2,0-0.4-0.1c-0.5-0.1-1-0.2-1.4-0.4c-0.5-0.2-0.8-0.4-0.9-0.5c0,0,0,0-0.1-0.1l14.2,1c0.2,0.2,0.9,0.6,2.3,1.2
			c1.9,0.9,4.6,1.4,7.9,1.6c2.5,0.2,4.8,0.1,6.8-0.2c0.8-0.1,1.5-0.3,2-0.5c0.4-0.2,0.8-0.4,1.1-0.7l4.9,0.4l0.1-1.1l-4.4-0.3l0-0.5
			l4.4,0.3l0.1-1.1l-5-0.4c-0.1-0.1-0.3-0.3-0.6-0.5c-0.4-0.3-1.2-0.7-2.4-1.2c-1.2-0.5-3-0.8-5.1-1.1c-0.8-0.1-1.3-0.1-1.8-0.2
			c-3.4-0.2-4.4,0.2-4.6,0.5c0,0,0,0,0,0c0,0.4,0.4,0.7,1.3,1c0.9,0.3,2.1,0.5,3.6,0.6l0.2,0c1.1,0,2,0,2.5-0.2c0,0,0.1,0,0.1,0
			c0,0,0.1,0,0.1,0c0.4,0.1,0.7,0.2,0.9,0.3c0.2,0.1,0.4,0.2,0.5,0.4c0,0,0,0,0,0l-11.3-0.8c-0.2-0.1-0.5-0.3-0.9-0.6
			c-0.8-0.5-1.9-1-3.1-1.4C62.3,68.8,59.6,68.3,56.4,68.1z M72.5,74.5l6.4,0.5c-0.1,0-0.3,0.1-0.4,0.1c-0.6,0.1-1.4,0.1-2.5,0.1
			c-1.3-0.1-2.2-0.2-2.9-0.5C72.8,74.6,72.6,74.5,72.5,74.5z M63.3,72.7l-13.6-1l0-0.5l12.7,0.9L63.3,72.7z M70,72.7l10.5,0.8
			c0,0.1,0,0.1,0,0.2c0,0.1,0,0.2-0.1,0.3l-9.8-0.7L70,72.7z M59.1,70.3c0.5,0.2,0.9,0.4,1.2,0.5l-9.9-0.7c0.2-0.1,0.5-0.2,1-0.3
			c0.7-0.2,2-0.2,3.9-0.1C57,69.8,58.2,70,59.1,70.3z"/>
		<path id="scintillation_6_" class="st4" d="M87.2,72.3c4.3,0.3,5.5,1.7,5.4,3.3c0.1-1.3,1.9-2.8,6-2.6c0,0-5.8-0.2-5.6-3.3
			C92.8,72.8,87.2,72.3,87.2,72.3z"/>
		<path id="scintillation_5_" class="st4" d="M38.2,66.6c7,0.5,9.1,1.7,9,3.1c0.1-1.1,3-2.4,9.6-2c0,0-9.5-0.5-9.3-3.2
			C47.3,67.3,38.2,66.6,38.2,66.6z"/>
		<path id="scintillation_4_" class="st4" d="M54.4,75.9c4.4,0.3,5.6,1.7,5.5,3.3c0.1-1.3,2-2.9,6.1-2.6c0,0-5.9-0.2-5.7-3.4
			C60.1,76.4,54.4,75.9,54.4,75.9z"/>
	</g>
</g>
</svg>
