<?xml version="1.0" encoding="utf-8"?>
<!-- Generator: Adobe Illustrator 22.0.1, SVG Export Plug-In . SVG Version: 6.00 Build 0)  -->
<svg version="1.1" id="Ñëîé_1" xmlns="http://www.w3.org/2000/svg" xmlns:xlink="http://www.w3.org/1999/xlink" x="0px" y="0px"
	 viewBox="0 0 761.9 315.8" style="enable-background:new 0 0 761.9 315.8;" xml:space="preserve">
<style type="text/css">
	.st0{fill-rule:evenodd;clip-rule:evenodd;fill:#F0FAFE;}
	.st1{fill:#9CD1E8;}
	.st2{fill:#BFE7F8;}
	.st3{fill:#D6EFF9;}
	.st4{fill:#83C0DE;}
	.st5{fill:#EDFAF9;}
</style>
<g>
	<g>
		<g>
			<g>
				<path class="st0" d="M628.7,48.4c-100.5,21.4-285.6,23.1-391-25c-125-57-231.6,50.3-237,110c-21,231,447,206,642,124
					S764.7,19.4,628.7,48.4z M539.7,35.4c16.6,9.7,81,3,107-10c26-13-4-28-32-14c-28,14-60,15-70,7
					C534.7,10.4,510.7,18.4,539.7,35.4z M680.2,22.4c5.2,0,9.5-4.3,9.5-9.5c0-5.2-4.3-9.5-9.5-9.5c-5.2,0-9.5,4.3-9.5,9.5
					C670.7,18.2,674.9,22.4,680.2,22.4z"/>
			</g>
		</g>
	</g>
	<g>
		<g>
			<g>
				<g>
					<g>
						<polygon class="st1" points="346.7,261.6 316.6,261.6 307.7,202.2 351.1,202.2 						"/>
						<polygon class="st1" points="413.3,261.6 443.3,261.6 452.2,202.2 408.8,202.2 						"/>
						<path class="st2" d="M540.4,88.8L501,86.2l0,0.2C485.4,36.6,433.9,0,372.7,0c-73.5,0-133,52.8-133,117.9
							c0,65.1,59.6,117.9,133,117.9c46.5,0,87.4-21.1,111.1-53.1c20.9-11.1,36.3-11.1,42.3-16.9l8.6-18.7c0.7-0.1,3-0.2,3.7-0.3
							L540.4,88.8z"/>
						<polygon class="st2" points="329.1,261.6 299.1,261.6 290.2,202.2 333.6,202.2 						"/>
						<polygon class="st2" points="395.8,261.6 425.8,261.6 434.7,202.2 391.3,202.2 						"/>
						<path class="st3" d="M540.4,88.8L501,86.2l0,0.2C485.4,36.6,433.9,0,372.7,0c-53.2,0-99.1,27.7-120.4,67.8
							c-17.4,58.8,28.9,150.4,127,150.4c60.7,0,90.8-51.8,90.8-51.8l61.7-12.6l3.1-6.7c0.7-0.1,3-0.2,3.7-0.3L540.4,88.8z"/>
						<path class="st3" d="M486.2,57.5c2.1-17.6,15.8-29.6,18.2-42.4c2.4-12.8-44.6,7.8-64.7,15.6L486.2,57.5z"/>
						<path class="st2" d="M241.4,108.7c0,10.8-24.4,10.8-23.2-4.3c-0.5-5.4-19.4,29.6,27.5,26.4L241.4,108.7z"/>
					</g>
					<path class="st4" d="M407.5,30.3h-69.7c-5,0-9.1-2.5-9.1-5.7l0,0c0-3.1,4.1-5.7,9.1-5.7h69.7c5,0,9.1,2.5,9.1,5.7l0,0
						C416.6,27.7,412.5,30.3,407.5,30.3z"/>
					<path class="st1" d="M337.9,25.8c-2.9,0-5.5,0.9-7.2,2.2c1.7,1.4,4.3,2.2,7.2,2.2h69.7c2.9,0,5.5-0.9,7.2-2.2
						c-1.7-1.4-4.3-2.2-7.2-2.2H337.9z"/>
					<ellipse class="st1" cx="468.9" cy="82.3" rx="6.7" ry="9.7"/>
					<path class="st2" d="M538.5,146.8c-6.4,0-9.4-20.1-9.4-38.7c0-12.3,1.1-19.4,6.5-19.4c0.5,0,1,0.1,1.5,0.1
						c0.5,0.1,0.9,0.1,1.4,0.1c0.5,0,0.9,0,1.4-0.1c0.5-0.1,1-0.1,1.5-0.1c5.4,0,6.5,7.1,6.5,19.4
						C547.9,126.7,545,146.8,538.5,146.8z"/>
					<path class="st4" d="M536.8,107.1c0,3.5-0.8,6.3-1.7,6.3c-0.9,0-1.7-2.8-1.7-6.3c0-3.5,0.8-6.3,1.7-6.3
						C536,100.8,536.8,103.6,536.8,107.1z"/>
					<path class="st4" d="M545.7,107.1c0,3.5-0.8,6.3-1.7,6.3s-1.7-2.8-1.7-6.3c0-3.5,0.8-6.3,1.7-6.3S545.7,103.6,545.7,107.1z"/>
				</g>
				<path class="st3" d="M427,23.6c0,0.3,0.1,0.7,0.1,1l0,0c0,6.2-5,11.2-11.2,11.2h-86.2c-6.2,0-11.2-5-11.2-11.2l0,0
					c0-0.3,0-0.7,0.1-1h-8.5v36.7h123.6V23.6H427z"/>
				<ellipse class="st5" cx="314.5" cy="92.5" rx="44.5" ry="34"/>
				<ellipse class="st5" cx="359" cy="137.4" rx="18.1" ry="13.8"/>
			</g>
		</g>
	</g>
</g>
</svg>
