<?xml version="1.0" encoding="utf-8"?>
<!-- Generator: Adobe Illustrator 22.0.1, SVG Export Plug-In . SVG Version: 6.00 Build 0)  -->
<svg version="1.1" id="Layer_1" xmlns="http://www.w3.org/2000/svg" xmlns:xlink="http://www.w3.org/1999/xlink" x="0px" y="0px"
	 viewBox="0 0 59 54" style="enable-background:new 0 0 59 54;" xml:space="preserve">
<style type="text/css">
	.st0{fill:#6FB3D0;}
</style>
<g>
	<g>
		<path class="st0" d="M43.5,19.4C43.5,19.4,43.6,19.4,43.5,19.4c0.9-0.8,1.3-1.9,1.3-3.2c0-1.6-0.6-4.1-4.5-4.4V9.7
			c0-0.5-0.4-0.9-1-0.9c-0.5,0-1,0.4-1,0.9v2.1c-0.5,0-1.1,0-1.6,0V9.7c0-0.5-0.4-0.9-1-0.9s-1,0.4-1,0.9v2.1c-1.1,0-1.9,0-1.9,0v0
			c0,0,0,0,0,0h-2.5c-0.5,0-1,0.4-1,0.9s0.4,0.9,1,0.9h1.5v13.2h-1.5c-0.5,0-1,0.4-1,0.9s0.4,0.9,1,0.9h2.5c0,0,0,0,0,0h1.9v1.7
			c0,0.5,0.4,0.9,1,0.9s1-0.4,1-0.9v-1.7h1.6v1.7c0,0.5,0.4,0.9,1,0.9c0.5,0,1-0.4,1-0.9v-1.7h0.1c3.3,0,5.3-1.9,5.3-4.9
			C45.7,21.7,44.8,20.2,43.5,19.4z M34,13.8c1.5,0,4.2,0,5.5,0c2.9,0,3.2,1.3,3.2,2.4c0,0.7-0.2,1.3-0.6,1.7
			c-0.6,0.6-1.6,0.7-2.3,0.7H34V13.8z M40.4,26.7H34v-6h6.8c0.7,0,2.9,0.2,2.9,3.1C43.7,26.2,41.9,26.7,40.4,26.7z M59,20.3
			C59,9.1,49.7,0,38.3,0S17.6,9.1,17.6,20.3c0,0,0,0,0,0h-2.8v-2.7H8.3c-0.4-1.9-2.1-3.3-4.1-3.3c-2.3,0-4.2,1.9-4.2,4.1
			s1.9,4.1,4.2,4.1c1.9,0,3.6-1.3,4.1-3.1h4.6v2.7h4.8c0.1,1.4,0.4,2.8,0.8,4.2H12c-0.5,0-1,0.4-1,0.9s0.4,0.9,1,0.9h7.3
			c2.3,5.2,6.7,9.2,12.1,11.1c-0.1,0.2-0.2,0.3-0.2,0.6v3.2c-1.9,0.4-3.3,2.1-3.3,4c0,2.3,1.9,4.1,4.2,4.1s4.2-1.9,4.2-4.1
			c0-2-1.4-3.6-3.3-4v-3.2c0,0,0,0,0-0.1c1.4,0.4,2.8,0.6,4.2,0.6v8.7h5.2v3.9c0,0.5,0.4,0.9,1,0.9s1-0.4,1-0.9v-5.7h-5.2v-6.9
			c1.2,0,2.4-0.2,3.6-0.4c0,0.1,0,0.2,0,0.2v3.2c0,0.5,0.4,0.9,1,0.9s1-0.4,1-0.9v-3.2c0-0.2-0.1-0.5-0.3-0.6
			C52.8,37.1,59,29.4,59,20.3z M4.2,20.6c-1.3,0-2.3-1-2.3-2.3c0-1.2,1-2.3,2.3-2.3c1.3,0,2.3,1,2.3,2.3C6.5,19.6,5.5,20.6,4.2,20.6
			z M34.4,47.1c0,1.2-1,2.3-2.3,2.3s-2.3-1-2.3-2.3c0-1.2,1-2.3,2.3-2.3S34.4,45.8,34.4,47.1z M38.3,38.5
			c-10.3,0-18.7-8.2-18.7-18.3S28,2,38.3,2C48.6,2,57,10.2,57,20.3S48.6,38.5,38.3,38.5z"/>
	</g>
</g>
</svg>
