<?xml version="1.0" encoding="utf-8"?>
<!-- Generator: Adobe Illustrator 22.0.1, SVG Export Plug-In . SVG Version: 6.00 Build 0)  -->
<svg version="1.1" id="Layer_1" xmlns="http://www.w3.org/2000/svg" xmlns:xlink="http://www.w3.org/1999/xlink" x="0px" y="0px"
	 viewBox="0 0 66 72" style="enable-background:new 0 0 66 72;" xml:space="preserve">
<style type="text/css">
	.st0{fill:#D6EFF9;}
	.st1{fill:#4E5F83;}
</style>
<g>
	<path class="st0" d="M59,0.8H17c-1.5,0-2.7,1.2-2.7,2.8v6v28.2c0,1.5,1.2,2.8,2.7,2.8h5.2v7.3c0,0.3,0.1,0.5,0.4,0.6
		c0.1,0.1,0.3,0.1,0.4,0.1s0.2,0,0.3-0.1l15.8-7.9h19.8c1.5,0,2.8-1.2,2.8-2.8V9.6v-6C61.8,2.1,60.6,0.8,59,0.8z"/>
	<g>
		<g>
			<g>
				<path class="st1" d="M46,71.9H20c-0.4,0-0.8-0.3-0.8-0.8v-5.7c0-0.4,0.3-0.8,0.8-0.8h26c0.4,0,0.8,0.3,0.8,0.8v5.7
					C46.8,71.6,46.5,71.9,46,71.9z M20.8,70.4h24.5v-4.3H20.8V70.4z"/>
			</g>
			<g>
				<path class="st1" d="M53,72H13c-0.4,0-0.8-0.3-0.8-0.8c0-0.4,0.3-0.8,0.8-0.8h40c0.4,0,0.8,0.3,0.8,0.8S53.5,72,53,72z"/>
			</g>
			<g>
				<circle class="st1" cx="33" cy="62.3" r="0.8"/>
			</g>
			<g>
				<path class="st1" d="M18,54.2c-0.1,0-0.3,0-0.4-0.1c-0.2-0.1-0.4-0.4-0.4-0.6v-7.3H12c-1.5,0-2.8-1.2-2.8-2.8V15.3
					c0-0.4,0.3-0.8,0.8-0.8h46c0.4,0,0.8,0.3,0.8,0.8v28.2c0,1.5-1.2,2.8-2.8,2.8H34.2l-15.8,7.9C18.3,54.1,18.2,54.2,18,54.2z
					 M10.8,16v27.4c0,0.7,0.6,1.3,1.3,1.3h6c0.4,0,0.8,0.3,0.8,0.8v6.8l14.9-7.5c0.1-0.1,0.2-0.1,0.3-0.1h20c0.7,0,1.3-0.6,1.3-1.3
					V16H10.8z"/>
			</g>
			<g>
				<path class="st1" d="M56,16H10c-0.4,0-0.8-0.3-0.8-0.8v-6c0-1.5,1.2-2.8,2.8-2.8h42c1.5,0,2.8,1.2,2.8,2.8v6
					C56.8,15.7,56.5,16,56,16z M10.8,14.5h44.5V9.3C55.3,8.6,54.7,8,54,8H12c-0.7,0-1.3,0.6-1.3,1.3L10.8,14.5L10.8,14.5z"/>
			</g>
			<g>
				<path class="st1" d="M42,12c-0.2,0-0.4-0.1-0.5-0.2c-0.1-0.1-0.2-0.3-0.2-0.5s0.1-0.4,0.2-0.5c0.3-0.3,0.8-0.3,1.1,0
					c0.1,0.1,0.2,0.3,0.2,0.5s-0.1,0.4-0.2,0.5C42.4,11.9,42.2,12,42,12z"/>
			</g>
			<g>
				<path class="st1" d="M45.8,11.2c0-0.4,0.3-0.8,0.8-0.8l0,0c0.4,0,0.8,0.3,0.8,0.8l0,0c0,0.4-0.3,0.8-0.8,0.8l0,0
					C46.1,12,45.8,11.7,45.8,11.2z"/>
			</g>
			<g>
				<path class="st1" d="M51,12c-0.2,0-0.4-0.1-0.5-0.2c-0.1-0.1-0.2-0.3-0.2-0.5s0.1-0.4,0.2-0.5c0.3-0.3,0.8-0.3,1.1,0
					c0.1,0.2,0.2,0.3,0.2,0.5s-0.1,0.4-0.2,0.5C51.4,11.9,51.2,12,51,12z"/>
			</g>
			<g>
				<path class="st1" d="M5,47c-0.4,0-0.8-0.3-0.8-0.8V34.6c0-0.4,0.3-0.8,0.8-0.8c0.4,0,0.8,0.3,0.8,0.8v11.7C5.8,46.7,5.5,47,5,47
					z"/>
			</g>
			<g>
				<path class="st1" d="M5,31.3c-0.4,0-0.8-0.3-0.8-0.8v-2.3c0-0.4,0.3-0.8,0.8-0.8c0.4,0,0.8,0.3,0.8,0.8v2.3
					C5.8,31,5.5,31.3,5,31.3z"/>
			</g>
			<path class="st1" d="M65.8,22.2c0-2-1.7-3.7-3.8-3.7h-6V20h6c1.2,0,2.3,1,2.3,2.3v36.1H1.8V22.3c0-1.2,1-2.3,2.3-2.3h6.1v-1.5h-6
				c-2.1,0-3.8,1.7-3.8,3.8v39.9c0,2.1,1.7,3.8,3.8,3.8h57.9c2.1,0,3.8-1.7,3.7-3.8V22.2z M64.3,62.3c0,1.3-1.1,2.3-2.3,2.3H4.1
				c-1.3,0-2.3-1.1-2.3-2.3V60h62.5V62.3z"/>
		</g>
	</g>
	<g>
		<path class="st1" d="M33.2,33.6c-0.4,0-0.8-0.3-0.8-0.8v-0.6c0-2.4,1.4-3.5,2.5-4.3c1-0.7,1.7-1.3,1.7-2.7c0-1.6-1-2.9-2.4-3.3
			c-1.1-0.3-2.3-0.1-3.2,0.5c-0.9,0.7-1.4,1.7-1.4,2.8c0,0.4-0.3,0.8-0.7,0.8c-0.4,0-0.8-0.3-0.8-0.8c0-1.6,0.8-3.1,2-4
			c1.3-1,2.9-1.2,4.5-0.8c2.1,0.6,3.5,2.5,3.5,4.8c0,2.2-1.3,3.1-2.4,3.9c-1,0.8-1.9,1.4-1.9,3.1v0.6C33.9,33.3,33.6,33.6,33.2,33.6
			z"/>
	</g>
	<g>
		<path class="st1" d="M33.9,36.4c-0.4-0.4-1-0.4-1.4,0c-0.2,0.2-0.3,0.4-0.3,0.7s0.1,0.5,0.3,0.7s0.4,0.3,0.7,0.3s0.5-0.1,0.7-0.3
			s0.3-0.4,0.3-0.7C34.2,36.9,34.1,36.6,33.9,36.4z"/>
	</g>
</g>
</svg>
