<?xml version="1.0" encoding="utf-8"?>
<!-- Generator: Adobe Illustrator 22.0.1, SVG Export Plug-In . SVG Version: 6.00 Build 0)  -->
<svg version="1.1" id="Layer_1" xmlns="http://www.w3.org/2000/svg" xmlns:xlink="http://www.w3.org/1999/xlink" x="0px" y="0px"
	 viewBox="0 0 478 312" style="enable-background:new 0 0 478 312;" xml:space="preserve">
<style type="text/css">
	.st0{fill:#D6EFF9;}
	.st1{fill:#BFE7F8;}
	.st2{fill:#87BFE7;}
	.st3{fill:#00957A;}
	.st4{fill:#00C876;}
	.st5{fill:#00AEF4;}
	.st6{fill:#00D1FD;}
	.st7{fill:#3198DE;}
	.st8{fill:#FFFFFF;}
	.st9{fill:#F7AA26;}
	.st10{fill:#FFDC45;}
	.st11{fill:#2D2D48;}
	.st12{fill:url(#SVGID_1_);}
</style>
<g>
	<g>
		<g>
			<path class="st0" d="M57.7,218.3c-12.7-26.4-19.9-55.9-22.3-83.6C30.2,77.2,59.5,22.9,118.6,10.3c36.8-7.8,73.2,1.8,101.9,29
				c1.9,1.8,3.8,3.6,5.6,5.5c15.4,15.6,29.2,33.3,46,46.7c20,16,43.5,25.3,67.2,31.6c22,5.9,48.7,5.3,67.2,21.7
				c17.6,15.5,22.5,42.4,17.6,66c-5.7,27.4-24.5,47.6-46.1,60.2c-73.8,43.2-173.8,56-252.7,18.5c-5.4-2.6-10.6-5.4-15.8-8.4
				c-5.4-3.2-10-7.5-14.7-11.7C79.3,255.5,67,237.7,57.7,218.3z"/>
			<path class="st1" d="M242.4,251.8c-22.1-2-44.4-6.1-66.5-6.3c-27.4-0.3-61.3-2.3-85.9,11.6c-16.4,9.3-6.4,25.8,5.5,33
				c13.7,8.4,30.7,10.6,46.5,9.9c22.1-1,43.9-6.9,66-6.5c29.3,0.5,57.4,10.4,86.7,11.8c30,1.4,60.4-2.6,88.1-14.6
				c8.8-3.8,18.8-11.4,16.5-20.7c-0.9-3.5-3.4-6.3-6-8.9c-15.8-15.3-37.8-23.6-59.7-23.3c-23.7,0.4-44.6,14.6-68.2,14.9
				C257.7,252.9,250.1,252.5,242.4,251.8z"/>
			<g>
				<path class="st2" d="M358.7,282c-0.5,0-0.9-0.4-1-0.9c-0.1-0.5,0.3-1,0.9-1.1c3.6-0.4,7.5-1.2,11.5-2.4c0.5-0.2,1.1,0.1,1.3,0.7
					c0.2,0.5-0.1,1.1-0.7,1.3c-4.1,1.3-8.1,2.1-11.9,2.5C358.8,282,358.8,282,358.7,282z M346.8,281.7c-0.1,0-0.1,0-0.2,0
					c-4-0.7-7.9-2.1-11.5-4c-0.5-0.3-0.7-0.9-0.4-1.4s0.9-0.7,1.4-0.4c3.4,1.8,7.1,3.1,10.9,3.8c0.5,0.1,0.9,0.6,0.8,1.2
					C347.7,281.3,347.3,281.7,346.8,281.7z M381.7,275.4c-0.4,0-0.8-0.2-0.9-0.6c-0.2-0.5,0-1.1,0.5-1.3c3.8-1.6,7.4-3.2,10.9-4.9
					c0.5-0.2,1.1,0,1.3,0.4c0.2,0.5,0,1.1-0.4,1.3c-3.5,1.7-7.2,3.4-11,5C382,275.4,381.8,275.4,381.7,275.4z M326,270.7
					c-0.2,0-0.5-0.1-0.7-0.3c-2.7-2.6-5.4-5.6-8-9.1c-0.3-0.4-0.2-1.1,0.2-1.4c0.4-0.3,1.1-0.2,1.4,0.2c2.5,3.4,5.2,6.3,7.8,8.8
					c0.4,0.4,0.4,1,0,1.4C326.5,270.6,326.3,270.7,326,270.7z M403.1,264.6c-0.3,0-0.7-0.2-0.9-0.5c-0.3-0.5-0.1-1.1,0.3-1.4
					c3.5-2.1,6.8-4.4,9.8-6.7c0.4-0.3,1.1-0.3,1.4,0.2c0.3,0.4,0.3,1.1-0.2,1.4c-3.1,2.4-6.4,4.7-10,6.9
					C403.5,264.6,403.3,264.6,403.1,264.6z M311.5,251.8c-0.3,0-0.7-0.2-0.9-0.5c-1.9-3.2-3.8-6.7-5.7-10.6c-0.2-0.5,0-1.1,0.4-1.3
					c0.5-0.2,1.1,0,1.3,0.4c1.9,3.9,3.8,7.3,5.7,10.5c0.3,0.5,0.1,1.1-0.4,1.4C311.8,251.7,311.6,251.8,311.5,251.8z M422,249.9
					c-0.3,0-0.5-0.1-0.7-0.3c-0.4-0.4-0.4-1,0-1.4c2.9-2.9,5.4-5.9,7.6-9c0.3-0.5,0.9-0.6,1.4-0.2c0.5,0.3,0.6,0.9,0.2,1.4
					c-2.3,3.2-4.9,6.3-7.8,9.3C422.5,249.8,422.2,249.9,422,249.9z M300.6,230.4c-0.4,0-0.7-0.2-0.9-0.6c-1.5-3.4-3.1-7-4.8-11.1
					c-0.2-0.5,0-1.1,0.5-1.3c0.5-0.2,1.1,0,1.3,0.5c1.7,4.1,3.2,7.7,4.7,11c0.2,0.5,0,1.1-0.5,1.3
					C300.9,230.3,300.8,230.4,300.6,230.4z M435.6,230.4c-0.1,0-0.3,0-0.4-0.1c-0.5-0.2-0.7-0.8-0.5-1.3c1.6-3.6,2.8-7.4,3.5-11.2
					c0.1-0.5,0.6-0.9,1.2-0.8c0.5,0.1,0.9,0.6,0.8,1.2c-0.8,3.9-2,7.8-3.7,11.6C436.4,230.1,436,230.4,435.6,230.4z M291.3,208.2
					c-0.4,0-0.8-0.2-0.9-0.6c-1.5-3.7-2.9-7.4-4.4-11.2c-0.2-0.5,0-1.1,0.6-1.3c0.5-0.2,1.1,0,1.3,0.6c1.5,3.8,3,7.5,4.4,11.2
					c0.2,0.5,0,1.1-0.6,1.3C291.6,208.2,291.5,208.2,291.3,208.2z M440.1,207c-0.5,0-1-0.4-1-1c-0.2-3.9-0.9-7.8-2-11.6
					c-0.2-0.5,0.1-1.1,0.7-1.2c0.5-0.2,1.1,0.2,1.2,0.7c1.2,3.9,1.8,8,2,12C441.1,206.5,440.7,207,440.1,207
					C440.1,207,440.1,207,440.1,207z M325.9,192.2c-0.2,0-0.4-0.1-0.6-0.2c-0.4-0.3-0.5-1-0.2-1.4c1.6-2.1,4.3-5.3,7.9-9.2
					c0.4-0.4,1-0.4,1.4,0c0.4,0.4,0.4,1,0,1.4c-3.6,3.8-6.2,7-7.8,9C326.5,192.1,326.2,192.2,325.9,192.2z M92.3,190.6
					c-3.1,0-6.2-0.1-9.1-0.3c-0.6,0-1-0.5-0.9-1.1c0-0.6,0.5-1,1.1-0.9c2.9,0.2,6,0.3,9,0.3c1,0,2,0,2.9,0c0.5,0,1,0.4,1,1
					s-0.4,1-1,1C94.3,190.6,93.3,190.6,92.3,190.6z M107.2,189.9c-0.5,0-0.9-0.4-1-0.9c0-0.5,0.4-1,0.9-1.1
					c7.2-0.6,11.8-1.5,11.8-1.5c0.5-0.1,1.1,0.2,1.2,0.8c0.1,0.5-0.2,1.1-0.8,1.2C119.1,188.4,114.5,189.3,107.2,189.9
					C107.2,189.9,107.2,189.9,107.2,189.9z M71.2,189.1c0,0-0.1,0-0.2,0c-4.1-0.6-8.1-1.4-11.9-2.4c-0.5-0.1-0.9-0.7-0.7-1.2
					s0.7-0.8,1.2-0.7c3.7,1,7.6,1.8,11.6,2.4c0.5,0.1,0.9,0.6,0.8,1.1C72.2,188.7,71.7,189.1,71.2,189.1z M282.5,185.9
					c-0.4,0-0.8-0.2-0.9-0.6c-1.5-3.7-3-7.4-4.5-11.1c-0.2-0.5,0-1.1,0.5-1.3c0.5-0.2,1.1,0,1.3,0.5c1.5,3.7,3,7.5,4.5,11.1
					c0.2,0.5,0,1.1-0.6,1.3C282.7,185.9,282.6,185.9,282.5,185.9z M433.5,184.1c-0.4,0-0.7-0.2-0.9-0.5c-1.9-3.4-4.1-6.7-6.7-9.7
					c-0.4-0.4-0.3-1.1,0.1-1.4c0.4-0.4,1.1-0.3,1.4,0.1c2.7,3.1,5,6.5,6.9,10c0.3,0.5,0.1,1.1-0.4,1.4
					C433.8,184.1,433.6,184.1,433.5,184.1z M48.1,182.8c-0.1,0-0.3,0-0.4-0.1c-3.8-1.6-7.5-3.5-10.8-5.6c-0.5-0.3-0.6-0.9-0.3-1.4
					c0.3-0.5,0.9-0.6,1.4-0.3c3.2,2,6.8,3.9,10.5,5.4c0.5,0.2,0.8,0.8,0.5,1.3C48.9,182.6,48.5,182.8,48.1,182.8z M342.4,174.7
					c-0.3,0-0.6-0.1-0.7-0.3c-0.4-0.4-0.3-1,0.1-1.4c3.1-2.8,6.3-5.3,9.5-7.6c0.5-0.3,1.1-0.2,1.4,0.2c0.3,0.5,0.2,1.1-0.2,1.4
					c-3.1,2.2-6.2,4.7-9.3,7.4C342.8,174.6,342.6,174.7,342.4,174.7z M28,170c-0.2,0-0.5-0.1-0.7-0.3c-3-2.8-5.6-5.9-7.9-9.2
					c-0.3-0.5-0.2-1.1,0.3-1.4c0.5-0.3,1.1-0.2,1.4,0.3c2.2,3.2,4.8,6.2,7.7,8.9c0.4,0.4,0.4,1,0,1.4C28.5,169.9,28.3,170,28,170z
					 M418,166c-0.2,0-0.4-0.1-0.6-0.2c-3.1-2.4-6.4-4.6-9.9-6.4c-0.5-0.3-0.7-0.9-0.4-1.3s0.9-0.7,1.3-0.4c3.6,1.9,7,4.1,10.2,6.6
					c0.4,0.3,0.5,1,0.2,1.4C418.6,165.9,418.3,166,418,166z M273.3,163.7c-0.4,0-0.8-0.2-0.9-0.6c-1.6-3.8-3.3-7.5-4.9-11
					c-0.2-0.5,0-1.1,0.5-1.3c0.5-0.2,1.1,0,1.3,0.5c1.6,3.5,3.2,7.2,4.9,11c0.2,0.5,0,1.1-0.5,1.3
					C273.5,163.7,273.4,163.7,273.3,163.7z M362,161c-0.4,0-0.7-0.2-0.9-0.5c-0.3-0.5-0.1-1.1,0.4-1.3c3.8-2,7.6-3.5,11.3-4.6
					c0.5-0.2,1.1,0.1,1.2,0.7c0.2,0.5-0.1,1.1-0.7,1.2c-3.6,1.1-7.3,2.6-10.9,4.5C362.3,160.9,362.1,161,362,161z M396.8,155.3
					c-0.1,0-0.1,0-0.2,0c-3.8-0.9-7.8-1.2-11.6-1c-0.5,0-1-0.4-1.1-0.9c0-0.6,0.4-1,0.9-1.1c4.1-0.2,8.2,0.1,12.2,1
					c0.5,0.1,0.9,0.7,0.8,1.2C397.6,155,397.2,155.3,396.8,155.3z M14.5,150.5c-0.4,0-0.8-0.2-0.9-0.6c-1.5-3.6-2.8-7.5-3.8-11.5
					c-0.1-0.5,0.2-1.1,0.7-1.2c0.5-0.1,1.1,0.2,1.2,0.7c0.9,3.9,2.2,7.7,3.7,11.2c0.2,0.5,0,1.1-0.5,1.3
					C14.7,150.4,14.6,150.5,14.5,150.5z M263.2,141.9c-0.4,0-0.7-0.2-0.9-0.6c-1.8-3.7-3.6-7.3-5.5-10.7c-0.3-0.5-0.1-1.1,0.4-1.4
					c0.5-0.3,1.1-0.1,1.4,0.4c1.8,3.4,3.7,7,5.5,10.7c0.2,0.5,0,1.1-0.5,1.3C263.5,141.8,263.4,141.9,263.2,141.9z M8.9,127.3
					c-0.5,0-0.9-0.4-1-0.9c-0.1-0.6-0.1-1.3-0.2-2c-0.2-2.9-0.3-5.8-0.3-8.6c0-0.5,0-1,0-1.5c0-0.5,0.5-1,1-1c0,0,0,0,0,0
					c0.6,0,1,0.5,1,1c0,0.5,0,1,0,1.5c0,2.8,0.1,5.6,0.3,8.4c0,0.6,0.1,1.3,0.2,1.9C9.9,126.7,9.5,127.2,8.9,127.3
					C8.9,127.3,8.9,127.3,8.9,127.3z M251.9,120.7c-0.3,0-0.7-0.2-0.9-0.5c-2-3.5-4.2-6.9-6.3-10.2c-0.3-0.5-0.2-1.1,0.3-1.4
					c0.5-0.3,1.1-0.2,1.4,0.3c2.1,3.3,4.3,6.8,6.3,10.3c0.3,0.5,0.1,1.1-0.4,1.4C252.2,120.7,252.1,120.7,251.9,120.7z M9.2,103.3
					c0,0-0.1,0-0.1,0c-0.5-0.1-0.9-0.6-0.9-1.1c0.5-4,1.2-8,2.1-11.9c0.1-0.5,0.7-0.9,1.2-0.7c0.5,0.1,0.9,0.7,0.7,1.2
					c-0.9,3.8-1.6,7.7-2.1,11.7C10.1,102.9,9.7,103.3,9.2,103.3z M238.8,100.5c-0.3,0-0.6-0.1-0.8-0.4c-2.3-3.3-4.8-6.5-7.2-9.5
					c-0.3-0.4-0.3-1.1,0.2-1.4c0.4-0.3,1.1-0.3,1.4,0.2c2.5,3.1,4.9,6.3,7.3,9.6c0.3,0.4,0.2,1.1-0.2,1.4
					C239.3,100.5,239.1,100.5,238.8,100.5z M223.8,81.8c-0.3,0-0.5-0.1-0.7-0.3c-2.7-3-5.5-5.8-8.3-8.6c-0.4-0.4-0.4-1,0-1.4
					c0.4-0.4,1-0.4,1.4,0c2.8,2.8,5.7,5.7,8.4,8.7c0.4,0.4,0.3,1-0.1,1.4C224.3,81.7,224,81.8,223.8,81.8z M14.7,80
					c-0.1,0-0.2,0-0.3-0.1c-0.5-0.2-0.8-0.8-0.6-1.3c1.4-3.8,3-7.5,4.9-11.1c0.3-0.5,0.9-0.7,1.3-0.4c0.5,0.3,0.7,0.9,0.4,1.3
					c-1.8,3.5-3.4,7.1-4.8,10.9C15.5,79.8,15.1,80,14.7,80z M206.6,65.2c-0.2,0-0.5-0.1-0.6-0.2c-3-2.6-6.2-5-9.4-7.4
					c-0.4-0.3-0.5-1-0.2-1.4c0.3-0.4,1-0.5,1.4-0.2c3.2,2.3,6.4,4.8,9.5,7.4c0.4,0.4,0.5,1,0.1,1.4
					C207.1,65.1,206.8,65.2,206.6,65.2z M25.7,58.8c-0.2,0-0.4-0.1-0.6-0.2c-0.5-0.3-0.6-0.9-0.2-1.4c2.3-3.3,4.9-6.5,7.6-9.5
					c0.4-0.4,1-0.4,1.4-0.1c0.4,0.4,0.4,1,0.1,1.4c-2.7,2.9-5.2,6-7.4,9.2C26.4,58.6,26,58.8,25.7,58.8z M187.2,51
					c-0.2,0-0.4-0.1-0.5-0.2c-3.4-2.2-6.8-4.3-10.2-6.3c-0.5-0.3-0.6-0.9-0.4-1.4c0.3-0.5,0.9-0.6,1.4-0.4c3.4,2,6.9,4.1,10.3,6.3
					c0.5,0.3,0.6,0.9,0.3,1.4C187.9,50.9,187.5,51,187.2,51z M42,41.2c-0.3,0-0.6-0.1-0.8-0.4c-0.3-0.4-0.3-1.1,0.1-1.4
					c3.1-2.6,6.5-4.9,9.9-7c0.5-0.3,1.1-0.1,1.4,0.3c0.3,0.5,0.1,1.1-0.3,1.4c-3.4,2-6.6,4.3-9.7,6.8C42.4,41.1,42.2,41.2,42,41.2z
					 M166.5,39c-0.2,0-0.3,0-0.5-0.1c-3.6-1.8-7.2-3.5-10.8-5.1c-0.5-0.2-0.7-0.8-0.5-1.3c0.2-0.5,0.8-0.7,1.3-0.5
					c3.6,1.6,7.3,3.3,10.9,5.1c0.5,0.3,0.7,0.9,0.4,1.3C167.2,38.8,166.8,39,166.5,39z M144.4,29.5c-0.1,0-0.2,0-0.3-0.1
					c-3.8-1.3-7.6-2.5-11.4-3.5c-0.5-0.1-0.8-0.7-0.7-1.2s0.7-0.8,1.2-0.7c3.8,1,7.7,2.2,11.5,3.6c0.5,0.2,0.8,0.8,0.6,1.3
					C145.2,29.2,144.9,29.5,144.4,29.5z M62.4,28.8c-0.4,0-0.8-0.2-0.9-0.6c-0.2-0.5,0-1.1,0.5-1.3c3.7-1.6,7.5-2.9,11.4-4
					c0.5-0.1,1.1,0.2,1.2,0.7c0.1,0.5-0.2,1.1-0.7,1.2c-3.8,1.1-7.6,2.4-11.2,3.9C62.7,28.8,62.5,28.8,62.4,28.8z M121.3,23.3
					c-0.1,0-0.1,0-0.2,0c-4-0.7-7.9-1.2-11.8-1.5c-0.5,0-1-0.5-0.9-1.1c0-0.6,0.5-1,1.1-0.9c3.9,0.3,8,0.8,12,1.6
					c0.5,0.1,0.9,0.6,0.8,1.2C122.2,23,121.8,23.3,121.3,23.3z M85.5,22.4c-0.5,0-0.9-0.4-1-0.9c-0.1-0.5,0.3-1.1,0.8-1.1
					c3.9-0.6,8-0.9,12.1-1c0,0,0,0,0,0c0.5,0,1,0.4,1,1c0,0.6-0.4,1-1,1c-4,0.1-8,0.4-11.8,1C85.6,22.4,85.5,22.4,85.5,22.4z"/>
			</g>
			<g>
				<g>
					<g>
						<path class="st3" d="M20.2,173.1l18.8,2.8l-14.3,2.8c4.5,5.4,8.2,9.5,13.7,15.1l27.8,0l-21.7,6.2c6.4,6.2,9.7,9.5,16.8,14.9
							C73.7,212.7,87,211,87,211l-17.2,10.2c8.7,6,17.7,10.8,26.8,13.5c1.5,0.4,0.1,0.1,1.5,0.4l17.4-4.1l-7.8,6.6
							c38.5,8.6,50.4-4.8,50.4-4.8s0-0.7-0.2-2.2c-0.2-1.1-0.4-2.6-0.9-4.5c-1.9-7.4-7.1-20.5-21.2-37.6l-2.2,13.2l-3.8-17.6
							c-1.3-1.2-2.7-2.4-4.1-3.6c-4.6-3.8-3.6-3.9-9.4-6.8l-2.9,18.4l-5.4-22.8c-3.4-1.7-7-3.2-10.7-4.6l1.3,18l-9.9-20.7
							c-7-2.4-9.5-3.1-16.8-4.8l1.6,18.7l-11.2-20.5c-10.9-2.3-10.5-2.1-20-3.1l3.4,15.8L34.6,151c-16-1.4-32.2-1.6-32.2-1.6
							S8.2,158.5,20.2,173.1z"/>
					</g>
				</g>
			</g>
			<path class="st4" d="M26,42.8c5.1,6.9,7.5,16.2,6.4,24.6c0.5,1.4,1,3.1,1.6,5c3.2-7.7,8.7-14.3,15.3-19.3
				c-2,8.4-7.6,16.3-14.8,20.8c1,3.1,2.1,6.6,3.5,10.5c0.6,1.8,1.3,3.7,1.9,5.7c0.3,0.9,0.7,1.9,1,2.8C46.3,82,55.5,73.4,66.1,67.6
				c-4.2,11.5-13.8,21.5-25.1,26c0.3,0.8,0.6,1.7,0.9,2.6c1.5,4.2,3.2,8.6,5,13.3c0.8,2.1,1.7,4.2,2.6,6.4C55,102.3,65,91,77,82.9
				c-3.4,14.5-13.7,27.8-26.7,34.9c2.1,5,4.3,10.2,6.6,15.4c0.1,0,0.1,0.1,0.2,0.1c0,0-0.1,0-0.1,0c0.8,1.8,1.6,3.6,2.5,5.4
				c0.1,0.2,0.2,0.4,0.3,0.5c5.5-15.6,17.8-29.2,32.7-35.8c-6.1,15.7-17.7,28.7-31.7,37.9c4.3,9,8.6,17.4,12.6,24.8
				c0.3,0.6,0.7,1.2,1,1.8c3.3-20,15.8-39,32.7-49.6c-4.6,20-16.5,37.7-31.9,51.1c1.6,2.8,3.1,5.5,4.6,8c1,1.7,2,3.4,3,5
				c1,1.6,1.9,3.1,2.8,4.5c0,0,0,0.1,0.1,0.1c5.5-18.5,19.3-35,36.5-43.2c-6.5,18.4-19.5,33.8-35.4,44.9
				c6.5,10.3,10.7,16.1,10.5,16.7c-0.1,0.4-3.4-3.1-8.8-10.5c-14.4,7-30.9,8.5-46.6,5.8c13.2-8.5,30.7-11.2,45.7-7.1
				c-0.8-1.2-1.7-2.4-2.7-3.8c0,0-0.1,0.1-0.1,0.1c0-0.1,0-0.1,0-0.2c-0.1-0.1-0.1-0.1-0.2-0.2c-0.9-1.4-1.9-2.8-2.9-4.3
				c-1-1.5-2-3.2-3.1-4.9c-0.4-0.6-0.8-1.2-1.2-1.9c-19.3,5.9-40.2,4.7-59.3-1.5c17.8-8.1,39.7-8.5,57.7-1.1c-1.3-2.2-2.6-4.4-4-6.8
				c-1.7-3-3.5-6.3-5.3-9.6C46.4,162,25.9,157,8.1,147.1c19.2-4.7,41-0.8,57.3,10c-2.6-5-5.2-10.2-7.8-15.8c-1.2-2.5-2.3-5-3.4-7.5
				c-16.5,2.6-33.4-0.7-48.4-7.9c15.3-4.7,33-2.8,47,4.8c-2.5-5.9-4.9-11.7-7-17.2c-14.8-0.8-29.5-8.2-38.8-19.4
				c13.8,1.4,26.7,7.4,37.5,16.1c-1.6-4.5-3.2-8.7-4.5-12.8c-0.7-2.2-1.4-4.3-2.1-6.3c-0.3-0.9-0.5-1.7-0.8-2.5
				C27.6,89.6,18,85.6,11.9,78c9-0.5,17.5,2.8,24.6,8.5c-0.1-0.4-0.3-0.9-0.4-1.3c-1.2-3.9-2.2-7.4-3-10.5c0,0,0,0,0,0
				c0,0,0-0.1,0-0.1c-0.1-0.5-0.3-1-0.4-1.4c-8.3-2.2-16.1-7.9-20.4-15.1c7.6,2.3,14.4,6.9,19.8,12.7c-0.3-1-0.5-2-0.7-2.9
				C27.1,60.4,25.4,51.5,26,42.8z"/>
			<g>
				<g>
					<g>
						<path class="st3" d="M455,151.8l-19,0.4l13.9,4.6c-5.2,4.8-9.3,8.4-15.5,13.3l-27.6-3.4l20.8,8.8c-7.1,5.4-10.8,8.3-18.5,12.6
							c-12-3.8-25-7.1-25-7.1l15.8,12.3c-9.4,4.8-18.9,8.5-28.3,10c-1.5,0.2-0.1,0-1.5,0.2l-16.7-6.3l6.9,7.5
							c-39.3,3.8-49.4-11.1-49.4-11.1s0.1-0.7,0.5-2.2c0.3-1.1,0.8-2.5,1.5-4.3c2.8-7.1,9.6-19.4,25.8-34.6l0.5,13.4l5.9-17
							c1.5-1,3-2,4.5-3c5.1-3.2,4.1-3.4,10.2-5.6l0.5,18.6l8.2-21.9c3.6-1.2,7.3-2.3,11.2-3.2l-3.6,17.7l12.4-19.3
							c7.2-1.6,9.8-1.9,17.3-2.7l-3.9,18.3l13.7-18.9c11.1-0.9,10.7-0.7,20.3-0.6l-5.3,15.2l13-15.6c16,0.6,32.1,2.4,32.1,2.4
							S468.7,138.9,455,151.8z"/>
					</g>
				</g>
			</g>
			<g>
				<g>
					<g>
						<path class="st4" d="M422,108.7l-16.6,9.3l14.4-2.5c-2.3,6.6-4.3,11.8-7.4,19l-26,9.9l22.5-2c-3.7,8.1-5.7,12.4-10.4,19.9
							c-12.4,2.3-25.4,5.5-25.4,5.5l19.7,3.4c-6,8.7-12.7,16.4-20.2,22.1c-1.2,0.9,0,0.1-1.2,0.9l-17.7,2.3l9.7,3.4
							c-32.9,21.8-48.8,13.5-48.8,13.5s-0.3-0.7-0.6-2.1c-0.2-1.1-0.5-2.6-0.7-4.5c-0.8-7.6-0.6-21.7,6.5-42.7l6.7,11.6l-2.7-17.8
							c0.8-1.6,1.7-3.2,2.6-4.8c2.9-5.2,2-4.9,6.4-9.7l9.2,16.2l-3.1-23.2c2.6-2.8,5.4-5.5,8.3-8.1l5.2,17.3l1.9-22.9
							c5.7-4.8,7.8-6.3,14-10.5l5.2,18l3.2-23.2c9.4-6,9.1-5.7,17.6-10l2.5,15.9l4.1-19.9c14.4-7,29.5-13,29.5-13
							S428.1,90.8,422,108.7z"/>
					</g>
				</g>
			</g>
			<circle class="st3" cx="467.6" cy="160" r="6.7"/>
			<circle class="st3" cx="448.3" cy="179.4" r="2.8"/>
			<g>
				<path class="st2" d="M192.3,33.7c-0.2,0-0.5-0.1-0.6-0.2c-1.1-0.9-2.2-1.8-3.3-2.6c-0.4-0.3-0.5-1-0.2-1.4
					c0.3-0.4,1-0.5,1.4-0.2c1.1,0.9,2.2,1.8,3.3,2.7c0.4,0.4,0.5,1,0.1,1.4C192.9,33.6,192.6,33.7,192.3,33.7z M179.3,24
					c-0.2,0-0.4-0.1-0.5-0.2c-3.3-2.2-6.8-4.2-10.2-6.1c-0.5-0.3-0.7-0.9-0.4-1.4c0.3-0.5,0.9-0.7,1.4-0.4c3.5,1.9,7,4,10.4,6.2
					c0.5,0.3,0.6,0.9,0.3,1.4C179.9,23.9,179.6,24,179.3,24z M53,13c-0.4,0-0.7-0.2-0.9-0.6c-0.2-0.5,0-1.1,0.5-1.3
					c0.2-0.1,4.2-2,11.4-4.3C64.4,6.7,65,7,65.2,7.5c0.2,0.5-0.1,1.1-0.7,1.3c-7,2.2-11.1,4.1-11.1,4.1C53.2,13,53.1,13,53,13z
					 M158.2,12.7c-0.1,0-0.3,0-0.4-0.1c-3.6-1.6-7.4-3-11.2-4.2c-0.5-0.2-0.8-0.7-0.6-1.3c0.2-0.5,0.7-0.8,1.3-0.6
					c3.8,1.2,7.6,2.6,11.3,4.2c0.5,0.2,0.7,0.8,0.5,1.3C158.9,12.4,158.6,12.7,158.2,12.7z M75.8,5.7c-0.5,0-0.9-0.3-1-0.8
					c-0.1-0.5,0.2-1.1,0.8-1.2c3.9-0.9,7.9-1.6,11.9-2.1c0.5-0.1,1.1,0.3,1.1,0.9c0.1,0.5-0.3,1.1-0.9,1.1C83.8,4.2,79.9,4.9,76,5.7
					C75.9,5.7,75.9,5.7,75.8,5.7z M135.3,5.4c-0.1,0-0.1,0-0.2,0c-3.8-0.8-7.8-1.5-11.7-2c-0.5-0.1-0.9-0.6-0.9-1.1
					c0.1-0.5,0.6-0.9,1.1-0.9c4,0.5,8,1.2,11.9,2c0.5,0.1,0.9,0.7,0.8,1.2C136.2,5,135.8,5.4,135.3,5.4z M99.6,2.5
					c-0.5,0-1-0.4-1-0.9c0-0.6,0.4-1,0.9-1.1c4-0.2,8.1-0.2,12.1-0.1c0.6,0,1,0.5,1,1c0,0.6-0.5,1-1,1C107.6,2.3,103.6,2.3,99.6,2.5
					C99.6,2.5,99.6,2.5,99.6,2.5z"/>
			</g>
			<g>
				<path class="st5" d="M260.6,251.6c-4.3-6.2-4.7-14.6-4.7-14.6h-11.7h-5.2h-11.7c0,0-0.4,8.4-4.7,14.6
					c-4.3,6.2-13.2,10.1-13.2,10.1h29.6h5.2h29.6C273.8,261.7,264.9,257.8,260.6,251.6z"/>
				<path class="st5" d="M382.4,232.4c0,5.2-4.2,9.3-9.3,9.3H109.4c-5.2,0-9.3-4.2-9.3-9.3V58.7c0-5.2,4.2-9.3,9.3-9.3h263.7
					c5.2,0,9.3,4.2,9.3,9.3V232.4z"/>
				<path class="st6" d="M100,215v17.3c0,5.2,4.2,9.3,9.3,9.3h263.7c5.2,0,9.3-4.2,9.3-9.3V215H100z"/>
				<path class="st6" d="M275.6,264.9h-67.5c-0.6,0-1.1-0.5-1.1-1.1v-5.1c0-0.6,0.5-1.1,1.1-1.1h67.5c0.6,0,1.1,0.5,1.1,1.1v5.1
					C276.7,264.4,276.2,264.9,275.6,264.9z"/>
				<path class="st7" d="M367.2,205.2H114.4c-2.3,0-4.1-1.8-4.1-4.1V62.8c0-2.3,1.8-4.1,4.1-4.1h252.8c2.3,0,4.1,1.8,4.1,4.1v138.3
					C371.3,203.4,369.5,205.2,367.2,205.2z"/>
				<path class="st0" d="M363.7,73.5c0-2.3-1.8-4.1-4.1-4.1H124.3c-2.3,0-4.1,1.8-4.1,4.1V85h243.4V73.5z"/>
				<path class="st8" d="M120.2,85v105.4c0,2.3,1.8,4.1,4.1,4.1h235.2c2.3,0,4.1-1.8,4.1-4.1V85H120.2z"/>
				<g>
					<polygon class="st5" points="155.6,270.4 319.2,270.4 345.9,283.2 125.5,283.2 					"/>
					<rect x="125.5" y="283.2" class="st7" width="220.4" height="3.5"/>
				</g>
				<path class="st7" d="M242.2,235h-1.5c-3.7,0-6.8-3-6.8-6.8v-1.5c0-3.7,3-6.8,6.8-6.8h1.5c3.7,0,6.8,3,6.8,6.8v1.5
					C248.9,231.9,245.9,235,242.2,235z"/>
				<g>
					<g>
						<g>
							<g>
								<polygon class="st6" points="174.5,275.1 166.1,275.1 171.5,272.7 179.3,272.7 								"/>
								<polygon class="st6" points="164.2,275.1 155.8,275.1 162.1,272.7 169.8,272.7 								"/>
								<polygon class="st6" points="195,275.1 186.6,275.1 190.4,272.7 198.1,272.7 								"/>
								<polygon class="st6" points="184.8,275.1 176.3,275.1 181,272.7 188.7,272.7 								"/>
								<polygon class="st6" points="215.7,275.2 207.3,275.1 209.4,272.7 217.2,272.7 								"/>
								<polygon class="st6" points="205.5,275.1 197,275.1 200,272.7 207.7,272.7 								"/>
								<polygon class="st6" points="236.3,275.2 227.8,275.2 228.3,272.7 236,272.7 								"/>
								<polygon class="st6" points="226,275.2 217.6,275.2 218.9,272.7 226.6,272.7 								"/>
							</g>
							<g>
								<polygon class="st6" points="256.9,275.2 248.4,275.2 247.3,272.7 255,272.7 								"/>
								<polygon class="st6" points="246.6,275.2 238.2,275.2 237.8,272.7 245.6,272.7 								"/>
								<polygon class="st6" points="277.4,275.2 269,275.2 266.1,272.7 273.9,272.7 								"/>
								<polygon class="st6" points="267.1,275.2 258.7,275.2 256.7,272.7 264.4,272.7 								"/>
								<polygon class="st6" points="298.1,275.2 289.7,275.2 285.2,272.7 292.9,272.7 								"/>
								<polygon class="st6" points="287.8,275.2 279.4,275.2 275.7,272.7 283.5,272.7 								"/>
								<polygon class="st6" points="318.6,275.2 310.2,275.2 304,272.7 311.8,272.7 								"/>
								<polygon class="st6" points="308.4,275.2 299.9,275.2 294.6,272.7 302.3,272.7 								"/>
							</g>
						</g>
						<g>
							<g>
								<polygon class="st6" points="169.1,278 159.8,278 165.3,275.6 173.8,275.6 								"/>
								<polygon class="st6" points="157.8,278 148.6,278 154.8,275.6 163.4,275.6 								"/>
								<polygon class="st6" points="191.6,278 182.3,278 186.1,275.6 194.7,275.6 								"/>
								<polygon class="st6" points="180.3,278 171.1,278 175.7,275.6 184.2,275.6 								"/>
								<polygon class="st6" points="214.3,278.1 205,278.1 207.2,275.6 215.7,275.6 								"/>
								<polygon class="st6" points="203,278.1 193.8,278 196.7,275.6 205.3,275.6 								"/>
								<polygon class="st6" points="236.8,278.1 227.6,278.1 228,275.7 236.6,275.7 								"/>
								<polygon class="st6" points="225.5,278.1 216.3,278.1 217.6,275.6 226.1,275.7 								"/>
							</g>
							<g>
								<polygon class="st6" points="259.4,278.2 250.2,278.1 249,275.7 257.5,275.7 								"/>
								<polygon class="st6" points="248.1,278.1 238.9,278.1 238.5,275.7 247.1,275.7 								"/>
								<polygon class="st6" points="281.9,278.2 272.7,278.2 269.8,275.7 278.4,275.7 								"/>
								<polygon class="st6" points="270.7,278.2 261.4,278.2 259.4,275.7 268,275.7 								"/>
								<polygon class="st6" points="304.6,278.2 295.4,278.2 290.9,275.7 299.4,275.7 								"/>
								<polygon class="st6" points="293.4,278.2 284.1,278.2 280.4,275.7 289,275.7 								"/>
								<polygon class="st6" points="327.2,278.3 317.9,278.3 311.7,275.7 320.3,275.8 								"/>
								<polygon class="st6" points="315.9,278.3 306.7,278.2 301.3,275.7 309.9,275.7 								"/>
							</g>
						</g>
						<g>
							<g>
								<polygon class="st6" points="163.5,280.8 153.5,280.8 158.9,278.4 168.2,278.4 								"/>
								<polygon class="st6" points="151.3,280.8 141.2,280.7 147.5,278.4 156.8,278.4 								"/>
								<polygon class="st6" points="187.9,280.9 177.9,280.8 181.7,278.4 191,278.4 								"/>
								<polygon class="st6" points="175.7,280.8 165.7,280.8 170.3,278.4 179.6,278.4 								"/>
								<polygon class="st6" points="236.7,281 202.6,280.9 204.7,278.5 236.5,278.5 								"/>
								<polygon class="st6" points="200.4,280.9 190.3,280.9 193.3,278.5 202.6,278.5 								"/>
							</g>
							<g>
								<polygon class="st6" points="261.6,281 251.6,281 250.4,278.6 259.7,278.6 								"/>
								<polygon class="st6" points="249.4,281 239.4,281 239,278.5 248.3,278.6 								"/>
								<polygon class="st6" points="286.1,281.1 276.1,281.1 273.2,278.6 282.5,278.6 								"/>
								<polygon class="st6" points="273.9,281.1 263.8,281.1 261.8,278.6 271.1,278.6 								"/>
								<polygon class="st6" points="310.7,281.2 300.7,281.1 296.2,278.6 305.5,278.7 								"/>
								<polygon class="st6" points="298.5,281.1 288.5,281.1 284.8,278.6 294.1,278.6 								"/>
								<polygon class="st6" points="335.2,281.2 325.2,281.2 319,278.7 328.3,278.7 								"/>
								<polygon class="st6" points="323,281.2 312.9,281.2 307.6,278.7 316.9,278.7 								"/>
							</g>
						</g>
					</g>
				</g>
				<g>
					<path class="st9" d="M333.6,77.3c0,1.6-1.3,2.9-2.9,2.9s-2.9-1.3-2.9-2.9c0-1.6,1.3-2.9,2.9-2.9S333.6,75.7,333.6,77.3z"/>
				</g>
				<g>
					<path class="st9" d="M345.4,77.3c0,1.6-1.3,2.9-2.9,2.9c-1.6,0-2.9-1.3-2.9-2.9c0-1.6,1.3-2.9,2.9-2.9
						C344.1,74.4,345.4,75.7,345.4,77.3z"/>
				</g>
				<g>
					<path class="st9" d="M357.2,77.3c0,1.6-1.3,2.9-2.9,2.9c-1.6,0-2.9-1.3-2.9-2.9c0-1.6,1.3-2.9,2.9-2.9
						C355.9,74.4,357.2,75.7,357.2,77.3z"/>
				</g>
			</g>
			<g>
				<path class="st10" d="M293.1,82.7c-1,0.1-1.9-0.4-2.2-1.4l-4-11c-0.1-0.4-0.4-0.6-0.8-0.7l-11.3-2.9c-0.8-0.2-1.4-0.8-1.5-1.6
					c-0.2-0.8,0.1-1.6,0.8-2.1l9.2-7.2c0.3-0.2,0.5-0.6,0.4-1l-0.7-11.7c-0.1-1.1,0.7-2.1,1.8-2.2c0.5-0.1,1,0,1.4,0.3l9.7,6.5
					c0.2,0.2,0.5,0.2,0.8,0.2c0.1,0,0.2,0,0.3-0.1l10.9-4.3c0.2-0.1,0.3-0.1,0.5-0.1c0.7-0.1,1.4,0.2,1.9,0.7
					c0.5,0.5,0.6,1.2,0.4,1.9l-3.2,11.3c-0.1,0.4,0,0.8,0.2,1l7.5,9c0.5,0.6,0.6,1.4,0.3,2.1c-0.3,0.7-0.9,1.2-1.7,1.3
					c-0.1,0-0.1,0-0.2,0l-11.7,0.4c0,0-0.1,0-0.1,0c-0.3,0-0.6,0.2-0.8,0.5l-6.3,9.9C294.2,82.2,293.7,82.6,293.1,82.7z"/>
				<g>
					<path class="st9" d="M284.7,41.4c0.4,0,0.8,0,1.1,0.3l9.7,6.5c0.3,0.2,0.7,0.3,1.1,0.3c0.1,0,0.3-0.1,0.4-0.1l10.9-4.3
						c0.1-0.1,0.3-0.1,0.4-0.1c1.1-0.1,2.1,0.9,1.8,2l-3.2,11.3c-0.1,0.5,0,1.1,0.3,1.5l7.5,9c0.8,1,0.2,2.5-1,2.6
						c-0.1,0-0.1,0-0.2,0l-11.7,0.4c-0.1,0-0.1,0-0.2,0c-0.5,0.1-0.9,0.3-1.1,0.7l-6.3,9.9c-0.3,0.4-0.7,0.7-1.1,0.7
						c-0.7,0.1-1.5-0.3-1.7-1l-4-11c-0.2-0.5-0.6-0.9-1.1-1l-11.3-2.9c-1.3-0.3-1.6-2-0.6-2.8l9.2-7.2c0.4-0.3,0.6-0.8,0.6-1.4
						l-0.7-11.7C283.2,42.2,283.9,41.5,284.7,41.4 M284.6,40.4L284.6,40.4c-1.4,0.2-2.3,1.3-2.2,2.7l0.7,11.7c0,0.2-0.1,0.4-0.3,0.6
						l-9.2,7.2c-0.8,0.6-1.1,1.6-0.9,2.5s0.9,1.7,1.9,2l11.3,2.9c0.2,0.1,0.4,0.2,0.5,0.4l4,11c0.4,1.1,1.6,1.8,2.8,1.7
						c0.7-0.1,1.4-0.5,1.8-1.2l6.3-9.9c0.1-0.2,0.3-0.3,0.5-0.3c0,0,0,0,0.1,0l11.7-0.4c0.1,0,0.2,0,0.3,0c0.9-0.1,1.7-0.7,2-1.6
						c0.3-0.9,0.2-1.8-0.4-2.6l-7.5-9c-0.1-0.2-0.2-0.4-0.1-0.6l3.2-11.3c0.2-0.8,0-1.7-0.5-2.4c-0.6-0.7-1.4-1-2.3-0.9
						c-0.2,0-0.4,0.1-0.6,0.2l-10.9,4.3c-0.1,0-0.1,0-0.2,0c-0.2,0-0.3,0-0.5-0.1l-9.7-6.5C285.8,40.5,285.2,40.4,284.6,40.4
						L284.6,40.4z"/>
				</g>
			</g>
			<g>
				<path class="st10" d="M319.7,37.4c-0.6,0.1-1.2-0.3-1.4-0.9l-2.1-5.8c0-0.1-0.1-0.2-0.3-0.2l-6-1.5c-0.5-0.1-0.9-0.5-1-1
					c-0.1-0.5,0.1-1,0.5-1.3l4.9-3.8c0.1-0.1,0.2-0.2,0.1-0.3l-0.4-6.2c0-0.7,0.5-1.3,1.1-1.4c0.3,0,0.6,0,0.9,0.2l5.1,3.4
					c0.1,0.1,0.2,0.1,0.3,0.1l5.8-2.3c0.1,0,0.2-0.1,0.3-0.1c0.4-0.1,0.9,0.1,1.2,0.4c0.3,0.3,0.4,0.8,0.3,1.2l-1.7,5.9
					c0,0.1,0,0.2,0.1,0.3l3.9,4.8c0.3,0.4,0.4,0.9,0.2,1.3c-0.2,0.4-0.6,0.8-1.1,0.8c0,0-0.1,0-0.1,0c0,0-6.2,0.2-6.2,0.2
					c-0.1,0-0.2,0.1-0.3,0.2l-3.3,5.2C320.4,37.1,320,37.3,319.7,37.4z"/>
				<path class="st9" d="M315.2,15.4c0.2,0,0.4,0,0.6,0.1l5.1,3.4c0.2,0.1,0.4,0.2,0.6,0.1c0.1,0,0.1,0,0.2-0.1l5.7-2.3
					c0.1,0,0.1,0,0.2-0.1c0.6-0.1,1.1,0.5,0.9,1.1l-1.7,5.9c-0.1,0.3,0,0.6,0.2,0.8l3.9,4.8c0.4,0.5,0.1,1.3-0.5,1.4
					c0,0-0.1,0-0.1,0l-6.2,0.2c0,0-0.1,0-0.1,0c-0.2,0-0.5,0.2-0.6,0.4l-3.3,5.2c-0.1,0.2-0.4,0.4-0.6,0.4c-0.4,0.1-0.8-0.1-0.9-0.6
					l-2.1-5.8c-0.1-0.3-0.3-0.5-0.6-0.5l-6-1.5c-0.7-0.2-0.9-1.1-0.3-1.5l4.9-3.8c0.2-0.2,0.3-0.4,0.3-0.7l-0.4-6.2
					C314.4,15.8,314.8,15.5,315.2,15.4 M315.1,14.5L315.1,14.5c-0.9,0.1-1.6,1-1.6,1.9l0.4,6.1l-4.8,3.8c-0.5,0.4-0.8,1.1-0.6,1.8
					c0.1,0.7,0.6,1.2,1.3,1.4l5.9,1.5l2.1,5.7c0.3,0.8,1.1,1.3,1.9,1.2c0.5-0.1,1-0.4,1.3-0.8l3.3-5.2l6.1-0.2c0.1,0,0.1,0,0.2,0
					c0.6-0.1,1.2-0.5,1.4-1.1c0.2-0.6,0.1-1.3-0.3-1.8l-3.9-4.7l1.7-5.9c0.2-0.6,0-1.2-0.4-1.7c-0.4-0.5-1-0.7-1.6-0.6
					c-0.1,0-0.3,0.1-0.4,0.1l-5.7,2.2l-5.1-3.4C316,14.5,315.5,14.4,315.1,14.5L315.1,14.5z"/>
			</g>
			<g>
				<path class="st10" d="M340.3,63.9c-0.2,0-0.4,0-0.6-0.1l-3.5-2.2c-0.1,0-0.1,0-0.2,0l-3.9,1.6c-0.1,0-0.2,0.1-0.2,0.1
					c-0.3,0-0.6-0.1-0.8-0.3c-0.2-0.2-0.3-0.5-0.2-0.8l1-4c0-0.1,0-0.2-0.1-0.2l-2.7-3.1c-0.2-0.3-0.3-0.6-0.2-0.9
					c0.1-0.3,0.4-0.5,0.7-0.6c0,0,4.2-0.3,4.2-0.3c0.1,0,0.2-0.1,0.2-0.1l2.1-3.6c0.1-0.2,0.4-0.4,0.6-0.4c0.4-0.1,0.8,0.2,0.9,0.6
					l1.5,3.9c0,0.1,0.1,0.1,0.2,0.2l4,0.9c0.3,0.1,0.6,0.3,0.7,0.7c0.1,0.3,0,0.7-0.3,0.9l-3.2,2.7c-0.1,0.1-0.1,0.1-0.1,0.2
					l0.4,4.1C341.1,63.4,340.8,63.8,340.3,63.9z"/>
				<path class="st9" d="M337,49.2c0.2,0,0.5,0.1,0.6,0.4l1.5,3.9c0.1,0.2,0.2,0.3,0.4,0.3l4,0.9c0.5,0.1,0.6,0.7,0.2,1l-3.2,2.6
					c-0.1,0.1-0.2,0.3-0.2,0.5l0.4,4.1c0,0.3-0.2,0.6-0.5,0.6c-0.1,0-0.3,0-0.4-0.1l-3.5-2.2c-0.1-0.1-0.3-0.1-0.4-0.1
					c-0.1,0-0.1,0-0.1,0l-3.8,1.6c-0.1,0-0.1,0-0.2,0c-0.4,0.1-0.7-0.3-0.6-0.7l1-4c0-0.2,0-0.4-0.1-0.5l-2.7-3.1
					c-0.3-0.3-0.1-0.9,0.4-0.9c0,0,0,0,0,0l4.1-0.3c0,0,0,0,0,0c0.2,0,0.3-0.1,0.4-0.3l2.1-3.6C336.6,49.3,336.8,49.2,337,49.2
					 M336.9,48.6C336.9,48.6,336.9,48.6,336.9,48.6c-0.4,0-0.7,0.3-0.9,0.6l-2.1,3.5l-4.1,0.3c0,0-0.1,0-0.1,0
					c-0.4,0.1-0.8,0.4-1,0.8c-0.2,0.4-0.1,0.9,0.2,1.2l2.7,3.1l-1,4c-0.1,0.4,0,0.8,0.3,1.1c0.3,0.3,0.7,0.5,1.1,0.4
					c0.1,0,0.2,0,0.3-0.1l3.8-1.6l3.5,2.2c0.2,0.2,0.5,0.2,0.8,0.2c0.6-0.1,1.1-0.7,1-1.3l-0.4-4.1l3.2-2.6c0.4-0.3,0.5-0.8,0.4-1.2
					c-0.1-0.5-0.5-0.8-0.9-0.9l-4-0.9l-1.5-3.8C338,48.8,337.4,48.5,336.9,48.6L336.9,48.6z"/>
			</g>
		</g>
	</g>
	<g transform="translate(-.135735)">
		<g transform="translate(2 -1.964202)">
			<path class="st11" d="M196.9,156.1c2.8,0.1,4.8,0.8,6.2,2.3c1.4,1.5,2.1,3.7,2.1,6.7c0,3-0.7,5.3-2.1,6.7
				c-1.4,1.5-3.5,2.3-6.2,2.3h-6.3v-18.2H196.9z M196,172.8c1.3,0,2.4-0.1,3.4-0.4c0.9-0.3,1.7-0.7,2.3-1.3c0.6-0.6,1.1-1.4,1.3-2.4
				c0.3-1,0.4-2.1,0.4-3.5c0-1.4-0.1-2.5-0.4-3.5c-0.3-1-0.7-1.8-1.3-2.4c-0.6-0.6-1.4-1.1-2.3-1.3c-0.9-0.3-2.1-0.4-3.4-0.4h-3.7
				v15.2H196z M207.6,156.1l4.1,15.9h0.1l4.4-15.9h2.2l4.4,15.9h0.1l4.1-15.9h1.7l-5,18.2h-1.8l-4.6-16.2h-0.1l-4.6,16.2h-1.9
				l-5-18.2H207.6z M229.6,161.6c0.4-1.1,0.9-2.1,1.6-3c0.7-0.9,1.6-1.6,2.7-2.1c1.1-0.5,2.3-0.8,3.7-0.8s2.7,0.3,3.7,0.8
				c1.1,0.5,2,1.2,2.7,2.1c0.7,0.9,1.2,1.9,1.6,3c0.4,1.1,0.5,2.3,0.5,3.6c0,1.3-0.2,2.4-0.5,3.6c-0.4,1.1-0.9,2.1-1.6,3
				c-0.7,0.9-1.6,1.6-2.7,2.1c-1.1,0.5-2.3,0.8-3.7,0.8s-2.7-0.3-3.7-0.8c-1.1-0.5-2-1.2-2.7-2.1c-0.7-0.9-1.2-1.9-1.6-3
				c-0.4-1.1-0.5-2.3-0.5-3.6C229.1,163.9,229.3,162.7,229.6,161.6z M231.2,168.1c0.3,1,0.7,1.8,1.2,2.6c0.6,0.8,1.3,1.4,2.1,1.8
				c0.9,0.5,1.9,0.7,3.1,0.7s2.2-0.2,3.1-0.7c0.9-0.5,1.6-1.1,2.1-1.8c0.6-0.8,1-1.6,1.2-2.6c0.3-0.9,0.4-1.9,0.4-2.9
				c0-1-0.1-2-0.4-2.9c-0.3-0.9-0.7-1.8-1.2-2.6c-0.6-0.8-1.3-1.4-2.1-1.8c-0.9-0.5-1.9-0.7-3.1-0.7c-1.2,0-2.2,0.2-3.1,0.7
				c-0.9,0.5-1.6,1.1-2.1,1.8c-0.6,0.8-1,1.6-1.2,2.6c-0.3,1-0.4,1.9-0.4,2.9C230.8,166.2,231,167.1,231.2,168.1z M250.1,156.1v16.7
				h10.2v1.5h-11.9v-18.2H250.1z M263.8,156.1v16.7H274v1.5h-11.9v-18.2H263.8z"/>
			<path class="st11" d="M282.4,156.1l7.1,18.2h-1.9l-2.2-5.6h-8.3l-2.2,5.6h-1.8l7.3-18.2H282.4z M284.9,167.1l-3.5-9.3l-3.6,9.3
				H284.9z"/>
		</g>
		
			<linearGradient id="SVGID_1_" gradientUnits="userSpaceOnUse" x1="226.7884" y1="170.9466" x2="258.2015" y2="202.3597" gradientTransform="matrix(1 0 0 -1 -0.1357 312)">
			<stop  offset="0" style="stop-color:#F3904A"/>
			<stop  offset="0.999" style="stop-color:#AA437F"/>
		</linearGradient>
		<path class="st12" d="M257.5,115.4l-14.3-8.3c-0.7-0.4-1.5-0.4-2.2,0l-14.3,8.3c-0.7,0.4-1.1,1.1-1.1,1.9v16.5
			c0,0.8,0.4,1.5,1.1,1.9l14.3,8.3c0.7,0.4,1.5,0.4,2.2,0l14.3-8.3c0.7-0.4,1.1-1.1,1.1-1.9v-16.5
			C258.6,116.6,258.2,115.8,257.5,115.4z M232.7,121.5v9.6l-4.9,2.8v-16.5l14.3-8.3v5.7l-8.3,4.8C233.1,120,232.7,120.7,232.7,121.5
			z M241,123.7c-0.7,0.4-1.1,1.1-1.1,1.9v9.5l-5,2.9v-16.5l14.3-8.3v5.7L241,123.7z M256.4,133.9l-14.3,8.3v-16.5l14.3-8.3
			L256.4,133.9z"/>
	</g>
</g>
</svg>
