<?xml version="1.0" encoding="utf-8"?>
<!-- Generator: Adobe Illustrator 22.0.1, SVG Export Plug-In . SVG Version: 6.00 Build 0)  -->
<svg version="1.1" id="Layer_1" xmlns="http://www.w3.org/2000/svg" xmlns:xlink="http://www.w3.org/1999/xlink" x="0px" y="0px"
	 viewBox="0 0 478 312" style="enable-background:new 0 0 478 312;" xml:space="preserve">
<style type="text/css">
	.st0{fill:#D6EFF9;}
	.st1{fill:#BFE7F8;}
	.st2{fill:#87BFE7;}
	.st3{fill:#00957A;}
	.st4{fill:#00C876;}
	.st5{fill:#00AEF4;}
	.st6{clip-path:url(#SVGID_2_);fill:#00D1FD;}
	.st7{fill:#FCC604;}
	.st8{fill:none;stroke:#FEAA52;stroke-width:2.5063;stroke-miterlimit:10;}
	.st9{fill:#FFDC45;}
	.st10{fill:#F7AA26;}
	.st11{fill:#FFFFFF;}
	.st12{filter:url(#Adobe_OpacityMaskFilter);}
	.st13{filter:url(#Adobe_OpacityMaskFilter_1_);}
	.st14{mask:url(#XMLID_5_);fill:url(#XMLID_6_);}
	.st15{opacity:0.65;fill:#FFFFFF;}
	.st16{opacity:0.5;}
	.st17{clip-path:url(#XMLID_7_);}
	.st18{opacity:0.995;fill:#FFFFFF;}
	.st19{opacity:0.99;fill:#FFFFFF;}
	.st20{opacity:0.9851;fill:#FFFFFF;}
	.st21{opacity:0.9801;fill:#FFFFFF;}
	.st22{opacity:0.9751;fill:#FFFFFF;}
	.st23{opacity:0.9701;fill:#FFFFFF;}
	.st24{opacity:0.9652;fill:#FFFFFF;}
	.st25{opacity:0.9602;fill:#FFFFFF;}
	.st26{opacity:0.9552;fill:#FFFFFF;}
	.st27{opacity:0.9502;fill:#FFFFFF;}
	.st28{opacity:0.9453;fill:#FFFFFF;}
	.st29{opacity:0.9403;fill:#FFFFFF;}
	.st30{opacity:0.9353;fill:#FFFFFF;}
	.st31{opacity:0.9303;fill:#FFFFFF;}
	.st32{opacity:0.9254;fill:#FFFFFF;}
	.st33{opacity:0.9204;fill:#FFFFFF;}
	.st34{opacity:0.9154;fill:#FFFFFF;}
	.st35{opacity:0.9104;fill:#FFFFFF;}
	.st36{opacity:0.9055;fill:#FFFFFF;}
	.st37{opacity:0.9005;fill:#FFFFFF;}
	.st38{opacity:0.8955;fill:#FFFFFF;}
	.st39{opacity:0.8905;fill:#FFFFFF;}
	.st40{opacity:0.8856;fill:#FFFFFF;}
	.st41{opacity:0.8806;fill:#FFFFFF;}
	.st42{opacity:0.8756;fill:#FFFFFF;}
	.st43{opacity:0.8706;fill:#FFFFFF;}
	.st44{opacity:0.8657;fill:#FFFFFF;}
	.st45{opacity:0.8607;fill:#FFFFFF;}
	.st46{opacity:0.8557;fill:#FFFFFF;}
	.st47{opacity:0.8507;fill:#FFFFFF;}
	.st48{opacity:0.8458;fill:#FFFFFF;}
	.st49{opacity:0.8408;fill:#FFFFFF;}
	.st50{opacity:0.8358;fill:#FFFFFF;}
	.st51{opacity:0.8308;fill:#FFFFFF;}
	.st52{opacity:0.8259;fill:#FFFFFF;}
	.st53{opacity:0.8209;fill:#FFFFFF;}
	.st54{opacity:0.8159;fill:#FFFFFF;}
	.st55{opacity:0.8109;fill:#FFFFFF;}
	.st56{opacity:0.806;fill:#FFFFFF;}
	.st57{opacity:0.801;fill:#FFFFFF;}
	.st58{opacity:0.796;fill:#FFFFFF;}
	.st59{opacity:0.791;fill:#FFFFFF;}
	.st60{opacity:0.7861;fill:#FFFFFF;}
	.st61{opacity:0.7811;fill:#FFFFFF;}
	.st62{opacity:0.7761;fill:#FFFFFF;}
	.st63{opacity:0.7711;fill:#FFFFFF;}
	.st64{opacity:0.7662;fill:#FFFFFF;}
	.st65{opacity:0.7612;fill:#FFFFFF;}
	.st66{opacity:0.7562;fill:#FFFFFF;}
	.st67{opacity:0.7512;fill:#FFFFFF;}
	.st68{opacity:0.7463;fill:#FFFFFF;}
	.st69{opacity:0.7413;fill:#FFFFFF;}
	.st70{opacity:0.7363;fill:#FFFFFF;}
	.st71{opacity:0.7313;fill:#FFFFFF;}
	.st72{opacity:0.7264;fill:#FFFFFF;}
	.st73{opacity:0.7214;fill:#FFFFFF;}
	.st74{opacity:0.7164;fill:#FFFFFF;}
	.st75{opacity:0.7114;fill:#FFFFFF;}
	.st76{opacity:0.7065;fill:#FFFFFF;}
	.st77{opacity:0.7015;fill:#FFFFFF;}
	.st78{opacity:0.6965;fill:#FFFFFF;}
	.st79{opacity:0.6915;fill:#FFFFFF;}
	.st80{opacity:0.6866;fill:#FFFFFF;}
	.st81{opacity:0.6816;fill:#FFFFFF;}
	.st82{opacity:0.6766;fill:#FFFFFF;}
	.st83{opacity:0.6716;fill:#FFFFFF;}
	.st84{opacity:0.6667;fill:#FFFFFF;}
	.st85{opacity:0.6617;fill:#FFFFFF;}
	.st86{opacity:0.6567;fill:#FFFFFF;}
	.st87{opacity:0.6517;fill:#FFFFFF;}
	.st88{opacity:0.6468;fill:#FFFFFF;}
	.st89{opacity:0.6418;fill:#FFFFFF;}
	.st90{opacity:0.6368;fill:#FFFFFF;}
	.st91{opacity:0.6318;fill:#FFFFFF;}
	.st92{opacity:0.6269;fill:#FFFFFF;}
	.st93{opacity:0.6219;fill:#FFFFFF;}
	.st94{opacity:0.6169;fill:#FFFFFF;}
	.st95{opacity:0.6119;fill:#FFFFFF;}
	.st96{opacity:0.607;fill:#FFFFFF;}
	.st97{opacity:0.602;fill:#FFFFFF;}
	.st98{opacity:0.597;fill:#FFFFFF;}
	.st99{opacity:0.592;fill:#FFFFFF;}
	.st100{opacity:0.5871;fill:#FFFFFF;}
	.st101{opacity:0.5821;fill:#FFFFFF;}
	.st102{opacity:0.5771;fill:#FFFFFF;}
	.st103{opacity:0.5721;fill:#FFFFFF;}
	.st104{opacity:0.5672;fill:#FFFFFF;}
	.st105{opacity:0.5622;fill:#FFFFFF;}
	.st106{opacity:0.5572;fill:#FFFFFF;}
	.st107{opacity:0.5522;fill:#FFFFFF;}
	.st108{opacity:0.5473;fill:#FFFFFF;}
	.st109{opacity:0.5423;fill:#FFFFFF;}
	.st110{opacity:0.5373;fill:#FFFFFF;}
	.st111{opacity:0.5323;fill:#FFFFFF;}
	.st112{opacity:0.5274;fill:#FFFFFF;}
	.st113{opacity:0.5224;fill:#FFFFFF;}
	.st114{opacity:0.5174;fill:#FFFFFF;}
	.st115{opacity:0.5124;fill:#FFFFFF;}
	.st116{opacity:0.5075;fill:#FFFFFF;}
	.st117{opacity:0.5025;fill:#FFFFFF;}
	.st118{opacity:0.4975;fill:#FFFFFF;}
	.st119{opacity:0.4925;fill:#FFFFFF;}
	.st120{opacity:0.4876;fill:#FFFFFF;}
	.st121{opacity:0.4826;fill:#FFFFFF;}
	.st122{opacity:0.4776;fill:#FFFFFF;}
	.st123{opacity:0.4726;fill:#FFFFFF;}
	.st124{opacity:0.4677;fill:#FFFFFF;}
	.st125{opacity:0.4627;fill:#FFFFFF;}
	.st126{opacity:0.4577;fill:#FFFFFF;}
	.st127{opacity:0.4527;fill:#FFFFFF;}
	.st128{opacity:0.4478;fill:#FFFFFF;}
	.st129{opacity:0.4428;fill:#FFFFFF;}
	.st130{opacity:0.4378;fill:#FFFFFF;}
	.st131{opacity:0.4328;fill:#FFFFFF;}
	.st132{opacity:0.4279;fill:#FFFFFF;}
	.st133{opacity:0.4229;fill:#FFFFFF;}
	.st134{opacity:0.4179;fill:#FFFFFF;}
	.st135{opacity:0.4129;fill:#FFFFFF;}
	.st136{opacity:0.408;fill:#FFFFFF;}
	.st137{opacity:0.403;fill:#FFFFFF;}
	.st138{opacity:0.398;fill:#FFFFFF;}
	.st139{opacity:0.393;fill:#FFFFFF;}
	.st140{opacity:0.3881;fill:#FFFFFF;}
	.st141{opacity:0.3831;fill:#FFFFFF;}
	.st142{opacity:0.3781;fill:#FFFFFF;}
	.st143{opacity:0.3731;fill:#FFFFFF;}
	.st144{opacity:0.3682;fill:#FFFFFF;}
	.st145{opacity:0.3632;fill:#FFFFFF;}
	.st146{opacity:0.3582;fill:#FFFFFF;}
	.st147{opacity:0.3532;fill:#FFFFFF;}
	.st148{opacity:0.3483;fill:#FFFFFF;}
	.st149{opacity:0.3433;fill:#FFFFFF;}
	.st150{opacity:0.3383;fill:#FFFFFF;}
	.st151{opacity:0.3333;fill:#FFFFFF;}
	.st152{opacity:0.3284;fill:#FFFFFF;}
	.st153{opacity:0.3234;fill:#FFFFFF;}
	.st154{opacity:0.3184;fill:#FFFFFF;}
	.st155{opacity:0.3134;fill:#FFFFFF;}
	.st156{opacity:0.3085;fill:#FFFFFF;}
	.st157{opacity:0.3035;fill:#FFFFFF;}
	.st158{opacity:0.2985;fill:#FFFFFF;}
	.st159{opacity:0.2935;fill:#FFFFFF;}
	.st160{opacity:0.2886;fill:#FFFFFF;}
	.st161{opacity:0.2836;fill:#FFFFFF;}
	.st162{opacity:0.2786;fill:#FFFFFF;}
	.st163{opacity:0.2736;fill:#FFFFFF;}
	.st164{opacity:0.2687;fill:#FFFFFF;}
	.st165{opacity:0.2637;fill:#FFFFFF;}
	.st166{opacity:0.2587;fill:#FFFFFF;}
	.st167{opacity:0.2537;fill:#FFFFFF;}
	.st168{opacity:0.2488;fill:#FFFFFF;}
	.st169{opacity:0.2438;fill:#FFFFFF;}
	.st170{opacity:0.2388;fill:#FFFFFF;}
	.st171{opacity:0.2338;fill:#FFFFFF;}
	.st172{opacity:0.2289;fill:#FFFFFF;}
	.st173{opacity:0.2239;fill:#FFFFFF;}
	.st174{opacity:0.2189;fill:#FFFFFF;}
	.st175{opacity:0.2139;fill:#FFFFFF;}
	.st176{opacity:0.209;fill:#FFFFFF;}
	.st177{opacity:0.204;fill:#FFFFFF;}
	.st178{opacity:0.199;fill:#FFFFFF;}
	.st179{opacity:0.194;fill:#FFFFFF;}
	.st180{opacity:0.1891;fill:#FFFFFF;}
	.st181{opacity:0.1841;fill:#FFFFFF;}
	.st182{opacity:0.1791;fill:#FFFFFF;}
	.st183{opacity:0.1741;fill:#FFFFFF;}
	.st184{opacity:0.1692;fill:#FFFFFF;}
	.st185{opacity:0.1642;fill:#FFFFFF;}
	.st186{opacity:0.1592;fill:#FFFFFF;}
	.st187{opacity:0.1542;fill:#FFFFFF;}
	.st188{opacity:0.1493;fill:#FFFFFF;}
	.st189{opacity:0.1443;fill:#FFFFFF;}
	.st190{opacity:0.1393;fill:#FFFFFF;}
	.st191{opacity:0.1343;fill:#FFFFFF;}
	.st192{opacity:0.1294;fill:#FFFFFF;}
	.st193{opacity:0.1244;fill:#FFFFFF;}
	.st194{opacity:0.1194;fill:#FFFFFF;}
	.st195{opacity:0.1144;fill:#FFFFFF;}
	.st196{opacity:0.1095;fill:#FFFFFF;}
	.st197{opacity:0.1045;fill:#FFFFFF;}
	.st198{opacity:9.950249e-02;fill:#FFFFFF;}
	.st199{opacity:9.452736e-02;fill:#FFFFFF;}
	.st200{opacity:8.955224e-02;fill:#FFFFFF;}
	.st201{opacity:8.457711e-02;fill:#FFFFFF;}
	.st202{opacity:7.960199e-02;fill:#FFFFFF;}
	.st203{opacity:7.462686e-02;fill:#FFFFFF;}
	.st204{opacity:6.965174e-02;fill:#FFFFFF;}
	.st205{opacity:6.467662e-02;fill:#FFFFFF;}
	.st206{opacity:5.970149e-02;fill:#FFFFFF;}
	.st207{opacity:5.472637e-02;fill:#FFFFFF;}
	.st208{opacity:4.975124e-02;fill:#FFFFFF;}
	.st209{opacity:4.477612e-02;fill:#FFFFFF;}
	.st210{opacity:3.980099e-02;fill:#FFFFFF;}
	.st211{opacity:3.482587e-02;fill:#FFFFFF;}
	.st212{opacity:2.985075e-02;fill:#FFFFFF;}
	.st213{opacity:2.487562e-02;fill:#FFFFFF;}
	.st214{opacity:1.990050e-02;fill:#FFFFFF;}
	.st215{opacity:1.492537e-02;fill:#FFFFFF;}
	.st216{opacity:9.950249e-03;fill:#FFFFFF;}
	.st217{opacity:4.975124e-03;fill:#FFFFFF;}
	.st218{opacity:0;fill:#FFFFFF;}
</style>
<g>
	<path class="st0" d="M59.3,218.3c-12.7-26.4-19.9-55.9-22.3-83.6C31.8,77.2,61.2,22.9,120.3,10.3c36.8-7.8,73.2,1.8,101.9,29
		c1.9,1.8,3.8,3.6,5.6,5.5c15.4,15.6,29.2,33.3,46,46.7c20,16,43.5,25.3,67.2,31.6c22,5.9,48.7,5.3,67.2,21.7
		c17.6,15.5,22.5,42.4,17.6,66c-5.7,27.4-24.5,47.6-46.1,60.2c-73.8,43.2-173.8,56-252.7,18.5c-5.4-2.6-10.6-5.4-15.8-8.4
		c-5.4-3.2-10-7.5-14.7-11.7C81,255.5,68.6,237.7,59.3,218.3z"/>
	<path class="st1" d="M397,257.1H107.4c-3.8,0-6.8-3.1-6.8-6.8v-186c0-3.8,3.1-6.8,6.8-6.8H397c3.8,0,6.8,3.1,6.8,6.8v186
		C403.8,254,400.8,257.1,397,257.1z"/>
	<g>
		<path class="st2" d="M360.4,282c-0.5,0-0.9-0.4-1-0.9c-0.1-0.5,0.3-1,0.9-1.1c3.6-0.4,7.5-1.2,11.5-2.4c0.5-0.2,1.1,0.1,1.3,0.7
			c0.2,0.5-0.1,1.1-0.7,1.3c-4.1,1.3-8.1,2.1-11.9,2.5C360.4,282,360.4,282,360.4,282z M348.4,281.7c-0.1,0-0.1,0-0.2,0
			c-4-0.7-7.9-2.1-11.5-4c-0.5-0.3-0.7-0.9-0.4-1.4s0.9-0.7,1.4-0.4c3.4,1.8,7.1,3.1,10.9,3.8c0.5,0.1,0.9,0.6,0.8,1.2
			C349.3,281.3,348.9,281.7,348.4,281.7z M383.3,275.4c-0.4,0-0.8-0.2-0.9-0.6c-0.2-0.5,0-1.1,0.5-1.3c3.8-1.6,7.4-3.2,10.9-4.9
			c0.5-0.2,1.1,0,1.3,0.4c0.2,0.5,0,1.1-0.4,1.3c-3.5,1.7-7.2,3.4-11,5C383.6,275.4,383.5,275.4,383.3,275.4z M327.6,270.7
			c-0.2,0-0.5-0.1-0.7-0.3c-2.7-2.6-5.4-5.6-8-9.1c-0.3-0.4-0.2-1.1,0.2-1.4c0.4-0.3,1.1-0.2,1.4,0.2c2.5,3.4,5.2,6.3,7.8,8.8
			c0.4,0.4,0.4,1,0,1.4C328.2,270.6,327.9,270.7,327.6,270.7z M404.7,264.6c-0.3,0-0.7-0.2-0.9-0.5c-0.3-0.5-0.1-1.1,0.3-1.4
			c3.5-2.1,6.8-4.4,9.8-6.7c0.4-0.3,1.1-0.3,1.4,0.2c0.3,0.4,0.3,1.1-0.2,1.4c-3.1,2.4-6.4,4.7-10,6.9
			C405.1,264.6,404.9,264.6,404.7,264.6z M313.1,251.8c-0.3,0-0.7-0.2-0.9-0.5c-1.9-3.2-3.8-6.7-5.7-10.6c-0.2-0.5,0-1.1,0.4-1.3
			c0.5-0.2,1.1,0,1.3,0.4c1.9,3.9,3.8,7.3,5.7,10.5c0.3,0.5,0.1,1.1-0.4,1.4C313.5,251.7,313.3,251.8,313.1,251.8z M423.6,249.9
			c-0.3,0-0.5-0.1-0.7-0.3c-0.4-0.4-0.4-1,0-1.4c2.9-2.9,5.4-5.9,7.6-9c0.3-0.5,0.9-0.6,1.4-0.2c0.5,0.3,0.6,0.9,0.2,1.4
			c-2.3,3.2-4.9,6.3-7.8,9.3C424.1,249.8,423.9,249.9,423.6,249.9z M302.3,230.4c-0.4,0-0.7-0.2-0.9-0.6c-1.5-3.4-3.1-7-4.8-11.1
			c-0.2-0.5,0-1.1,0.5-1.3c0.5-0.2,1.1,0,1.3,0.5c1.7,4.1,3.2,7.7,4.7,11c0.2,0.5,0,1.1-0.5,1.3
			C302.5,230.3,302.4,230.4,302.3,230.4z M437.3,230.4c-0.1,0-0.3,0-0.4-0.1c-0.5-0.2-0.7-0.8-0.5-1.3c1.6-3.6,2.8-7.4,3.5-11.2
			c0.1-0.5,0.6-0.9,1.2-0.8c0.5,0.1,0.9,0.6,0.8,1.2c-0.8,3.9-2,7.8-3.7,11.6C438,230.1,437.6,230.4,437.3,230.4z M293,208.2
			c-0.4,0-0.8-0.2-0.9-0.6c-1.5-3.7-2.9-7.4-4.4-11.2c-0.2-0.5,0-1.1,0.6-1.3c0.5-0.2,1.1,0,1.3,0.6c1.5,3.8,3,7.5,4.4,11.2
			c0.2,0.5,0,1.1-0.6,1.3C293.2,208.2,293.1,208.2,293,208.2z M441.7,207c-0.5,0-1-0.4-1-1c-0.2-3.9-0.9-7.8-2-11.6
			c-0.2-0.5,0.1-1.1,0.7-1.2c0.5-0.2,1.1,0.2,1.2,0.7c1.2,3.9,1.8,8,2,12C442.7,206.5,442.3,207,441.7,207
			C441.7,207,441.7,207,441.7,207z M327.5,192.2c-0.2,0-0.4-0.1-0.6-0.2c-0.4-0.3-0.5-1-0.2-1.4c1.6-2.1,4.3-5.3,7.9-9.2
			c0.4-0.4,1-0.4,1.4,0c0.4,0.4,0.4,1,0,1.4c-3.6,3.8-6.2,7-7.8,9C328.1,192.1,327.8,192.2,327.5,192.2z M93.9,190.6
			c-3.1,0-6.2-0.1-9.1-0.3c-0.6,0-1-0.5-0.9-1.1c0-0.6,0.5-1,1.1-0.9c2.9,0.2,6,0.3,9,0.3c1,0,2,0,2.9,0c0.5,0,1,0.4,1,1s-0.4,1-1,1
			C95.9,190.6,94.9,190.6,93.9,190.6z M108.8,189.9c-0.5,0-0.9-0.4-1-0.9c0-0.5,0.4-1,0.9-1.1c7.2-0.6,11.8-1.5,11.8-1.5
			c0.5-0.1,1.1,0.2,1.2,0.8c0.1,0.5-0.2,1.1-0.8,1.2C120.7,188.4,116.2,189.3,108.8,189.9C108.9,189.9,108.8,189.9,108.8,189.9z
			 M72.9,189.1c0,0-0.1,0-0.2,0c-4.1-0.6-8.1-1.4-11.9-2.4c-0.5-0.1-0.9-0.7-0.7-1.2s0.7-0.8,1.2-0.7c3.7,1,7.6,1.8,11.6,2.4
			c0.5,0.1,0.9,0.6,0.8,1.1C73.8,188.7,73.4,189.1,72.9,189.1z M284.1,185.9c-0.4,0-0.8-0.2-0.9-0.6c-1.5-3.7-3-7.4-4.5-11.1
			c-0.2-0.5,0-1.1,0.5-1.3c0.5-0.2,1.1,0,1.3,0.5c1.5,3.7,3,7.5,4.5,11.1c0.2,0.5,0,1.1-0.6,1.3
			C284.4,185.9,284.2,185.9,284.1,185.9z M435.1,184.1c-0.4,0-0.7-0.2-0.9-0.5c-1.9-3.4-4.1-6.7-6.7-9.7c-0.4-0.4-0.3-1.1,0.1-1.4
			c0.4-0.4,1.1-0.3,1.4,0.1c2.7,3.1,5,6.5,6.9,10c0.3,0.5,0.1,1.1-0.4,1.4C435.4,184.1,435.3,184.1,435.1,184.1z M49.8,182.8
			c-0.1,0-0.3,0-0.4-0.1c-3.8-1.6-7.5-3.5-10.8-5.6c-0.5-0.3-0.6-0.9-0.3-1.4c0.3-0.5,0.9-0.6,1.4-0.3c3.2,2,6.8,3.9,10.5,5.4
			c0.5,0.2,0.8,0.8,0.5,1.3C50.5,182.6,50.2,182.8,49.8,182.8z M344,174.7c-0.3,0-0.6-0.1-0.7-0.3c-0.4-0.4-0.3-1,0.1-1.4
			c3.1-2.8,6.3-5.3,9.5-7.6c0.5-0.3,1.1-0.2,1.4,0.2c0.3,0.5,0.2,1.1-0.2,1.4c-3.1,2.2-6.2,4.7-9.3,7.4
			C344.5,174.6,344.2,174.7,344,174.7z M29.7,170c-0.2,0-0.5-0.1-0.7-0.3c-3-2.8-5.6-5.9-7.9-9.2c-0.3-0.5-0.2-1.1,0.3-1.4
			c0.5-0.3,1.1-0.2,1.4,0.3c2.2,3.2,4.8,6.2,7.7,8.9c0.4,0.4,0.4,1,0,1.4C30.2,169.9,29.9,170,29.7,170z M419.7,166
			c-0.2,0-0.4-0.1-0.6-0.2c-3.1-2.4-6.4-4.6-9.9-6.4c-0.5-0.3-0.7-0.9-0.4-1.3s0.9-0.7,1.3-0.4c3.6,1.9,7,4.1,10.2,6.6
			c0.4,0.3,0.5,1,0.2,1.4C420.2,165.9,420,166,419.7,166z M274.9,163.7c-0.4,0-0.8-0.2-0.9-0.6c-1.6-3.8-3.3-7.5-4.9-11
			c-0.2-0.5,0-1.1,0.5-1.3c0.5-0.2,1.1,0,1.3,0.5c1.6,3.5,3.2,7.2,4.9,11c0.2,0.5,0,1.1-0.5,1.3C275.2,163.7,275,163.7,274.9,163.7z
			 M363.6,161c-0.4,0-0.7-0.2-0.9-0.5c-0.3-0.5-0.1-1.1,0.4-1.3c3.8-2,7.6-3.5,11.3-4.6c0.5-0.2,1.1,0.1,1.2,0.7
			c0.2,0.5-0.1,1.1-0.7,1.2c-3.6,1.1-7.3,2.6-10.9,4.5C363.9,160.9,363.8,161,363.6,161z M398.4,155.3c-0.1,0-0.1,0-0.2,0
			c-3.8-0.9-7.8-1.2-11.6-1c-0.5,0-1-0.4-1.1-0.9c0-0.6,0.4-1,0.9-1.1c4.1-0.2,8.2,0.1,12.2,1c0.5,0.1,0.9,0.7,0.8,1.2
			C399.3,155,398.9,155.3,398.4,155.3z M16.1,150.5c-0.4,0-0.8-0.2-0.9-0.6c-1.5-3.6-2.8-7.5-3.8-11.5c-0.1-0.5,0.2-1.1,0.7-1.2
			c0.5-0.1,1.1,0.2,1.2,0.7c0.9,3.9,2.2,7.7,3.7,11.2c0.2,0.5,0,1.1-0.5,1.3C16.4,150.4,16.2,150.5,16.1,150.5z M264.9,141.9
			c-0.4,0-0.7-0.2-0.9-0.6c-1.8-3.7-3.6-7.3-5.5-10.7c-0.3-0.5-0.1-1.1,0.4-1.4c0.5-0.3,1.1-0.1,1.4,0.4c1.8,3.4,3.7,7,5.5,10.7
			c0.2,0.5,0,1.1-0.5,1.3C265.2,141.8,265,141.9,264.9,141.9z M10.5,127.3c-0.5,0-0.9-0.4-1-0.9c-0.1-0.6-0.1-1.3-0.2-2
			c-0.2-2.9-0.3-5.8-0.3-8.6c0-0.5,0-1,0-1.5c0-0.5,0.5-1,1-1c0,0,0,0,0,0c0.6,0,1,0.5,1,1c0,0.5,0,1,0,1.5c0,2.8,0.1,5.6,0.3,8.4
			c0,0.6,0.1,1.3,0.2,1.9C11.5,126.7,11.1,127.2,10.5,127.3C10.6,127.3,10.5,127.3,10.5,127.3z M253.5,120.7c-0.3,0-0.7-0.2-0.9-0.5
			c-2-3.5-4.2-6.9-6.3-10.2c-0.3-0.5-0.2-1.1,0.3-1.4c0.5-0.3,1.1-0.2,1.4,0.3c2.1,3.3,4.3,6.8,6.3,10.3c0.3,0.5,0.1,1.1-0.4,1.4
			C253.9,120.7,253.7,120.7,253.5,120.7z M10.8,103.3c0,0-0.1,0-0.1,0c-0.5-0.1-0.9-0.6-0.9-1.1c0.5-4,1.2-8,2.1-11.9
			c0.1-0.5,0.7-0.9,1.2-0.7c0.5,0.1,0.9,0.7,0.7,1.2c-0.9,3.8-1.6,7.7-2.1,11.7C11.8,102.9,11.3,103.3,10.8,103.3z M240.5,100.5
			c-0.3,0-0.6-0.1-0.8-0.4c-2.3-3.3-4.8-6.5-7.2-9.5c-0.3-0.4-0.3-1.1,0.2-1.4c0.4-0.3,1.1-0.3,1.4,0.2c2.5,3.1,4.9,6.3,7.3,9.6
			c0.3,0.4,0.2,1.1-0.2,1.4C240.9,100.5,240.7,100.5,240.5,100.5z M225.4,81.8c-0.3,0-0.5-0.1-0.7-0.3c-2.7-3-5.5-5.8-8.3-8.6
			c-0.4-0.4-0.4-1,0-1.4c0.4-0.4,1-0.4,1.4,0c2.8,2.8,5.7,5.7,8.4,8.7c0.4,0.4,0.3,1-0.1,1.4C225.9,81.7,225.7,81.8,225.4,81.8z
			 M16.4,80c-0.1,0-0.2,0-0.3-0.1c-0.5-0.2-0.8-0.8-0.6-1.3c1.4-3.8,3-7.5,4.9-11.1c0.3-0.5,0.9-0.7,1.3-0.4
			c0.5,0.3,0.7,0.9,0.4,1.3c-1.8,3.5-3.4,7.1-4.8,10.9C17.2,79.8,16.8,80,16.4,80z M208.2,65.2c-0.2,0-0.5-0.1-0.6-0.2
			c-3-2.6-6.2-5-9.4-7.4c-0.4-0.3-0.5-1-0.2-1.4c0.3-0.4,1-0.5,1.4-0.2c3.2,2.3,6.4,4.8,9.5,7.4c0.4,0.4,0.5,1,0.1,1.4
			C208.8,65.1,208.5,65.2,208.2,65.2z M27.4,58.8c-0.2,0-0.4-0.1-0.6-0.2c-0.5-0.3-0.6-0.9-0.2-1.4c2.3-3.3,4.9-6.5,7.6-9.5
			c0.4-0.4,1-0.4,1.4-0.1c0.4,0.4,0.4,1,0.1,1.4c-2.7,2.9-5.2,6-7.4,9.2C28,58.6,27.7,58.8,27.4,58.8z M188.9,51
			c-0.2,0-0.4-0.1-0.5-0.2c-3.4-2.2-6.8-4.3-10.2-6.3c-0.5-0.3-0.6-0.9-0.4-1.4c0.3-0.5,0.9-0.6,1.4-0.4c3.4,2,6.9,4.1,10.3,6.3
			c0.5,0.3,0.6,0.9,0.3,1.4C189.5,50.9,189.2,51,188.9,51z M43.6,41.2c-0.3,0-0.6-0.1-0.8-0.4c-0.3-0.4-0.3-1.1,0.1-1.4
			c3.1-2.6,6.5-4.9,9.9-7c0.5-0.3,1.1-0.1,1.4,0.3c0.3,0.5,0.1,1.1-0.3,1.4c-3.4,2-6.6,4.3-9.7,6.8C44,41.1,43.8,41.2,43.6,41.2z
			 M168.1,39c-0.2,0-0.3,0-0.5-0.1c-3.6-1.8-7.2-3.5-10.8-5.1c-0.5-0.2-0.7-0.8-0.5-1.3c0.2-0.5,0.8-0.7,1.3-0.5
			c3.6,1.6,7.3,3.3,10.9,5.1c0.5,0.3,0.7,0.9,0.4,1.3C168.8,38.8,168.5,39,168.1,39z M146.1,29.5c-0.1,0-0.2,0-0.3-0.1
			c-3.8-1.3-7.6-2.5-11.4-3.5c-0.5-0.1-0.8-0.7-0.7-1.2s0.7-0.8,1.2-0.7c3.8,1,7.7,2.2,11.5,3.6c0.5,0.2,0.8,0.8,0.6,1.3
			C146.9,29.2,146.5,29.5,146.1,29.5z M64,28.8c-0.4,0-0.8-0.2-0.9-0.6c-0.2-0.5,0-1.1,0.5-1.3c3.7-1.6,7.5-2.9,11.4-4
			c0.5-0.1,1.1,0.2,1.2,0.7c0.1,0.5-0.2,1.1-0.7,1.2c-3.8,1.1-7.6,2.4-11.2,3.9C64.3,28.8,64.2,28.8,64,28.8z M122.9,23.3
			c-0.1,0-0.1,0-0.2,0c-4-0.7-7.9-1.2-11.8-1.5c-0.5,0-1-0.5-0.9-1.1c0-0.6,0.5-1,1.1-0.9c3.9,0.3,8,0.8,12,1.6
			c0.5,0.1,0.9,0.6,0.8,1.2C123.8,23,123.4,23.3,122.9,23.3z M87.1,22.4c-0.5,0-0.9-0.4-1-0.9C86,21,86.4,20.5,87,20.4
			c3.9-0.6,8-0.9,12.1-1c0,0,0,0,0,0c0.5,0,1,0.4,1,1c0,0.6-0.4,1-1,1c-4,0.1-8,0.4-11.8,1C87.2,22.4,87.1,22.4,87.1,22.4z"/>
	</g>
	<g>
		<g>
			<g>
				<path class="st3" d="M10.2,169.1l17,8.6l-14.5-1.9c2.6,6.5,4.8,11.6,8.2,18.7l26.4,8.8l-22.6-1c4.1,7.9,6.2,12.1,11.2,19.4
					c12.5,1.8,25.6,4.4,25.6,4.4l-19.5,4.3c6.4,8.4,13.4,15.8,21.2,21.2c1.3,0.9,0,0.1,1.3,0.9l17.8,1.6l-9.5,3.8
					c33.8,20.3,49.4,11.4,49.4,11.4s0.2-0.7,0.5-2.1c0.2-1.1,0.4-2.6,0.5-4.6c0.5-7.6-0.3-21.7-8.3-42.4l-6.2,11.8l2-17.9
					c-0.9-1.5-1.8-3.1-2.8-4.7c-3.2-5.1-2.2-4.8-6.8-9.4l-8.5,16.6l2.1-23.3c-2.7-2.7-5.6-5.2-8.7-7.7L81.5,203l-2.9-22.8
					c-5.8-4.5-8.1-6-14.4-9.8l-4.4,18.2l-4.2-23c-9.7-5.6-9.3-5.3-18-9.3l-1.8,16l-5-19.7c-14.7-6.4-30-11.7-30-11.7
					S3.4,151.5,10.2,169.1z"/>
			</g>
		</g>
	</g>
	<path class="st4" d="M27.6,42.8c5.1,6.9,7.5,16.2,6.4,24.6c0.5,1.4,1,3.1,1.6,5c3.2-7.7,8.7-14.3,15.3-19.3
		c-2,8.4-7.6,16.3-14.8,20.8c1,3.1,2.1,6.6,3.5,10.5c0.6,1.8,1.3,3.7,1.9,5.7c0.3,0.9,0.7,1.9,1,2.8C47.9,82,57.1,73.4,67.8,67.6
		c-4.2,11.5-13.8,21.5-25.1,26c0.3,0.8,0.6,1.7,0.9,2.6c1.5,4.2,3.2,8.6,5,13.3c0.8,2.1,1.7,4.2,2.6,6.4
		c5.4-13.5,15.4-24.8,27.5-32.9C75.2,97.4,65,110.7,52,117.7c2.1,5,4.3,10.2,6.6,15.4c0.1,0,0.1,0.1,0.2,0.1c0,0-0.1,0-0.1,0
		c0.8,1.8,1.6,3.6,2.5,5.4c0.1,0.2,0.2,0.4,0.3,0.5c5.5-15.6,17.8-29.2,32.7-35.8c-6.1,15.7-17.7,28.7-31.7,37.9
		c4.3,9,8.6,17.4,12.6,24.8c0.3,0.6,0.7,1.2,1,1.8c3.3-20,15.8-39,32.7-49.6c-4.6,20-16.5,37.7-31.9,51.1c1.6,2.8,3.1,5.5,4.6,8
		c1,1.7,2,3.4,3,5c1,1.6,1.9,3.1,2.8,4.5c0,0,0,0.1,0.1,0.1c5.5-18.5,19.3-35,36.5-43.2c-6.5,18.4-19.5,33.8-35.4,44.9
		c6.5,10.3,10.7,16.1,10.5,16.7c-0.1,0.4-3.4-3.1-8.8-10.5c-14.4,7-30.9,8.5-46.6,5.8c13.2-8.5,30.7-11.2,45.7-7.1
		c-0.8-1.2-1.7-2.4-2.7-3.8c0,0-0.1,0.1-0.1,0.1c0-0.1,0-0.1,0-0.2c-0.1-0.1-0.1-0.1-0.2-0.2c-0.9-1.4-1.9-2.8-2.9-4.3
		c-1-1.5-2-3.2-3.1-4.9c-0.4-0.6-0.8-1.2-1.2-1.9c-19.3,5.9-40.2,4.7-59.3-1.5c17.8-8.1,39.7-8.5,57.7-1.1c-1.3-2.2-2.6-4.4-4-6.8
		c-1.7-3-3.5-6.3-5.3-9.6C48.1,162,27.5,157,9.7,147.1c19.2-4.7,41-0.8,57.3,10c-2.6-5-5.2-10.2-7.8-15.8c-1.2-2.5-2.3-5-3.4-7.5
		c-16.5,2.6-33.4-0.7-48.4-7.9c15.3-4.7,33-2.8,47,4.8c-2.5-5.9-4.9-11.7-7-17.2c-14.8-0.8-29.5-8.2-38.8-19.4
		c13.8,1.4,26.7,7.4,37.5,16.1c-1.6-4.5-3.2-8.7-4.5-12.8c-0.7-2.2-1.4-4.3-2.1-6.3c-0.3-0.9-0.5-1.7-0.8-2.5
		c-9.5,1.1-19.1-2.9-25.2-10.5c9-0.5,17.5,2.8,24.6,8.5c-0.1-0.4-0.3-0.9-0.4-1.3c-1.2-3.9-2.2-7.4-3-10.5c0,0,0,0,0,0
		c0,0,0-0.1,0-0.1c-0.1-0.5-0.3-1-0.4-1.4C26,71,18.2,65.3,13.9,58.1c7.6,2.3,14.4,6.9,19.8,12.7c-0.3-1-0.5-2-0.7-2.9
		C28.7,60.4,27.1,51.5,27.6,42.8z"/>
	<g>
		<g>
			<g>
				<path class="st3" d="M456.6,151.8l-19,0.4l13.9,4.6c-5.2,4.8-9.3,8.4-15.5,13.3l-27.6-3.4l20.8,8.8c-7.1,5.4-10.8,8.3-18.5,12.6
					c-12-3.8-25-7.1-25-7.1l15.8,12.3c-9.4,4.8-18.9,8.5-28.3,10c-1.5,0.2-0.1,0-1.5,0.2l-16.7-6.3l6.9,7.5
					c-39.3,3.8-49.4-11.1-49.4-11.1s0.1-0.7,0.5-2.2c0.3-1.1,0.8-2.5,1.5-4.3c2.8-7.1,9.6-19.4,25.8-34.6l0.5,13.4l5.9-17
					c1.5-1,3-2,4.5-3c5.1-3.2,4.1-3.4,10.2-5.6l0.5,18.6l8.2-21.9c3.6-1.2,7.3-2.3,11.2-3.2l-3.6,17.7l12.4-19.3
					c7.2-1.6,9.8-1.9,17.3-2.7l-3.9,18.3l13.7-18.9c11.1-0.9,10.7-0.7,20.3-0.6l-5.3,15.2l13-15.6c16,0.6,32.1,2.4,32.1,2.4
					S470.3,138.9,456.6,151.8z"/>
			</g>
		</g>
	</g>
	<g>
		<g>
			<g>
				<path class="st4" d="M423.7,108.7l-16.6,9.3l14.4-2.5c-2.3,6.6-4.3,11.8-7.4,19l-26,9.9l22.5-2c-3.7,8.1-5.7,12.4-10.4,19.9
					c-12.4,2.3-25.4,5.5-25.4,5.5l19.7,3.4c-6,8.7-12.7,16.4-20.2,22.1c-1.2,0.9,0,0.1-1.2,0.9l-17.7,2.3l9.7,3.4
					c-32.9,21.8-48.8,13.5-48.8,13.5s-0.3-0.7-0.6-2.1c-0.2-1.1-0.5-2.6-0.7-4.5c-0.8-7.6-0.6-21.7,6.5-42.7l6.7,11.6l-2.7-17.8
					c0.8-1.6,1.7-3.2,2.6-4.8c2.9-5.2,2-4.9,6.4-9.7l9.2,16.2l-3.1-23.2c2.6-2.8,5.4-5.5,8.3-8.1l5.2,17.3l1.9-22.9
					c5.7-4.8,7.8-6.3,14-10.5l5.2,18l3.2-23.2c9.4-6,9.1-5.7,17.6-10l2.5,15.9l4.1-19.9c14.4-7,29.5-13,29.5-13
					S429.7,90.8,423.7,108.7z"/>
			</g>
		</g>
	</g>
	<circle class="st3" cx="469.3" cy="160" r="6.7"/>
	<circle class="st3" cx="449.9" cy="179.4" r="2.8"/>
	<g>
		<path class="st5" d="M380,274.1H90.4c-3.8,0-6.8-3.1-6.8-6.8v-186c0-3.8,3.1-6.8,6.8-6.8H380c3.8,0,6.8,3.1,6.8,6.8v186
			C386.8,271,383.8,274.1,380,274.1z"/>
		<g>
			<defs>
				<path id="SVGID_1_" d="M374.2,274.1h-278c-7,0-12.6-5.7-12.6-12.6V87.1c0-7,5.7-12.6,12.6-12.6h284c3.6,0,6.6,2.9,6.6,6.6v180.4
					C386.8,268.4,381.2,274.1,374.2,274.1z"/>
			</defs>
			<clipPath id="SVGID_2_">
				<use xlink:href="#SVGID_1_"  style="overflow:visible;"/>
			</clipPath>
			<path class="st6" d="M176.7,74.4c0,0-10.7,57.7,42.9,68.1s102.9-0.6,113.3,44.4c10.5,45,53.9,38.6,53.9,38.6V61.1L176.7,74.4z"/>
		</g>
		<path class="st7" d="M156,153.8h-37.1c-3.2,0-5.7-2.6-5.7-5.7V111c0-3.2,2.6-5.7,5.7-5.7H156c3.2,0,5.7,2.6,5.7,5.7v37.1
			C161.7,151.3,159.2,153.8,156,153.8z"/>
		<g>
			<g>
				<path class="st8" d="M146.8,142.5h-18.6c-0.4,0-0.7-0.3-0.7-0.7v-24.4c0-0.4,0.3-0.7,0.7-0.7h18.6c0.4,0,0.7,0.3,0.7,0.7v24.4
					C147.5,142.2,147.2,142.5,146.8,142.5z"/>
				<g>
					<line class="st8" x1="147.5" y1="121.2" x2="161.7" y2="121.2"/>
					<line class="st8" x1="147.5" y1="129.6" x2="161.7" y2="129.6"/>
					<line class="st8" x1="147.5" y1="137.9" x2="161.7" y2="137.9"/>
				</g>
				<g>
					<line class="st8" x1="113.2" y1="121.2" x2="127.4" y2="121.2"/>
					<line class="st8" x1="113.2" y1="129.6" x2="127.4" y2="129.6"/>
					<line class="st8" x1="113.2" y1="137.9" x2="127.4" y2="137.9"/>
				</g>
			</g>
		</g>
		<g>
			<path class="st0" d="M161.3,191.4h-47.6c-1.2,0-2.1-0.9-2.1-2.1v-4.8c0-1.2,0.9-2.1,2.1-2.1h47.6c1.2,0,2.1,0.9,2.1,2.1v4.8
				C163.4,190.4,162.4,191.4,161.3,191.4z"/>
			<path class="st0" d="M226.4,191.4h-47.6c-1.2,0-2.1-0.9-2.1-2.1v-4.8c0-1.2,0.9-2.1,2.1-2.1h47.6c1.2,0,2.1,0.9,2.1,2.1v4.8
				C228.5,190.4,227.6,191.4,226.4,191.4z"/>
			<path class="st0" d="M291.6,191.4h-47.6c-1.2,0-2.1-0.9-2.1-2.1v-4.8c0-1.2,0.9-2.1,2.1-2.1h47.6c1.2,0,2.1,0.9,2.1,2.1v4.8
				C293.7,190.4,292.7,191.4,291.6,191.4z"/>
			<path class="st0" d="M356.7,191.4h-47.6c-1.2,0-2.1-0.9-2.1-2.1v-4.8c0-1.2,0.9-2.1,2.1-2.1h47.6c1.2,0,2.1,0.9,2.1,2.1v4.8
				C358.8,190.4,357.9,191.4,356.7,191.4z"/>
		</g>
		<g>
			<path class="st0" d="M147.6,212.9h-34c-1.2,0-2.1-0.9-2.1-2.1v-4.8c0-1.2,0.9-2.1,2.1-2.1h34c1.2,0,2.1,0.9,2.1,2.1v4.8
				C149.7,212,148.8,212.9,147.6,212.9z"/>
		</g>
		<g>
			<path class="st0" d="M188.7,234.5h-75.1c-1.2,0-2.1-0.9-2.1-2.1v-4.8c0-1.2,0.9-2.1,2.1-2.1h75.1c1.2,0,2.1,0.9,2.1,2.1v4.8
				C190.8,233.6,189.9,234.5,188.7,234.5z"/>
		</g>
		<g>
			<path class="st0" d="M279.4,234.5h-75.1c-1.2,0-2.1-0.9-2.1-2.1v-4.8c0-1.2,0.9-2.1,2.1-2.1h75.1c1.2,0,2.1,0.9,2.1,2.1v4.8
				C281.5,233.6,280.5,234.5,279.4,234.5z"/>
		</g>
	</g>
	<g>
		<path class="st9" d="M304.4,104.8c-1,0-1.8-0.7-2-1.6l-2.5-11.4c-0.1-0.4-0.3-0.7-0.7-0.8l-10.9-4.4c-0.7-0.3-1.2-1-1.3-1.8
			c-0.1-0.8,0.3-1.5,1-2l10.1-5.9c0.3-0.2,0.5-0.5,0.6-0.9l0.8-11.7c0.1-1.1,1-1.9,2.1-1.9c0.5,0,1,0.2,1.4,0.5l8.8,7.8
			c0.2,0.2,0.5,0.3,0.8,0.3c0.1,0,0.2,0,0.3,0l11.4-2.8c0.2,0,0.3-0.1,0.5-0.1c0.7,0,1.3,0.4,1.7,1c0.4,0.6,0.5,1.3,0.2,2l-4.7,10.7
			c-0.2,0.3-0.1,0.7,0.1,1.1l6.2,9.9c0.4,0.7,0.4,1.4,0.1,2.1c-0.4,0.7-1.1,1.1-1.8,1.1c-0.1,0-0.1,0-0.2,0l-11.7-1.1
			c0,0-0.1,0-0.1,0c-0.3,0-0.7,0.1-0.9,0.4l-7.5,9C305.6,104.5,305,104.8,304.4,104.8z"/>
		<g>
			<path class="st10" d="M301.6,62.7c0.4,0,0.7,0.1,1.1,0.4l8.8,7.8c0.3,0.3,0.7,0.4,1.1,0.4c0.1,0,0.3,0,0.4,0l11.4-2.8
				c0.1,0,0.3,0,0.4,0c1.1,0,2,1.2,1.5,2.3l-4.7,10.7c-0.2,0.5-0.2,1,0.1,1.5l6.2,9.9c0.7,1.1-0.1,2.5-1.4,2.5c-0.1,0-0.1,0-0.2,0
				l-11.7-1.1c-0.1,0-0.1,0-0.2,0c-0.5,0-0.9,0.2-1.2,0.6l-7.5,9c-0.3,0.4-0.8,0.6-1.2,0.6c-0.7,0-1.4-0.5-1.6-1.3l-2.5-11.4
				c-0.1-0.5-0.5-0.9-1-1.1L288.5,86c-1.2-0.5-1.4-2.2-0.2-2.9l10.1-5.9c0.5-0.3,0.8-0.7,0.8-1.3l0.8-11.7
				C300.1,63.3,300.8,62.7,301.6,62.7 M301.6,61.8L301.6,61.8c-1.4,0-2.5,1-2.6,2.4l-0.8,11.7c0,0.2-0.1,0.4-0.3,0.5l-10.1,5.9
				c-0.8,0.5-1.3,1.4-1.3,2.4c0.1,1,0.7,1.8,1.6,2.2l10.9,4.4c0.2,0.1,0.4,0.3,0.4,0.5l2.5,11.4c0.3,1.2,1.3,2,2.5,2
				c0.8,0,1.5-0.3,2-0.9l7.5-9c0.1-0.2,0.3-0.2,0.5-0.2c0,0,0,0,0.1,0l11.7,1.1c0.1,0,0.2,0,0.3,0c0.9,0,1.8-0.5,2.2-1.3
				c0.5-0.8,0.4-1.8-0.1-2.6l-6.2-9.9c-0.1-0.2-0.1-0.4,0-0.6L327,71c0.3-0.8,0.3-1.7-0.2-2.4c-0.5-0.7-1.3-1.2-2.1-1.2
				c-0.2,0-0.4,0-0.6,0.1l-11.4,2.8c-0.1,0-0.1,0-0.2,0c-0.2,0-0.3-0.1-0.4-0.2l-8.8-7.8C302.8,62,302.2,61.8,301.6,61.8L301.6,61.8
				z"/>
		</g>
	</g>
	<g>
		<path class="st9" d="M336.8,63.4c-0.6,0-1.2-0.4-1.3-1l-1.3-6c0-0.1-0.1-0.2-0.2-0.3l-5.7-2.3c-0.5-0.2-0.8-0.6-0.8-1.1
			s0.2-1,0.6-1.2l5.3-3.1c0.1-0.1,0.2-0.2,0.2-0.3l0.4-6.2c0.1-0.7,0.6-1.2,1.3-1.2c0.3,0,0.6,0.1,0.9,0.3l4.6,4.1
			c0.1,0.1,0.2,0.1,0.3,0.1l6.1-1.5c0.1,0,0.2,0,0.3,0c0.4,0,0.9,0.2,1.1,0.6c0.2,0.4,0.3,0.8,0.1,1.3l-2.5,5.7c0,0.1,0,0.2,0,0.4
			l3.3,5.2c0.3,0.4,0.3,0.9,0,1.3c-0.2,0.4-0.7,0.7-1.2,0.7c0,0-0.1,0-0.1,0c0,0-6.1-0.6-6.1-0.6c-0.1,0-0.2,0-0.3,0.1l-4,4.7
			C337.6,63.3,337.2,63.4,336.8,63.4z"/>
		<path class="st10" d="M335.3,41.1c0.2,0,0.4,0.1,0.6,0.2l4.6,4.1c0.2,0.1,0.4,0.2,0.6,0.2c0.1,0,0.1,0,0.2,0l6-1.5
			c0.1,0,0.1,0,0.2,0c0.6,0,1,0.6,0.8,1.2l-2.5,5.7c-0.1,0.3-0.1,0.6,0.1,0.8l3.3,5.2c0.4,0.6-0.1,1.3-0.7,1.3c0,0-0.1,0-0.1,0
			l-6.1-0.6c0,0-0.1,0-0.1,0c-0.3,0-0.5,0.1-0.7,0.3l-4,4.7c-0.2,0.2-0.4,0.3-0.6,0.3c-0.4,0-0.7-0.2-0.8-0.7l-1.3-6
			c-0.1-0.3-0.3-0.5-0.5-0.6l-5.7-2.3c-0.7-0.3-0.7-1.2-0.1-1.5l5.3-3.1c0.2-0.1,0.4-0.4,0.4-0.7l0.4-6.2
			C334.5,41.4,334.9,41.1,335.3,41.1 M335.3,40.1L335.3,40.1c-0.9,0-1.7,0.7-1.8,1.7l-0.4,6.1l-5.3,3.1c-0.6,0.3-0.9,1-0.9,1.7
			c0,0.7,0.5,1.3,1.1,1.5l5.7,2.3l1.3,6c0.2,0.8,0.9,1.4,1.8,1.4c0.5,0,1-0.2,1.4-0.6l3.9-4.7l6.1,0.6c0.1,0,0.1,0,0.2,0
			c0.6,0,1.2-0.4,1.6-0.9c0.3-0.6,0.3-1.3,0-1.8l-3.2-5.2l2.4-5.6c0.2-0.6,0.2-1.2-0.1-1.7c-0.3-0.5-0.9-0.8-1.5-0.8
			c-0.1,0-0.3,0-0.4,0.1l-5.9,1.5l-4.6-4.1C336.2,40.3,335.8,40.1,335.3,40.1L335.3,40.1z"/>
	</g>
	<g>
		<path class="st9" d="M353.8,92.5c-0.2,0-0.4-0.1-0.6-0.2l-3.2-2.7c0,0-0.1-0.1-0.2-0.1l-4.1,1.1c-0.1,0-0.2,0-0.2,0
			c-0.3,0-0.6-0.1-0.7-0.4c-0.2-0.2-0.2-0.6-0.1-0.8l1.6-3.8c0-0.1,0-0.2,0-0.2l-2.3-3.5c-0.2-0.3-0.2-0.6,0-0.9
			c0.2-0.3,0.5-0.5,0.8-0.5c0,0,4.2,0.3,4.2,0.3c0.1,0,0.2,0,0.2-0.1l2.6-3.2c0.2-0.2,0.4-0.3,0.7-0.3c0.4,0,0.8,0.3,0.9,0.7l1,4
			c0,0.1,0.1,0.1,0.2,0.2l3.9,1.5c0.3,0.1,0.5,0.4,0.6,0.7c0,0.3-0.1,0.7-0.4,0.8l-3.5,2.2c-0.1,0-0.1,0.1-0.1,0.2l-0.2,4.1
			C354.6,92.1,354.2,92.5,353.8,92.5z"/>
		<path class="st10" d="M352.4,77.5c0.2,0,0.5,0.2,0.6,0.4l1,4c0,0.2,0.2,0.3,0.4,0.4l3.9,1.5c0.4,0.2,0.5,0.8,0.1,1l-3.5,2.2
			c-0.2,0.1-0.3,0.3-0.3,0.5l-0.2,4.1c0,0.3-0.3,0.5-0.6,0.5c-0.1,0-0.3,0-0.4-0.1l-3.2-2.7c-0.1-0.1-0.2-0.1-0.4-0.1
			c-0.1,0-0.1,0-0.2,0l-4,1.1c-0.1,0-0.1,0-0.2,0c-0.4,0-0.7-0.4-0.5-0.8l1.6-3.8c0.1-0.2,0.1-0.4-0.1-0.5l-2.3-3.5
			c-0.3-0.4,0-0.9,0.5-0.9c0,0,0,0,0,0l4.1,0.3c0,0,0,0,0,0c0.2,0,0.3-0.1,0.4-0.2l2.6-3.2C352.1,77.5,352.2,77.5,352.4,77.5
			 M352.4,76.8C352.4,76.8,352.4,76.8,352.4,76.8c-0.4,0-0.7,0.2-0.9,0.5l-2.6,3.2l-4.1-0.3c0,0-0.1,0-0.1,0c-0.4,0-0.9,0.2-1.1,0.6
			c-0.2,0.4-0.2,0.9,0.1,1.2l2.3,3.4l-1.5,3.8c-0.2,0.4-0.1,0.8,0.1,1.1c0.2,0.3,0.6,0.5,1,0.5c0.1,0,0.2,0,0.3,0l4-1.1l3.2,2.6
			c0.2,0.2,0.5,0.3,0.8,0.3c0.6,0,1.2-0.5,1.2-1.2l0.2-4.1l3.5-2.2c0.4-0.2,0.6-0.7,0.6-1.1c0-0.5-0.3-0.8-0.8-1l-3.9-1.4l-1-4
			C353.4,77.2,352.9,76.8,352.4,76.8L352.4,76.8z"/>
	</g>
	<g>
		<path class="st2" d="M193.9,33.7c-0.2,0-0.5-0.1-0.6-0.2c-1.1-0.9-2.2-1.8-3.3-2.6c-0.4-0.3-0.5-1-0.2-1.4c0.3-0.4,1-0.5,1.4-0.2
			c1.1,0.9,2.2,1.8,3.3,2.7c0.4,0.4,0.5,1,0.1,1.4C194.5,33.6,194.2,33.7,193.9,33.7z M180.9,24c-0.2,0-0.4-0.1-0.5-0.2
			c-3.3-2.2-6.8-4.2-10.2-6.1c-0.5-0.3-0.7-0.9-0.4-1.4c0.3-0.5,0.9-0.7,1.4-0.4c3.5,1.9,7,4,10.4,6.2c0.5,0.3,0.6,0.9,0.3,1.4
			C181.5,23.9,181.2,24,180.9,24z M54.6,13c-0.4,0-0.7-0.2-0.9-0.6c-0.2-0.5,0-1.1,0.5-1.3c0.2-0.1,4.2-2,11.4-4.3
			c0.5-0.2,1.1,0.1,1.3,0.7c0.2,0.5-0.1,1.1-0.7,1.3c-7,2.2-11.1,4.1-11.1,4.1C54.9,13,54.7,13,54.6,13z M159.8,12.7
			c-0.1,0-0.3,0-0.4-0.1c-3.6-1.6-7.4-3-11.2-4.2c-0.5-0.2-0.8-0.7-0.6-1.3c0.2-0.5,0.7-0.8,1.3-0.6c3.8,1.2,7.6,2.6,11.3,4.2
			c0.5,0.2,0.7,0.8,0.5,1.3C160.6,12.4,160.2,12.7,159.8,12.7z M77.4,5.7c-0.5,0-0.9-0.3-1-0.8c-0.1-0.5,0.2-1.1,0.8-1.2
			c3.9-0.9,7.9-1.6,11.9-2.1c0.5-0.1,1.1,0.3,1.1,0.9c0.1,0.5-0.3,1.1-0.9,1.1c-3.9,0.5-7.9,1.2-11.7,2.1
			C77.6,5.7,77.5,5.7,77.4,5.7z M137,5.4c-0.1,0-0.1,0-0.2,0c-3.8-0.8-7.8-1.5-11.7-2c-0.5-0.1-0.9-0.6-0.9-1.1
			c0.1-0.5,0.6-0.9,1.1-0.9c4,0.5,8,1.2,11.9,2c0.5,0.1,0.9,0.7,0.8,1.2C137.9,5,137.4,5.4,137,5.4z M101.2,2.5c-0.5,0-1-0.4-1-0.9
			c0-0.6,0.4-1,0.9-1.1c4-0.2,8.1-0.2,12.1-0.1c0.6,0,1,0.5,1,1c0,0.6-0.5,1-1,1C109.3,2.3,105.2,2.3,101.2,2.5
			C101.2,2.5,101.2,2.5,101.2,2.5z"/>
	</g>
	<g id="XMLID_405_">
		<g id="XMLID_404_">
			<path class="st11" d="M301.4,241h-3.4v11.7h3.3c1.8,0,3.1-0.4,4.2-1.4c1.3-1.1,2.1-2.8,2.1-4.5C307.7,243.4,305.1,241,301.4,241z
				 M304.1,249.8c-0.7,0.6-1.7,0.9-3.1,0.9h-0.6V243h0.6c1.5,0,2.4,0.3,3.1,0.9c0.8,0.7,1.3,1.8,1.3,2.9
				C305.4,248,304.9,249.1,304.1,249.8z"/>
			<rect id="XMLID_422_" x="308.8" y="241" class="st11" width="2.3" height="11.7"/>
			<path id="XMLID_421_" class="st11" d="M316.6,245.5c-1.4-0.5-1.8-0.8-1.8-1.5c0-0.7,0.7-1.3,1.7-1.3c0.7,0,1.2,0.3,1.8,0.9
				l1.2-1.6c-1-0.9-2.2-1.3-3.4-1.3c-2.1,0-3.7,1.4-3.7,3.4c0,1.6,0.7,2.4,2.9,3.2c0.9,0.3,1.3,0.5,1.6,0.7c0.5,0.3,0.7,0.7,0.7,1.2
				c0,0.9-0.8,1.7-1.8,1.7c-1.1,0-2-0.5-2.5-1.6l-1.5,1.4c1.1,1.5,2.3,2.2,4.1,2.2c2.4,0,4-1.6,4-3.8
				C320,247.3,319.2,246.4,316.6,245.5z"/>
			<path id="XMLID_420_" class="st11" d="M320.7,246.8c0,3.4,2.7,6.1,6.2,6.1c1,0,1.8-0.2,2.9-0.7v-2.7c-0.9,0.9-1.7,1.3-2.8,1.3
				c-2.3,0-3.9-1.7-3.9-4c0-2.2,1.7-4,3.8-4c1.1,0,1.9,0.4,2.9,1.3v-2.7c-1-0.5-1.8-0.7-2.8-0.7
				C323.5,240.7,320.7,243.4,320.7,246.8z"/>
			<polygon id="XMLID_419_" class="st11" points="347.9,248.9 344.8,241 342.3,241 347.3,253 348.5,253 353.5,241 351.1,241 			"/>
			<polygon id="XMLID_418_" class="st11" points="354.6,252.7 361.1,252.7 361.1,250.7 356.9,250.7 356.9,247.6 360.9,247.6 
				360.9,245.6 356.9,245.6 356.9,243 361.1,243 361.1,241 354.6,241 			"/>
			<path class="st11" d="M370.1,244.4c0-2.2-1.5-3.5-4.1-3.5h-3.4v11.7h2.3V248h0.3l3.2,4.7h2.8l-3.7-4.9
				C369.2,247.4,370.1,246.2,370.1,244.4z M365.5,246.4h-0.7v-3.5h0.7c1.4,0,2.2,0.6,2.2,1.7C367.7,245.7,367,246.4,365.5,246.4z"/>
			<g>
				<g>
					<path id="XMLID_415_" class="st11" d="M343,246.9c0,3.4-2.8,6.2-6.2,6.2c-3.4,0-6.2-2.8-6.2-6.2c0-3.4,2.8-6.2,6.2-6.2
						C340.2,240.6,343,243.4,343,246.9z"/>
					<defs>
						<filter id="Adobe_OpacityMaskFilter" filterUnits="userSpaceOnUse" x="330.5" y="240.6" width="12.5" height="12.5">
							<feFlood  style="flood-color:white;flood-opacity:1" result="back"/>
							<feBlend  in="SourceGraphic" in2="back" mode="normal"/>
						</filter>
					</defs>
					<mask maskUnits="userSpaceOnUse" x="330.5" y="240.6" width="12.5" height="12.5" id="XMLID_5_">
						<g id="XMLID_21_" class="st12">
							<defs>
								<filter id="Adobe_OpacityMaskFilter_1_" filterUnits="userSpaceOnUse" x="330.5" y="240.6" width="12.5" height="12.5">
									<feFlood  style="flood-color:white;flood-opacity:1" result="back"/>
									<feBlend  in="SourceGraphic" in2="back" mode="normal"/>
								</filter>
							</defs>
							<mask maskUnits="userSpaceOnUse" x="330.5" y="240.6" width="12.5" height="12.5" id="XMLID_5_">
								<g id="XMLID_37_" class="st13">
								</g>
							</mask>
							<linearGradient id="XMLID_6_" gradientUnits="userSpaceOnUse" x1="339.2684" y1="251.7826" x2="332.9624" y2="239.4573">
								<stop  offset="0" style="stop-color:#000000"/>
								<stop  offset="2.641718e-02" style="stop-color:#080808"/>
								<stop  offset="0.2097" style="stop-color:#3F3F3F"/>
								<stop  offset="0.3886" style="stop-color:#6C6C6C"/>
								<stop  offset="0.5591" style="stop-color:#8F8F8F"/>
								<stop  offset="0.7189" style="stop-color:#A8A8A8"/>
								<stop  offset="0.8642" style="stop-color:#B7B7B7"/>
								<stop  offset="0.9816" style="stop-color:#BDBDBD"/>
							</linearGradient>
							<path id="XMLID_22_" class="st14" d="M343,246.9c0,3.4-2.8,6.2-6.2,6.2c-3.4,0-6.2-2.8-6.2-6.2c0-3.4,2.8-6.2,6.2-6.2
								C340.2,240.6,343,243.4,343,246.9z"/>
						</g>
					</mask>
					<path id="XMLID_414_" class="st15" d="M343,246.9c0,3.4-2.8,6.2-6.2,6.2c-3.4,0-6.2-2.8-6.2-6.2c0-3.4,2.8-6.2,6.2-6.2
						C340.2,240.6,343,243.4,343,246.9z"/>
				</g>
				<g class="st16">
					<defs>
						<path id="XMLID_410_" class="st16" d="M343,246.9c0,3.4-2.8,6.2-6.2,6.2c-3.4,0-6.2-2.8-6.2-6.2c0-3.4,2.8-6.2,6.2-6.2
							C340.2,240.7,343,243.4,343,246.9z"/>
					</defs>
					<use xlink:href="#XMLID_410_"  style="overflow:visible;fill:#FFFFFF;"/>
					<clipPath id="XMLID_7_">
						<use xlink:href="#XMLID_410_"  style="overflow:visible;"/>
					</clipPath>
					<g id="XMLID_429_" class="st17">
						<path id="XMLID_3_" class="st11" d="M343.1,246.9c0,3.5-2.8,6.4-6.4,6.4c-3.5,0-6.4-2.8-6.4-6.4c0-3.5,2.8-6.4,6.4-6.4
							C340.3,240.5,343.1,243.4,343.1,246.9z"/>
						<path class="st11" d="M336.8,240.5c3.5,0,6.4,2.8,6.4,6.4c0,3.5-2.8,6.4-6.4,6.4c-3.5,0-6.4-2.8-6.4-6.4
							C330.4,243.4,333.3,240.5,336.8,240.5z"/>
						<path class="st11" d="M336.8,240.6c3.5,0,6.4,2.8,6.4,6.4c0,3.5-2.8,6.4-6.4,6.4c-3.5,0-6.4-2.8-6.4-6.4
							C330.4,243.4,333.3,240.6,336.8,240.6z"/>
						<path class="st11" d="M336.8,240.6c3.5,0,6.4,2.8,6.4,6.4c0,3.5-2.8,6.4-6.4,6.4c-3.5,0-6.4-2.8-6.4-6.4
							C330.4,243.4,333.3,240.6,336.8,240.6z"/>
						<path class="st11" d="M336.8,240.6c3.5,0,6.4,2.8,6.4,6.4s-2.8,6.4-6.4,6.4c-3.5,0-6.4-2.8-6.4-6.4S333.3,240.6,336.8,240.6z"
							/>
						<path class="st11" d="M336.8,240.6c3.5,0,6.4,2.8,6.4,6.4s-2.8,6.4-6.4,6.4c-3.5,0-6.4-2.8-6.4-6.4S333.3,240.6,336.8,240.6z"
							/>
						<path class="st11" d="M336.8,240.6c3.5,0,6.4,2.8,6.4,6.4s-2.8,6.4-6.4,6.4c-3.5,0-6.4-2.8-6.4-6.4S333.3,240.6,336.8,240.6z"
							/>
						<path class="st11" d="M336.8,240.6c3.5,0,6.4,2.8,6.4,6.4s-2.8,6.4-6.4,6.4c-3.5,0-6.4-2.8-6.4-6.4S333.3,240.6,336.8,240.6z"
							/>
						<path class="st11" d="M336.8,240.6c3.5,0,6.4,2.8,6.4,6.4s-2.8,6.4-6.4,6.4c-3.5,0-6.4-2.8-6.4-6.4S333.3,240.6,336.8,240.6z"
							/>
						<path class="st11" d="M336.8,240.6c3.5,0,6.4,2.8,6.4,6.4s-2.8,6.4-6.4,6.4c-3.5,0-6.4-2.8-6.4-6.4S333.3,240.6,336.8,240.6z"
							/>
						<path class="st11" d="M336.8,240.6c3.5,0,6.4,2.8,6.4,6.4c0,3.5-2.8,6.4-6.4,6.4c-3.5,0-6.4-2.8-6.4-6.4
							C330.5,243.4,333.3,240.6,336.8,240.6z"/>
						<path class="st11" d="M336.8,240.6c3.5,0,6.4,2.8,6.4,6.4c0,3.5-2.8,6.3-6.4,6.3c-3.5,0-6.3-2.8-6.3-6.3
							C330.5,243.4,333.3,240.6,336.8,240.6z"/>
						<path class="st11" d="M336.8,240.6c3.5,0,6.3,2.8,6.3,6.3c0,3.5-2.8,6.3-6.3,6.3c-3.5,0-6.3-2.8-6.3-6.3
							C330.5,243.4,333.3,240.6,336.8,240.6z"/>
						<path class="st11" d="M336.8,240.6c3.5,0,6.3,2.8,6.3,6.3c0,3.5-2.8,6.3-6.3,6.3c-3.5,0-6.3-2.8-6.3-6.3
							C330.5,243.4,333.3,240.6,336.8,240.6z"/>
						<path class="st11" d="M336.8,240.6c3.5,0,6.3,2.8,6.3,6.3c0,3.5-2.8,6.3-6.3,6.3c-3.5,0-6.3-2.8-6.3-6.3
							C330.5,243.5,333.3,240.6,336.8,240.6z"/>
						<path class="st11" d="M336.8,240.6c3.5,0,6.3,2.8,6.3,6.3c0,3.5-2.8,6.3-6.3,6.3c-3.5,0-6.3-2.8-6.3-6.3
							C330.5,243.5,333.3,240.6,336.8,240.6z"/>
						<path class="st11" d="M336.8,240.6c3.5,0,6.3,2.8,6.3,6.3c0,3.5-2.8,6.3-6.3,6.3c-3.5,0-6.3-2.8-6.3-6.3
							C330.5,243.5,333.3,240.6,336.8,240.6z"/>
						<path class="st11" d="M336.8,240.6c3.5,0,6.3,2.8,6.3,6.3s-2.8,6.3-6.3,6.3c-3.5,0-6.3-2.8-6.3-6.3S333.3,240.6,336.8,240.6z"
							/>
						<path class="st11" d="M336.8,240.6c3.5,0,6.3,2.8,6.3,6.3s-2.8,6.3-6.3,6.3c-3.5,0-6.3-2.8-6.3-6.3S333.3,240.6,336.8,240.6z"
							/>
						<path class="st11" d="M336.8,240.6c3.5,0,6.3,2.8,6.3,6.3s-2.8,6.3-6.3,6.3c-3.5,0-6.3-2.8-6.3-6.3S333.3,240.6,336.8,240.6z"
							/>
						<path class="st11" d="M336.8,240.6c3.5,0,6.3,2.8,6.3,6.3c0,3.5-2.8,6.3-6.3,6.3c-3.5,0-6.3-2.8-6.3-6.3
							C330.5,243.5,333.3,240.6,336.8,240.6z"/>
						<path class="st11" d="M336.9,240.6c3.5,0,6.3,2.8,6.3,6.3s-2.8,6.3-6.3,6.3c-3.5,0-6.3-2.8-6.3-6.3S333.3,240.6,336.9,240.6z"
							/>
						<path class="st11" d="M336.9,240.6c3.5,0,6.3,2.8,6.3,6.3c0,3.5-2.8,6.3-6.3,6.3c-3.5,0-6.3-2.8-6.3-6.3
							C330.5,243.5,333.4,240.6,336.9,240.6z"/>
						<path class="st11" d="M336.9,240.6c3.5,0,6.3,2.8,6.3,6.3c0,3.5-2.8,6.3-6.3,6.3c-3.5,0-6.3-2.8-6.3-6.3
							C330.5,243.5,333.4,240.6,336.9,240.6z"/>
						<path class="st11" d="M336.9,240.7c3.5,0,6.3,2.8,6.3,6.3c0,3.5-2.8,6.3-6.3,6.3c-3.5,0-6.3-2.8-6.3-6.3
							C330.5,243.5,333.4,240.7,336.9,240.7z"/>
						<path class="st11" d="M336.9,240.7c3.5,0,6.3,2.8,6.3,6.3c0,3.5-2.8,6.3-6.3,6.3c-3.5,0-6.3-2.8-6.3-6.3
							C330.5,243.5,333.4,240.7,336.9,240.7z"/>
						<path class="st11" d="M336.9,240.7c3.5,0,6.3,2.8,6.3,6.3c0,3.5-2.8,6.3-6.3,6.3c-3.5,0-6.3-2.8-6.3-6.3
							C330.5,243.5,333.4,240.7,336.9,240.7z"/>
						<path class="st11" d="M336.9,240.7c3.5,0,6.3,2.8,6.3,6.3c0,3.5-2.8,6.3-6.3,6.3c-3.5,0-6.3-2.8-6.3-6.3
							C330.5,243.5,333.4,240.7,336.9,240.7z"/>
						<path class="st11" d="M336.9,240.7c3.5,0,6.3,2.8,6.3,6.3c0,3.5-2.8,6.3-6.3,6.3c-3.5,0-6.3-2.8-6.3-6.3
							C330.5,243.5,333.4,240.7,336.9,240.7z"/>
						<path class="st11" d="M336.9,240.7c3.5,0,6.3,2.8,6.3,6.3c0,3.5-2.8,6.3-6.3,6.3c-3.5,0-6.3-2.8-6.3-6.3
							C330.5,243.5,333.4,240.7,336.9,240.7z"/>
						<path class="st11" d="M336.9,240.7c3.5,0,6.3,2.8,6.3,6.3c0,3.5-2.8,6.3-6.3,6.3c-3.5,0-6.3-2.8-6.3-6.3
							C330.5,243.5,333.4,240.7,336.9,240.7z"/>
						<path class="st11" d="M336.9,240.7c3.5,0,6.3,2.8,6.3,6.3c0,3.5-2.8,6.3-6.3,6.3c-3.5,0-6.3-2.8-6.3-6.3
							C330.5,243.5,333.4,240.7,336.9,240.7z"/>
						<path class="st11" d="M336.9,240.7c3.5,0,6.3,2.8,6.3,6.3c0,3.5-2.8,6.3-6.3,6.3c-3.5,0-6.3-2.8-6.3-6.3
							C330.6,243.5,333.4,240.7,336.9,240.7z"/>
						<path class="st11" d="M336.9,240.7c3.5,0,6.3,2.8,6.3,6.3c0,3.5-2.8,6.3-6.3,6.3c-3.5,0-6.3-2.8-6.3-6.3
							C330.6,243.5,333.4,240.7,336.9,240.7z"/>
						<path class="st11" d="M336.9,240.7c3.5,0,6.3,2.8,6.3,6.3c0,3.5-2.8,6.3-6.3,6.3c-3.5,0-6.3-2.8-6.3-6.3
							C330.6,243.5,333.4,240.7,336.9,240.7z"/>
						<path class="st11" d="M336.9,240.7c3.5,0,6.3,2.8,6.3,6.3c0,3.5-2.8,6.3-6.3,6.3c-3.5,0-6.3-2.8-6.3-6.3
							C330.6,243.5,333.4,240.7,336.9,240.7z"/>
						<path class="st11" d="M336.9,240.7c3.5,0,6.3,2.8,6.3,6.3c0,3.5-2.8,6.3-6.3,6.3c-3.5,0-6.3-2.8-6.3-6.3
							C330.6,243.5,333.4,240.7,336.9,240.7z"/>
						<path class="st11" d="M336.9,240.7c3.5,0,6.3,2.8,6.3,6.3c0,3.5-2.8,6.3-6.3,6.3c-3.5,0-6.3-2.8-6.3-6.3
							C330.6,243.6,333.4,240.7,336.9,240.7z"/>
						<path class="st11" d="M336.9,240.7c3.5,0,6.3,2.8,6.3,6.3c0,3.5-2.8,6.3-6.3,6.3c-3.5,0-6.3-2.8-6.3-6.3
							C330.6,243.6,333.4,240.7,336.9,240.7z"/>
						<path class="st11" d="M336.9,240.7c3.5,0,6.3,2.8,6.3,6.3c0,3.5-2.8,6.3-6.3,6.3c-3.5,0-6.3-2.8-6.3-6.3
							C330.6,243.6,333.4,240.7,336.9,240.7z"/>
						<path class="st11" d="M336.9,240.7c3.5,0,6.3,2.8,6.3,6.3c0,3.5-2.8,6.3-6.3,6.3c-3.5,0-6.3-2.8-6.3-6.3
							C330.6,243.6,333.4,240.7,336.9,240.7z"/>
						<path class="st11" d="M336.9,240.7c3.5,0,6.3,2.8,6.3,6.3c0,3.5-2.8,6.3-6.3,6.3c-3.5,0-6.3-2.8-6.3-6.3
							C330.6,243.6,333.4,240.7,336.9,240.7z"/>
						<path class="st11" d="M336.9,240.7c3.5,0,6.3,2.8,6.3,6.3c0,3.5-2.8,6.3-6.3,6.3c-3.5,0-6.3-2.8-6.3-6.3
							C330.6,243.6,333.4,240.7,336.9,240.7z"/>
						<path class="st11" d="M336.9,240.7c3.5,0,6.3,2.8,6.3,6.3c0,3.5-2.8,6.3-6.3,6.3c-3.5,0-6.3-2.8-6.3-6.3
							C330.6,243.6,333.4,240.7,336.9,240.7z"/>
						<path class="st11" d="M336.9,240.7c3.5,0,6.3,2.8,6.3,6.3c0,3.5-2.8,6.3-6.3,6.3c-3.5,0-6.3-2.8-6.3-6.3
							C330.6,243.6,333.4,240.7,336.9,240.7z"/>
						<path class="st11" d="M336.9,240.8c3.5,0,6.3,2.8,6.3,6.3c0,3.5-2.8,6.3-6.3,6.3c-3.5,0-6.3-2.8-6.3-6.3
							C330.6,243.6,333.4,240.8,336.9,240.8z"/>
						<path class="st11" d="M336.9,240.8c3.5,0,6.3,2.8,6.3,6.3c0,3.5-2.8,6.3-6.3,6.3c-3.5,0-6.3-2.8-6.3-6.3
							C330.6,243.6,333.4,240.8,336.9,240.8z"/>
						<path class="st11" d="M336.9,240.8c3.5,0,6.3,2.8,6.3,6.3c0,3.5-2.8,6.3-6.3,6.3c-3.5,0-6.3-2.8-6.3-6.3
							C330.6,243.6,333.4,240.8,336.9,240.8z"/>
						<path class="st11" d="M336.9,240.8c3.5,0,6.3,2.8,6.3,6.3c0,3.5-2.8,6.3-6.3,6.3c-3.5,0-6.3-2.8-6.3-6.3
							C330.6,243.6,333.5,240.8,336.9,240.8z"/>
						<path class="st11" d="M336.9,240.8c3.5,0,6.3,2.8,6.3,6.3c0,3.5-2.8,6.3-6.3,6.3c-3.5,0-6.3-2.8-6.3-6.3
							C330.6,243.6,333.5,240.8,336.9,240.8z"/>
						<path class="st11" d="M337,240.8c3.5,0,6.3,2.8,6.3,6.3c0,3.5-2.8,6.3-6.3,6.3c-3.5,0-6.3-2.8-6.3-6.3
							C330.6,243.6,333.5,240.8,337,240.8z"/>
						<path class="st11" d="M337,240.8c3.5,0,6.3,2.8,6.3,6.3c0,3.5-2.8,6.3-6.3,6.3c-3.5,0-6.3-2.8-6.3-6.3
							C330.6,243.6,333.5,240.8,337,240.8z"/>
						<path class="st11" d="M337,240.8c3.5,0,6.3,2.8,6.3,6.3c0,3.5-2.8,6.3-6.3,6.3c-3.5,0-6.3-2.8-6.3-6.3
							C330.6,243.6,333.5,240.8,337,240.8z"/>
						<path class="st11" d="M337,240.8c3.5,0,6.3,2.8,6.3,6.3c0,3.5-2.8,6.3-6.3,6.3c-3.5,0-6.3-2.8-6.3-6.3
							C330.6,243.6,333.5,240.8,337,240.8z"/>
						<path class="st11" d="M337,240.8c3.5,0,6.3,2.8,6.3,6.3c0,3.5-2.8,6.3-6.3,6.3c-3.5,0-6.3-2.8-6.3-6.3
							C330.6,243.6,333.5,240.8,337,240.8z"/>
						<path class="st11" d="M337,240.8c3.5,0,6.3,2.8,6.3,6.3c0,3.5-2.8,6.3-6.3,6.3c-3.5,0-6.3-2.8-6.3-6.3
							C330.6,243.6,333.5,240.8,337,240.8z"/>
						<path class="st11" d="M337,240.8c3.5,0,6.3,2.8,6.3,6.3c0,3.5-2.8,6.3-6.3,6.3c-3.5,0-6.3-2.8-6.3-6.3
							C330.7,243.6,333.5,240.8,337,240.8z"/>
						<path class="st11" d="M337,240.8c3.5,0,6.3,2.8,6.3,6.3c0,3.5-2.8,6.3-6.3,6.3c-3.5,0-6.3-2.8-6.3-6.3
							C330.7,243.6,333.5,240.8,337,240.8z"/>
						<path class="st11" d="M337,240.8c3.5,0,6.3,2.8,6.3,6.3c0,3.5-2.8,6.3-6.3,6.3c-3.5,0-6.3-2.8-6.3-6.3
							C330.7,243.6,333.5,240.8,337,240.8z"/>
						<path class="st11" d="M337,240.8c3.5,0,6.3,2.8,6.3,6.3c0,3.5-2.8,6.3-6.3,6.3c-3.5,0-6.3-2.8-6.3-6.3
							C330.7,243.6,333.5,240.8,337,240.8z"/>
						<path class="st11" d="M337,240.8c3.5,0,6.3,2.8,6.3,6.3c0,3.5-2.8,6.3-6.3,6.3c-3.5,0-6.3-2.8-6.3-6.3
							C330.7,243.6,333.5,240.8,337,240.8z"/>
						<path class="st11" d="M337,240.8c3.5,0,6.3,2.8,6.3,6.3c0,3.5-2.8,6.3-6.3,6.3c-3.5,0-6.3-2.8-6.3-6.3
							C330.7,243.7,333.5,240.8,337,240.8z"/>
						<path class="st11" d="M337,240.8c3.5,0,6.3,2.8,6.3,6.3c0,3.5-2.8,6.3-6.3,6.3c-3.5,0-6.3-2.8-6.3-6.3
							C330.7,243.7,333.5,240.8,337,240.8z"/>
						<path class="st11" d="M337,240.8c3.5,0,6.3,2.8,6.3,6.3c0,3.5-2.8,6.3-6.3,6.3c-3.5,0-6.3-2.8-6.3-6.3
							C330.7,243.7,333.5,240.8,337,240.8z"/>
						<path class="st11" d="M337,240.8c3.5,0,6.3,2.8,6.3,6.3c0,3.5-2.8,6.3-6.3,6.3c-3.5,0-6.3-2.8-6.3-6.3
							C330.7,243.7,333.5,240.8,337,240.8z"/>
						<path class="st11" d="M337,240.8c3.5,0,6.3,2.8,6.3,6.3c0,3.5-2.8,6.3-6.3,6.3c-3.5,0-6.3-2.8-6.3-6.3
							C330.7,243.7,333.5,240.8,337,240.8z"/>
						<path class="st11" d="M337,240.8c3.5,0,6.3,2.8,6.3,6.3c0,3.5-2.8,6.3-6.3,6.3c-3.5,0-6.3-2.8-6.3-6.3
							C330.7,243.7,333.5,240.8,337,240.8z"/>
						<path class="st11" d="M337,240.9c3.5,0,6.3,2.8,6.3,6.3c0,3.5-2.8,6.3-6.3,6.3c-3.5,0-6.3-2.8-6.3-6.3
							C330.7,243.7,333.5,240.9,337,240.9z"/>
						<path class="st11" d="M337,240.9c3.5,0,6.3,2.8,6.3,6.3c0,3.5-2.8,6.3-6.3,6.3c-3.5,0-6.3-2.8-6.3-6.3
							C330.7,243.7,333.5,240.9,337,240.9z"/>
						<path class="st11" d="M337,240.9c3.5,0,6.3,2.8,6.3,6.3c0,3.5-2.8,6.3-6.3,6.3c-3.5,0-6.3-2.8-6.3-6.3
							C330.7,243.7,333.5,240.9,337,240.9z"/>
						<path class="st11" d="M337,240.9c3.5,0,6.3,2.8,6.3,6.3c0,3.5-2.8,6.3-6.3,6.3c-3.5,0-6.3-2.8-6.3-6.3
							C330.7,243.7,333.5,240.9,337,240.9z"/>
						<path class="st11" d="M337,240.9c3.5,0,6.3,2.8,6.3,6.3c0,3.5-2.8,6.3-6.3,6.3c-3.5,0-6.3-2.8-6.3-6.3
							C330.7,243.7,333.5,240.9,337,240.9z"/>
						<path class="st11" d="M337,240.9c3.5,0,6.3,2.8,6.3,6.3c0,3.5-2.8,6.3-6.3,6.3c-3.5,0-6.3-2.8-6.3-6.3
							C330.7,243.7,333.5,240.9,337,240.9z"/>
						<path class="st11" d="M337,240.9c3.5,0,6.3,2.8,6.3,6.3c0,3.5-2.8,6.3-6.3,6.3c-3.5,0-6.3-2.8-6.3-6.3
							C330.7,243.7,333.5,240.9,337,240.9z"/>
						<path class="st11" d="M337,240.9c3.5,0,6.3,2.8,6.3,6.3c0,3.5-2.8,6.3-6.3,6.3c-3.5,0-6.3-2.8-6.3-6.3
							C330.7,243.7,333.5,240.9,337,240.9z"/>
						<path class="st11" d="M337,240.9c3.5,0,6.3,2.8,6.3,6.3c0,3.5-2.8,6.3-6.3,6.3c-3.5,0-6.3-2.8-6.3-6.3
							C330.7,243.7,333.6,240.9,337,240.9z"/>
						<path class="st11" d="M337,240.9c3.5,0,6.3,2.8,6.3,6.3c0,3.5-2.8,6.3-6.3,6.3c-3.5,0-6.3-2.8-6.3-6.3
							C330.7,243.7,333.6,240.9,337,240.9z"/>
						<path class="st11" d="M337,240.9c3.5,0,6.3,2.8,6.3,6.3c0,3.5-2.8,6.3-6.3,6.3c-3.5,0-6.3-2.8-6.3-6.3
							C330.7,243.7,333.6,240.9,337,240.9z"/>
						<path class="st11" d="M337,240.9c3.5,0,6.3,2.8,6.3,6.3c0,3.5-2.8,6.3-6.3,6.3c-3.5,0-6.3-2.8-6.3-6.3
							C330.7,243.7,333.6,240.9,337,240.9z"/>
						<path class="st11" d="M337.1,240.9c3.5,0,6.3,2.8,6.3,6.3c0,3.5-2.8,6.3-6.3,6.3c-3.5,0-6.3-2.8-6.3-6.3
							C330.7,243.7,333.6,240.9,337.1,240.9z"/>
						<path class="st11" d="M337.1,240.9c3.5,0,6.3,2.8,6.3,6.3c0,3.5-2.8,6.3-6.3,6.3c-3.5,0-6.3-2.8-6.3-6.3
							C330.7,243.7,333.6,240.9,337.1,240.9z"/>
						<path class="st11" d="M337.1,240.9c3.5,0,6.3,2.8,6.3,6.3c0,3.5-2.8,6.3-6.3,6.3c-3.5,0-6.3-2.8-6.3-6.3
							C330.8,243.7,333.6,240.9,337.1,240.9z"/>
						<path class="st11" d="M337.1,240.9c3.5,0,6.3,2.8,6.3,6.3c0,3.5-2.8,6.3-6.3,6.3c-3.5,0-6.3-2.8-6.3-6.3
							C330.8,243.7,333.6,240.9,337.1,240.9z"/>
						<path class="st11" d="M337.1,240.9c3.5,0,6.3,2.8,6.3,6.3c0,3.5-2.8,6.3-6.3,6.3c-3.5,0-6.3-2.8-6.3-6.3
							C330.8,243.7,333.6,240.9,337.1,240.9z"/>
						<path class="st11" d="M337.1,240.9c3.5,0,6.3,2.8,6.3,6.3c0,3.5-2.8,6.3-6.3,6.3c-3.5,0-6.3-2.8-6.3-6.3
							C330.8,243.8,333.6,240.9,337.1,240.9z"/>
						<path class="st11" d="M337.1,240.9c3.5,0,6.3,2.8,6.3,6.3c0,3.5-2.8,6.3-6.3,6.3c-3.5,0-6.3-2.8-6.3-6.3
							C330.8,243.8,333.6,240.9,337.1,240.9z"/>
						<path class="st11" d="M337.1,240.9c3.5,0,6.3,2.8,6.3,6.3c0,3.5-2.8,6.3-6.3,6.3c-3.5,0-6.3-2.8-6.3-6.3
							C330.8,243.8,333.6,240.9,337.1,240.9z"/>
						<path class="st11" d="M337.1,240.9c3.5,0,6.3,2.8,6.3,6.3c0,3.5-2.8,6.3-6.3,6.3c-3.5,0-6.3-2.8-6.3-6.3
							C330.8,243.8,333.6,240.9,337.1,240.9z"/>
						<path class="st11" d="M337.1,240.9c3.5,0,6.3,2.8,6.3,6.3c0,3.5-2.8,6.3-6.3,6.3c-3.5,0-6.3-2.8-6.3-6.3
							C330.8,243.8,333.6,240.9,337.1,240.9z"/>
						<path class="st11" d="M337.1,241c3.5,0,6.3,2.8,6.3,6.3c0,3.5-2.8,6.3-6.3,6.3c-3.5,0-6.3-2.8-6.3-6.3
							C330.8,243.8,333.6,241,337.1,241z"/>
						<path class="st11" d="M337.1,241c3.5,0,6.3,2.8,6.3,6.3c0,3.5-2.8,6.3-6.3,6.3c-3.5,0-6.3-2.8-6.3-6.3
							C330.8,243.8,333.6,241,337.1,241z"/>
						<path class="st11" d="M337.1,241c3.5,0,6.3,2.8,6.3,6.3c0,3.5-2.8,6.3-6.3,6.3c-3.5,0-6.3-2.8-6.3-6.3
							C330.8,243.8,333.6,241,337.1,241z"/>
						<path class="st11" d="M337.1,241c3.5,0,6.3,2.8,6.3,6.3c0,3.5-2.8,6.3-6.3,6.3c-3.5,0-6.3-2.8-6.3-6.3
							C330.8,243.8,333.6,241,337.1,241z"/>
						<path class="st11" d="M337.1,241c3.5,0,6.3,2.8,6.3,6.3c0,3.5-2.8,6.3-6.3,6.3c-3.5,0-6.3-2.8-6.3-6.3
							C330.8,243.8,333.6,241,337.1,241z"/>
						<path class="st11" d="M337.1,241c3.5,0,6.3,2.8,6.3,6.3c0,3.5-2.8,6.3-6.3,6.3c-3.5,0-6.3-2.8-6.3-6.3
							C330.8,243.8,333.6,241,337.1,241z"/>
						<path class="st11" d="M337.1,241c3.5,0,6.3,2.8,6.3,6.3c0,3.5-2.8,6.3-6.3,6.3c-3.5,0-6.3-2.8-6.3-6.3
							C330.8,243.8,333.6,241,337.1,241z"/>
						<path class="st11" d="M337.1,241c3.5,0,6.3,2.8,6.3,6.3c0,3.5-2.8,6.3-6.3,6.3c-3.5,0-6.3-2.8-6.3-6.3
							C330.8,243.8,333.6,241,337.1,241z"/>
						<path class="st11" d="M337.1,241c3.5,0,6.3,2.8,6.3,6.3c0,3.5-2.8,6.3-6.3,6.3c-3.5,0-6.3-2.8-6.3-6.3
							C330.8,243.8,333.6,241,337.1,241z"/>
						<path class="st11" d="M337.1,241c3.5,0,6.3,2.8,6.3,6.3c0,3.5-2.8,6.3-6.3,6.3c-3.5,0-6.3-2.8-6.3-6.3
							C330.8,243.8,333.6,241,337.1,241z"/>
						<path class="st11" d="M337.1,241c3.5,0,6.3,2.8,6.3,6.3c0,3.5-2.8,6.3-6.3,6.3c-3.5,0-6.3-2.8-6.3-6.3
							C330.8,243.8,333.6,241,337.1,241z"/>
						<path class="st11" d="M337.1,241c3.5,0,6.3,2.8,6.3,6.3c0,3.5-2.8,6.3-6.3,6.3s-6.3-2.8-6.3-6.3
							C330.8,243.8,333.6,241,337.1,241z"/>
						<path class="st11" d="M337.1,241c3.5,0,6.3,2.8,6.3,6.3c0,3.5-2.8,6.3-6.3,6.3c-3.5,0-6.3-2.8-6.3-6.3
							C330.8,243.8,333.7,241,337.1,241z"/>
						<path class="st11" d="M337.1,241c3.5,0,6.3,2.8,6.3,6.3c0,3.5-2.8,6.3-6.3,6.3c-3.5,0-6.3-2.8-6.3-6.3
							C330.8,243.8,333.7,241,337.1,241z"/>
						<path class="st11" d="M337.1,241c3.5,0,6.3,2.8,6.3,6.3c0,3.5-2.8,6.3-6.3,6.3c-3.5,0-6.3-2.8-6.3-6.3
							C330.8,243.8,333.7,241,337.1,241z"/>
						<path class="st11" d="M337.1,241c3.5,0,6.3,2.8,6.3,6.3c0,3.5-2.8,6.3-6.3,6.3c-3.5,0-6.3-2.8-6.3-6.3
							C330.8,243.8,333.7,241,337.1,241z"/>
						<path class="st11" d="M337.1,241c3.5,0,6.3,2.8,6.3,6.3c0,3.5-2.8,6.3-6.3,6.3c-3.5,0-6.3-2.8-6.3-6.3
							C330.8,243.8,333.7,241,337.1,241z"/>
						<path class="st11" d="M337.1,241c3.5,0,6.3,2.8,6.3,6.3c0,3.5-2.8,6.3-6.3,6.3c-3.5,0-6.3-2.8-6.3-6.3
							C330.9,243.8,333.7,241,337.1,241z"/>
						<path class="st11" d="M337.1,241c3.5,0,6.3,2.8,6.3,6.3c0,3.5-2.8,6.3-6.3,6.3c-3.5,0-6.3-2.8-6.3-6.3
							C330.9,243.9,333.7,241,337.1,241z"/>
						<path class="st11" d="M337.2,241c3.5,0,6.3,2.8,6.3,6.3c0,3.5-2.8,6.3-6.3,6.3c-3.5,0-6.3-2.8-6.3-6.3
							C330.9,243.9,333.7,241,337.2,241z"/>
						<path class="st11" d="M337.2,241c3.5,0,6.3,2.8,6.3,6.3c0,3.5-2.8,6.3-6.3,6.3c-3.5,0-6.3-2.8-6.3-6.3
							C330.9,243.9,333.7,241,337.2,241z"/>
						<path class="st11" d="M337.2,241c3.5,0,6.3,2.8,6.3,6.3c0,3.5-2.8,6.3-6.3,6.3c-3.5,0-6.3-2.8-6.3-6.3
							C330.9,243.9,333.7,241,337.2,241z"/>
						<path class="st11" d="M337.2,241.1c3.5,0,6.3,2.8,6.3,6.3c0,3.5-2.8,6.3-6.3,6.3c-3.5,0-6.3-2.8-6.3-6.3
							C330.9,243.9,333.7,241.1,337.2,241.1z"/>
						<path class="st11" d="M337.2,241.1c3.5,0,6.3,2.8,6.3,6.3c0,3.5-2.8,6.3-6.3,6.3c-3.5,0-6.3-2.8-6.3-6.3
							C330.9,243.9,333.7,241.1,337.2,241.1z"/>
						<path class="st11" d="M337.2,241.1c3.5,0,6.3,2.8,6.3,6.3c0,3.5-2.8,6.3-6.3,6.3c-3.5,0-6.3-2.8-6.3-6.3
							C330.9,243.9,333.7,241.1,337.2,241.1z"/>
						<path class="st11" d="M337.2,241.1c3.5,0,6.3,2.8,6.3,6.3c0,3.5-2.8,6.3-6.3,6.3c-3.5,0-6.3-2.8-6.3-6.3
							C330.9,243.9,333.7,241.1,337.2,241.1z"/>
						<path class="st11" d="M337.2,241.1c3.5,0,6.3,2.8,6.3,6.3c0,3.5-2.8,6.3-6.3,6.3c-3.5,0-6.3-2.8-6.3-6.3
							C330.9,243.9,333.7,241.1,337.2,241.1z"/>
						<path class="st11" d="M337.2,241.1c3.5,0,6.3,2.8,6.3,6.3c0,3.5-2.8,6.3-6.3,6.3c-3.5,0-6.3-2.8-6.3-6.3
							C330.9,243.9,333.7,241.1,337.2,241.1z"/>
						<path class="st11" d="M337.2,241.1c3.5,0,6.3,2.8,6.3,6.3c0,3.5-2.8,6.3-6.3,6.3c-3.5,0-6.3-2.8-6.3-6.3
							C330.9,243.9,333.7,241.1,337.2,241.1z"/>
						<path class="st11" d="M337.2,241.1c3.5,0,6.3,2.8,6.3,6.3c0,3.5-2.8,6.3-6.3,6.3c-3.5,0-6.3-2.8-6.3-6.3
							C330.9,243.9,333.7,241.1,337.2,241.1z"/>
						<path class="st11" d="M337.2,241.1c3.5,0,6.3,2.8,6.3,6.3c0,3.5-2.8,6.3-6.3,6.3c-3.5,0-6.3-2.8-6.3-6.3
							C330.9,243.9,333.7,241.1,337.2,241.1z"/>
						<path class="st11" d="M337.2,241.1c3.5,0,6.3,2.8,6.3,6.3c0,3.5-2.8,6.3-6.3,6.3c-3.5,0-6.3-2.8-6.3-6.3
							C330.9,243.9,333.7,241.1,337.2,241.1z"/>
						<path class="st11" d="M337.2,241.1c3.5,0,6.3,2.8,6.3,6.3c0,3.5-2.8,6.3-6.3,6.3c-3.5,0-6.3-2.8-6.3-6.3
							C330.9,243.9,333.7,241.1,337.2,241.1z"/>
						<path class="st11" d="M337.2,241.1c3.5,0,6.3,2.8,6.3,6.3c0,3.5-2.8,6.3-6.3,6.3c-3.5,0-6.3-2.8-6.3-6.3
							C330.9,243.9,333.7,241.1,337.2,241.1z"/>
						<path class="st11" d="M337.2,241.1c3.5,0,6.3,2.8,6.3,6.3c0,3.5-2.8,6.3-6.3,6.3c-3.5,0-6.3-2.8-6.3-6.3
							C330.9,243.9,333.7,241.1,337.2,241.1z"/>
						<path class="st11" d="M337.2,241.1c3.5,0,6.3,2.8,6.3,6.3c0,3.5-2.8,6.3-6.3,6.3c-3.5,0-6.3-2.8-6.3-6.3
							C330.9,243.9,333.7,241.1,337.2,241.1z"/>
						<path class="st11" d="M337.2,241.1c3.5,0,6.3,2.8,6.3,6.3c0,3.5-2.8,6.3-6.3,6.3c-3.5,0-6.3-2.8-6.3-6.3
							C330.9,243.9,333.7,241.1,337.2,241.1z"/>
						<path class="st11" d="M337.2,241.1c3.5,0,6.3,2.8,6.3,6.3c0,3.5-2.8,6.3-6.3,6.3c-3.5,0-6.3-2.8-6.3-6.3
							C330.9,243.9,333.7,241.1,337.2,241.1z"/>
						<path class="st11" d="M337.2,241.1c3.5,0,6.3,2.8,6.3,6.3c0,3.5-2.8,6.3-6.3,6.3c-3.5,0-6.3-2.8-6.3-6.3
							C330.9,243.9,333.7,241.1,337.2,241.1z"/>
						<path class="st11" d="M337.2,241.1c3.5,0,6.3,2.8,6.3,6.3c0,3.5-2.8,6.3-6.3,6.3c-3.5,0-6.3-2.8-6.3-6.3
							C330.9,243.9,333.8,241.1,337.2,241.1z"/>
						<path class="st11" d="M337.2,241.1c3.5,0,6.3,2.8,6.3,6.3c0,3.5-2.8,6.3-6.3,6.3c-3.5,0-6.3-2.8-6.3-6.3
							C330.9,243.9,333.8,241.1,337.2,241.1z"/>
						<path class="st11" d="M337.2,241.1c3.5,0,6.3,2.8,6.3,6.3c0,3.5-2.8,6.3-6.3,6.3c-3.5,0-6.3-2.8-6.3-6.3
							C331,244,333.8,241.1,337.2,241.1z"/>
						<path class="st11" d="M337.2,241.1c3.5,0,6.3,2.8,6.3,6.3c0,3.5-2.8,6.3-6.3,6.3c-3.5,0-6.3-2.8-6.3-6.3
							C331,244,333.8,241.1,337.2,241.1z"/>
						<path class="st11" d="M337.2,241.2c3.5,0,6.3,2.8,6.3,6.3c0,3.5-2.8,6.3-6.3,6.3c-3.5,0-6.3-2.8-6.3-6.3
							C331,244,333.8,241.2,337.2,241.2z"/>
						<path class="st11" d="M337.2,241.2c3.5,0,6.3,2.8,6.3,6.3c0,3.5-2.8,6.3-6.3,6.3c-3.5,0-6.3-2.8-6.3-6.3
							C331,244,333.8,241.2,337.2,241.2z"/>
						<path class="st11" d="M337.2,241.2c3.5,0,6.3,2.8,6.3,6.3c0,3.5-2.8,6.3-6.3,6.3c-3.5,0-6.3-2.8-6.3-6.3
							C331,244,333.8,241.2,337.2,241.2z"/>
						<path class="st11" d="M337.2,241.2c3.5,0,6.3,2.8,6.3,6.3c0,3.5-2.8,6.3-6.3,6.3c-3.5,0-6.3-2.8-6.3-6.3
							C331,244,333.8,241.2,337.2,241.2z"/>
						<path class="st11" d="M337.2,241.2c3.5,0,6.3,2.8,6.3,6.3c0,3.5-2.8,6.3-6.3,6.3c-3.5,0-6.3-2.8-6.3-6.3
							C331,244,333.8,241.2,337.2,241.2z"/>
						<path class="st11" d="M337.3,241.2c3.5,0,6.3,2.8,6.3,6.3c0,3.5-2.8,6.3-6.3,6.3c-3.5,0-6.3-2.8-6.3-6.3
							C331,244,333.8,241.2,337.3,241.2z"/>
						<path class="st11" d="M337.3,241.2c3.5,0,6.3,2.8,6.3,6.3c0,3.5-2.8,6.3-6.3,6.3c-3.5,0-6.3-2.8-6.3-6.3
							C331,244,333.8,241.2,337.3,241.2z"/>
						<path class="st11" d="M337.3,241.2c3.5,0,6.3,2.8,6.3,6.3c0,3.5-2.8,6.3-6.3,6.3c-3.5,0-6.3-2.8-6.3-6.3
							C331,244,333.8,241.2,337.3,241.2z"/>
						<path class="st11" d="M337.3,241.2c3.5,0,6.3,2.8,6.3,6.3c0,3.5-2.8,6.3-6.3,6.3c-3.5,0-6.3-2.8-6.3-6.3
							C331,244,333.8,241.2,337.3,241.2z"/>
						<path class="st11" d="M337.3,241.2c3.5,0,6.3,2.8,6.3,6.3c0,3.5-2.8,6.3-6.3,6.3c-3.5,0-6.3-2.8-6.3-6.3
							C331,244,333.8,241.2,337.3,241.2z"/>
						<path class="st11" d="M337.3,241.2c3.5,0,6.3,2.8,6.3,6.3c0,3.5-2.8,6.3-6.3,6.3c-3.5,0-6.3-2.8-6.3-6.3
							C331,244,333.8,241.2,337.3,241.2z"/>
						<path class="st11" d="M337.3,241.2c3.5,0,6.3,2.8,6.3,6.3c0,3.5-2.8,6.3-6.3,6.3c-3.5,0-6.3-2.8-6.3-6.3
							C331,244,333.8,241.2,337.3,241.2z"/>
						<path class="st11" d="M337.3,241.2c3.5,0,6.3,2.8,6.3,6.3c0,3.5-2.8,6.3-6.3,6.3c-3.5,0-6.3-2.8-6.3-6.3
							C331,244,333.8,241.2,337.3,241.2z"/>
						<path class="st11" d="M337.3,241.2c3.5,0,6.3,2.8,6.3,6.3c0,3.5-2.8,6.3-6.3,6.3c-3.5,0-6.3-2.8-6.3-6.3
							C331,244,333.8,241.2,337.3,241.2z"/>
						<path class="st11" d="M337.3,241.2c3.5,0,6.3,2.8,6.3,6.3c0,3.5-2.8,6.3-6.3,6.3c-3.5,0-6.3-2.8-6.3-6.3
							C331,244,333.8,241.2,337.3,241.2z"/>
						<path class="st11" d="M337.3,241.2c3.5,0,6.3,2.8,6.3,6.3c0,3.5-2.8,6.3-6.3,6.3c-3.5,0-6.3-2.8-6.3-6.3
							C331,244,333.8,241.2,337.3,241.2z"/>
						<path class="st11" d="M337.3,241.2c3.5,0,6.3,2.8,6.3,6.3c0,3.5-2.8,6.3-6.3,6.3c-3.5,0-6.3-2.8-6.3-6.3
							C331,244,333.8,241.2,337.3,241.2z"/>
						<path class="st11" d="M337.3,241.2c3.5,0,6.3,2.8,6.3,6.3c0,3.5-2.8,6.3-6.3,6.3c-3.5,0-6.3-2.8-6.3-6.3
							C331,244,333.8,241.2,337.3,241.2z"/>
						<path class="st11" d="M337.3,241.2c3.5,0,6.3,2.8,6.3,6.3c0,3.5-2.8,6.3-6.3,6.3c-3.5,0-6.3-2.8-6.3-6.3
							C331,244,333.8,241.2,337.3,241.2z"/>
						<path class="st11" d="M337.3,241.2c3.5,0,6.3,2.8,6.3,6.3c0,3.5-2.8,6.3-6.3,6.3c-3.5,0-6.3-2.8-6.3-6.3
							C331,244,333.8,241.2,337.3,241.2z"/>
						<path class="st11" d="M337.3,241.2c3.5,0,6.3,2.8,6.3,6.3c0,3.5-2.8,6.3-6.3,6.3c-3.5,0-6.3-2.8-6.3-6.3
							C331,244,333.8,241.2,337.3,241.2z"/>
						<path class="st11" d="M337.3,241.2c3.5,0,6.3,2.8,6.3,6.3c0,3.5-2.8,6.3-6.3,6.3c-3.5,0-6.3-2.8-6.3-6.3
							C331,244.1,333.8,241.2,337.3,241.2z"/>
						<path class="st11" d="M337.3,241.3c3.5,0,6.3,2.8,6.3,6.3c0,3.5-2.8,6.3-6.3,6.3c-3.5,0-6.3-2.8-6.3-6.3
							C331,244.1,333.9,241.3,337.3,241.3z"/>
						<path class="st11" d="M337.3,241.3c3.5,0,6.3,2.8,6.3,6.3c0,3.5-2.8,6.3-6.3,6.3c-3.5,0-6.3-2.8-6.3-6.3
							C331.1,244.1,333.9,241.3,337.3,241.3z"/>
						<path class="st11" d="M337.3,241.3c3.5,0,6.3,2.8,6.3,6.3c0,3.5-2.8,6.3-6.3,6.3c-3.5,0-6.3-2.8-6.3-6.3
							C331.1,244.1,333.9,241.3,337.3,241.3z"/>
						<path class="st11" d="M337.3,241.3c3.5,0,6.3,2.8,6.3,6.3c0,3.5-2.8,6.3-6.3,6.3c-3.5,0-6.3-2.8-6.3-6.3
							C331.1,244.1,333.9,241.3,337.3,241.3z"/>
						<path class="st11" d="M337.3,241.3c3.5,0,6.3,2.8,6.3,6.3c0,3.5-2.8,6.3-6.3,6.3c-3.5,0-6.3-2.8-6.3-6.3
							C331.1,244.1,333.9,241.3,337.3,241.3z"/>
						<path class="st11" d="M337.3,241.3c3.5,0,6.3,2.8,6.3,6.3c0,3.5-2.8,6.3-6.3,6.3c-3.5,0-6.3-2.8-6.3-6.3
							C331.1,244.1,333.9,241.3,337.3,241.3z"/>
						<path class="st11" d="M337.3,241.3c3.5,0,6.3,2.8,6.3,6.3c0,3.5-2.8,6.3-6.3,6.3c-3.5,0-6.3-2.8-6.3-6.3
							C331.1,244.1,333.9,241.3,337.3,241.3z"/>
						<path class="st11" d="M337.3,241.3c3.5,0,6.3,2.8,6.3,6.3c0,3.5-2.8,6.3-6.3,6.3c-3.5,0-6.3-2.8-6.3-6.3
							C331.1,244.1,333.9,241.3,337.3,241.3z"/>
						<path class="st11" d="M337.3,241.3c3.5,0,6.3,2.8,6.3,6.3c0,3.5-2.8,6.3-6.3,6.3c-3.5,0-6.3-2.8-6.3-6.3
							C331.1,244.1,333.9,241.3,337.3,241.3z"/>
						<path class="st11" d="M337.3,241.3c3.5,0,6.3,2.8,6.3,6.3c0,3.5-2.8,6.3-6.3,6.3c-3.5,0-6.3-2.8-6.3-6.3
							C331.1,244.1,333.9,241.3,337.3,241.3z"/>
						<path class="st11" d="M337.3,241.3c3.5,0,6.3,2.8,6.3,6.3c0,3.5-2.8,6.3-6.3,6.3c-3.5,0-6.3-2.8-6.3-6.3
							C331.1,244.1,333.9,241.3,337.3,241.3z"/>
						<path class="st11" d="M337.3,241.3c3.5,0,6.3,2.8,6.3,6.3c0,3.5-2.8,6.3-6.3,6.3c-3.5,0-6.3-2.8-6.3-6.3
							C331.1,244.1,333.9,241.3,337.3,241.3z"/>
						<path class="st11" d="M337.4,241.3c3.5,0,6.3,2.8,6.3,6.3c0,3.5-2.8,6.3-6.3,6.3c-3.5,0-6.3-2.8-6.3-6.3
							C331.1,244.1,333.9,241.3,337.4,241.3z"/>
						<path class="st11" d="M337.4,241.3c3.5,0,6.3,2.8,6.3,6.3c0,3.5-2.8,6.3-6.3,6.3c-3.5,0-6.3-2.8-6.3-6.3
							C331.1,244.1,333.9,241.3,337.4,241.3z"/>
						<path class="st11" d="M337.4,241.3c3.5,0,6.3,2.8,6.3,6.3c0,3.5-2.8,6.3-6.3,6.3c-3.5,0-6.3-2.8-6.3-6.3
							C331.1,244.1,333.9,241.3,337.4,241.3z"/>
						<path class="st11" d="M337.4,241.3c3.5,0,6.3,2.8,6.3,6.3c0,3.5-2.8,6.3-6.3,6.3c-3.5,0-6.3-2.8-6.3-6.3
							C331.1,244.1,333.9,241.3,337.4,241.3z"/>
						<path class="st11" d="M337.4,241.3c3.5,0,6.3,2.8,6.3,6.3c0,3.5-2.8,6.3-6.3,6.3c-3.5,0-6.3-2.8-6.3-6.3
							C331.1,244.1,333.9,241.3,337.4,241.3z"/>
						<path class="st11" d="M337.4,241.3c3.5,0,6.3,2.8,6.3,6.3c0,3.5-2.8,6.3-6.3,6.3c-3.5,0-6.3-2.8-6.3-6.3
							C331.1,244.1,333.9,241.3,337.4,241.3z"/>
						<path class="st11" d="M337.4,241.3c3.5,0,6.3,2.8,6.3,6.2c0,3.5-2.8,6.3-6.3,6.3c-3.5,0-6.3-2.8-6.3-6.3
							C331.1,244.1,333.9,241.3,337.4,241.3z"/>
						<path class="st11" d="M337.4,241.3c3.5,0,6.2,2.8,6.2,6.2c0,3.5-2.8,6.3-6.2,6.3c-3.5,0-6.2-2.8-6.2-6.3
							C331.1,244.1,333.9,241.3,337.4,241.3z"/>
						<path class="st11" d="M337.4,241.3c3.5,0,6.2,2.8,6.2,6.2c0,3.5-2.8,6.2-6.2,6.2c-3.5,0-6.2-2.8-6.2-6.2
							C331.1,244.1,333.9,241.3,337.4,241.3z"/>
						<path class="st11" d="M337.4,241.3c3.5,0,6.2,2.8,6.2,6.2c0,3.5-2.8,6.2-6.2,6.2c-3.5,0-6.2-2.8-6.2-6.2
							C331.1,244.1,333.9,241.3,337.4,241.3z"/>
						<path class="st11" d="M337.4,241.4c3.5,0,6.2,2.8,6.2,6.2c0,3.5-2.8,6.2-6.2,6.2c-3.5,0-6.2-2.8-6.2-6.2
							C331.1,244.1,333.9,241.4,337.4,241.4z"/>
						<path class="st11" d="M337.4,241.4c3.5,0,6.2,2.8,6.2,6.2c0,3.5-2.8,6.2-6.2,6.2c-3.4,0-6.2-2.8-6.2-6.2
							C331.1,244.2,333.9,241.4,337.4,241.4z"/>
						<path class="st11" d="M337.4,241.4c3.5,0,6.2,2.8,6.2,6.2c0,3.4-2.8,6.2-6.2,6.2c-3.4,0-6.2-2.8-6.2-6.2
							C331.1,244.2,333.9,241.4,337.4,241.4z"/>
						<path class="st11" d="M337.4,241.4c3.4,0,6.2,2.8,6.2,6.2c0,3.4-2.8,6.2-6.2,6.2c-3.4,0-6.2-2.8-6.2-6.2
							C331.2,244.2,333.9,241.4,337.4,241.4z"/>
						<path class="st11" d="M337.4,241.4c3.4,0,6.2,2.8,6.2,6.2c0,3.4-2.8,6.2-6.2,6.2c-3.4,0-6.2-2.8-6.2-6.2
							C331.2,244.2,334,241.4,337.4,241.4z"/>
						<path class="st11" d="M337.4,241.4c3.4,0,6.2,2.8,6.2,6.2c0,3.4-2.8,6.2-6.2,6.2c-3.4,0-6.2-2.8-6.2-6.2
							C331.2,244.2,334,241.4,337.4,241.4z"/>
						<path class="st11" d="M337.4,241.4c3.4,0,6.2,2.8,6.2,6.2c0,3.4-2.8,6.2-6.2,6.2c-3.4,0-6.2-2.8-6.2-6.2
							C331.2,244.2,334,241.4,337.4,241.4z"/>
						<path class="st11" d="M337.4,241.4c3.4,0,6.2,2.8,6.2,6.2c0,3.4-2.8,6.2-6.2,6.2c-3.4,0-6.2-2.8-6.2-6.2
							C331.2,244.2,334,241.4,337.4,241.4z"/>
						<path class="st11" d="M337.4,241.4c3.4,0,6.2,2.8,6.2,6.2c0,3.4-2.8,6.2-6.2,6.2c-3.4,0-6.2-2.8-6.2-6.2
							C331.2,244.2,334,241.4,337.4,241.4z"/>
						<path class="st11" d="M337.4,241.4c3.4,0,6.2,2.8,6.2,6.2c0,3.4-2.8,6.2-6.2,6.2c-3.4,0-6.2-2.8-6.2-6.2
							C331.2,244.2,334,241.4,337.4,241.4z"/>
						<path class="st11" d="M337.4,241.4c3.4,0,6.2,2.8,6.2,6.2c0,3.4-2.8,6.2-6.2,6.2c-3.4,0-6.2-2.8-6.2-6.2
							C331.2,244.2,334,241.4,337.4,241.4z"/>
						<path class="st11" d="M337.4,241.4c3.4,0,6.2,2.8,6.2,6.2c0,3.4-2.8,6.2-6.2,6.2c-3.4,0-6.2-2.8-6.2-6.2
							C331.2,244.2,334,241.4,337.4,241.4z"/>
						<path class="st11" d="M337.4,241.4c3.4,0,6.2,2.8,6.2,6.2c0,3.4-2.8,6.2-6.2,6.2c-3.4,0-6.2-2.8-6.2-6.2
							C331.2,244.2,334,241.4,337.4,241.4z"/>
						<path class="st11" d="M337.4,241.4c3.4,0,6.2,2.8,6.2,6.2c0,3.4-2.8,6.2-6.2,6.2c-3.4,0-6.2-2.8-6.2-6.2
							C331.2,244.2,334,241.4,337.4,241.4z"/>
						<path class="st11" d="M337.4,241.4c3.4,0,6.2,2.8,6.2,6.2c0,3.4-2.8,6.2-6.2,6.2c-3.4,0-6.2-2.8-6.2-6.2
							C331.2,244.2,334,241.4,337.4,241.4z"/>
						<path class="st11" d="M337.4,241.4c3.4,0,6.2,2.8,6.2,6.2c0,3.4-2.8,6.2-6.2,6.2c-3.4,0-6.2-2.8-6.2-6.2
							C331.2,244.2,334,241.4,337.4,241.4z"/>
						<path class="st11" d="M337.4,241.4c3.4,0,6.2,2.8,6.2,6.2c0,3.4-2.8,6.2-6.2,6.2c-3.4,0-6.2-2.8-6.2-6.2
							C331.2,244.2,334,241.4,337.4,241.4z"/>
						<path class="st11" d="M337.4,241.4c3.4,0,6.2,2.8,6.2,6.2c0,3.4-2.8,6.2-6.2,6.2c-3.4,0-6.2-2.8-6.2-6.2
							C331.2,244.2,334,241.4,337.4,241.4z"/>
						<path class="st11" d="M337.4,241.4c3.4,0,6.2,2.8,6.2,6.2c0,3.4-2.8,6.2-6.2,6.2c-3.4,0-6.2-2.8-6.2-6.2
							C331.2,244.2,334,241.4,337.4,241.4z"/>
						<path class="st11" d="M337.5,241.4c3.4,0,6.2,2.8,6.2,6.2c0,3.4-2.8,6.2-6.2,6.2c-3.4,0-6.2-2.8-6.2-6.2
							C331.2,244.2,334,241.4,337.5,241.4z"/>
						<path class="st11" d="M337.5,241.4c3.4,0,6.2,2.8,6.2,6.2c0,3.4-2.8,6.2-6.2,6.2c-3.4,0-6.2-2.8-6.2-6.2
							C331.2,244.2,334,241.4,337.5,241.4z"/>
						<path class="st11" d="M337.5,241.4c3.4,0,6.2,2.8,6.2,6.2c0,3.4-2.8,6.2-6.2,6.2c-3.4,0-6.2-2.8-6.2-6.2
							C331.2,244.2,334,241.4,337.5,241.4z"/>
						<path class="st11" d="M337.5,241.5c3.4,0,6.2,2.8,6.2,6.2c0,3.4-2.8,6.2-6.2,6.2c-3.4,0-6.2-2.8-6.2-6.2
							C331.2,244.2,334,241.5,337.5,241.5z"/>
						<path class="st11" d="M337.5,241.5c3.4,0,6.2,2.8,6.2,6.2c0,3.4-2.8,6.2-6.2,6.2c-3.4,0-6.2-2.8-6.2-6.2
							C331.2,244.2,334,241.5,337.5,241.5z"/>
						<path class="st11" d="M337.5,241.5c3.4,0,6.2,2.8,6.2,6.2c0,3.4-2.8,6.2-6.2,6.2c-3.4,0-6.2-2.8-6.2-6.2
							C331.2,244.3,334,241.5,337.5,241.5z"/>
						<path id="XMLID_2_" class="st11" d="M343.7,247.7c0,3.4-2.8,6.2-6.2,6.2c-3.4,0-6.2-2.8-6.2-6.2c0-3.4,2.8-6.2,6.2-6.2
							C340.9,241.5,343.7,244.3,343.7,247.7z"/>
						<path class="st18" d="M337.5,241.5c3.4,0,6.2,2.8,6.2,6.2c0,3.4-2.8,6.2-6.2,6.2c-3.4,0-6.2-2.8-6.2-6.2
							C331.2,244.3,334,241.5,337.5,241.5z"/>
						<path class="st19" d="M337.5,241.5c3.4,0,6.2,2.8,6.2,6.2c0,3.4-2.8,6.2-6.2,6.2c-3.4,0-6.2-2.8-6.2-6.2
							C331.2,244.3,334,241.5,337.5,241.5z"/>
						<path class="st20" d="M337.5,241.5c3.4,0,6.2,2.8,6.2,6.2c0,3.4-2.8,6.2-6.2,6.2c-3.4,0-6.2-2.8-6.2-6.2
							C331.2,244.3,334,241.5,337.5,241.5z"/>
						<path class="st21" d="M337.5,241.5c3.4,0,6.2,2.8,6.2,6.2c0,3.4-2.8,6.2-6.2,6.2c-3.4,0-6.2-2.8-6.2-6.2
							C331.3,244.3,334,241.5,337.5,241.5z"/>
						<path class="st22" d="M337.5,241.5c3.4,0,6.2,2.8,6.2,6.2c0,3.4-2.8,6.2-6.2,6.2c-3.4,0-6.2-2.8-6.2-6.2
							C331.3,244.3,334,241.5,337.5,241.5z"/>
						<path class="st23" d="M337.5,241.5c3.4,0,6.2,2.8,6.2,6.2c0,3.4-2.8,6.2-6.2,6.2c-3.4,0-6.2-2.8-6.2-6.2
							C331.3,244.3,334,241.5,337.5,241.5z"/>
						<path class="st24" d="M337.5,241.5c3.4,0,6.2,2.8,6.2,6.2c0,3.4-2.8,6.2-6.2,6.2c-3.4,0-6.2-2.8-6.2-6.2
							C331.3,244.3,334.1,241.5,337.5,241.5z"/>
						<path class="st25" d="M337.5,241.5c3.4,0,6.2,2.8,6.2,6.2c0,3.4-2.8,6.2-6.2,6.2c-3.4,0-6.2-2.8-6.2-6.2
							C331.3,244.3,334.1,241.5,337.5,241.5z"/>
						<path class="st26" d="M337.5,241.5c3.4,0,6.2,2.8,6.2,6.2c0,3.4-2.8,6.2-6.2,6.2c-3.4,0-6.2-2.8-6.2-6.2
							C331.3,244.3,334.1,241.5,337.5,241.5z"/>
						<path class="st27" d="M337.5,241.5c3.4,0,6.2,2.8,6.2,6.2c0,3.4-2.8,6.2-6.2,6.2c-3.4,0-6.2-2.8-6.2-6.2
							C331.3,244.3,334.1,241.5,337.5,241.5z"/>
						<path class="st28" d="M337.5,241.5c3.4,0,6.2,2.8,6.2,6.2c0,3.4-2.8,6.2-6.2,6.2c-3.4,0-6.2-2.8-6.2-6.2
							C331.3,244.3,334.1,241.5,337.5,241.5z"/>
						<path class="st29" d="M337.5,241.5c3.4,0,6.2,2.8,6.2,6.2c0,3.4-2.8,6.2-6.2,6.2c-3.4,0-6.2-2.8-6.2-6.2
							C331.3,244.3,334.1,241.5,337.5,241.5z"/>
						<path class="st30" d="M337.5,241.5c3.4,0,6.2,2.8,6.2,6.2c0,3.4-2.8,6.2-6.2,6.2c-3.4,0-6.2-2.8-6.2-6.2
							C331.3,244.3,334.1,241.5,337.5,241.5z"/>
						<path class="st31" d="M337.5,241.5c3.4,0,6.2,2.8,6.2,6.2c0,3.4-2.8,6.2-6.2,6.2c-3.4,0-6.2-2.8-6.2-6.2
							C331.3,244.3,334.1,241.5,337.5,241.5z"/>
						<path class="st32" d="M337.5,241.5c3.4,0,6.2,2.8,6.2,6.2c0,3.4-2.8,6.2-6.2,6.2c-3.4,0-6.2-2.8-6.2-6.2
							C331.3,244.3,334.1,241.5,337.5,241.5z"/>
						<path class="st33" d="M337.5,241.5c3.4,0,6.2,2.8,6.2,6.2c0,3.4-2.8,6.2-6.2,6.2c-3.4,0-6.2-2.8-6.2-6.2
							C331.3,244.3,334.1,241.5,337.5,241.5z"/>
						<path class="st34" d="M337.5,241.5c3.4,0,6.2,2.8,6.2,6.2c0,3.4-2.8,6.2-6.2,6.2c-3.4,0-6.2-2.8-6.2-6.2
							C331.3,244.3,334.1,241.5,337.5,241.5z"/>
						<path class="st35" d="M337.5,241.5c3.4,0,6.2,2.8,6.2,6.2c0,3.4-2.8,6.2-6.2,6.2c-3.4,0-6.2-2.8-6.2-6.2
							C331.3,244.3,334.1,241.5,337.5,241.5z"/>
						<path class="st36" d="M337.5,241.5c3.4,0,6.2,2.8,6.2,6.2c0,3.4-2.8,6.2-6.2,6.2c-3.4,0-6.2-2.8-6.2-6.2
							C331.3,244.3,334.1,241.5,337.5,241.5z"/>
						<path class="st37" d="M337.5,241.5c3.4,0,6.2,2.8,6.2,6.2c0,3.4-2.8,6.2-6.2,6.2c-3.4,0-6.2-2.8-6.2-6.2
							C331.3,244.3,334.1,241.5,337.5,241.5z"/>
						<path class="st38" d="M337.5,241.5c3.4,0,6.2,2.8,6.2,6.2c0,3.4-2.8,6.2-6.2,6.2c-3.4,0-6.2-2.8-6.2-6.2
							C331.3,244.3,334.1,241.5,337.5,241.5z"/>
						<path class="st39" d="M337.5,241.5c3.4,0,6.2,2.8,6.2,6.2c0,3.4-2.8,6.2-6.2,6.2c-3.4,0-6.2-2.8-6.2-6.2
							C331.3,244.3,334.1,241.5,337.5,241.5z"/>
						<path class="st40" d="M337.5,241.5c3.4,0,6.2,2.8,6.2,6.2c0,3.4-2.8,6.2-6.2,6.2c-3.4,0-6.2-2.8-6.2-6.2
							C331.3,244.3,334.1,241.5,337.5,241.5z"/>
						<path class="st41" d="M337.5,241.6c3.4,0,6.2,2.8,6.2,6.2c0,3.4-2.8,6.2-6.2,6.2c-3.4,0-6.2-2.8-6.2-6.2
							C331.3,244.3,334.1,241.6,337.5,241.6z"/>
						<path class="st42" d="M337.5,241.6c3.4,0,6.2,2.8,6.2,6.2c0,3.4-2.8,6.2-6.2,6.2c-3.4,0-6.2-2.8-6.2-6.2
							C331.3,244.3,334.1,241.6,337.5,241.6z"/>
						<path class="st43" d="M337.5,241.6c3.4,0,6.2,2.8,6.2,6.2c0,3.4-2.8,6.2-6.2,6.2c-3.4,0-6.2-2.8-6.2-6.2
							C331.3,244.4,334.1,241.6,337.5,241.6z"/>
						<path class="st44" d="M337.6,241.6c3.4,0,6.2,2.8,6.2,6.2c0,3.4-2.8,6.2-6.2,6.2c-3.4,0-6.2-2.8-6.2-6.2
							C331.3,244.4,334.1,241.6,337.6,241.6z"/>
						<path class="st45" d="M337.6,241.6c3.4,0,6.2,2.8,6.2,6.2c0,3.4-2.8,6.2-6.2,6.2c-3.4,0-6.2-2.8-6.2-6.2
							C331.3,244.4,334.1,241.6,337.6,241.6z"/>
						<path class="st46" d="M337.6,241.6c3.4,0,6.2,2.8,6.2,6.2c0,3.4-2.8,6.2-6.2,6.2c-3.4,0-6.2-2.8-6.2-6.2
							C331.3,244.4,334.1,241.6,337.6,241.6z"/>
						<path class="st47" d="M337.6,241.6c3.4,0,6.2,2.8,6.2,6.2c0,3.4-2.8,6.2-6.2,6.2c-3.4,0-6.2-2.8-6.2-6.2
							C331.3,244.4,334.1,241.6,337.6,241.6z"/>
						<path class="st48" d="M337.6,241.6c3.4,0,6.2,2.8,6.2,6.2c0,3.4-2.8,6.2-6.2,6.2c-3.4,0-6.2-2.8-6.2-6.2
							C331.3,244.4,334.1,241.6,337.6,241.6z"/>
						<path class="st49" d="M337.6,241.6c3.4,0,6.2,2.8,6.2,6.2c0,3.4-2.8,6.2-6.2,6.2c-3.4,0-6.2-2.8-6.2-6.2
							C331.3,244.4,334.1,241.6,337.6,241.6z"/>
						<path class="st50" d="M337.6,241.6c3.4,0,6.2,2.8,6.2,6.2c0,3.4-2.8,6.2-6.2,6.2c-3.4,0-6.2-2.8-6.2-6.2
							C331.3,244.4,334.1,241.6,337.6,241.6z"/>
						<path class="st51" d="M337.6,241.6c3.4,0,6.2,2.8,6.2,6.2c0,3.4-2.8,6.2-6.2,6.2c-3.4,0-6.2-2.8-6.2-6.2
							C331.3,244.4,334.1,241.6,337.6,241.6z"/>
						<path class="st52" d="M337.6,241.6c3.4,0,6.2,2.8,6.2,6.2c0,3.4-2.8,6.2-6.2,6.2c-3.4,0-6.2-2.8-6.2-6.2
							C331.3,244.4,334.1,241.6,337.6,241.6z"/>
						<path class="st53" d="M337.6,241.6c3.4,0,6.2,2.8,6.2,6.2c0,3.4-2.8,6.2-6.2,6.2c-3.4,0-6.2-2.8-6.2-6.2
							C331.3,244.4,334.1,241.6,337.6,241.6z"/>
						<path class="st54" d="M337.6,241.6c3.4,0,6.2,2.8,6.2,6.2c0,3.4-2.8,6.2-6.2,6.2c-3.4,0-6.2-2.8-6.2-6.2
							C331.3,244.4,334.1,241.6,337.6,241.6z"/>
						<path class="st55" d="M337.6,241.6c3.4,0,6.2,2.8,6.2,6.2c0,3.4-2.8,6.2-6.2,6.2c-3.4,0-6.2-2.8-6.2-6.2
							C331.4,244.4,334.1,241.6,337.6,241.6z"/>
						<path class="st56" d="M337.6,241.6c3.4,0,6.2,2.8,6.2,6.2c0,3.4-2.8,6.2-6.2,6.2c-3.4,0-6.2-2.8-6.2-6.2
							C331.4,244.4,334.1,241.6,337.6,241.6z"/>
						<path class="st57" d="M337.6,241.6c3.4,0,6.2,2.8,6.2,6.2c0,3.4-2.8,6.2-6.2,6.2c-3.4,0-6.2-2.8-6.2-6.2
							C331.4,244.4,334.1,241.6,337.6,241.6z"/>
						<path class="st58" d="M337.6,241.6c3.4,0,6.2,2.8,6.2,6.2c0,3.4-2.8,6.2-6.2,6.2c-3.4,0-6.2-2.8-6.2-6.2
							C331.4,244.4,334.2,241.6,337.6,241.6z"/>
						<path class="st59" d="M337.6,241.6c3.4,0,6.2,2.8,6.2,6.2c0,3.4-2.8,6.2-6.2,6.2c-3.4,0-6.2-2.8-6.2-6.2
							C331.4,244.4,334.2,241.6,337.6,241.6z"/>
						<path class="st60" d="M337.6,241.6c3.4,0,6.2,2.8,6.2,6.2c0,3.4-2.8,6.2-6.2,6.2c-3.4,0-6.2-2.8-6.2-6.2
							C331.4,244.4,334.2,241.6,337.6,241.6z"/>
						<path class="st61" d="M337.6,241.6c3.4,0,6.2,2.8,6.2,6.2c0,3.4-2.8,6.2-6.2,6.2c-3.4,0-6.2-2.8-6.2-6.2
							C331.4,244.4,334.2,241.6,337.6,241.6z"/>
						<path class="st62" d="M337.6,241.6c3.4,0,6.2,2.8,6.2,6.2c0,3.4-2.8,6.2-6.2,6.2c-3.4,0-6.2-2.8-6.2-6.2
							C331.4,244.4,334.2,241.6,337.6,241.6z"/>
						<path class="st63" d="M337.6,241.6c3.4,0,6.2,2.8,6.2,6.2c0,3.4-2.8,6.2-6.2,6.2c-3.4,0-6.2-2.8-6.2-6.2
							C331.4,244.4,334.2,241.6,337.6,241.6z"/>
						<path class="st64" d="M337.6,241.6c3.4,0,6.2,2.8,6.2,6.2c0,3.4-2.8,6.2-6.2,6.2c-3.4,0-6.2-2.8-6.2-6.2
							C331.4,244.4,334.2,241.6,337.6,241.6z"/>
						<path class="st65" d="M337.6,241.6c3.4,0,6.2,2.8,6.2,6.2c0,3.4-2.8,6.2-6.2,6.2c-3.4,0-6.2-2.8-6.2-6.2
							C331.4,244.4,334.2,241.6,337.6,241.6z"/>
						<path class="st66" d="M337.6,241.6c3.4,0,6.2,2.8,6.2,6.2c0,3.4-2.8,6.2-6.2,6.2c-3.4,0-6.2-2.8-6.2-6.2
							C331.4,244.4,334.2,241.6,337.6,241.6z"/>
						<path class="st67" d="M337.6,241.6c3.4,0,6.2,2.8,6.2,6.2c0,3.4-2.8,6.2-6.2,6.2c-3.4,0-6.2-2.8-6.2-6.2
							C331.4,244.4,334.2,241.6,337.6,241.6z"/>
						<path class="st68" d="M337.6,241.7c3.4,0,6.2,2.8,6.2,6.2c0,3.4-2.8,6.2-6.2,6.2c-3.4,0-6.2-2.8-6.2-6.2
							C331.4,244.4,334.2,241.7,337.6,241.7z"/>
						<path class="st69" d="M337.6,241.7c3.4,0,6.2,2.8,6.2,6.2c0,3.4-2.8,6.2-6.2,6.2c-3.4,0-6.2-2.8-6.2-6.2
							C331.4,244.4,334.2,241.7,337.6,241.7z"/>
						<path class="st70" d="M337.6,241.7c3.4,0,6.2,2.8,6.2,6.2c0,3.4-2.8,6.2-6.2,6.2c-3.4,0-6.2-2.8-6.2-6.2
							C331.4,244.4,334.2,241.7,337.6,241.7z"/>
						<path class="st71" d="M337.6,241.7c3.4,0,6.2,2.8,6.2,6.2c0,3.4-2.8,6.2-6.2,6.2c-3.4,0-6.2-2.8-6.2-6.2
							C331.4,244.5,334.2,241.7,337.6,241.7z"/>
						<path class="st72" d="M337.6,241.7c3.4,0,6.2,2.8,6.2,6.2c0,3.4-2.8,6.2-6.2,6.2c-3.4,0-6.2-2.8-6.2-6.2
							C331.4,244.5,334.2,241.7,337.6,241.7z"/>
						<path class="st73" d="M337.6,241.7c3.4,0,6.2,2.8,6.2,6.2c0,3.4-2.8,6.2-6.2,6.2c-3.4,0-6.2-2.8-6.2-6.2
							C331.4,244.5,334.2,241.7,337.6,241.7z"/>
						<path class="st74" d="M337.6,241.7c3.4,0,6.2,2.8,6.2,6.2c0,3.4-2.8,6.2-6.2,6.2c-3.4,0-6.2-2.8-6.2-6.2
							C331.4,244.5,334.2,241.7,337.6,241.7z"/>
						<path class="st75" d="M337.6,241.7c3.4,0,6.2,2.8,6.2,6.2c0,3.4-2.8,6.2-6.2,6.2c-3.4,0-6.2-2.8-6.2-6.2
							C331.4,244.5,334.2,241.7,337.6,241.7z"/>
						<path class="st76" d="M337.6,241.7c3.4,0,6.2,2.8,6.2,6.2c0,3.4-2.8,6.2-6.2,6.2c-3.4,0-6.2-2.8-6.2-6.2
							C331.4,244.5,334.2,241.7,337.6,241.7z"/>
						<path class="st77" d="M337.7,241.7c3.4,0,6.2,2.8,6.2,6.2c0,3.4-2.8,6.2-6.2,6.2c-3.4,0-6.2-2.8-6.2-6.2
							C331.4,244.5,334.2,241.7,337.7,241.7z"/>
						<path class="st78" d="M337.7,241.7c3.4,0,6.2,2.8,6.2,6.2c0,3.4-2.8,6.2-6.2,6.2c-3.4,0-6.2-2.8-6.2-6.2
							C331.4,244.5,334.2,241.7,337.7,241.7z"/>
						<path class="st79" d="M337.7,241.7c3.4,0,6.2,2.8,6.2,6.2c0,3.4-2.8,6.2-6.2,6.2c-3.4,0-6.2-2.8-6.2-6.2
							C331.4,244.5,334.2,241.7,337.7,241.7z"/>
						<path class="st80" d="M337.7,241.7c3.4,0,6.2,2.8,6.2,6.2c0,3.4-2.8,6.2-6.2,6.2c-3.4,0-6.2-2.8-6.2-6.2
							C331.4,244.5,334.2,241.7,337.7,241.7z"/>
						<path class="st81" d="M337.7,241.7c3.4,0,6.2,2.8,6.2,6.2c0,3.4-2.8,6.2-6.2,6.2c-3.4,0-6.2-2.8-6.2-6.2
							C331.4,244.5,334.2,241.7,337.7,241.7z"/>
						<path class="st82" d="M337.7,241.7c3.4,0,6.2,2.8,6.2,6.2c0,3.4-2.8,6.2-6.2,6.2c-3.4,0-6.2-2.8-6.2-6.2
							C331.4,244.5,334.2,241.7,337.7,241.7z"/>
						<path class="st83" d="M337.7,241.7c3.4,0,6.2,2.8,6.2,6.2c0,3.4-2.8,6.2-6.2,6.2c-3.4,0-6.2-2.8-6.2-6.2
							C331.4,244.5,334.2,241.7,337.7,241.7z"/>
						<path class="st84" d="M337.7,241.7c3.4,0,6.2,2.8,6.2,6.2c0,3.4-2.8,6.2-6.2,6.2c-3.4,0-6.2-2.8-6.2-6.2
							C331.4,244.5,334.2,241.7,337.7,241.7z"/>
						<path class="st85" d="M337.7,241.7c3.4,0,6.2,2.8,6.2,6.2c0,3.4-2.8,6.2-6.2,6.2c-3.4,0-6.2-2.8-6.2-6.2
							C331.4,244.5,334.2,241.7,337.7,241.7z"/>
						<path class="st86" d="M337.7,241.7c3.4,0,6.2,2.8,6.2,6.2c0,3.4-2.8,6.2-6.2,6.2c-3.4,0-6.2-2.8-6.2-6.2
							C331.4,244.5,334.2,241.7,337.7,241.7z"/>
						<path class="st87" d="M337.7,241.7c3.4,0,6.2,2.8,6.2,6.2c0,3.4-2.8,6.2-6.2,6.2c-3.4,0-6.2-2.8-6.2-6.2
							C331.4,244.5,334.2,241.7,337.7,241.7z"/>
						<path class="st88" d="M337.7,241.7c3.4,0,6.2,2.8,6.2,6.2c0,3.4-2.8,6.2-6.2,6.2c-3.4,0-6.2-2.8-6.2-6.2
							C331.5,244.5,334.2,241.7,337.7,241.7z"/>
						<path class="st89" d="M337.7,241.7c3.4,0,6.2,2.8,6.2,6.2c0,3.4-2.8,6.2-6.2,6.2c-3.4,0-6.2-2.8-6.2-6.2
							C331.5,244.5,334.2,241.7,337.7,241.7z"/>
						<path class="st90" d="M337.7,241.7c3.4,0,6.2,2.8,6.2,6.2c0,3.4-2.8,6.2-6.2,6.2c-3.4,0-6.2-2.8-6.2-6.2
							C331.5,244.5,334.2,241.7,337.7,241.7z"/>
						<path class="st91" d="M337.7,241.7c3.4,0,6.2,2.8,6.2,6.2c0,3.4-2.8,6.2-6.2,6.2c-3.4,0-6.2-2.8-6.2-6.2
							C331.5,244.5,334.3,241.7,337.7,241.7z"/>
						<path class="st92" d="M337.7,241.7c3.4,0,6.2,2.8,6.2,6.2c0,3.4-2.8,6.2-6.2,6.2c-3.4,0-6.2-2.8-6.2-6.2
							C331.5,244.5,334.3,241.7,337.7,241.7z"/>
						<path class="st93" d="M337.7,241.7c3.4,0,6.2,2.8,6.2,6.2c0,3.4-2.8,6.2-6.2,6.2c-3.4,0-6.2-2.8-6.2-6.2
							C331.5,244.5,334.3,241.7,337.7,241.7z"/>
						<path class="st94" d="M337.7,241.7c3.4,0,6.2,2.8,6.2,6.2c0,3.4-2.8,6.2-6.2,6.2c-3.4,0-6.2-2.8-6.2-6.2
							C331.5,244.5,334.3,241.7,337.7,241.7z"/>
						<path class="st95" d="M337.7,241.7c3.4,0,6.2,2.8,6.2,6.2c0,3.4-2.8,6.2-6.2,6.2c-3.4,0-6.2-2.8-6.2-6.2
							C331.5,244.5,334.3,241.7,337.7,241.7z"/>
						<path class="st96" d="M337.7,241.8c3.4,0,6.2,2.8,6.2,6.2c0,3.4-2.8,6.2-6.2,6.2c-3.4,0-6.2-2.8-6.2-6.2
							C331.5,244.5,334.3,241.8,337.7,241.8z"/>
						<path class="st97" d="M337.7,241.8c3.4,0,6.2,2.8,6.2,6.2c0,3.4-2.8,6.2-6.2,6.2c-3.4,0-6.2-2.8-6.2-6.2
							C331.5,244.5,334.3,241.8,337.7,241.8z"/>
						<path class="st98" d="M337.7,241.8c3.4,0,6.2,2.8,6.2,6.2c0,3.4-2.8,6.2-6.2,6.2c-3.4,0-6.2-2.8-6.2-6.2
							C331.5,244.5,334.3,241.8,337.7,241.8z"/>
						<path class="st99" d="M337.7,241.8c3.4,0,6.2,2.8,6.2,6.2c0,3.4-2.8,6.2-6.2,6.2c-3.4,0-6.2-2.8-6.2-6.2
							C331.5,244.6,334.3,241.8,337.7,241.8z"/>
						<path class="st100" d="M337.7,241.8c3.4,0,6.2,2.8,6.2,6.2c0,3.4-2.8,6.2-6.2,6.2c-3.4,0-6.2-2.8-6.2-6.2
							C331.5,244.6,334.3,241.8,337.7,241.8z"/>
						<path class="st101" d="M337.7,241.8c3.4,0,6.2,2.8,6.2,6.2c0,3.4-2.8,6.2-6.2,6.2c-3.4,0-6.2-2.8-6.2-6.2
							C331.5,244.6,334.3,241.8,337.7,241.8z"/>
						<path class="st102" d="M337.7,241.8c3.4,0,6.2,2.8,6.2,6.2c0,3.4-2.8,6.2-6.2,6.2c-3.4,0-6.2-2.8-6.2-6.2
							C331.5,244.6,334.3,241.8,337.7,241.8z"/>
						<path class="st103" d="M337.7,241.8c3.4,0,6.2,2.8,6.2,6.2c0,3.4-2.8,6.2-6.2,6.2c-3.4,0-6.2-2.8-6.2-6.2
							C331.5,244.6,334.3,241.8,337.7,241.8z"/>
						<path class="st104" d="M337.7,241.8c3.4,0,6.2,2.8,6.2,6.2c0,3.4-2.8,6.2-6.2,6.2c-3.4,0-6.2-2.8-6.2-6.2
							C331.5,244.6,334.3,241.8,337.7,241.8z"/>
						<path class="st105" d="M337.7,241.8c3.4,0,6.2,2.8,6.2,6.2c0,3.4-2.8,6.2-6.2,6.2c-3.4,0-6.2-2.8-6.2-6.2
							C331.5,244.6,334.3,241.8,337.7,241.8z"/>
						<path class="st106" d="M337.7,241.8c3.4,0,6.2,2.8,6.2,6.2c0,3.4-2.8,6.2-6.2,6.2c-3.4,0-6.2-2.8-6.2-6.2
							C331.5,244.6,334.3,241.8,337.7,241.8z"/>
						<path class="st107" d="M337.7,241.8c3.4,0,6.2,2.8,6.2,6.2c0,3.4-2.8,6.2-6.2,6.2c-3.4,0-6.2-2.8-6.2-6.2
							C331.5,244.6,334.3,241.8,337.7,241.8z"/>
						<path class="st108" d="M337.7,241.8c3.4,0,6.2,2.8,6.2,6.2c0,3.4-2.8,6.2-6.2,6.2c-3.4,0-6.2-2.8-6.2-6.2
							C331.5,244.6,334.3,241.8,337.7,241.8z"/>
						<path class="st109" d="M337.7,241.8c3.4,0,6.2,2.8,6.2,6.2c0,3.4-2.8,6.2-6.2,6.2c-3.4,0-6.2-2.8-6.2-6.2
							C331.5,244.6,334.3,241.8,337.7,241.8z"/>
						<path class="st110" d="M337.7,241.8c3.4,0,6.2,2.8,6.2,6.2c0,3.4-2.8,6.2-6.2,6.2c-3.4,0-6.2-2.8-6.2-6.2
							C331.5,244.6,334.3,241.8,337.7,241.8z"/>
						<path class="st111" d="M337.8,241.8c3.4,0,6.2,2.8,6.2,6.2c0,3.4-2.8,6.2-6.2,6.2c-3.4,0-6.2-2.8-6.2-6.2
							C331.5,244.6,334.3,241.8,337.8,241.8z"/>
						<path class="st112" d="M337.8,241.8c3.4,0,6.2,2.8,6.2,6.2c0,3.4-2.8,6.2-6.2,6.2c-3.4,0-6.2-2.8-6.2-6.2
							C331.5,244.6,334.3,241.8,337.8,241.8z"/>
						<path class="st113" d="M337.8,241.8c3.4,0,6.2,2.8,6.2,6.2c0,3.4-2.8,6.2-6.2,6.2c-3.4,0-6.2-2.8-6.2-6.2
							C331.5,244.6,334.3,241.8,337.8,241.8z"/>
						<path class="st114" d="M337.8,241.8c3.4,0,6.2,2.8,6.2,6.2c0,3.4-2.8,6.2-6.2,6.2c-3.4,0-6.2-2.8-6.2-6.2
							C331.5,244.6,334.3,241.8,337.8,241.8z"/>
						<path class="st115" d="M337.8,241.8c3.4,0,6.2,2.8,6.2,6.2c0,3.4-2.8,6.2-6.2,6.2c-3.4,0-6.2-2.8-6.2-6.2
							C331.5,244.6,334.3,241.8,337.8,241.8z"/>
						<path class="st116" d="M337.8,241.8c3.4,0,6.2,2.8,6.2,6.2c0,3.4-2.8,6.2-6.2,6.2c-3.4,0-6.2-2.8-6.2-6.2
							C331.5,244.6,334.3,241.8,337.8,241.8z"/>
						<path class="st117" d="M337.8,241.8c3.4,0,6.2,2.8,6.2,6.2c0,3.4-2.8,6.2-6.2,6.2c-3.4,0-6.2-2.8-6.2-6.2
							C331.5,244.6,334.3,241.8,337.8,241.8z"/>
						<path class="st118" d="M337.8,241.8c3.4,0,6.2,2.8,6.2,6.2c0,3.4-2.8,6.2-6.2,6.2c-3.4,0-6.2-2.8-6.2-6.2
							C331.5,244.6,334.3,241.8,337.8,241.8z"/>
						<path class="st119" d="M337.8,241.8c3.4,0,6.2,2.8,6.2,6.2c0,3.4-2.8,6.2-6.2,6.2c-3.4,0-6.2-2.8-6.2-6.2
							C331.5,244.6,334.3,241.8,337.8,241.8z"/>
						<path class="st120" d="M337.8,241.8c3.4,0,6.2,2.8,6.2,6.2c0,3.4-2.8,6.2-6.2,6.2c-3.4,0-6.2-2.8-6.2-6.2
							C331.5,244.6,334.3,241.8,337.8,241.8z"/>
						<path class="st121" d="M337.8,241.8c3.4,0,6.2,2.8,6.2,6.2c0,3.4-2.8,6.2-6.2,6.2c-3.4,0-6.2-2.8-6.2-6.2
							C331.5,244.6,334.3,241.8,337.8,241.8z"/>
						<path class="st122" d="M337.8,241.8c3.4,0,6.2,2.8,6.2,6.2c0,3.4-2.8,6.2-6.2,6.2c-3.4,0-6.2-2.8-6.2-6.2
							C331.6,244.6,334.3,241.8,337.8,241.8z"/>
						<path class="st123" d="M337.8,241.8c3.4,0,6.2,2.8,6.2,6.2c0,3.4-2.8,6.2-6.2,6.2c-3.4,0-6.2-2.8-6.2-6.2
							C331.6,244.6,334.3,241.8,337.8,241.8z"/>
						<path class="st124" d="M337.8,241.9c3.4,0,6.2,2.8,6.2,6.2c0,3.4-2.8,6.2-6.2,6.2c-3.4,0-6.2-2.8-6.2-6.2
							C331.6,244.6,334.3,241.9,337.8,241.9z"/>
						<path class="st125" d="M337.8,241.9c3.4,0,6.2,2.8,6.2,6.2c0,3.4-2.8,6.2-6.2,6.2c-3.4,0-6.2-2.8-6.2-6.2
							C331.6,244.6,334.4,241.9,337.8,241.9z"/>
						<path class="st126" d="M337.8,241.9c3.4,0,6.2,2.8,6.2,6.2c0,3.4-2.8,6.2-6.2,6.2c-3.4,0-6.2-2.8-6.2-6.2
							C331.6,244.6,334.4,241.9,337.8,241.9z"/>
						<path class="st127" d="M337.8,241.9c3.4,0,6.2,2.8,6.2,6.2c0,3.4-2.8,6.2-6.2,6.2c-3.4,0-6.2-2.8-6.2-6.2
							C331.6,244.7,334.4,241.9,337.8,241.9z"/>
						<path class="st128" d="M337.8,241.9c3.4,0,6.2,2.8,6.2,6.2c0,3.4-2.8,6.2-6.2,6.2c-3.4,0-6.2-2.8-6.2-6.2
							C331.6,244.7,334.4,241.9,337.8,241.9z"/>
						<path class="st129" d="M337.8,241.9c3.4,0,6.2,2.8,6.2,6.2c0,3.4-2.8,6.2-6.2,6.2c-3.4,0-6.2-2.8-6.2-6.2
							C331.6,244.7,334.4,241.9,337.8,241.9z"/>
						<path class="st130" d="M337.8,241.9c3.4,0,6.2,2.8,6.2,6.2c0,3.4-2.8,6.2-6.2,6.2c-3.4,0-6.2-2.8-6.2-6.2
							C331.6,244.7,334.4,241.9,337.8,241.9z"/>
						<path class="st131" d="M337.8,241.9c3.4,0,6.2,2.8,6.2,6.2c0,3.4-2.8,6.2-6.2,6.2c-3.4,0-6.2-2.8-6.2-6.2
							C331.6,244.7,334.4,241.9,337.8,241.9z"/>
						<path class="st132" d="M337.8,241.9c3.4,0,6.2,2.8,6.2,6.2c0,3.4-2.8,6.2-6.2,6.2c-3.4,0-6.2-2.8-6.2-6.2
							C331.6,244.7,334.4,241.9,337.8,241.9z"/>
						<path class="st133" d="M337.8,241.9c3.4,0,6.2,2.8,6.2,6.2c0,3.4-2.8,6.2-6.2,6.2c-3.4,0-6.2-2.8-6.2-6.2
							C331.6,244.7,334.4,241.9,337.8,241.9z"/>
						<path class="st134" d="M337.8,241.9c3.4,0,6.2,2.8,6.2,6.2c0,3.4-2.8,6.2-6.2,6.2c-3.4,0-6.2-2.8-6.2-6.2
							C331.6,244.7,334.4,241.9,337.8,241.9z"/>
						<path class="st135" d="M337.8,241.9c3.4,0,6.2,2.8,6.2,6.2c0,3.4-2.8,6.2-6.2,6.2c-3.4,0-6.2-2.8-6.2-6.2
							C331.6,244.7,334.4,241.9,337.8,241.9z"/>
						<path class="st136" d="M337.8,241.9c3.4,0,6.2,2.8,6.2,6.2c0,3.4-2.8,6.2-6.2,6.2c-3.4,0-6.2-2.8-6.2-6.2
							C331.6,244.7,334.4,241.9,337.8,241.9z"/>
						<path class="st137" d="M337.8,241.9c3.4,0,6.2,2.8,6.2,6.2c0,3.4-2.8,6.2-6.2,6.2c-3.4,0-6.2-2.8-6.2-6.2
							C331.6,244.7,334.4,241.9,337.8,241.9z"/>
						<path class="st138" d="M337.8,241.9c3.4,0,6.2,2.8,6.2,6.2c0,3.4-2.8,6.2-6.2,6.2c-3.4,0-6.2-2.8-6.2-6.2
							C331.6,244.7,334.4,241.9,337.8,241.9z"/>
						<path class="st139" d="M337.8,241.9c3.4,0,6.2,2.8,6.2,6.2c0,3.4-2.8,6.2-6.2,6.2c-3.4,0-6.2-2.8-6.2-6.2
							C331.6,244.7,334.4,241.9,337.8,241.9z"/>
						<path class="st140" d="M337.8,241.9c3.4,0,6.2,2.8,6.2,6.2c0,3.4-2.8,6.2-6.2,6.2c-3.4,0-6.2-2.8-6.2-6.2
							C331.6,244.7,334.4,241.9,337.8,241.9z"/>
						<path class="st141" d="M337.8,241.9c3.4,0,6.2,2.8,6.2,6.2c0,3.4-2.8,6.2-6.2,6.2c-3.4,0-6.2-2.8-6.2-6.2
							C331.6,244.7,334.4,241.9,337.8,241.9z"/>
						<path class="st142" d="M337.8,241.9c3.4,0,6.2,2.8,6.2,6.2c0,3.4-2.8,6.2-6.2,6.2c-3.4,0-6.2-2.8-6.2-6.2
							C331.6,244.7,334.4,241.9,337.8,241.9z"/>
						<path class="st143" d="M337.8,241.9c3.4,0,6.2,2.8,6.2,6.2c0,3.4-2.8,6.2-6.2,6.2c-3.4,0-6.2-2.8-6.2-6.2
							C331.6,244.7,334.4,241.9,337.8,241.9z"/>
						<path class="st144" d="M337.8,241.9c3.4,0,6.2,2.8,6.2,6.2c0,3.4-2.8,6.2-6.2,6.2c-3.4,0-6.2-2.8-6.2-6.2
							C331.6,244.7,334.4,241.9,337.8,241.9z"/>
						<path class="st145" d="M337.9,241.9c3.4,0,6.2,2.8,6.2,6.2c0,3.4-2.8,6.2-6.2,6.2c-3.4,0-6.2-2.8-6.2-6.2
							C331.6,244.7,334.4,241.9,337.9,241.9z"/>
						<path class="st146" d="M337.9,241.9c3.4,0,6.2,2.8,6.2,6.2c0,3.4-2.8,6.2-6.2,6.2c-3.4,0-6.2-2.8-6.2-6.2
							C331.6,244.7,334.4,241.9,337.9,241.9z"/>
						<path class="st147" d="M337.9,241.9c3.4,0,6.2,2.8,6.2,6.2c0,3.4-2.8,6.2-6.2,6.2c-3.4,0-6.2-2.8-6.2-6.2
							C331.6,244.7,334.4,241.9,337.9,241.9z"/>
						<path class="st148" d="M337.9,241.9c3.4,0,6.2,2.8,6.2,6.2c0,3.4-2.8,6.2-6.2,6.2c-3.4,0-6.2-2.8-6.2-6.2
							C331.6,244.7,334.4,241.9,337.9,241.9z"/>
						<path class="st149" d="M337.9,241.9c3.4,0,6.2,2.8,6.2,6.2c0,3.4-2.8,6.2-6.2,6.2c-3.4,0-6.2-2.8-6.2-6.2
							C331.6,244.7,334.4,241.9,337.9,241.9z"/>
						<path class="st150" d="M337.9,241.9c3.4,0,6.2,2.8,6.2,6.2c0,3.4-2.8,6.2-6.2,6.2c-3.4,0-6.2-2.8-6.2-6.2
							C331.6,244.7,334.4,241.9,337.9,241.9z"/>
						<path class="st151" d="M337.9,241.9c3.4,0,6.2,2.8,6.2,6.2c0,3.4-2.8,6.2-6.2,6.2c-3.4,0-6.2-2.8-6.2-6.2
							C331.6,244.7,334.4,241.9,337.9,241.9z"/>
						<path class="st152" d="M337.9,242c3.4,0,6.2,2.8,6.2,6.2c0,3.4-2.8,6.2-6.2,6.2c-3.4,0-6.2-2.8-6.2-6.2
							C331.6,244.7,334.4,242,337.9,242z"/>
						<path class="st153" d="M337.9,242c3.4,0,6.2,2.8,6.2,6.2c0,3.4-2.8,6.2-6.2,6.2c-3.4,0-6.2-2.8-6.2-6.2
							C331.6,244.7,334.4,242,337.9,242z"/>
						<path class="st154" d="M337.9,242c3.4,0,6.2,2.8,6.2,6.2c0,3.4-2.8,6.2-6.2,6.2c-3.4,0-6.2-2.8-6.2-6.2
							C331.6,244.7,334.4,242,337.9,242z"/>
						<path class="st155" d="M337.9,242c3.4,0,6.2,2.8,6.2,6.2c0,3.4-2.8,6.2-6.2,6.2c-3.4,0-6.2-2.8-6.2-6.2
							C331.7,244.8,334.4,242,337.9,242z"/>
						<path class="st156" d="M337.9,242c3.4,0,6.2,2.8,6.2,6.2c0,3.4-2.8,6.2-6.2,6.2c-3.4,0-6.2-2.8-6.2-6.2
							C331.7,244.8,334.4,242,337.9,242z"/>
						<path class="st157" d="M337.9,242c3.4,0,6.2,2.8,6.2,6.2c0,3.4-2.8,6.2-6.2,6.2c-3.4,0-6.2-2.8-6.2-6.2
							C331.7,244.8,334.4,242,337.9,242z"/>
						<path class="st158" d="M337.9,242c3.4,0,6.2,2.8,6.2,6.2c0,3.4-2.8,6.2-6.2,6.2c-3.4,0-6.2-2.8-6.2-6.2
							C331.7,244.8,334.4,242,337.9,242z"/>
						<path class="st159" d="M337.9,242c3.4,0,6.2,2.8,6.2,6.2c0,3.4-2.8,6.2-6.2,6.2c-3.4,0-6.2-2.8-6.2-6.2
							C331.7,244.8,334.5,242,337.9,242z"/>
						<path class="st160" d="M337.9,242c3.4,0,6.2,2.8,6.2,6.2c0,3.4-2.8,6.2-6.2,6.2c-3.4,0-6.2-2.8-6.2-6.2
							C331.7,244.8,334.5,242,337.9,242z"/>
						<path class="st161" d="M337.9,242c3.4,0,6.2,2.8,6.2,6.2c0,3.4-2.8,6.2-6.2,6.2c-3.4,0-6.2-2.8-6.2-6.2
							C331.7,244.8,334.5,242,337.9,242z"/>
						<path class="st162" d="M337.9,242c3.4,0,6.2,2.8,6.2,6.2c0,3.4-2.8,6.2-6.2,6.2c-3.4,0-6.2-2.8-6.2-6.2
							C331.7,244.8,334.5,242,337.9,242z"/>
						<path class="st163" d="M337.9,242c3.4,0,6.2,2.8,6.2,6.2c0,3.4-2.8,6.2-6.2,6.2c-3.4,0-6.2-2.8-6.2-6.2
							C331.7,244.8,334.5,242,337.9,242z"/>
						<path class="st164" d="M337.9,242c3.4,0,6.2,2.8,6.2,6.2c0,3.4-2.8,6.2-6.2,6.2c-3.4,0-6.2-2.8-6.2-6.2
							C331.7,244.8,334.5,242,337.9,242z"/>
						<path class="st165" d="M337.9,242c3.4,0,6.2,2.8,6.2,6.2c0,3.4-2.8,6.2-6.2,6.2c-3.4,0-6.2-2.8-6.2-6.2
							C331.7,244.8,334.5,242,337.9,242z"/>
						<path class="st166" d="M337.9,242c3.4,0,6.2,2.8,6.2,6.2c0,3.4-2.8,6.2-6.2,6.2c-3.4,0-6.2-2.8-6.2-6.2
							C331.7,244.8,334.5,242,337.9,242z"/>
						<path class="st167" d="M337.9,242c3.4,0,6.2,2.8,6.2,6.2c0,3.4-2.8,6.2-6.2,6.2c-3.4,0-6.2-2.8-6.2-6.2
							C331.7,244.8,334.5,242,337.9,242z"/>
						<path class="st168" d="M337.9,242c3.4,0,6.2,2.8,6.2,6.2c0,3.4-2.8,6.2-6.2,6.2c-3.4,0-6.2-2.8-6.2-6.2
							C331.7,244.8,334.5,242,337.9,242z"/>
						<path class="st169" d="M337.9,242c3.4,0,6.2,2.8,6.2,6.2c0,3.4-2.8,6.2-6.2,6.2c-3.4,0-6.2-2.8-6.2-6.2
							C331.7,244.8,334.5,242,337.9,242z"/>
						<path class="st170" d="M337.9,242c3.4,0,6.2,2.8,6.2,6.2c0,3.4-2.8,6.2-6.2,6.2c-3.4,0-6.2-2.8-6.2-6.2
							C331.7,244.8,334.5,242,337.9,242z"/>
						<path class="st171" d="M337.9,242c3.4,0,6.2,2.8,6.2,6.2c0,3.4-2.8,6.2-6.2,6.2c-3.4,0-6.2-2.8-6.2-6.2
							C331.7,244.8,334.5,242,337.9,242z"/>
						<path class="st172" d="M337.9,242c3.4,0,6.2,2.8,6.2,6.2c0,3.4-2.8,6.2-6.2,6.2c-3.4,0-6.2-2.8-6.2-6.2
							C331.7,244.8,334.5,242,337.9,242z"/>
						<path class="st173" d="M337.9,242c3.4,0,6.2,2.8,6.2,6.2c0,3.4-2.8,6.2-6.2,6.2c-3.4,0-6.2-2.8-6.2-6.2
							C331.7,244.8,334.5,242,337.9,242z"/>
						<path class="st174" d="M337.9,242c3.4,0,6.2,2.8,6.2,6.2c0,3.4-2.8,6.2-6.2,6.2c-3.4,0-6.2-2.8-6.2-6.2
							C331.7,244.8,334.5,242,337.9,242z"/>
						<path class="st175" d="M337.9,242c3.4,0,6.2,2.8,6.2,6.2c0,3.4-2.8,6.2-6.2,6.2c-3.4,0-6.2-2.8-6.2-6.2
							C331.7,244.8,334.5,242,337.9,242z"/>
						<path class="st176" d="M337.9,242c3.4,0,6.2,2.8,6.2,6.2c0,3.4-2.8,6.2-6.2,6.2c-3.4,0-6.2-2.8-6.2-6.2
							C331.7,244.8,334.5,242,337.9,242z"/>
						<path class="st177" d="M337.9,242c3.4,0,6.2,2.8,6.2,6.2c0,3.4-2.8,6.2-6.2,6.2c-3.4,0-6.2-2.8-6.2-6.2
							C331.7,244.8,334.5,242,337.9,242z"/>
						<path class="st178" d="M338,242c3.4,0,6.2,2.8,6.2,6.2c0,3.4-2.8,6.2-6.2,6.2c-3.4,0-6.2-2.8-6.2-6.2
							C331.7,244.8,334.5,242,338,242z"/>
						<path class="st179" d="M338,242c3.4,0,6.2,2.8,6.2,6.2c0,3.4-2.8,6.2-6.2,6.2c-3.4,0-6.2-2.8-6.2-6.2
							C331.7,244.8,334.5,242,338,242z"/>
						<path class="st180" d="M338,242.1c3.4,0,6.2,2.8,6.2,6.2c0,3.4-2.8,6.2-6.2,6.2c-3.4,0-6.2-2.8-6.2-6.2
							C331.7,244.8,334.5,242.1,338,242.1z"/>
						<path class="st181" d="M338,242.1c3.4,0,6.2,2.8,6.2,6.2c0,3.4-2.8,6.2-6.2,6.2c-3.4,0-6.2-2.8-6.2-6.2
							C331.7,244.8,334.5,242.1,338,242.1z"/>
						<path class="st182" d="M338,242.1c3.4,0,6.2,2.8,6.2,6.2c0,3.4-2.8,6.2-6.2,6.2c-3.4,0-6.2-2.8-6.2-6.2
							C331.7,244.8,334.5,242.1,338,242.1z"/>
						<path class="st183" d="M338,242.1c3.4,0,6.2,2.8,6.2,6.2c0,3.4-2.8,6.2-6.2,6.2c-3.4,0-6.2-2.8-6.2-6.2
							C331.7,244.9,334.5,242.1,338,242.1z"/>
						<path class="st184" d="M338,242.1c3.4,0,6.2,2.8,6.2,6.2c0,3.4-2.8,6.2-6.2,6.2c-3.4,0-6.2-2.8-6.2-6.2
							C331.7,244.9,334.5,242.1,338,242.1z"/>
						<path class="st185" d="M338,242.1c3.4,0,6.2,2.8,6.2,6.2c0,3.4-2.8,6.2-6.2,6.2c-3.4,0-6.2-2.8-6.2-6.2
							C331.7,244.9,334.5,242.1,338,242.1z"/>
						<path class="st186" d="M338,242.1c3.4,0,6.2,2.8,6.2,6.2c0,3.4-2.8,6.2-6.2,6.2c-3.4,0-6.2-2.8-6.2-6.2
							C331.7,244.9,334.5,242.1,338,242.1z"/>
						<path class="st187" d="M338,242.1c3.4,0,6.2,2.8,6.2,6.2c0,3.4-2.8,6.2-6.2,6.2c-3.4,0-6.2-2.8-6.2-6.2
							C331.7,244.9,334.5,242.1,338,242.1z"/>
						<path class="st188" d="M338,242.1c3.4,0,6.2,2.8,6.2,6.2c0,3.4-2.8,6.2-6.2,6.2c-3.4,0-6.2-2.8-6.2-6.2
							C331.7,244.9,334.5,242.1,338,242.1z"/>
						<path class="st189" d="M338,242.1c3.4,0,6.2,2.8,6.2,6.2c0,3.4-2.8,6.2-6.2,6.2c-3.4,0-6.2-2.8-6.2-6.2
							C331.8,244.9,334.5,242.1,338,242.1z"/>
						<path class="st190" d="M338,242.1c3.4,0,6.2,2.8,6.2,6.2c0,3.4-2.8,6.2-6.2,6.2c-3.4,0-6.2-2.8-6.2-6.2
							C331.8,244.9,334.5,242.1,338,242.1z"/>
						<path class="st191" d="M338,242.1c3.4,0,6.2,2.8,6.2,6.2c0,3.4-2.8,6.2-6.2,6.2c-3.4,0-6.2-2.8-6.2-6.2
							C331.8,244.9,334.5,242.1,338,242.1z"/>
						<path class="st192" d="M338,242.1c3.4,0,6.2,2.8,6.2,6.2c0,3.4-2.8,6.2-6.2,6.2c-3.4,0-6.2-2.8-6.2-6.2
							C331.8,244.9,334.6,242.1,338,242.1z"/>
						<path class="st193" d="M338,242.1c3.4,0,6.2,2.8,6.2,6.2c0,3.4-2.8,6.2-6.2,6.2c-3.4,0-6.2-2.8-6.2-6.2
							C331.8,244.9,334.6,242.1,338,242.1z"/>
						<path class="st194" d="M338,242.1c3.4,0,6.2,2.8,6.2,6.2c0,3.4-2.8,6.2-6.2,6.2c-3.4,0-6.2-2.8-6.2-6.2
							C331.8,244.9,334.6,242.1,338,242.1z"/>
						<path class="st195" d="M338,242.1c3.4,0,6.2,2.8,6.2,6.2c0,3.4-2.8,6.2-6.2,6.2c-3.4,0-6.2-2.8-6.2-6.2
							C331.8,244.9,334.6,242.1,338,242.1z"/>
						<path class="st196" d="M338,242.1c3.4,0,6.2,2.8,6.2,6.2c0,3.4-2.8,6.2-6.2,6.2c-3.4,0-6.2-2.8-6.2-6.2
							C331.8,244.9,334.6,242.1,338,242.1z"/>
						<path class="st197" d="M338,242.1c3.4,0,6.2,2.8,6.2,6.2c0,3.4-2.8,6.2-6.2,6.2c-3.4,0-6.2-2.8-6.2-6.2
							C331.8,244.9,334.6,242.1,338,242.1z"/>
						<path class="st198" d="M338,242.1c3.4,0,6.2,2.8,6.2,6.2c0,3.4-2.8,6.2-6.2,6.2c-3.4,0-6.2-2.8-6.2-6.2
							C331.8,244.9,334.6,242.1,338,242.1z"/>
						<path class="st199" d="M338,242.1c3.4,0,6.2,2.8,6.2,6.2c0,3.4-2.8,6.2-6.2,6.2c-3.4,0-6.2-2.8-6.2-6.2
							C331.8,244.9,334.6,242.1,338,242.1z"/>
						<path class="st200" d="M338,242.1c3.4,0,6.2,2.8,6.2,6.2c0,3.4-2.8,6.2-6.2,6.2c-3.4,0-6.2-2.8-6.2-6.2
							C331.8,244.9,334.6,242.1,338,242.1z"/>
						<path class="st201" d="M338,242.1c3.4,0,6.2,2.8,6.2,6.2c0,3.4-2.8,6.2-6.2,6.2c-3.4,0-6.2-2.8-6.2-6.2
							C331.8,244.9,334.6,242.1,338,242.1z"/>
						<path class="st202" d="M338,242.1c3.4,0,6.2,2.8,6.2,6.2c0,3.4-2.8,6.2-6.2,6.2c-3.4,0-6.2-2.8-6.2-6.2
							C331.8,244.9,334.6,242.1,338,242.1z"/>
						<path class="st203" d="M338,242.1c3.4,0,6.2,2.8,6.2,6.2c0,3.4-2.8,6.2-6.2,6.2c-3.4,0-6.2-2.8-6.2-6.2
							C331.8,244.9,334.6,242.1,338,242.1z"/>
						<path class="st204" d="M338,242.1c3.4,0,6.2,2.8,6.2,6.2c0,3.4-2.8,6.2-6.2,6.2c-3.4,0-6.2-2.8-6.2-6.2
							C331.8,244.9,334.6,242.1,338,242.1z"/>
						<path class="st205" d="M338,242.1c3.4,0,6.2,2.8,6.2,6.2c0,3.4-2.8,6.2-6.2,6.2c-3.4,0-6.2-2.8-6.2-6.2
							C331.8,244.9,334.6,242.1,338,242.1z"/>
						<path class="st206" d="M338,242.1c3.4,0,6.2,2.8,6.2,6.2c0,3.4-2.8,6.2-6.2,6.2c-3.4,0-6.2-2.8-6.2-6.2
							C331.8,244.9,334.6,242.1,338,242.1z"/>
						<path class="st207" d="M338,242.1c3.4,0,6.2,2.8,6.2,6.2c0,3.4-2.8,6.2-6.2,6.2c-3.4,0-6.2-2.8-6.2-6.2
							C331.8,244.9,334.6,242.1,338,242.1z"/>
						<path class="st208" d="M338,242.2c3.4,0,6.2,2.8,6.2,6.2c0,3.4-2.8,6.2-6.2,6.2c-3.4,0-6.2-2.8-6.2-6.2
							C331.8,244.9,334.6,242.2,338,242.2z"/>
						<path class="st209" d="M338,242.2c3.4,0,6.2,2.8,6.2,6.2c0,3.4-2.8,6.2-6.2,6.2c-3.4,0-6.2-2.8-6.2-6.2
							C331.8,244.9,334.6,242.2,338,242.2z"/>
						<path class="st210" d="M338,242.2c3.4,0,6.2,2.8,6.2,6.2c0,3.4-2.8,6.2-6.2,6.2c-3.4,0-6.2-2.8-6.2-6.2
							C331.8,244.9,334.6,242.2,338,242.2z"/>
						<path class="st211" d="M338,242.2c3.4,0,6.2,2.8,6.2,6.2c0,3.4-2.8,6.2-6.2,6.2c-3.4,0-6.2-2.8-6.2-6.2
							C331.8,245,334.6,242.2,338,242.2z"/>
						<path class="st212" d="M338.1,242.2c3.4,0,6.2,2.8,6.2,6.2c0,3.4-2.8,6.2-6.2,6.2c-3.4,0-6.2-2.8-6.2-6.2
							C331.8,245,334.6,242.2,338.1,242.2z"/>
						<path class="st213" d="M338.1,242.2c3.4,0,6.2,2.8,6.2,6.2c0,3.4-2.8,6.2-6.2,6.2c-3.4,0-6.2-2.8-6.2-6.2
							C331.8,245,334.6,242.2,338.1,242.2z"/>
						<path class="st214" d="M338.1,242.2c3.4,0,6.2,2.8,6.2,6.2c0,3.4-2.8,6.2-6.2,6.2c-3.4,0-6.2-2.8-6.2-6.2
							C331.8,245,334.6,242.2,338.1,242.2z"/>
						<path class="st215" d="M338.1,242.2c3.4,0,6.2,2.8,6.2,6.2c0,3.4-2.8,6.2-6.2,6.2c-3.4,0-6.2-2.8-6.2-6.2
							C331.8,245,334.6,242.2,338.1,242.2z"/>
						<path class="st216" d="M338.1,242.2c3.4,0,6.2,2.8,6.2,6.2c0,3.4-2.8,6.2-6.2,6.2c-3.4,0-6.2-2.8-6.2-6.2
							C331.8,245,334.6,242.2,338.1,242.2z"/>
						<path class="st217" d="M338.1,242.2c3.4,0,6.2,2.8,6.2,6.2c0,3.4-2.8,6.2-6.2,6.2c-3.4,0-6.2-2.8-6.2-6.2
							C331.8,245,334.6,242.2,338.1,242.2z"/>
						<path id="XMLID_1_" class="st218" d="M344.3,248.4c0,3.4-2.8,6.2-6.2,6.2c-3.4,0-6.2-2.8-6.2-6.2c0-3.4,2.8-6.2,6.2-6.2
							C341.5,242.2,344.3,245,344.3,248.4z"/>
					</g>
				</g>
			</g>
			<g>
				<path class="st11" d="M371.6,241.4c0-0.2-0.1-0.3-0.4-0.3h-0.3v1h0.2v-0.4l0.3,0.4h0.3l-0.3-0.4
					C371.5,241.7,371.6,241.6,371.6,241.4z M371.1,241.6L371.1,241.6l0-0.3h0c0.1,0,0.2,0,0.2,0.1
					C371.3,241.5,371.2,241.6,371.1,241.6z"/>
				<path class="st11" d="M371.2,240.7c-0.5,0-0.9,0.4-0.9,0.9c0,0.5,0.4,0.9,0.9,0.9c0.5,0,0.9-0.4,0.9-0.9
					C372.1,241.1,371.7,240.7,371.2,240.7z M371.2,242.4c-0.4,0-0.7-0.3-0.7-0.7c0-0.4,0.3-0.7,0.7-0.7c0.4,0,0.7,0.3,0.7,0.7
					C371.9,242,371.6,242.4,371.2,242.4z"/>
			</g>
		</g>
	</g>
</g>
</svg>
