<?xml version="1.0" encoding="utf-8"?>
<!-- Generator: Adobe Illustrator 22.0.1, SVG Export Plug-In . SVG Version: 6.00 Build 0)  -->
<svg version="1.1" id="Layer_1" xmlns="http://www.w3.org/2000/svg" xmlns:xlink="http://www.w3.org/1999/xlink" x="0px" y="0px"
	 viewBox="0 0 18.6 17.9" style="enable-background:new 0 0 18.6 17.9;" xml:space="preserve">
<style type="text/css">
	.st0{fill:#FFDC45;}
	.st1{fill:#F7AA26;}
</style>
<g>
	<path class="st0" d="M14.2,17.5c-0.2,0-0.3,0-0.5-0.1l-4.3-2.2c0,0-0.1,0-0.1,0c0,0-0.1,0-0.1,0l-4.3,2.2c-0.2,0.1-0.3,0.1-0.5,0.1
		c-0.3,0-0.6-0.1-0.8-0.4c-0.2-0.2-0.3-0.5-0.2-0.8l0.8-4.8c0-0.1,0-0.2-0.1-0.3L0.7,7.9C0.4,7.6,0.3,7.2,0.4,6.8
		c0.1-0.4,0.4-0.6,0.8-0.7L6,5.4c0.1,0,0.2-0.1,0.2-0.2l2.1-4.3c0.2-0.4,0.5-0.6,0.9-0.6c0.4,0,0.8,0.2,0.9,0.6l2.1,4.3
		c0,0.1,0.1,0.1,0.2,0.2l4.8,0.7c0.4,0.1,0.7,0.3,0.8,0.7c0.1,0.4,0,0.8-0.3,1.1l-3.5,3.4c-0.1,0.1-0.1,0.2-0.1,0.3l0.8,4.8
		c0.1,0.3,0,0.6-0.2,0.8C14.8,17.4,14.5,17.5,14.2,17.5z"/>
	<path class="st1" d="M9.3,0.7c0.2,0,0.5,0.1,0.6,0.4l2.1,4.3c0.1,0.2,0.3,0.3,0.5,0.4l4.8,0.7c0.5,0.1,0.8,0.8,0.4,1.1L14.2,11
		c-0.2,0.2-0.2,0.4-0.2,0.6l0.8,4.8c0.1,0.4-0.3,0.8-0.7,0.8c-0.1,0-0.2,0-0.3-0.1l-4.3-2.2c-0.1-0.1-0.2-0.1-0.3-0.1
		s-0.2,0-0.3,0.1l-4.3,2.2c-0.1,0.1-0.2,0.1-0.3,0.1c-0.4,0-0.7-0.3-0.7-0.8l0.8-4.8c0-0.2,0-0.4-0.2-0.6L0.9,7.6
		C0.5,7.2,0.8,6.6,1.3,6.5l4.8-0.7c0.2,0,0.4-0.2,0.5-0.4l2.1-4.3C8.8,0.9,9.1,0.7,9.3,0.7 M9.3,0c-0.5,0-1,0.3-1.3,0.8L5.9,5.1
		L1.2,5.8c-0.5,0.1-1,0.4-1.1,1c-0.2,0.5,0,1.1,0.4,1.4l3.4,3.3L3,16.2c-0.1,0.4,0,0.8,0.3,1.1c0.3,0.3,0.7,0.5,1.1,0.5
		c0.2,0,0.5-0.1,0.7-0.2l4.2-2.2l4.2,2.2c0.2,0.1,0.4,0.2,0.7,0.2c0.4,0,0.8-0.2,1.1-0.5c0.3-0.3,0.4-0.7,0.3-1.1l-0.8-4.7l3.4-3.3
		c0.4-0.4,0.5-0.9,0.4-1.4s-0.6-0.9-1.1-1l-4.7-0.7l-2.1-4.3C10.3,0.3,9.9,0,9.3,0L9.3,0z"/>
</g>
</svg>
