<svg width="239" height="45" viewBox="0 0 239 45" fill="none" xmlns="http://www.w3.org/2000/svg">
<path d="M83.5696 29.4029H78.9097L64.5586 9.77321V29.4029H59.7336V1.89661H64.6823L78.7447 20.9902V1.89661H83.5696V29.4029Z" fill="#00ADF2"/>
<path d="M106.611 29.4029H102.281V27.2584C100.741 29.018 98.5968 29.8977 95.8475 29.8977C94.033 29.8977 92.4247 29.3204 91.0226 28.1657C89.6205 26.9835 88.9194 25.3615 88.9194 23.2995C88.9194 21.1826 89.6067 19.5743 90.9813 18.4746C92.3835 17.3749 94.0055 16.825 95.8475 16.825C98.6792 16.825 100.824 17.6773 102.281 19.3818V16.4126C102.281 15.258 101.855 14.3507 101.002 13.6909C100.15 13.0311 99.0229 12.7012 97.6208 12.7012C95.3939 12.7012 93.4282 13.5397 91.7236 15.2167L89.9504 12.2063C92.2048 10.0619 94.9953 8.98967 98.3218 8.98967C100.769 8.98967 102.762 9.56702 104.301 10.7217C105.841 11.8764 106.611 13.7046 106.611 16.2065V29.4029ZM97.5383 26.9285C99.7102 26.9285 101.291 26.2412 102.281 24.8666V21.8562C101.291 20.4815 99.7102 19.7942 97.5383 19.7942C96.3011 19.7942 95.2839 20.1241 94.4866 20.784C93.6894 21.4438 93.2907 22.3098 93.2907 23.382C93.2907 24.4542 93.6894 25.3202 94.4866 25.98C95.2839 26.6124 96.3011 26.9285 97.5383 26.9285Z" fill="#00ADF2"/>
<path d="M141.793 29.4029H137.463V16.4126C137.463 14.0208 136.377 12.8249 134.205 12.8249C133.298 12.8249 132.418 13.0861 131.566 13.6084C130.713 14.1308 130.054 14.7494 129.586 15.4642V29.4029H125.256V16.4126C125.256 14.0208 124.157 12.8249 121.957 12.8249C121.077 12.8249 120.211 13.0861 119.359 13.6084C118.534 14.1308 117.874 14.7631 117.38 15.5054V29.4029H113.05V9.48454H117.38V12.2063C117.874 11.464 118.727 10.7492 119.936 10.0619C121.174 9.34708 122.479 8.98967 123.854 8.98967C126.741 8.98967 128.555 10.2131 129.298 12.6599C129.93 11.6702 130.865 10.8179 132.102 10.1031C133.339 9.36082 134.659 8.98967 136.061 8.98967C139.882 8.98967 141.793 10.9966 141.793 15.0105V29.4029Z" fill="#00ADF2"/>
<path d="M157.423 29.8977C154.399 29.8977 151.897 28.9355 149.917 27.011C147.965 25.059 146.989 22.5297 146.989 19.4231C146.989 16.5089 147.938 14.0483 149.835 12.0413C151.759 10.0069 154.179 8.98967 157.093 8.98967C160.035 8.98967 162.399 10.0069 164.186 12.0413C166 14.0758 166.908 16.6738 166.908 19.8355V20.8664H151.526C151.691 22.4335 152.337 23.7394 153.464 24.7841C154.591 25.8288 156.062 26.3512 157.876 26.3512C158.894 26.3512 159.911 26.1587 160.928 25.7738C161.973 25.389 162.839 24.8528 163.526 24.1655L165.506 27.011C163.499 28.9355 160.804 29.8977 157.423 29.8977ZM162.701 17.8148C162.646 16.4401 162.138 15.2167 161.176 14.1445C160.241 13.0723 158.88 12.5362 157.093 12.5362C155.388 12.5362 154.055 13.0723 153.093 14.1445C152.13 15.1892 151.594 16.4126 151.484 17.8148H162.701Z" fill="#00ADF2"/>
<path fill-rule="evenodd" clip-rule="evenodd" d="M0 8.525C0 3.81677 4.81677 0 9.525 0H36.475C41.1832 0 45 3.81677 45 8.525V36.475C45 41.1832 41.1832 45 36.475 45H8.525C3.81677 45 0 41.1832 0 36.475V8.525ZM31 17C30.9948 17.9104 27.205 19 22.5 19C17.7918 19 14 17.9113 14 17V22C14 22.9235 17.7918 24 22.5 24C27.2082 24 31 22.9235 31 22V17ZM22.5 25C27.205 25 30.9948 23.9104 31 23V28C30.9999 28.9061 27.2082 30 22.5 30C17.7918 30 14.0001 28.9061 14 28V23C14 23.9113 17.7918 25 22.5 25ZM31 29C31 29.9061 27.2082 31 22.5 31C17.7918 31 14 29.9061 14 29V34C14 34.9061 17.7918 36 22.5 36C27.2082 36 31 34.9061 31 34V29ZM31 13L22.725 7.7L14 13V16C14 16.7594 17.7918 18 22.5 18C27.2082 18 31 16.7594 31 16V13Z" fill="#031B4E"/>
<path d="M62.7769 42.5918H60V35.1232H62.7769C63.934 35.1232 64.8745 35.4703 65.5986 36.1645C66.3227 36.8587 66.6848 37.7583 66.6848 38.8631C66.6848 39.9604 66.3227 40.8562 65.5986 41.5504C64.882 42.2446 63.9414 42.5918 62.7769 42.5918ZM62.7769 41.4384C63.5607 41.4384 64.184 41.1921 64.6469 40.6994C65.1097 40.2067 65.3411 39.5946 65.3411 38.8631C65.3411 38.1091 65.1134 37.4895 64.6581 37.0043C64.2102 36.5191 63.5831 36.2765 62.7769 36.2765H61.3101V41.4384H62.7769Z" fill="#00ADF2"/>
<path d="M70.693 42.7261C69.8569 42.7261 69.1851 42.4537 68.6775 41.9087C68.1698 41.3563 67.916 40.6808 67.916 39.882C67.916 39.0833 68.1698 38.4114 68.6775 37.8665C69.1851 37.3216 69.8569 37.0491 70.693 37.0491C71.5365 37.0491 72.2121 37.3216 72.7197 37.8665C73.2273 38.4114 73.4811 39.0833 73.4811 39.882C73.4811 40.6882 73.2273 41.3638 72.7197 41.9087C72.2121 42.4537 71.5365 42.7261 70.693 42.7261ZM70.693 41.6848C71.1782 41.6848 71.5589 41.5131 71.8351 41.1697C72.1188 40.8189 72.2606 40.3896 72.2606 39.882C72.2606 39.3819 72.1188 38.9601 71.8351 38.6167C71.5589 38.2659 71.1782 38.0904 70.693 38.0904C70.2152 38.0904 69.8345 38.2659 69.5508 38.6167C69.2746 38.9601 69.1365 39.3819 69.1365 39.882C69.1365 40.3896 69.2746 40.8189 69.5508 41.1697C69.8345 41.5131 70.2152 41.6848 70.693 41.6848Z" fill="#00ADF2"/>
<path d="M82.8111 42.5918H81.6354V39.0646C81.6354 38.4152 81.3406 38.0904 80.7508 38.0904C80.5045 38.0904 80.2656 38.1614 80.0342 38.3032C79.8028 38.445 79.6236 38.613 79.4967 38.8071V42.5918H78.321V39.0646C78.321 38.4152 78.0224 38.0904 77.4252 38.0904C77.1864 38.0904 76.9512 38.1614 76.7198 38.3032C76.4959 38.445 76.3167 38.6167 76.1823 38.8183V42.5918H75.0066V37.1835H76.1823V37.9225C76.3167 37.7209 76.5481 37.5269 76.8766 37.3402C77.2125 37.1461 77.5671 37.0491 77.9403 37.0491C78.7241 37.0491 79.2168 37.3813 79.4184 38.0457C79.59 37.7769 79.8439 37.5455 80.1798 37.3514C80.5157 37.1499 80.874 37.0491 81.2547 37.0491C82.2923 37.0491 82.8111 37.594 82.8111 38.6839V42.5918Z" fill="#00ADF2"/>
<path d="M89.1489 42.5918H87.9732V42.0095C87.5551 42.4872 86.9729 42.7261 86.2264 42.7261C85.7337 42.7261 85.297 42.5694 84.9163 42.2558C84.5356 41.9348 84.3452 41.4944 84.3452 40.9346C84.3452 40.3598 84.5319 39.9231 84.9051 39.6245C85.2858 39.3259 85.7262 39.1766 86.2264 39.1766C86.9953 39.1766 87.5775 39.408 87.9732 39.8708V39.0646C87.9732 38.7511 87.8575 38.5047 87.626 38.3256C87.3946 38.1464 87.0886 38.0569 86.7079 38.0569C86.1032 38.0569 85.5695 38.2845 85.1067 38.7399L84.6252 37.9225C85.2373 37.3402 85.995 37.0491 86.8982 37.0491C87.5626 37.0491 88.1038 37.2059 88.5218 37.5194C88.9399 37.8329 89.1489 38.3293 89.1489 39.0086V42.5918ZM86.6855 41.9199C87.2752 41.9199 87.7044 41.7333 87.9732 41.3601V40.5427C87.7044 40.1694 87.2752 39.9828 86.6855 39.9828C86.3496 39.9828 86.0734 40.0724 85.8569 40.2515C85.6404 40.4307 85.5322 40.6658 85.5322 40.957C85.5322 41.2481 85.6404 41.4832 85.8569 41.6624C86.0734 41.8341 86.3496 41.9199 86.6855 41.9199Z" fill="#00ADF2"/>
<path d="M91.5914 36.5228C91.3973 36.5228 91.2256 36.4519 91.0763 36.3101C90.9345 36.1682 90.8635 35.9966 90.8635 35.795C90.8635 35.5935 90.9345 35.4218 91.0763 35.2799C91.2256 35.1381 91.3973 35.0672 91.5914 35.0672C91.7929 35.0672 91.9646 35.1381 92.1064 35.2799C92.2483 35.4218 92.3192 35.5935 92.3192 35.795C92.3192 35.9966 92.2483 36.1682 92.1064 36.3101C91.9646 36.4519 91.7929 36.5228 91.5914 36.5228ZM92.1848 42.5918H91.0091V37.1835H92.1848V42.5918Z" fill="#00ADF2"/>
<path d="M98.872 42.5918H97.6962V39.2102C97.6962 38.4637 97.3342 38.0904 96.6101 38.0904C96.3264 38.0904 96.0614 38.1614 95.8151 38.3032C95.5688 38.445 95.3709 38.6167 95.2217 38.8183V42.5918H94.0459V37.1835H95.2217V37.9225C95.4232 37.6836 95.6919 37.4783 96.0279 37.3066C96.3638 37.1349 96.7296 37.0491 97.1252 37.0491C97.7 37.0491 98.1329 37.1984 98.4241 37.497C98.7227 37.7956 98.872 38.2248 98.872 38.7847V42.5918Z" fill="#00ADF2"/>
<path d="M102.583 42.7261C101.612 42.7261 100.84 42.4462 100.265 41.8863L100.802 41.0353C101.004 41.2443 101.276 41.4235 101.62 41.5728C101.963 41.7221 102.303 41.7967 102.639 41.7967C102.982 41.7967 103.243 41.7296 103.422 41.5952C103.609 41.4608 103.702 41.2854 103.702 41.0689C103.702 40.8748 103.59 40.7255 103.366 40.621C103.142 40.5091 102.87 40.4232 102.549 40.3635C102.228 40.2963 101.907 40.2179 101.586 40.1284C101.265 40.0313 100.993 39.8634 100.769 39.6245C100.545 39.3856 100.433 39.0758 100.433 38.6951C100.433 38.2323 100.623 37.8441 101.004 37.5306C101.384 37.2096 101.903 37.0491 102.56 37.0491C103.389 37.0491 104.09 37.3029 104.665 37.8105L104.173 38.6391C104.001 38.445 103.773 38.2883 103.49 38.1688C103.206 38.0494 102.9 37.9897 102.571 37.9897C102.265 37.9897 102.019 38.0531 101.832 38.18C101.653 38.2995 101.564 38.4562 101.564 38.6503C101.564 38.7996 101.642 38.9228 101.799 39.0198C101.963 39.1094 102.165 39.1766 102.403 39.2214C102.65 39.2662 102.915 39.3296 103.198 39.4117C103.482 39.4864 103.743 39.576 103.982 39.6805C104.229 39.785 104.43 39.9567 104.587 40.1955C104.751 40.4269 104.833 40.7106 104.833 41.0465C104.833 41.5392 104.635 41.9423 104.24 42.2558C103.844 42.5694 103.292 42.7261 102.583 42.7261Z" fill="#00ADF2"/>
<path d="M107.506 42.491C107.349 42.6403 107.166 42.7149 106.957 42.7149C106.748 42.7149 106.565 42.6403 106.408 42.491C106.252 42.3342 106.173 42.1476 106.173 41.9311C106.173 41.7146 106.252 41.5317 106.408 41.3824C106.565 41.2257 106.748 41.1473 106.957 41.1473C107.166 41.1473 107.349 41.2257 107.506 41.3824C107.663 41.5317 107.741 41.7146 107.741 41.9311C107.741 42.1476 107.663 42.3342 107.506 42.491Z" fill="#00ADF2"/>
<path d="M116.262 42.7261C115.142 42.7261 114.209 42.3678 113.462 41.6512C112.716 40.9271 112.342 39.9977 112.342 38.8631C112.342 37.7284 112.716 36.8028 113.462 36.0861C114.209 35.362 115.142 35 116.262 35C117.56 35 118.561 35.5599 119.262 36.6796L118.143 37.2507C117.956 36.9297 117.691 36.6684 117.348 36.4668C117.012 36.2653 116.65 36.1645 116.262 36.1645C115.522 36.1645 114.907 36.4183 114.414 36.9259C113.929 37.4335 113.686 38.0793 113.686 38.8631C113.686 39.6469 113.929 40.2926 114.414 40.8002C114.907 41.3078 115.522 41.5616 116.262 41.5616C116.657 41.5616 117.023 41.4608 117.359 41.2593C117.695 41.0577 117.956 40.7965 118.143 40.4755L119.262 41.0465C118.546 42.1663 117.545 42.7261 116.262 42.7261Z" fill="#00ADF2"/>
<path d="M125.45 42.5918H124.275V39.1878C124.275 38.7921 124.178 38.5122 123.984 38.348C123.797 38.1763 123.528 38.0904 123.177 38.0904C122.901 38.0904 122.64 38.1614 122.394 38.3032C122.147 38.445 121.946 38.6167 121.789 38.8183V42.5918H120.613V35.1232H121.789V37.9225C121.99 37.6836 122.259 37.4783 122.595 37.3066C122.939 37.1349 123.308 37.0491 123.704 37.0491C124.868 37.0491 125.45 37.6202 125.45 38.7623V42.5918Z" fill="#00ADF2"/>
<path d="M129.81 42.7261C128.989 42.7261 128.31 42.4649 127.772 41.9423C127.242 41.4123 126.977 40.7255 126.977 39.882C126.977 39.0907 127.235 38.4226 127.75 37.8777C128.272 37.3253 128.929 37.0491 129.721 37.0491C130.519 37.0491 131.161 37.3253 131.647 37.8777C132.139 38.4301 132.386 39.1355 132.386 39.994V40.2739H128.209C128.254 40.6994 128.429 41.054 128.735 41.3377C129.041 41.6213 129.441 41.7632 129.933 41.7632C130.21 41.7632 130.486 41.7109 130.762 41.6064C131.046 41.5019 131.281 41.3563 131.467 41.1697L132.005 41.9423C131.46 42.4649 130.728 42.7261 129.81 42.7261ZM131.243 39.4453C131.229 39.0721 131.09 38.7399 130.829 38.4488C130.575 38.1576 130.206 38.0121 129.721 38.0121C129.258 38.0121 128.896 38.1576 128.635 38.4488C128.373 38.7324 128.228 39.0646 128.198 39.4453H131.243Z" fill="#00ADF2"/>
<path d="M138.361 42.5918H137.185V42.0095C136.767 42.4872 136.185 42.7261 135.438 42.7261C134.946 42.7261 134.509 42.5694 134.128 42.2558C133.748 41.9348 133.557 41.4944 133.557 40.9346C133.557 40.3598 133.744 39.9231 134.117 39.6245C134.498 39.3259 134.938 39.1766 135.438 39.1766C136.207 39.1766 136.79 39.408 137.185 39.8708V39.0646C137.185 38.7511 137.069 38.5047 136.838 38.3256C136.607 38.1464 136.301 38.0569 135.92 38.0569C135.315 38.0569 134.782 38.2845 134.319 38.7399L133.837 37.9225C134.449 37.3402 135.207 37.0491 136.11 37.0491C136.775 37.0491 137.316 37.2059 137.734 37.5194C138.152 37.8329 138.361 38.3293 138.361 39.0086V42.5918ZM135.898 41.9199C136.487 41.9199 136.916 41.7333 137.185 41.3601V40.5427C136.916 40.1694 136.487 39.9828 135.898 39.9828C135.562 39.9828 135.285 40.0724 135.069 40.2515C134.852 40.4307 134.744 40.6658 134.744 40.957C134.744 41.2481 134.852 41.4832 135.069 41.6624C135.285 41.8341 135.562 41.9199 135.898 41.9199Z" fill="#00ADF2"/>
<path d="M143.132 42.7261C142.416 42.7261 141.837 42.4313 141.397 41.8415V44.6521H140.221V37.1835H141.397V37.9225C141.83 37.3402 142.408 37.0491 143.132 37.0491C143.842 37.0491 144.416 37.3029 144.857 37.8105C145.305 38.3181 145.529 39.0086 145.529 39.882C145.529 40.7554 145.305 41.4496 144.857 41.9647C144.416 42.4723 143.842 42.7261 143.132 42.7261ZM142.785 41.6848C143.248 41.6848 143.618 41.5168 143.894 41.1809C144.17 40.845 144.308 40.412 144.308 39.882C144.308 39.352 144.17 38.9228 143.894 38.5943C143.618 38.2584 143.248 38.0904 142.785 38.0904C142.517 38.0904 142.252 38.1614 141.99 38.3032C141.729 38.445 141.531 38.6167 141.397 38.8183V40.957C141.531 41.1585 141.729 41.3302 141.99 41.472C142.252 41.6139 142.517 41.6848 142.785 41.6848Z" fill="#00ADF2"/>
<path d="M148.431 42.1663C148.431 42.5395 148.334 42.8941 148.14 43.23C147.954 43.5734 147.7 43.857 147.379 44.081L146.853 43.6443C147.039 43.5323 147.211 43.3756 147.368 43.174C147.524 42.9725 147.622 42.7784 147.659 42.5918C147.592 42.6142 147.528 42.6253 147.468 42.6253C147.274 42.6253 147.114 42.5619 146.987 42.435C146.86 42.3006 146.797 42.1289 146.797 41.9199C146.797 41.7109 146.871 41.5317 147.021 41.3824C147.17 41.2257 147.349 41.1473 147.558 41.1473C147.797 41.1473 148.002 41.2406 148.174 41.4272C148.346 41.6064 148.431 41.8527 148.431 42.1663Z" fill="#00ADF2"/>
<path d="M155.765 42.7261C154.944 42.7261 154.265 42.4649 153.727 41.9423C153.197 41.4123 152.932 40.7255 152.932 39.882C152.932 39.0907 153.19 38.4226 153.705 37.8777C154.227 37.3253 154.884 37.0491 155.676 37.0491C156.474 37.0491 157.116 37.3253 157.602 37.8777C158.094 38.4301 158.341 39.1355 158.341 39.994V40.2739H154.164C154.209 40.6994 154.384 41.054 154.69 41.3377C154.996 41.6213 155.396 41.7632 155.888 41.7632C156.165 41.7632 156.441 41.7109 156.717 41.6064C157.001 41.5019 157.236 41.3563 157.422 41.1697L157.96 41.9423C157.415 42.4649 156.683 42.7261 155.765 42.7261ZM157.198 39.4453C157.183 39.0721 157.045 38.7399 156.784 38.4488C156.53 38.1576 156.161 38.0121 155.676 38.0121C155.213 38.0121 154.851 38.1576 154.589 38.4488C154.328 38.7324 154.183 39.0646 154.153 39.4453H157.198Z" fill="#00ADF2"/>
<path d="M164.316 42.5918H163.14V42.0095C162.722 42.4872 162.14 42.7261 161.393 42.7261C160.901 42.7261 160.464 42.5694 160.083 42.2558C159.703 41.9348 159.512 41.4944 159.512 40.9346C159.512 40.3598 159.699 39.9231 160.072 39.6245C160.453 39.3259 160.893 39.1766 161.393 39.1766C162.162 39.1766 162.744 39.408 163.14 39.8708V39.0646C163.14 38.7511 163.024 38.5047 162.793 38.3256C162.562 38.1464 162.256 38.0569 161.875 38.0569C161.27 38.0569 160.736 38.2845 160.274 38.7399L159.792 37.9225C160.404 37.3402 161.162 37.0491 162.065 37.0491C162.73 37.0491 163.271 37.2059 163.689 37.5194C164.107 37.8329 164.316 38.3293 164.316 39.0086V42.5918ZM161.852 41.9199C162.442 41.9199 162.871 41.7333 163.14 41.3601V40.5427C162.871 40.1694 162.442 39.9828 161.852 39.9828C161.517 39.9828 161.24 40.0724 161.024 40.2515C160.807 40.4307 160.699 40.6658 160.699 40.957C160.699 41.2481 160.807 41.4832 161.024 41.6624C161.24 41.8341 161.517 41.9199 161.852 41.9199Z" fill="#00ADF2"/>
<path d="M168.024 42.7261C167.053 42.7261 166.281 42.4462 165.706 41.8863L166.243 41.0353C166.445 41.2443 166.717 41.4235 167.061 41.5728C167.404 41.7221 167.744 41.7967 168.08 41.7967C168.423 41.7967 168.684 41.7296 168.863 41.5952C169.05 41.4608 169.143 41.2854 169.143 41.0689C169.143 40.8748 169.031 40.7255 168.807 40.621C168.584 40.5091 168.311 40.4232 167.99 40.3635C167.669 40.2963 167.348 40.2179 167.027 40.1284C166.706 40.0313 166.434 39.8634 166.21 39.6245C165.986 39.3856 165.874 39.0758 165.874 38.6951C165.874 38.2323 166.064 37.8441 166.445 37.5306C166.826 37.2096 167.344 37.0491 168.001 37.0491C168.83 37.0491 169.532 37.3029 170.106 37.8105L169.614 38.6391C169.442 38.445 169.214 38.2883 168.931 38.1688C168.647 38.0494 168.341 37.9897 168.012 37.9897C167.706 37.9897 167.46 38.0531 167.273 38.18C167.094 38.2995 167.005 38.4562 167.005 38.6503C167.005 38.7996 167.083 38.9228 167.24 39.0198C167.404 39.1094 167.606 39.1766 167.844 39.2214C168.091 39.2662 168.356 39.3296 168.639 39.4117C168.923 39.4864 169.184 39.576 169.423 39.6805C169.67 39.785 169.871 39.9567 170.028 40.1955C170.192 40.4269 170.274 40.7106 170.274 41.0465C170.274 41.5392 170.076 41.9423 169.681 42.2558C169.285 42.5694 168.733 42.7261 168.024 42.7261Z" fill="#00ADF2"/>
<path d="M171.558 44.708L171.738 43.6555C171.872 43.7152 172.021 43.7451 172.185 43.7451C172.566 43.7451 172.824 43.5883 172.958 43.2748L173.227 42.6589L171.01 37.1835H172.264L173.843 41.2369L175.421 37.1835H176.687L174.078 43.5659C173.757 44.3647 173.137 44.7715 172.219 44.7864C171.973 44.7864 171.752 44.7603 171.558 44.708Z" fill="#00ADF2"/>
<path d="M185.452 42.5918H184.276V42.0095C183.858 42.4872 183.276 42.7261 182.529 42.7261C182.036 42.7261 181.6 42.5694 181.219 42.2558C180.838 41.9348 180.648 41.4944 180.648 40.9346C180.648 40.3598 180.835 39.9231 181.208 39.6245C181.589 39.3259 182.029 39.1766 182.529 39.1766C183.298 39.1766 183.88 39.408 184.276 39.8708V39.0646C184.276 38.7511 184.16 38.5047 183.929 38.3256C183.697 38.1464 183.391 38.0569 183.011 38.0569C182.406 38.0569 181.872 38.2845 181.409 38.7399L180.928 37.9225C181.54 37.3402 182.298 37.0491 183.201 37.0491C183.865 37.0491 184.407 37.2059 184.825 37.5194C185.243 37.8329 185.452 38.3293 185.452 39.0086V42.5918ZM182.988 41.9199C183.578 41.9199 184.007 41.7333 184.276 41.3601V40.5427C184.007 40.1694 183.578 39.9828 182.988 39.9828C182.652 39.9828 182.376 40.0724 182.16 40.2515C181.943 40.4307 181.835 40.6658 181.835 40.957C181.835 41.2481 181.943 41.4832 182.16 41.6624C182.376 41.8341 182.652 41.9199 182.988 41.9199Z" fill="#00ADF2"/>
<path d="M192.138 42.5918H190.962V39.2102C190.962 38.4637 190.6 38.0904 189.876 38.0904C189.592 38.0904 189.327 38.1614 189.081 38.3032C188.835 38.445 188.637 38.6167 188.488 38.8183V42.5918H187.312V37.1835H188.488V37.9225C188.689 37.6836 188.958 37.4783 189.294 37.3066C189.63 37.1349 189.995 37.0491 190.391 37.0491C190.966 37.0491 191.399 37.1984 191.69 37.497C191.989 37.7956 192.138 38.2248 192.138 38.7847V42.5918Z" fill="#00ADF2"/>
<path d="M198.984 42.5918H197.808V41.8527C197.36 42.435 196.782 42.7261 196.072 42.7261C195.363 42.7261 194.785 42.4723 194.337 41.9647C193.889 41.4571 193.665 40.7666 193.665 39.8932C193.665 39.0273 193.889 38.3368 194.337 37.8217C194.785 37.3066 195.363 37.0491 196.072 37.0491C196.782 37.0491 197.36 37.344 197.808 37.9337V35.1232H198.984V42.5918ZM196.408 41.6848C196.684 41.6848 196.953 41.6176 197.215 41.4832C197.476 41.3489 197.674 41.1772 197.808 40.9682V38.8183C197.674 38.6093 197.476 38.4376 197.215 38.3032C196.953 38.1614 196.684 38.0904 196.408 38.0904C195.945 38.0904 195.576 38.2584 195.3 38.5943C195.024 38.9302 194.885 39.3632 194.885 39.8932C194.885 40.4232 195.024 40.8562 195.3 41.1921C195.576 41.5205 195.945 41.6848 196.408 41.6848Z" fill="#00ADF2"/>
<path d="M205.902 42.7261C204.932 42.7261 204.159 42.4462 203.585 41.8863L204.122 41.0353C204.324 41.2443 204.596 41.4235 204.939 41.5728C205.283 41.7221 205.622 41.7967 205.958 41.7967C206.302 41.7967 206.563 41.7296 206.742 41.5952C206.929 41.4608 207.022 41.2854 207.022 41.0689C207.022 40.8748 206.91 40.7255 206.686 40.621C206.462 40.5091 206.19 40.4232 205.869 40.3635C205.548 40.2963 205.227 40.2179 204.906 40.1284C204.585 40.0313 204.312 39.8634 204.088 39.6245C203.864 39.3856 203.752 39.0758 203.752 38.6951C203.752 38.2323 203.943 37.8441 204.324 37.5306C204.704 37.2096 205.223 37.0491 205.88 37.0491C206.709 37.0491 207.41 37.3029 207.985 37.8105L207.492 38.6391C207.321 38.445 207.093 38.2883 206.809 38.1688C206.526 38.0494 206.22 37.9897 205.891 37.9897C205.585 37.9897 205.339 38.0531 205.152 38.18C204.973 38.2995 204.883 38.4562 204.883 38.6503C204.883 38.7996 204.962 38.9228 205.119 39.0198C205.283 39.1094 205.484 39.1766 205.723 39.2214C205.97 39.2662 206.235 39.3296 206.518 39.4117C206.802 39.4864 207.063 39.576 207.302 39.6805C207.548 39.785 207.75 39.9567 207.907 40.1955C208.071 40.4269 208.153 40.7106 208.153 41.0465C208.153 41.5392 207.955 41.9423 207.56 42.2558C207.164 42.5694 206.612 42.7261 205.902 42.7261Z" fill="#00ADF2"/>
<path d="M212.169 42.7261C211.348 42.7261 210.669 42.4649 210.131 41.9423C209.601 41.4123 209.336 40.7255 209.336 39.882C209.336 39.0907 209.594 38.4226 210.109 37.8777C210.631 37.3253 211.288 37.0491 212.08 37.0491C212.878 37.0491 213.52 37.3253 214.006 37.8777C214.498 38.4301 214.745 39.1355 214.745 39.994V40.2739H210.568C210.613 40.6994 210.788 41.054 211.094 41.3377C211.4 41.6213 211.8 41.7632 212.292 41.7632C212.569 41.7632 212.845 41.7109 213.121 41.6064C213.405 41.5019 213.64 41.3563 213.826 41.1697L214.364 41.9423C213.819 42.4649 213.087 42.7261 212.169 42.7261ZM213.603 39.4453C213.588 39.0721 213.449 38.7399 213.188 38.4488C212.934 38.1576 212.565 38.0121 212.08 38.0121C211.617 38.0121 211.255 38.1576 210.994 38.4488C210.732 38.7324 210.587 39.0646 210.557 39.4453H213.603Z" fill="#00ADF2"/>
<path d="M218.704 42.7261C217.883 42.7261 217.211 42.4611 216.689 41.9311C216.166 41.3936 215.905 40.7106 215.905 39.882C215.905 39.0609 216.166 38.3853 216.689 37.8553C217.211 37.3178 217.883 37.0491 218.704 37.0491C219.608 37.0491 220.298 37.3701 220.776 38.0121L220.003 38.7287C219.705 38.3032 219.29 38.0904 218.76 38.0904C218.268 38.0904 217.872 38.2584 217.574 38.5943C217.275 38.9228 217.126 39.352 217.126 39.882C217.126 40.412 217.275 40.845 217.574 41.1809C217.872 41.5168 218.268 41.6848 218.76 41.6848C219.276 41.6848 219.69 41.472 220.003 41.0465L220.776 41.7632C220.298 42.4051 219.608 42.7261 218.704 42.7261Z" fill="#00ADF2"/>
<path d="M226.969 42.5918H225.793V41.8751C225.285 42.4425 224.647 42.7261 223.878 42.7261C222.721 42.7261 222.143 42.1551 222.143 41.0129V37.1835H223.319V40.5874C223.319 40.9831 223.412 41.2667 223.598 41.4384C223.785 41.6027 224.054 41.6848 224.405 41.6848C224.688 41.6848 224.953 41.6176 225.2 41.4832C225.446 41.3489 225.644 41.1809 225.793 40.9793V37.1835H226.969V42.5918Z" fill="#00ADF2"/>
<path d="M230.008 42.5918H228.832V37.1835H230.008V37.9785C230.217 37.7097 230.478 37.4895 230.791 37.3178C231.105 37.1461 231.43 37.0603 231.766 37.0603V38.2248C231.661 38.2024 231.538 38.1912 231.396 38.1912C231.15 38.1912 230.885 38.2659 230.601 38.4152C230.325 38.557 230.127 38.7212 230.008 38.9079V42.5918Z" fill="#00ADF2"/>
<path d="M235.547 42.7261C234.726 42.7261 234.046 42.4649 233.509 41.9423C232.979 41.4123 232.714 40.7255 232.714 39.882C232.714 39.0907 232.971 38.4226 233.486 37.8777C234.009 37.3253 234.666 37.0491 235.457 37.0491C236.256 37.0491 236.898 37.3253 237.383 37.8777C237.876 38.4301 238.122 39.1355 238.122 39.994V40.2739H233.945C233.99 40.6994 234.166 41.054 234.472 41.3377C234.778 41.6213 235.177 41.7632 235.67 41.7632C235.946 41.7632 236.222 41.7109 236.498 41.6064C236.782 41.5019 237.017 41.3563 237.204 41.1697L237.741 41.9423C237.196 42.4649 236.465 42.7261 235.547 42.7261ZM236.98 39.4453C236.965 39.0721 236.827 38.7399 236.566 38.4488C236.312 38.1576 235.942 38.0121 235.457 38.0121C234.994 38.0121 234.632 38.1576 234.371 38.4488C234.11 38.7324 233.964 39.0646 233.934 39.4453H236.98Z" fill="#00ADF2"/>
<path d="M181.382 29.8977C176.653 29.8977 172.928 28.4406 170.206 25.5264L172.887 21.8149C175.251 24.3442 178.152 25.6089 181.588 25.6089C183.43 25.6089 184.805 25.2377 185.712 24.4954C186.647 23.7531 187.114 22.8734 187.114 21.8561C187.114 20.8114 186.564 19.9866 185.465 19.3818C184.365 18.7495 183.032 18.2546 181.464 17.8972C179.897 17.5398 178.317 17.1137 176.722 16.6188C175.155 16.124 173.822 15.2854 172.722 14.1033C171.622 12.9211 171.072 11.3952 171.072 9.52575C171.072 7.21638 171.993 5.30565 173.835 3.79356C175.705 2.25398 178.124 1.48419 181.093 1.48419C185.327 1.48419 188.764 2.76259 191.403 5.3194L188.64 8.90717C186.551 6.81774 183.898 5.77302 180.681 5.77302C179.251 5.77302 178.11 6.08919 177.258 6.72152C176.433 7.32635 176.021 8.15113 176.021 9.19584C176.021 9.88315 176.31 10.4605 176.887 10.9279C177.492 11.3952 178.262 11.7801 179.196 12.0826C180.131 12.3575 181.162 12.6324 182.289 12.9073C183.444 13.1823 184.585 13.5259 185.712 13.9383C186.867 14.3232 187.911 14.8043 188.846 15.3817C189.781 15.959 190.537 16.7563 191.114 17.7735C191.719 18.7907 192.022 20.0004 192.022 21.4025C192.022 23.8768 191.128 25.9113 189.341 27.5058C187.554 29.1004 184.901 29.8977 181.382 29.8977Z" fill="#031B4E"/>
<path d="M199.311 7.05142C198.596 7.05142 197.963 6.79024 197.414 6.26789C196.891 5.74553 196.63 5.1132 196.63 4.3709C196.63 3.62861 196.891 2.99628 197.414 2.47392C197.963 1.95156 198.596 1.69039 199.311 1.69039C200.053 1.69039 200.685 1.95156 201.208 2.47392C201.73 2.99628 201.991 3.62861 201.991 4.3709C201.991 5.1132 201.73 5.74553 201.208 6.26789C200.685 6.79024 200.053 7.05142 199.311 7.05142ZM201.496 29.4028H197.166V9.48451H201.496V29.4028Z" fill="#031B4E"/>
<path d="M212.268 29.4028H207.938V1.89658H212.268V29.4028Z" fill="#031B4E"/>
<path d="M227.7 29.8977C224.621 29.8977 222.147 28.8942 220.277 26.8873C218.408 24.8528 217.473 22.3647 217.473 19.4231C217.473 16.4814 218.408 14.007 220.277 12.0001C222.147 9.99312 224.621 8.98965 227.7 8.98965C230.807 8.98965 233.295 9.99312 235.164 12.0001C237.034 14.007 237.969 16.4814 237.969 19.4231C237.969 22.3922 237.034 24.8803 235.164 26.8873C233.295 28.8942 230.807 29.8977 227.7 29.8977ZM227.7 26.0625C229.487 26.0625 230.889 25.4302 231.907 24.1655C232.951 22.8734 233.474 21.2925 233.474 19.4231C233.474 17.5811 232.951 16.0277 231.907 14.7631C230.889 13.4709 229.487 12.8249 227.7 12.8249C225.941 12.8249 224.539 13.4709 223.494 14.7631C222.477 16.0277 221.968 17.5811 221.968 19.4231C221.968 21.2925 222.477 22.8734 223.494 24.1655C224.539 25.4302 225.941 26.0625 227.7 26.0625Z" fill="#031B4E"/>
</svg>
