<?xml version="1.0" encoding="utf-8"?>
<!-- Generator: Adobe Illustrator 22.0.1, SVG Export Plug-In . SVG Version: 6.00 Build 0)  -->
<svg version="1.1" id="layer_1" xmlns="http://www.w3.org/2000/svg" xmlns:xlink="http://www.w3.org/1999/xlink" x="0px" y="0px"
	 viewBox="0 0 37.6 32" style="enable-background:new 0 0 37.6 32;" xml:space="preserve">
<style type="text/css">
	.st0{fill:#031B4E;}
</style>
<g>
	<path class="st0" d="M7.7,14.9c0.3-0.3,0.3-0.8,0-1.1c-0.3-0.3-0.8-0.3-1.1,0l-2,2C4.7,7.9,11,1.5,18.8,1.5
		c5.5,0,10.3,3.2,12.7,7.9c0.4,0.8,1.3,1.4,2.2,1.4C31.6,4.5,25.7,0,18.8,0C10.2,0,3.2,7,3.1,15.8l-1.8-1.9c-0.3-0.3-0.8-0.3-1.1,0
		c-0.3,0.3-0.3,0.8,0,1.1l3.7,3.8L7.7,14.9z"/>
	<path class="st0" d="M37.4,17.1l-3.7-3.8l-3.8,3.8c-0.3,0.3-0.3,0.8,0,1.1c0.1,0.2,0.3,0.2,0.5,0.2c0.2,0,0.4-0.1,0.5-0.2l2.1-2.2
		c0,8-6.4,14.4-14.2,14.4c-5.7,0-10.5-3.4-12.8-8.2c-0.4-0.9-1.2-1.4-2.2-1.4c2,6.5,8,11.2,15,11.2c8.6,0,15.6-7,15.7-15.7l1.7,1.8
		c0.3,0.3,0.8,0.3,1.1,0C37.6,17.8,37.6,17.4,37.4,17.1z"/>
	<path class="st0" d="M18.7,26.1c0.5,0,0.8-0.4,0.8-0.9V24c2.2-0.4,4-2.2,4-4.4c0-2.2-1.3-4.5-4.8-4.5c-2.6,0-3.1-1.5-3.1-2.8
		c0-1.5,1.4-2.8,3.1-2.8c1.3,0,2.5,0.7,2.9,1.8c0.2,0.4,0.7,0.6,1.1,0.5c0.4-0.2,0.6-0.7,0.5-1.1c-0.6-1.5-2-2.5-3.6-2.8V6.6
		c0-0.5-0.4-0.9-0.8-0.9c-0.5,0-0.8,0.4-0.8,0.9v1.2c-2.2,0.4-3.9,2.2-3.9,4.4c0,2.2,1.3,4.5,4.8,4.5c2.6,0,3.1,1.5,3.1,2.8
		c0,1.5-1.4,2.8-3.1,2.8c-1.3,0-2.5-0.7-2.9-1.8c-0.2-0.4-0.7-0.6-1.1-0.5c-0.4,0.2-0.6,0.7-0.5,1.1c0.6,1.5,2,2.5,3.6,2.8v1.2
		C17.9,25.7,18.2,26.1,18.7,26.1z"/>
</g>
</svg>
